<svg xmlns="http://www.w3.org/2000/svg" width="63.767" height="56.097"><g fill="#fff"><path data-name="Tracé 6" d="M.103 27.285l-.1.016v-1.275h.08a1.768 1.768 0 01.02 1.259z"/><path data-name="Tracé 7" d="M0 24.073l.1.011a1.761 1.761 0 01-.009 1.259l-.086.005z"/><path data-name="Tracé 8" d="M.095 31.116l-.095.01v-1.275h.081a1.716 1.716 0 01.014 1.265z"/><path data-name="Tracé 9" d="M0 27.902l.1.011a1.752 1.752 0 01-.009 1.259l-.086.005z"/><path data-name="Tracé 10" d="M0 31.801h.08a1.331 1.331 0 01.081 1.119c-.186-.133 0-.382-.16-.521z"/><path data-name="Tracé 20" d="M16.861 23.681a8.306 8.306 0 01-7.768 8.256c-.231.017-.34-.017-.337-.28a2.609 2.609 0 00-.088-.7c-.067-.249.019-.287.245-.3a6.915 6.915 0 004.062-1.548 7 7 0 002.336-7.346A7.038 7.038 0 009.5 16.736c-.025 0-.05 0-.075-.008-.255-.04-.7.054-.732-.109a3.557 3.557 0 01.094-1.139c.018-.13.137-.075.216-.07a8.122 8.122 0 015.394 2.387 8.187 8.187 0 012.464 5.884z"/><path data-name="Tracé 22" d="M23.258 11.327a7.555 7.555 0 00-2.4-2.361 7.033 7.033 0 00-10.494 4.824c-.023.148-.051.3-.066.445-.066.667-.065.667-.744.593a1.105 1.105 0 00-.223-.027c-.325.034-.355-.142-.331-.406a8.071 8.071 0 014.268-6.652 8.263 8.263 0 0110.346 1.9.456.456 0 01.1.561c-.168.346-.293.717-.456 1.123z"/><path data-name="Tracé 23" d="M8.051 18.592c.137-.408.265-.782.389-1.158.056-.171.2-.124.313-.119a6.108 6.108 0 014.865 2.494 6.023 6.023 0 01.705 6.565 6.157 6.157 0 01-5.33 3.651c-.4.037-.6-.045-.663-.454a1.778 1.778 0 00-.189-.526c-.12-.239-.05-.293.2-.288a5.277 5.277 0 002.831-.717 5.077 5.077 0 001.468-7.42 5 5 0 00-3.963-2.027c-.198-.007-.397-.001-.626-.001z"/><path data-name="Tracé 24" d="M22.39 50.26a5.174 5.174 0 00-5.15-5.606 5.159 5.159 0 00-5.086 5.586c-.394-.128-.779-.247-1.158-.38-.182-.064-.109-.236-.1-.359a6.141 6.141 0 012.311-4.654 6.082 6.082 0 016.479-.979 6.174 6.174 0 013.952 5.39c.061.545.047.546-.472.716-.13.043-.26.088-.389.135s-.231.09-.387.151z"/><path data-name="Tracé 25" d="M22.619 45.216a6.9 6.9 0 00-7.592-2.095 6.924 6.924 0 00-4.742 6.188c-.014.314-.115.388-.395.323a2.686 2.686 0 00-.409-.056c-.53-.039-.507.058-.475-.531a8.287 8.287 0 016.271-7.335 8.182 8.182 0 016.665 1.192.79.79 0 01.378.562c.1.539.243 1.07.369 1.6.033.081.062.155-.07.152z"/><path data-name="Tracé 27" d="M12.146 15.489c-.284-.1-.529-.189-.776-.271-.515-.17-.516-.168-.471-.721a6.394 6.394 0 015.088-5.757 6.423 6.423 0 016.82 3.07.721.721 0 01.081.662c-.2.563-.361 1.138-.559 1.775a5.155 5.155 0 00-2.084-3.4 5.039 5.039 0 00-3.845-.883 5.174 5.174 0 00-4.254 5.525z"/><path data-name="Tracé 28" d="M21.402 38.065c.054.4.1.8.161 1.186.036.224-.126.277-.264.351a8.163 8.163 0 01-2.864.957 8.111 8.111 0 01-6.475-1.85A8.112 8.112 0 018.995 32.9c-.019-.247.027-.368.307-.36a2.992 2.992 0 00.67-.072c.233-.047.3.024.308.261a6.686 6.686 0 001.81 4.332 6.744 6.744 0 005.678 2.261c1.364-.099 1.652-.216 3.634-1.257z"/><path data-name="Tracé 29" d="M56.061 38.166c0 .431-.013.843 0 1.254.011.256-.176.309-.339.385a8.345 8.345 0 01-5.953.508 8.343 8.343 0 01-5.976-7.428c-.014-.228.018-.368.286-.338a.783.783 0 00.15-.009c.27-.022.611-.188.785-.036.145.127.086.49.113.749a7.011 7.011 0 007.409 6.079 7.18 7.18 0 003.525-1.164z"/><path data-name="Tracé 32" d="M56.061 43.953a8.273 8.273 0 00-2.655-1.079 7.013 7.013 0 00-8.194 5.492 7.345 7.345 0 00-.129 1.039c-.01.228-.091.278-.293.235a3.887 3.887 0 00-.409-.057c-.613-.065-.613-.064-.543-.7a8.307 8.307 0 0111.8-6.631c.308.143.476.3.433.67a9.334 9.334 0 00-.01 1.031z"/><path data-name="Tracé 33" d="M37.872 41.048v-2.923a.816.816 0 01.131-.493 6.338 6.338 0 015.245-2.942.245.245 0 01.289.209 6.28 6.28 0 00.269.777c.111.243.048.3-.2.3a5.305 5.305 0 00-2.833.716 5.084 5.084 0 00-1.526 7.334 5.01 5.01 0 004.107 2.117c.547.013.547.014.354.543-.009.023-.016.047-.024.071-.262.729-.264.742-1.042.636a6.388 6.388 0 01-4.56-2.787.964.964 0 01-.182-.591c.01-.987 0-1.974 0-2.962z"/><path data-name="Tracé 34" d="M20.449 16.605c0-.584.008-1.119 0-1.654a3.147 3.147 0 00-2.784-3.114 3.152 3.152 0 00-3.522 2.551 11.226 11.226 0 00-.054 1.759.821.821 0 01-.047.45l-1.141-.712c-.087-.054-.089-.139-.1-.228a4.574 4.574 0 012.644-4.745 4.48 4.48 0 016.261 3.575c.116 1.314.028 1.467-1.257 2.118z"/><path data-name="Tracé 35" d="M20.45 51.393c0-.574.006-1.094 0-1.614a3.036 3.036 0 00-1.7-2.832 3.042 3.042 0 00-3.269.172 2.959 2.959 0 00-1.379 2.41c-.033.6-.006 1.211-.006 1.87-.437-.276-.813-.515-1.191-.749a.239.239 0 01-.105-.223 4.708 4.708 0 011.162-3.675 4.288 4.288 0 014.4-1.314 4.3 4.3 0 013.255 3.281 6.62 6.62 0 01.119 1.676.31.31 0 01-.176.3c-.351.21-.695.434-1.11.698z"/><path data-name="Tracé 36" d="M48.877 30.71c.063.772-.046 1.485.074 2.191a3.127 3.127 0 003.252 2.625 3.156 3.156 0 003.066-3.123c.007-.549 0-1.1 0-1.684l1.188.744a.211.211 0 01.094.188 4.543 4.543 0 01-3.535 5.073A4.5 4.5 0 0147.6 32.48c-.021-.659.064-1.155.74-1.412a3.082 3.082 0 00.537-.358z"/><path data-name="Tracé 37" d="M6.901 26.864c.759-.051 1.461.038 2.159-.065a3.165 3.165 0 002.689-3.167 3.162 3.162 0 00-2.8-3.105c-.661-.073-1.324-.011-2.023-.052l.741-1.176a.212.212 0 01.191-.093 4.7 4.7 0 013.98 1.443 4.24 4.24 0 01.822 4.77 4.338 4.338 0 01-3.913 2.709c-.665.055-1.229.011-1.488-.736a2.609 2.609 0 00-.358-.528z"/><path data-name="Tracé 38" d="M45.027 44.237c-.265.418-.5.784-.729 1.152a.235.235 0 01-.208.129 4.659 4.659 0 01-4.2-1.7 4.238 4.238 0 01-.58-4.583 4.34 4.34 0 013.806-2.637c.706-.068 1.3-.032 1.586.755a2.728 2.728 0 00.353.518c-.574 0-1.092-.008-1.609 0a3.182 3.182 0 00-3.114 2.252 3.193 3.193 0 003.147 4.109c.5.015 1 .005 1.548.005z"/><path data-name="Tracé 39" d="M10.213 44.237c-.265.415-.5.778-.73 1.146a.232.232 0 01-.2.135 4.725 4.725 0 01-3.906-1.354 4.253 4.253 0 01-.962-4.713 4.289 4.289 0 013.81-2.839c.726-.08 1.384-.079 1.682.768a2.571 2.571 0 00.336.493h-1.49a3.5 3.5 0 00-1.7.384 3.184 3.184 0 00-1.642 3.235 3.187 3.187 0 002.359 2.63 4.152 4.152 0 001 .113c.465.005.928.002 1.443.002z"/><path data-name="Tracé 40" d="M56.144 35.461V37.1c0 .228-.169.32-.319.428a6.4 6.4 0 01-9.941-3.659 7.018 7.018 0 01-.18-1.334.287.287 0 01.247-.342 4.653 4.653 0 00.743-.255c.281-.133.307-.014.3.226a5.056 5.056 0 001.409 3.714 5.109 5.109 0 007.427-.078c.102-.106.2-.215.314-.339z"/><path data-name="Tracé 41" d="M21.708 16.883c-.075.43-.16.858-.222 1.29-.027.189-.169.27-.282.378a6.962 6.962 0 00-1.683 7.863 6.573 6.573 0 001.083 1.741.742.742 0 01.2.537c-.014.455 0 .91 0 1.449a8.094 8.094 0 01-3.106-6.4 8.014 8.014 0 013.928-7.1c.189.022.104.144.082.242z"/><path data-name="Tracé 42" d="M21.15 35.691c.045.469.058.87.131 1.259a.5.5 0 01-.24.561 6.436 6.436 0 01-7.3.155 6.341 6.341 0 01-2.857-4.986c-.022-.286.02-.473.353-.519a1.852 1.852 0 00.564-.2c.28-.141.391-.107.367.238a4.377 4.377 0 00.176 1.482 5.1 5.1 0 008.513 2.278c.084-.072.165-.147.293-.268z"/><path data-name="Tracé 43" d="M25.107.212a8.265 8.265 0 01-12.576 4.165 10.364 10.364 0 011.117-.676c.125-.074.213.022.309.07a6.944 6.944 0 006.423.091 6.788 6.788 0 003.19-3.21.445.445 0 01.412-.3c.371-.026.739-.09 1.125-.14z"/><path data-name="Tracé 44" d="M56.061 46.548a5.42 5.42 0 00-.858-.825 4.923 4.923 0 00-5.1-.654 4.866 4.866 0 00-3.1 4.326c-.023.252-.075.358-.343.326a2.592 2.592 0 00-.636 0c-.272.036-.329-.058-.319-.322a6.367 6.367 0 014.768-5.819 6.4 6.4 0 015.29.952.56.56 0 01.3.548c-.02.448-.002.897-.002 1.468z"/><path data-name="Tracé 45" d="M14.09 30.688c0 .621-.008 1.155 0 1.689a3.112 3.112 0 003.034 3.146 3.127 3.127 0 003.268-2.562 4.311 4.311 0 00.053-.783c.008-.47 0-.941 0-1.456.277.116.419.231.429.526.036 1.049.1 2.1.168 3.143a.828.828 0 01-.165.589 4.481 4.481 0 01-4.864 1.664 4.515 4.515 0 01-3.21-3.973c-.068-.756-.006-1.371.816-1.666a2.57 2.57 0 00.471-.317z"/><path data-name="Tracé 50" d="M55.288 51.4c-.06-.77.057-1.486-.07-2.192a3.159 3.159 0 00-3.362-2.631 3.15 3.15 0 00-2.95 3.12c0 .332-.1.382-.381.271a1.469 1.469 0 00-.476-.1c-.37-.012-.467-.178-.426-.54a4.5 4.5 0 013.416-3.923 4.475 4.475 0 014.781 1.892 1.355 1.355 0 01.249.8c-.006.775 0 1.55.039 2.324a.594.594 0 01-.353.656 3.933 3.933 0 00-.467.323z"/><path data-name="Tracé 51" d="M15.996 53.352c-.4-.436-.77-.876-1.184-1.272a.416.416 0 01-.1-.345c0-.7-.005-1.4 0-2.1a2.582 2.582 0 011.631-2.268 2.57 2.57 0 012.708.558 2.481 2.481 0 01.769 1.923v.037a8.049 8.049 0 01-.037 1.976c-.159.609-.86.94-1.15 1.53-.148-.078-.09-.19-.091-.276-.006-.737 0-1.473 0-2.21 0-1.822-.31-2.418-1.265-2.429s-1.283.6-1.283 2.447z"/><path data-name="Tracé 52" d="M4.948 24.94h3.41a1.4 1.4 0 001.1-.376 1.2 1.2 0 00.3-1.343 1.213 1.213 0 00-1.191-.812c-1.088-.01-2.176 0-3.264-.005a1.409 1.409 0 01-.38-.037c.476-.388.942-.771 1.373-1.195.05-.049.164-.048.248-.048.738 0 1.476-.016 2.213.015a2.53 2.53 0 012.367 2.376 2.539 2.539 0 01-2.254 2.667c-.786.082-1.574.02-2.361.042a.327.327 0 01-.268-.1c-.399-.415-.852-.763-1.293-1.184z"/><path data-name="Tracé 53" d="M15.996 28.624v3.73a1.2 1.2 0 00.684 1.122 1.206 1.206 0 001.313-.084 1.253 1.253 0 00.551-1.088c-.005-1.074 0-2.148 0-3.222v-.467a9.081 9.081 0 001.19 1.415c.108.1.089.224.09.346 0 .7.008 1.4 0 2.1a2.555 2.555 0 01-2.556 2.43 2.55 2.55 0 01-2.551-2.433c-.008-.7 0-1.4 0-2.1a.447.447 0 01.118-.374 9.488 9.488 0 001.161-1.375z"/><path data-name="Tracé 54" d="M18.544 18.714v-3.7a1.257 1.257 0 00-1.124-1.283 1.268 1.268 0 00-1.378.913 1.574 1.574 0 00-.044.482v3.567a12.454 12.454 0 00-1.212-1.409c-.1-.093-.067-.208-.068-.317 0-.7-.008-1.4 0-2.1a2.536 2.536 0 012.557-2.427 2.544 2.544 0 012.55 2.436c.006.7 0 1.4 0 2.1a.448.448 0 01-.128.369 9.382 9.382 0 00-1.153 1.369z"/><path data-name="Tracé 55" d="M12.183 39.78h-2.162c-.525 0-1.052-.014-1.575.028a1.238 1.238 0 00-1.155 1.283 1.244 1.244 0 001.236 1.213c1.126.023 2.252.008 3.378.013a.428.428 0 01.33.065 10.912 10.912 0 00-1.4 1.173c-.043.043-.142.042-.215.041-.763 0-1.528.015-2.289-.022a2.541 2.541 0 01-2.32-2.426 2.552 2.552 0 012.238-2.615c.787-.077 1.575-.018 2.363-.038a.368.368 0 01.3.115c.386.411.834.747 1.271 1.17z"/><path data-name="Tracé 56" d="M46.99 39.78h-1.785c-.6 0-1.2-.019-1.8.009a1.244 1.244 0 00-1.288 1.31 1.249 1.249 0 001.346 1.214c1.088.01 2.177 0 3.265 0h.285c-.466.425-.933.809-1.364 1.235a.333.333 0 01-.212.046c-.763 0-1.527.016-2.289-.021a2.523 2.523 0 01-2.318-2.459 2.538 2.538 0 012.227-2.582c.786-.078 1.575-.018 2.362-.038a.372.372 0 01.3.112c.391.411.838.751 1.271 1.174z"/><path data-name="Tracé 57" d="M50.817 31.116v1.162a1.258 1.258 0 001.255 1.342 1.265 1.265 0 001.281-1.358v-2.287c0-.138-.084-.363.077-.4a.781.781 0 01.716.056 1.114 1.114 0 01.506 1.011 15.287 15.287 0 00-.013 1.686 2.563 2.563 0 01-2.568 2.577 2.55 2.55 0 01-2.546-2.557v-1.912a.971.971 0 011.152-.891c.172.04.132.155.133.257.009.439.007.876.007 1.314z"/><path data-name="Tracé 58" d="M.086 25.347l.009-1.259a8.292 8.292 0 017.99 7.145c.14.909.138.9-.775 1.01-.308.037-.445.019-.467-.359a6.96 6.96 0 00-6.349-6.479c-.136-.009-.272-.039-.408-.058z"/><path data-name="Tracé 59" d="M8.131 15.582A8.325 8.325 0 01.493 23.24c-.274.021-.3-.064-.275-.3.112-.935.105-.936.994-1.095a7.021 7.021 0 005.627-6.208c.043-.574.043-.574.633-.5a1.158 1.158 0 00.224.016c.365-.027.566.08.435.429z"/><path data-name="Tracé 60" d="M3.968 43.657a21.882 21.882 0 01-1.681-3.193.888.888 0 010-.55 6.354 6.354 0 016.061-5.223c.23-.012.337.037.39.273a3.741 3.741 0 00.265.738c.108.234.025.272-.194.267a5.3 5.3 0 00-2.866.723 5.079 5.079 0 00-2.235 5.9c.022.071.036.144.054.217a2.3 2.3 0 00.144.39l.148.307c.052.097.052.164-.086.151z"/><path data-name="Tracé 61" d="M53.591 53.15a.457.457 0 01-.24-.481c.006-.937 0-1.874 0-2.81a1.278 1.278 0 00-1.261-1.382 1.27 1.27 0 00-1.275 1.365c0 .275-.005.55 0 .824 0 .19-.059.218-.219.127a2.31 2.31 0 00-.537-.261c-.46-.118-.559-.4-.545-.847a2.6 2.6 0 012.551-2.492 2.585 2.585 0 012.574 2.461c.012.687 0 1.374 0 2.061a.425.425 0 01-.092.349 10.8 10.8 0 00-.956 1.086z"/><path data-name="Tracé 63" d="M.103 27.285L.08 26.029a5.928 5.928 0 014.213 1.761 6.208 6.208 0 011.948 4.333c.011.239-.048.362-.291.42a4.247 4.247 0 00-.743.254c-.212.094-.261.036-.252-.173a5.054 5.054 0 00-.194-1.667 5.076 5.076 0 00-4.658-3.672z"/><path data-name="Tracé 64" d="M1.751 39.171c-.187-.552-.355-1.061-.532-1.566a.553.553 0 01.053-.5 8.252 8.252 0 016.821-4.324c.185-.015.281.02.282.225a4.331 4.331 0 00.042.485c.063.551.062.54-.494.6a6.88 6.88 0 00-5.913 4.483c-.038.092-.066.189-.105.28s-.087.182-.154.317z"/><path data-name="Tracé 65" d="M52.103 6.706a8.7 8.7 0 013.074.582.376.376 0 01.3.439 4.416 4.416 0 000 .711c.019.293-.012.406-.35.242a6.749 6.749 0 00-2.626-.677 6.857 6.857 0 00-4.688 1.447c-.228.176-.347.179-.483-.068a2.406 2.406 0 00-.226-.3c-.358-.461-.358-.461.133-.812a8.2 8.2 0 014.866-1.564z"/><path data-name="Tracé 67" d="M6.235 15.261a6.435 6.435 0 01-5.447 6.022c-.229.031-.26-.008-.225-.245A1.413 1.413 0 011.645 19.7a4.908 4.908 0 003.311-4.815c0-.427 0-.426.395-.279a3.049 3.049 0 00.46.156c.327.065.559.178.424.499z"/><path data-name="Tracé 68" d="M53.353 18.581v-2.532-.973a1.264 1.264 0 00-1.131-1.347 1.262 1.262 0 00-1.392 1.033.667.667 0 01-.058.1l-.7-1.29c-.075-.137.036-.208.1-.288a2.574 2.574 0 012.739-.707 2.583 2.583 0 011.724 2.277c.017.711 0 1.422 0 2.134a.424.424 0 01-.114.34c-.397.387-.754.819-1.168 1.253z"/><path data-name="Tracé 69" d="M14.433 3.272c.53-.245 1.005-.463 1.479-.686a.513.513 0 01.33-.01 5.015 5.015 0 004.775-1.541.712.712 0 01.412-.228c.478-.085.952-.19 1.448-.291a6.281 6.281 0 01-8.444 2.756z"/><path data-name="Tracé 70" d="M55.408 11.093a5.632 5.632 0 00-2.089-1.044 5.08 5.08 0 00-4.445.977c-.2.157-.3.162-.413-.059a1.642 1.642 0 00-.125-.186c-.471-.681-.474-.686.253-1.131a6.4 6.4 0 016.493-.3.563.563 0 01.392.626c-.034.346-.012.7-.017 1.047 0 .018-.026.038-.049.07z"/><path data-name="Tracé 71" d="M25.421 51.447a8.225 8.225 0 00-2.094.51 6.924 6.924 0 00-3.5 3.137c-.125.225-.241.313-.493.218a4.452 4.452 0 00-.686-.186c-.216-.044-.219-.136-.129-.31a8.229 8.229 0 015.922-4.511c.112-.023.223-.064.289.078a.791.791 0 00.059.1z"/><path data-name="Tracé 72" d="M55.27 16.62v-1.531a3.064 3.064 0 00-1.976-3.033 3.088 3.088 0 00-3.466.676c-.045.041-.093.078-.152.127-.186-.3-.351-.594-.546-.868-.137-.191-.079-.3.077-.433a4.529 4.529 0 014.859-.567c.066.035.13.075.2.108a1.88 1.88 0 011.23 2.089 27.159 27.159 0 00-.027 3.033c-.005.139.049.309-.199.399z"/><path data-name="Tracé 76" d="M.086 29.171l.009-1.259a4.488 4.488 0 014.255 4.593.933.933 0 01-.586 1.046 4.76 4.76 0 00-.711.468c0-.589.007-1.117 0-1.645A3.177 3.177 0 00.674 29.29c-.194-.052-.392-.08-.588-.119z"/><path data-name="Tracé 77" d="M33.724 54.012a6.669 6.669 0 003.191-2.032 2.869 2.869 0 00.938-2.134c.016-.569 0-1.139 0-1.751l1.176.736a.245.245 0 01.108.221 4.56 4.56 0 01-2.628 4.751 4.456 4.456 0 01-2.6.332.351.351 0 01-.106-.035c-.017-.01-.029-.034-.079-.088z"/><path data-name="Tracé 78" d="M17.289 25.763a11.216 11.216 0 00.567 1.617.92.92 0 01.056.365q.005 2.23 0 4.461v.112a.653.653 0 01-.65.68.637.637 0 01-.634-.692c-.009-1.112.061-2.229-.021-3.335a7.251 7.251 0 01.682-3.208z"/><path data-name="Tracé 79" d="M17.261 21.609a10.172 10.172 0 00-.57-1.622.832.832 0 01-.067-.365V15.09c0-.564.4-.872.875-.694a.6.6 0 01.409.611q.007 2.341 0 4.682a3.087 3.087 0 01-.306.876c-.094.316-.203.627-.341 1.044z"/><path data-name="Tracé 80" d="M26.484 53.326a7.032 7.032 0 00-2.212.309 5.007 5.007 0 00-2.462 1.881.415.415 0 01-.519.211 3.746 3.746 0 00-.7-.131c-.321-.024-.261-.16-.145-.356a6.417 6.417 0 012.636-2.489 6.36 6.36 0 012.666-.684.332.332 0 01.39.256c.102.321.219.636.346 1.003z"/><path data-name="Tracé 81" d="M37.826 36.695c-.066-.5-.127-.975-.2-1.453-.022-.153.082-.226.173-.308a8.258 8.258 0 015.116-2.148c.191-.012.261.031.27.234.014.333.208.765.064.97s-.629.094-.96.149a6.988 6.988 0 00-4.156 2.275c-.075.084-.148.169-.224.253-.002.005-.018.005-.083.028z"/><path data-name="Tracé 82" d="M1.931 23.661a12.14 12.14 0 001.7-.6.7.7 0 01.293-.034h4.458a1.383 1.383 0 01.333.036.612.612 0 01.485.66.608.608 0 01-.591.573c-.374.02-.749.008-1.124.009-.812 0-1.629-.061-2.434.015a7.324 7.324 0 01-3.12-.659z"/><path data-name="Tracé 83" d="M50.024 41.081a10.332 10.332 0 01-2.8.635c-1.193-.086-2.4-.02-3.6-.021a1.874 1.874 0 01-.372-.024.638.638 0 01-.522-.638.625.625 0 01.6-.607c.3-.02.6-.008.9-.008 1.149 0 2.3.007 3.448 0a2.35 2.35 0 011.012.193c.397.169.814.287 1.334.47z"/><path data-name="Tracé 84" d="M15.018 41.092a7.119 7.119 0 01-2.619.619c-1.185-.071-2.377-.016-3.566-.018a1.993 1.993 0 01-.374-.021.619.619 0 01-.527-.669.609.609 0 01.581-.581c.211-.018.425-.008.638-.009 1.177 0 2.353.008 3.529 0a2.733 2.733 0 011.307.234 6.857 6.857 0 00.883.308c.03.063.19-.005.148.137z"/><path data-name="Tracé 85" d="M37.843 45.484a.441.441 0 01.291.209 6.816 6.816 0 004.747 2.32c.307.018.516.063.373.438a.157.157 0 000 .037c-.1.863-.1.881-.96.771a8.2 8.2 0 01-4.282-1.9.4.4 0 01-.17-.347c.008-.496.001-.994.001-1.528z"/><path data-name="Tracé 86" d="M.094 31.116l-.013-1.261A2.481 2.481 0 012.4 32.097c.035.773.008 1.549.012 2.323a.378.378 0 01-.119.3A9.474 9.474 0 001.2 36.006c-.125-.073-.068-.183-.068-.268v-3.223a1.264 1.264 0 00-1.038-1.399z"/><path data-name="Tracé 87" d="M17.914 52.093c0 .775.005 1.55 0 2.325 0 .413-.077.458-.464.327-.823-.277-.823-.277-.823-1.141v-3.75c0-.476.253-.75.655-.742a.631.631 0 01.63.693c.009.763.002 1.525.002 2.288z"/><path data-name="Tracé 88" d="M1.002 19.269c.176-.534.334-1 .485-1.477.043-.134.159-.187.257-.26a3.118 3.118 0 001.3-2.649 1.753 1.753 0 01.249-1.105c.095-.131.155-.224.3-.083a.093.093 0 00.031.021c.634.223.732.689.718 1.311a4.526 4.526 0 01-3.34 4.242z"/><path data-name="Tracé 89" d="M20.798 27.319a6.225 6.225 0 01.485-7.913c-.172 1.358-.318 2.646-.394 3.939s-.121 2.588-.091 3.974z"/><path data-name="Tracé 90" d="M19.311 6.277a9.6 9.6 0 001.648-.563.871.871 0 01.4-.071h4.386a.757.757 0 01.447.085c-.259.365-.52.727-.775 1.094-.079.114-.189.1-.3.1h-3.861a.679.679 0 01-.288-.06 17.363 17.363 0 00-1.657-.585z"/><path data-name="Tracé 91" d="M31.063 2.505a3.915 3.915 0 01-1.152.375c-.4 0-.6-.472-.917-.7a5.217 5.217 0 00-2.865-.979c-.212-.007-.424 0-.672 0 .112-.33.216-.632.317-.935.033-.1.107-.115.2-.134a5.422 5.422 0 015.089 2.373z"/><path data-name="Tracé 92" d="M49.204 29.549a8.258 8.258 0 01-3.012 1.912 8.671 8.671 0 01-2.306.479c-.219.017-.338-.019-.321-.266a1.955 1.955 0 00-.02-.336c-.072-.676-.073-.678.589-.725a6.608 6.608 0 002.759-.889 1.246 1.246 0 01.668-.179c.52.015 1.04.004 1.643.004z"/><path data-name="Tracé 93" d="M8.069 14.549a8.467 8.467 0 01-4.073-1.34c-.2-.122-.256-.228-.1-.431.181-.237.282-.6.514-.717.26-.131.5.225.749.354a7.146 7.146 0 003.076.855c.225.007.277.08.236.29a4.369 4.369 0 00-.085.705c-.009.246-.105.343-.317.284z"/><path data-name="Tracé 94" d="M22.318 55.89a4.446 4.446 0 011.974-1.59 5.562 5.562 0 012.357-.321.255.255 0 01.248.124c.226.371.464.734.734 1.157-.518 0-1 .011-1.476 0a3.289 3.289 0 00-2.137.668.327.327 0 01-.231.1z"/><path data-name="Tracé 95" d="M36.191 29.548h1.782a.315.315 0 01.277.15 4.781 4.781 0 01.89 3.39.215.215 0 01-.1.184l-1.178.736c0-.465-.018-.884 0-1.3a3.311 3.311 0 00-1.671-3.16z"/><path data-name="Tracé 96" d="M9.085 6.84l1.463-1.139a.483.483 0 01.325-.053 12.65 12.65 0 001.536-.012 6.7 6.7 0 012.689.662 9.364 9.364 0 01-2.333.645c-1.209-.052-2.422-.013-3.634-.013z"/><path data-name="Tracé 97" d="M37.19 33.083c-.308-.923-1.1-1.334-1.841-1.793a1.337 1.337 0 00-.791-.182c-.651.031-1.281-.15-1.941-.163a2.44 2.44 0 012.606-1.077c1.361.308 2.057 1.414 1.967 3.215z"/><path data-name="Tracé 98" d="M49.533 6.399a4.8 4.8 0 01-2.674.533 6.494 6.494 0 01-1.6-.05 4.659 4.659 0 01-1.211-.971c-.075-.063-.148-.129-.223-.194.081-.126.191-.07.279-.07 1.051 0 2.1 0 3.153-.007a2.012 2.012 0 01.936.2c.436.21.894.375 1.34.559z"/><path data-name="Tracé 99" d="M22.347 5.023c.44-.415.9-.775 1.305-1.2.092-.1.2-.079.314-.079h2.062a2.608 2.608 0 011.376.428c.155.1.2.181.024.294a.177.177 0 00-.028.024 1.5 1.5 0 01-1.468.574 26.812 26.812 0 00-3.585-.041z"/><path data-name="Tracé 100" d="M24.321 3.107c.268-.42.5-.775.72-1.134a.27.27 0 01.235-.152 5 5 0 013.7 1.151c.233.2.18.258-.05.44a1.092 1.092 0 01-1.548.054 2.851 2.851 0 00-1.808-.36c-.402.002-.8.001-1.249.001z"/><path data-name="Tracé 101" d="M53.757 22.641l-.567-1.846a.521.521 0 01-.025-.4 8.265 8.265 0 012.294-3.057c0 .624.008 1.175-.008 1.727 0 .1-.1.194-.172.28a7.118 7.118 0 00-1.288 2.591 6.792 6.792 0 01-.234.705z"/><path data-name="Tracé 102" d="M9.074 11.387c-.134.395-.261.745-.368 1.1-.047.157-.138.175-.279.171a6.676 6.676 0 01-3.33-1.012c-.222-.135-.316-.246-.1-.475s.333-.572.574-.67.482.228.733.351a6.018 6.018 0 002.77.535z"/><path data-name="Tracé 103" d="M9.715 50.278a7.971 7.971 0 015.743 3.623 21.23 21.23 0 01-5.743-3.623z"/><path data-name="Tracé 104" d="M54.948 29.549h1.869a.513.513 0 01.283.075 7.073 7.073 0 003.328 1.036c.093.005.28-.09.274.134 0 .183-.15.163-.273.172a7.786 7.786 0 00-2.232.457.376.376 0 01-.286.012 8.452 8.452 0 01-2.963-1.886z"/><path data-name="Tracé 105" d="M12.187 7.552c-.444.429-.909.783-1.31 1.209a.289.289 0 01-.238.083c-.824-.026-1.65.048-2.473-.049a2.587 2.587 0 01-.814-.263c.3-.312.589-.616.879-.919a.262.262 0 01.208-.061z"/><path data-name="Tracé 106" d="M4.503 44.176a5.584 5.584 0 002.029 1.543 5.672 5.672 0 002.546.417c-.135.4-.262.763-.376 1.128-.045.143-.14.15-.26.149a6.3 6.3 0 01-1.842-.3.437.437 0 01-.222-.13 27.119 27.119 0 01-2.022-2.73c-.043-.053-.045-.115.012-.147s.104.017.135.07z"/><path data-name="Tracé 107" d="M10.226 9.463c-.271.423-.5.778-.725 1.136-.048.077-.093.139-.2.144a4.937 4.937 0 01-3.305-.818l.749-.838c.063-.071.124-.112.224-.05a4.491 4.491 0 002.544.426h.713z"/><path data-name="Tracé 108" d="M51.706 5.851a2.759 2.759 0 00.875-1.115.257.257 0 01.249-.183 7.351 7.351 0 002.641-.813v1.265a.22.22 0 01-.159.224 8.159 8.159 0 01-3.606.622z"/><path data-name="Tracé 109" d="M52.724 31.052c0 .423.006.846 0 1.27a.639.639 0 01-.643.676.642.642 0 01-.634-.687c-.007-.834.005-1.668-.007-2.5 0-.218.069-.278.275-.264.321.021.739-.1.94.061s.051.6.069.923c.008.172 0 .347 0 .521z"/><path data-name="Tracé 110" d="M52.665 19.216c-.263-.652-.483-1.326-.8-1.95a4.068 4.068 0 01-.426-2.2c.031-.437.267-.725.644-.725a.651.651 0 01.64.724v4.139z"/><path data-name="Tracé 111" d="M39.775 32.868a5.3 5.3 0 00-.859-3.319h1.333c.142 0 .189.081.239.191a6.454 6.454 0 01.573 2.46c0 .121.026.241-.15.292-.367.106-.727.239-1.136.376z"/><path data-name="Tracé 112" d="M33.174 2.228c-.438.042-.846.074-1.251.123a.233.233 0 01-.243-.124A7.024 7.024 0 0029.114.042a5.546 5.546 0 011.121-.02 1.379 1.379 0 00.187.007 1.9 1.9 0 011.888.922 7.231 7.231 0 01.864 1.277z"/><path data-name="Tracé 113" d="M39.779 49.237c.4.133.75.257 1.106.367a.229.229 0 01.178.276 7.089 7.089 0 01-.279 1.7.384.384 0 01-.163.239c-.657.4-1.312.81-2 1.2a5.484 5.484 0 001.158-3.782z"/><path data-name="Tracé 114" d="M31.066 55.762c-.643.073-1.172.132-1.7.195a.344.344 0 01-.27-.1 8.006 8.006 0 01-1.951-2.727 4.458 4.458 0 00.509.281 7.205 7.205 0 012.689 1.8 5.923 5.923 0 00.723.551z"/><path data-name="Tracé 115" d="M41.745 4.296a2.448 2.448 0 012.576-.32c.651.339 1.317.65 1.983.976-.077.126-.187.064-.273.067-.984.035-1.971-.061-2.953.056a.3.3 0 01-.21-.053z"/><path data-name="Tracé 116" d="M41.116 29.548h.6c.8 0 .8 0 .994.763a8.769 8.769 0 01.246 1.546c.014.208-.015.32-.267.324-.323.005-.747.2-.936.055s-.1-.6-.15-.916a8.591 8.591 0 00-.19-.874c-.077-.286-.184-.564-.297-.898z"/><path data-name="Tracé 117" d="M55.467 20.323v3.761c0 .176-.061.246-.239.238-.934-.039-.808.21-.82-.788a5.315 5.315 0 011.059-3.211z"/><path data-name="Tracé 118" d="M52.936 3.9c.139-.432.264-.809.382-1.188.035-.114.076-.2.205-.238a5.492 5.492 0 001.938-1.047v1.492c0 .1-.092.141-.168.184a6.2 6.2 0 01-2.357.797z"/><path data-name="Tracé 119" d="M54.792 54.802c-.243-.348-.459-.667-.687-.978a.216.216 0 010-.3 8.6 8.6 0 011.94-1.878l.122.025v1.393c0 .117-.078.178-.149.245a7.26 7.26 0 00-1.226 1.493z"/><path data-name="Tracé 120" d="M52.722 52.296c-.422-.327-.781-.615-1.151-.889a.308.308 0 01-.13-.286c0-.462-.009-.924 0-1.386a.618.618 0 01.65-.627.612.612 0 01.622.616c.017.838.009 1.672.009 2.572z"/><path data-name="Tracé 121" d="M34.469 54.962a22.393 22.393 0 01-2.206.568.4.4 0 01-.287-.022 6.457 6.457 0 01-1.75-1.2c.521 0 .984.014 1.446 0a2.566 2.566 0 011.2.189 4.369 4.369 0 001.675.343c.041.077-.029.093-.078.122z"/><path data-name="Tracé 122" d="M34.026 1.246c.05-.244-.152-.662.082-.819.182-.122.567.067.863.1.254.027.365.124.345.4-.028.385-.014.774 0 1.161 0 .177-.051.26-.235.226a.545.545 0 00-.075 0c-.98-.045-.98-.045-.98-1.068z"/><path data-name="Tracé 124" d="M42.72 3.178a3.336 3.336 0 00-1.438.719.191.191 0 01-.233.052c-.356-.173-.714-.341-1.085-.518a3.914 3.914 0 011.022-.9.236.236 0 01.244-.047l1.49.694z"/><path data-name="Tracé 125" d="M30.504 30.817a3.873 3.873 0 01.6-1.123.275.275 0 01.24-.147h1.823a3.526 3.526 0 00-1.249 1.231c-.062.108-.158.106-.259.1z"/><path data-name="Tracé 126" d="M38.349 1.39a10.915 10.915 0 00-.876 1.133.171.171 0 01-.183.1c-.356-.061-.712-.122-1.068-.187-.161-.03-.115-.124-.061-.218a9.525 9.525 0 01.732-1.083.261.261 0 01.33-.079z"/><path data-name="Tracé 127" d="M19.297 41.063c.614-.209 1.2-.361 1.758-.615a1.27 1.27 0 01.591-.022 2.312 2.312 0 01.256 1.234 1.454 1.454 0 01-.88-.017 12.641 12.641 0 00-1.725-.58z"/><path data-name="Tracé 128" d="M24.928 7.59l-.529 1.023a.485.485 0 01-.74.138A13.5 13.5 0 0022.27 7.59z"/><path data-name="Tracé 129" d="M40.414 2.135a6.2 6.2 0 00-.993.953.2.2 0 01-.263.062c-.309-.1-.616-.207-.93-.288-.183-.047-.147-.122-.071-.231a7.417 7.417 0 01.751-.885.267.267 0 01.336-.05c.372.148.748.282 1.17.439z"/><path data-name="Tracé 130" d="M63.034 29.568c-.118.38-.227.735-.339 1.09-.015.046-.04.124-.066.127q-.611.058-1.225.095c-.061 0-.051-.073-.047-.12a1.357 1.357 0 01.024-.148c.224-1.118.256-1.139 1.653-1.044z"/><path data-name="Tracé 131" d="M53.601 1.767c.119-.5.227-.96.332-1.417.037-.158.162-.127.269-.128h1.01c.082 0 .195-.039.237.055a.28.28 0 01-.06.313 4.174 4.174 0 01-1.788 1.177z"/><path data-name="Tracé 132" d="M30.413 29.548a6.119 6.119 0 00-.523 1.071.219.219 0 01-.279.176c-.074-.012-.151-.006-.224-.023-.2-.047-.525.087-.58-.108a1.3 1.3 0 01.082-.984.23.23 0 01.238-.132h1.286z"/><path data-name="Tracé 135" d="M41.529 51.283a10.067 10.067 0 00.149-1.325c0-.151.08-.143.2-.125.259.041.521.058.779.1.105.018.3-.065.292.128s.109.471-.156.606c-.406.211-.821.403-1.264.616z"/><path data-name="Tracé 137" d="M54.118 41.062a14.261 14.261 0 001.741-.618c.1-.052.2-.029.2.119v.974c0 .171-.1.18-.224.118a10.386 10.386 0 00-1.717-.593z"/><path data-name="Tracé 138" d="M58.506 29.548h2.237c.084 0 .271-.085.233.118-.027.148 0 .378-.267.37a5.134 5.134 0 01-2.203-.488z"/><path data-name="Tracé 139" d="M45.658 29.547a5.251 5.251 0 01-2.179.495c-.275.013-.257-.208-.287-.354-.048-.233.159-.135.252-.136.742-.008 1.476-.005 2.214-.005z"/><path data-name="Tracé 140" d="M56.204 54.143c0 .361-.006.721 0 1.082 0 .16-.049.226-.212.221-.257-.008-.515 0-.83 0a5.768 5.768 0 01.944-1.332z"/><path data-name="Tracé 141" d="M.161 32.923L.08 31.804c.326.049.421.3.427.565.017.668.006 1.336-.021 2.008a9.269 9.269 0 01-.325-1.454z"/><path data-name="Tracé 142" d="M7.368 47.957c.238.022.536.068.834.071.27 0 .306.119.257.347-.045.206-.059.419-.074.538z"/><path data-name="Tracé 143" d="M28.287 55.965a15.044 15.044 0 01-3.148.1 9.139 9.139 0 013.148-.1z"/><path data-name="Tracé 144" d="M54.123 6.292c.424-.136.76-.23 1.085-.354.232-.089.266-.01.268.2 0 .574.014.572-.528.4-.245-.076-.493-.146-.825-.246z"/><path data-name="Tracé 145" d="M19.679 1.356a4.473 4.473 0 01-2.025.683c-.08 0-.2.113-.216-.075.712-.256 1.428-.5 2.159-.694.078-.021.098.015.082.086z"/><path data-name="Tracé 146" d="M32.905.219c.6.07.508-.138.5 1.078l-.816-.986c.053-.205.199-.105.316-.092z"/><path data-name="Tracé 147" d="M45.89 7.572h1.122c-.52.651-.802.651-1.122 0z"/><path data-name="Tracé 148" d="M63.761 29.632v.871c0 .088.052.217-.1.24a.446.446 0 01-.287-.014c-.093-.065 0-.182.024-.265a3.131 3.131 0 01.363-.832z"/><path data-name="Tracé 149" d="M4.503 44.175c-.089-.051-.145-.037-.148.077l-.387-.6a.159.159 0 00.086-.15 2.35 2.35 0 01.449.673z"/><path data-name="Tracé 150" d="M12.191 5h-.573c.239-.324.31-.324.573 0z"/><path data-name="Tracé 151" d="M35.994 1.239c-.006-.17-.148-.355.039-.472.063-.04.214.009.224.075.028.182-.169.255-.263.397z"/><path data-name="Tracé 153" d="M43.933 50.172c-.142.1-.225.145-.325.126-.014 0-.034-.079-.022-.092.081-.085.179-.034.347-.034z"/><path data-name="Tracé 154" d="M57.213 31.84c.07 0 .067.055.081.1.019.059-.016.091-.067.1-.077.02-.069-.047-.077-.088a.1.1 0 01.063-.112z"/><path data-name="Tracé 155" d="M32.905.218c-.1.054-.244-.05-.317.093-.082-.06-.186-.131.01-.16a.421.421 0 01.307.067z"/><path data-name="Tracé 157" d="M15.017 41.093l-.147-.14a1.746 1.746 0 01.213.043.424.424 0 01.105.074.154.154 0 01-.171.023z"/><path data-name="Tracé 158" d="M3.906 43.201a.4.4 0 01-.144-.39.608.608 0 01.144.39z"/><path data-name="Tracé 159" d="M17.439 1.967c.053.079.148.037.216.074a.342.342 0 01-.244.06c-.046 0-.112 0-.087-.069.011-.033.075-.046.115-.065z"/><path data-name="Tracé 160" d="M19.679 1.355l-.082-.085c.076-.062.167-.132.239-.027.024.033-.08.103-.157.112z"/><path data-name="Tracé 161" d="M21.709 16.883c-.035-.077.014-.186-.089-.238.032-.056.1-.1.135-.053a.246.246 0 01-.046.291z"/><path data-name="Tracé 162" d="M34.469 54.962l.074-.129.2-.013a.267.267 0 01-.274.142z"/><path data-name="Tracé 163" d="M22.619 45.215l.07-.146c.079.075.113.175.039.251-.037.038-.093-.038-.109-.105z"/></g></svg>