<svg xmlns="http://www.w3.org/2000/svg" width="258.346" height="75.509"><path data-name="Tracé 5" d="M258.24 34.418h.107v3.791l-.115-.009a.713.713 0 01-.135-.5q-.01-1.392 0-2.783a.7.7 0 01.143-.499z" fill="#fff"/><path data-name="Tracé 6" d="M.133 35.364l-.134.021v-1.652h.1a2.293 2.293 0 01.034 1.631z" fill="#fff"/><path data-name="Tracé 7" d="M0 31.202l.124.014a2.281 2.281 0 01-.012 1.631L0 32.854z" fill="#fff"/><path data-name="Tracé 8" d="M.123 40.329L0 40.343v-1.652h.105a2.225 2.225 0 01.018 1.638z" fill="#fff"/><path data-name="Tracé 9" d="M0 36.163l.123.014a2.271 2.271 0 01-.012 1.632L0 37.816z" fill="#fff"/><path data-name="Tracé 10" d="M0 41.217h.1a1.726 1.726 0 01.1 1.45c-.24-.172.006-.494-.208-.675z" fill="#fff"/><path data-name="Tracé 11" d="M119.167 54.282c-.47.38-.9.766-1.372 1.105a14.423 14.423 0 01-8.732 2.815 15.119 15.119 0 01-12.573-6.244 16.832 16.832 0 01-3.291-9.247 16.612 16.612 0 014.4-12.951 15.838 15.838 0 0112.129-5.107 19.241 19.241 0 017.258 1.392 14.538 14.538 0 013.865 2.306c.259.215.267.36.057.62a83.503 83.503 0 00-2.094 2.682c-.214.287-.332.3-.628.084a13.6 13.6 0 00-9.433-2.8 10.893 10.893 0 00-9.947 7.638 13 13 0 002.313 13.529 10.8 10.8 0 008.625 3.771 12.682 12.682 0 008.9-3.662 1.025 1.025 0 00.353-.849c-.024-.89-.005-1.781-.008-2.672 0-.8-.309-1.106-1.124-1.117-.5-.006-1.006-.016-1.509 0-.282.012-.358-.087-.354-.359q.019-1.628 0-3.256c0-.263.053-.368.345-.365 1.346.016 2.693.009 4.039.012.113 0 .227.01.34.019a2.379 2.379 0 012.5 2.618v.291c0 4.212 0 8.423.008 12.635 0 .366-.069.5-.471.489a57.73 57.73 0 00-3.114 0c-.369.009-.508-.073-.495-.474.034-.949.013-1.904.013-2.903z" fill="#fff"/><path data-name="Tracé 12" d="M258.239 34.418l-.007 3.777c-1.271-.157-1.9.451-2.363 1.623-2.939 7.391-5.941 14.758-8.944 22.124a7.959 7.959 0 01-5 4.97 7.614 7.614 0 01-7.7-1.639c-.153-.132-.271-.244-.13-.483.576-.973 1.131-1.958 1.707-2.964a5.945 5.945 0 001.707 1.234 3.815 3.815 0 004.84-1.273 18.73 18.73 0 001.975-4.094c.093-.208-.051-.377-.125-.549-2.538-5.879-5.093-11.75-7.605-17.64a1.729 1.729 0 00-1.9-1.3c-.277.027-.316-.1-.314-.337.01-1.053 0-2.105 0-3.158 0-.161-.034-.327.229-.317a32.74 32.74 0 013.449.086 2.311 2.311 0 011.789 1.269 41.224 41.224 0 011.642 3.884c1.35 3.308 2.68 6.625 4.019 9.938a20.723 20.723 0 01.919 2.993 1.1 1.1 0 00.25-.631c1.168-3.942 2.788-7.722 4.154-11.593.435-1.235.9-2.46 1.359-3.686a2.92 2.92 0 013.216-2.253c.952-.003 1.896.014 2.833.019z" fill="#fff"/><path data-name="Tracé 13" d="M213.764 38.982c2.114-3.791 5.409-5.362 9.664-5.1a7.448 7.448 0 014.263 1.437 7.046 7.046 0 012.512 4.568 16.119 16.119 0 01.237 2.851q-.009 4.98 0 9.959c0 .819.29 1.125 1.1 1.145q.729.017 1.459 0c.228-.006.352.026.347.307-.015 1.069-.006 2.138-.006 3.206 0 .147.017.3-.208.3a47.271 47.271 0 01-5.149-.093 2.082 2.082 0 01-1.952-2.071 9.008 9.008 0 01-.054-1.017c-.029-3.983.057-7.967-.049-11.95a6.359 6.359 0 00-.56-2.542 3.357 3.357 0 00-2.9-1.983c-4.331-.464-7.778 2.369-8.514 6.792a12.8 12.8 0 00-.134 2.129c.006 3.417 0 6.834.01 10.251 0 .366-.073.5-.474.5q-1.751-.043-3.5 0c-.406.01-.506-.1-.505-.5q.021-8.867.01-17.733c0-.923-.286-1.211-1.222-1.222-.455 0-.909-.016-1.362 0-.262.012-.328-.08-.325-.33.012-1.052 0-2.105.007-3.158 0-.151-.059-.335.216-.326a44.855 44.855 0 015 .1 2.146 2.146 0 012 2.337c.009.615-.011 1.231-.019 1.846-.015.113-.153.279.108.297z" fill="#fff"/><path data-name="Tracé 14" d="M150.176 53.071c1.681-5.62 3.957-11 5.934-16.482a2.864 2.864 0 013.119-2.186c.713-.012 1.428.012 2.141-.014.331-.013.405.1.4.412-.018 1-.015 2.009 0 3.013 0 .278-.043.414-.366.4a1.636 1.636 0 00-1.772 1.249c-2.233 5.914-4.508 11.813-6.756 17.721a.607.607 0 01-.684.485 108.657 108.657 0 00-4.234 0 .525.525 0 01-.6-.4c-2.3-5.975-4.626-11.941-6.923-17.918a1.5 1.5 0 00-1.6-1.131c-.338.019-.406-.108-.4-.414.016-1.02.008-2.041 0-3.062 0-.191-.008-.353.267-.342a26.5 26.5 0 013.3.1 2.4 2.4 0 011.841 1.283 32.962 32.962 0 011.5 3.785q2.063 5.468 4.085 10.952c.315.821.503 1.69.748 2.549z" fill="#fff"/><path data-name="Tracé 15" d="M195.644 39.848a9.55 9.55 0 012.71-4.027 6.868 6.868 0 015.513-1.631c.277.035.247.188.246.365 0 1.2-.023 2.4.012 3.6.014.449-.182.458-.512.41a5.885 5.885 0 00-4.095.873 7.884 7.884 0 00-3.368 4.82 14.375 14.375 0 00-.482 3.843c.006 3.029 0 6.057.012 9.086 0 .383-.1.49-.481.481a75.627 75.627 0 00-3.5 0c-.417.01-.5-.126-.5-.518q.02-8.867.009-17.734c0-.906-.275-1.192-1.181-1.206-.454-.007-.908-.01-1.362 0-.229.007-.356-.026-.353-.308.014-1.069.005-2.138.006-3.207 0-.141-.033-.3.2-.3a47.271 47.271 0 014.909.08 2.218 2.218 0 012.118 2.447c.018.745 0 1.49 0 2.235a1.576 1.576 0 000 .742c0 .009.032.021.034.018.025-.021.044-.046.065-.069z" fill="#fff"/><path data-name="Tracé 16" d="M133.99 44.934v7.722c0 .881.28 1.175 1.151 1.188.47.007.941.01 1.41 0 .236-.007.344.044.34.316q-.023 1.578 0 3.156c0 .292-.108.347-.369.344-1.427-.013-2.854.007-4.28-.018a2.393 2.393 0 01-2.671-2.638c-.025-.792-.007-1.586-.007-2.38V39.365c0-.842-.283-1.137-1.13-1.157a20.617 20.617 0 00-1.362 0c-.306.016-.427-.058-.42-.394.022-1.02.016-2.04 0-3.06 0-.265.059-.368.347-.365 1.475.016 2.951-.013 4.426.022a2.26 2.26 0 012.52 2.411c.081 1.777.035 3.56.041 5.34.011.927.004 1.85.004 2.772z" fill="#fff"/><path data-name="Tracé 17" d="M193.825 20.886c1.654-2.779 5.436-2.646 6.1.041a4.7 4.7 0 01.967-1.16 3.7 3.7 0 013.551-.76 2.657 2.657 0 011.911 2.591c.134 1.519.035 3.043.057 4.564.011.744.021.782.756.767.347-.007.433.107.43.44 0 1.116.009 1.116-1.1 1.116-.26 0-.519.006-.779 0-.784-.032-1.112-.373-1.113-1.16v-4.566a3.8 3.8 0 00-.069-.82 1.649 1.649 0 00-2.562-1.218 3.2 3.2 0 00-1.749 2.587 39.923 39.923 0 00-.082 4.415c-.016.767 0 .767-.761.767-1.036 0-1.037 0-1.036-1.022q0-2.4.006-4.809a1.51 1.51 0 00-.008-.242c-.115-.733-.136-1.52-1.016-1.827a2.373 2.373 0 00-2.424.727 3.891 3.891 0 00-1.014 2.659c0 1.344-.013 2.688.006 4.032 0 .359-.057.539-.468.49-.431-.052-.993.172-1.268-.083s-.086-.827-.088-1.258c-.01-1.943 0-3.886 0-5.829 0-.647-.053-.727-.68-.7-.41.018-.513-.11-.5-.51.026-1.046.007-1.048 1.078-1.046a5.433 5.433 0 011.018.053.88.88 0 01.841.993c-.001.22-.004.446-.004.768z" fill="#fff"/><path data-name="Tracé 18" d="M202.142 65.416c1.558-2.459 4.863-2.087 5.333.141a3.766 3.766 0 011.833-1.611 2.646 2.646 0 013.855 2.464c.052 1.26.015 2.525.019 3.788 0 .584.059.667.628.649.345-.011.432.1.427.433-.015.937 0 .938-.937.937-.26 0-.52.009-.778-.013-.663-.057-.918-.335-.919-1.005v-3.983a2.22 2.22 0 000-.34c-.1-.639-.125-1.345-.877-1.6a1.927 1.927 0 00-2.055.515 2.968 2.968 0 00-.951 2.068q-.055 1.941-.034 3.884c0 .386-.106.486-.486.48-1.121-.02-1.122 0-1.121-1.141v-3.983a1.717 1.717 0 000-.194c-.069-.646-.088-1.323-.824-1.625a2.05 2.05 0 00-2.137.552 3.379 3.379 0 00-.949 2.375c-.005 1.182-.021 2.364.008 3.545.01.4-.123.477-.49.471-1.12-.018-1.121 0-1.121-1.145 0-1.716-.013-3.432.009-5.148.007-.48-.14-.712-.636-.64-.321.047-.41-.08-.407-.4.005-.962-.01-.962.952-.962 1.484.002 1.484.002 1.658 1.488z" fill="#fff"/><path data-name="Tracé 19" d="M99.76 65.482a3.3 3.3 0 013.257-1.726 2.218 2.218 0 012.059 1.811 3.491 3.491 0 012.247-1.738c1.883-.371 3.316.367 3.436 2.471.075 1.308.041 2.623.025 3.934-.006.468.172.681.626.617.4-.056.441.132.434.465-.017.9 0 .9-.92.9-.243 0-.487.008-.729-.008-.716-.046-.984-.331-.985-1.047v-3.984a2.748 2.748 0 00-.016-.484c-.108-.593-.194-1.228-.893-1.431a1.972 1.972 0 00-2.049.557 3.1 3.1 0 00-.939 2.176q-.036 1.894-.014 3.789c0 .331-.073.442-.425.44-1.19-.007-1.191.008-1.19-1.173v-3.935a2.237 2.237 0 000-.243c-.07-.63-.09-1.317-.811-1.579a1.919 1.919 0 00-2.1.5 3.374 3.374 0 00-1 2.5c0 1.182-.01 2.365.005 3.547 0 .291-.065.383-.373.385-1.219.008-1.219.021-1.219-1.188 0-1.7-.013-3.4.008-5.1.006-.478-.142-.716-.638-.644-.36.053-.423-.116-.419-.438.011-.925 0-.925.943-.925 1.524-.001 1.528.002 1.68 1.551z" fill="#fff"/><path data-name="Tracé 20" d="M21.849 30.692a10.765 10.765 0 01-10.068 10.7c-.3.021-.441-.022-.437-.363a3.38 3.38 0 00-.114-.913c-.087-.323.024-.373.317-.388a8.964 8.964 0 005.265-2.006 9.068 9.068 0 003.027-9.521 9.122 9.122 0 00-7.531-6.516c-.032 0-.065-.005-.1-.01-.331-.052-.906.071-.949-.141a4.609 4.609 0 01.122-1.476c.023-.168.178-.1.28-.091a10.527 10.527 0 016.992 3.094 10.612 10.612 0 013.196 7.631z" fill="#fff"/><path data-name="Tracé 21" d="M216.192 26.641c-1.25 1.757-2.722 2.367-4.53 1.953a2.515 2.515 0 01-1.971-1.924 5.873 5.873 0 01-.2-1.584q.005-1.894 0-3.788c0-.611-.064-.709-.654-.674-.436.025-.543-.107-.53-.533.033-1.024.01-1.027 1.051-1.024a7.9 7.9 0 01.922.031c.78.1 1.034.4 1.034 1.181v4.42a4.509 4.509 0 00.11 1.156 1.444 1.444 0 001.469 1.171 3.175 3.175 0 003.239-3.421c.007-1.327.015-2.655-.011-3.982-.009-.427.081-.622.55-.565.4.048.933-.123 1.174.079.283.238.093.788.095 1.2.01 1.959 0 3.918 0 5.876 0 .688.03.745.709.713.406-.019.477.127.471.492-.019 1.066 0 1.066-1.048 1.066-.26 0-.52.007-.778-.005-.78-.037-1.1-.38-1.105-1.162.003-.192.003-.384.003-.676z" fill="#fff"/><path data-name="Tracé 22" d="M30.145 14.681a9.791 9.791 0 00-3.117-3.06 9.115 9.115 0 00-13.6 6.252c-.03.192-.066.383-.085.576-.086.864-.084.865-.964.768a1.408 1.408 0 00-.289-.036c-.421.044-.461-.185-.429-.526a10.461 10.461 0 015.531-8.621 10.709 10.709 0 0113.41 2.461.591.591 0 01.129.727c-.211.452-.376.926-.586 1.459z" fill="#fff"/><path data-name="Tracé 23" d="M10.435 24.093c.178-.528.343-1.014.5-1.5.073-.222.253-.161.406-.155a7.915 7.915 0 016.306 3.232 7.807 7.807 0 01.914 8.509 7.979 7.979 0 01-6.909 4.732c-.516.047-.782-.058-.859-.588a2.3 2.3 0 00-.245-.682c-.156-.31-.065-.381.257-.373a6.839 6.839 0 003.67-.929 6.58 6.58 0 001.9-9.616 6.487 6.487 0 00-5.136-2.627c-.25-.003-.507-.003-.804-.003z" fill="#fff"/><path data-name="Tracé 24" d="M29.02 65.141a6.707 6.707 0 00-6.675-7.266 6.687 6.687 0 00-6.592 7.24c-.511-.166-1.009-.32-1.5-.492-.236-.083-.141-.306-.133-.465a7.959 7.959 0 012.995-6.032 7.882 7.882 0 018.4-1.268 8 8 0 015.123 6.986c.078.706.061.707-.611.928q-.254.083-.5.175c-.154.054-.305.115-.507.194z" fill="#fff"/><path data-name="Tracé 25" d="M29.316 58.607a8.947 8.947 0 00-9.839-2.715 8.974 8.974 0 00-6.146 8.02c-.018.407-.149.5-.512.419a3.506 3.506 0 00-.53-.072c-.687-.05-.657.076-.616-.688a10.74 10.74 0 018.128-9.507 10.606 10.606 0 018.638 1.545 1.024 1.024 0 01.489.728c.128.7.315 1.387.478 2.079.044.091.085.191-.09.191z" fill="#fff"/><path data-name="Tracé 26" d="M223.925 28.699a5.1 5.1 0 01-3.587-1.3c-.245-.217-.337-.4-.072-.67.235-.243.384-.672.651-.752.292-.087.506.362.778.547a3.582 3.582 0 002.421.692 1.549 1.549 0 001.039-.463.9.9 0 00-.064-1.4 5.1 5.1 0 00-1.449-.773 10.982 10.982 0 01-2.258-1.114 2.389 2.389 0 01-.789-3.173 2.766 2.766 0 011.958-1.31 5.552 5.552 0 012.883.113 1.815 1.815 0 011.471 2.219c-.017.18-.06.263-.253.257-.372-.01-.746-.012-1.118 0-.231.008-.283-.114-.259-.3.061-.494-.262-.707-.646-.838a2.625 2.625 0 00-1.811.043.936.936 0 00-.265 1.709 6.81 6.81 0 001.786.859 8.984 8.984 0 011.745.842 2.371 2.371 0 011.171 2.2 2.516 2.516 0 01-1.527 2.2 3.931 3.931 0 01-1.805.412z" fill="#fff"/><path data-name="Tracé 27" d="M15.746 20.073c-.368-.129-.685-.245-1.006-.351-.668-.22-.669-.218-.611-.935a8.287 8.287 0 016.594-7.461 8.325 8.325 0 018.839 3.979.934.934 0 01.1.858c-.258.729-.468 1.475-.724 2.3a6.682 6.682 0 00-2.7-4.4 6.53 6.53 0 00-4.983-1.145 6.706 6.706 0 00-5.509 7.155z" fill="#fff"/><path data-name="Tracé 28" d="M27.739 49.336c.07.523.126 1.032.209 1.536.047.29-.164.359-.343.456a10.582 10.582 0 01-3.711 1.24 10.512 10.512 0 01-8.393-2.4 10.514 10.514 0 01-3.843-7.529c-.024-.32.036-.477.4-.466a3.9 3.9 0 00.869-.093c.3-.06.383.031.4.338a8.665 8.665 0 002.346 5.614 8.74 8.74 0 007.359 2.931c1.764-.127 2.138-.278 4.707-1.627z" fill="#fff"/><path data-name="Tracé 29" d="M72.661 49.466c0 .559-.016 1.093.006 1.625.014.333-.229.4-.439.5a10.817 10.817 0 01-7.716.658 10.813 10.813 0 01-7.746-9.627c-.018-.3.023-.477.37-.437a1.061 1.061 0 00.194-.011c.349-.029.792-.244 1.017-.047.188.165.112.635.147.971a9.087 9.087 0 009.6 7.878c1.828-.171 2.124-.269 4.567-1.51z" fill="#fff"/><path data-name="Tracé 30" d="M169.618 65.535a3.557 3.557 0 013.953-1.719 2.242 2.242 0 011.927 2.086 32.424 32.424 0 01.09 4.072c.018.789.014.737.783.9.516.11.162.609.235.922.042.179.091.438-.269.424-.469-.02-.941.011-1.41-.019a.866.866 0 01-.938-.994c-.007-1.327-.014-2.655.01-3.982.039-2.07-1.242-2.406-2.736-1.762a2.728 2.728 0 00-1.6 2.677 107.787 107.787 0 000 3.641c0 .32-.052.447-.414.444-1.18-.01-1.18.006-1.18-1.178 0-1.7-.011-3.4.007-5.1.005-.462-.109-.731-.622-.658-.34.049-.438-.08-.434-.423.012-.94 0-.94.927-.94h.146c1.38.004 1.495.116 1.525 1.609z" fill="#fff"/><path data-name="Tracé 31" d="M179.922 65.501a3.543 3.543 0 013.7-1.733 2.391 2.391 0 012.187 2.492c.063 1.292.029 2.589.037 3.884 0 .649.045.714.674.7.3 0 .377.08.376.378 0 .991.012.991-.976.991-.227 0-.454.008-.68-.008-.709-.049-.978-.337-.979-1.053 0-1.328-.014-2.655.006-3.982.032-2.089-1.354-2.325-2.741-1.707a2.826 2.826 0 00-1.6 2.828c-.008 1.165-.013 2.331.007 3.5.005.336-.085.438-.429.436-1.173-.007-1.173.007-1.173-1.185 0-1.7-.013-3.4.009-5.1.006-.469-.112-.725-.621-.649-.357.053-.429-.114-.426-.439.007-.923-.007-.923.907-.923 1.565-.001 1.565-.001 1.722 1.57z" fill="#fff"/><path data-name="Tracé 32" d="M72.661 56.966a10.723 10.723 0 00-3.441-1.4 9.089 9.089 0 00-10.62 7.118 9.505 9.505 0 00-.168 1.347c-.013.3-.119.36-.38.3a5 5 0 00-.53-.074c-.795-.084-.8-.083-.7-.909a10.767 10.767 0 0115.291-8.595c.4.185.617.394.561.868a12.129 12.129 0 00-.013 1.345z" fill="#fff"/><path data-name="Tracé 33" d="M49.086 53.196c0-1.263.005-2.526 0-3.789a1.057 1.057 0 01.169-.639 8.215 8.215 0 016.8-3.813.318.318 0 01.374.272 8.158 8.158 0 00.349 1.007c.144.315.063.389-.26.383a6.878 6.878 0 00-3.672.928 6.59 6.59 0 00-1.978 9.505 6.5 6.5 0 005.323 2.744c.709.018.709.019.459.7l-.031.091c-.339.945-.342.962-1.35.824a8.28 8.28 0 01-5.91-3.612 1.25 1.25 0 01-.236-.766c.013-1.28.005-2.559.005-3.839z" fill="#fff"/><path data-name="Tracé 34" d="M26.504 21.521c0-.757.01-1.451 0-2.144a4.079 4.079 0 00-3.608-4.036 4.086 4.086 0 00-4.564 3.306 14.535 14.535 0 00-.069 2.279 1.064 1.064 0 01-.061.583l-1.479-.922c-.112-.07-.115-.18-.127-.3a5.928 5.928 0 013.427-6.15 5.807 5.807 0 018.115 4.633c.145 1.709.031 1.908-1.634 2.751z" fill="#fff"/><path data-name="Tracé 35" d="M26.504 66.61c0-.745.007-1.418 0-2.092a3.935 3.935 0 00-2.2-3.671 3.943 3.943 0 00-4.237.224 3.834 3.834 0 00-1.788 3.123c-.042.783-.008 1.57-.008 2.423-.567-.357-1.053-.667-1.544-.971a.309.309 0 01-.137-.288 6.1 6.1 0 011.506-4.763 5.557 5.557 0 015.7-1.7 5.568 5.568 0 014.219 4.253 8.58 8.58 0 01.154 2.172.4.4 0 01-.229.385c-.452.272-.897.564-1.436.905z" fill="#fff"/><path data-name="Tracé 36" d="M63.35 39.803c.082 1-.059 1.924.1 2.839a4.053 4.053 0 004.215 3.4 4.091 4.091 0 003.973-4.048c.009-.711 0-1.423 0-2.183.539.337 1.038.652 1.539.964a.274.274 0 01.122.243 5.888 5.888 0 01-4.582 6.575 5.838 5.838 0 01-7.02-5.5c-.027-.854.083-1.5.959-1.83a3.993 3.993 0 00.694-.46z" fill="#fff"/><path data-name="Tracé 37" d="M8.944 34.817c.984-.066 1.894.049 2.8-.085a4.1 4.1 0 003.486-4.1 4.1 4.1 0 00-3.629-4.025c-.857-.095-1.716-.014-2.622-.068l.96-1.524a.276.276 0 01.248-.121 6.09 6.09 0 015.159 1.87 5.5 5.5 0 011.066 6.182 5.622 5.622 0 01-5.071 3.511c-.862.072-1.593.014-1.928-.954a3.375 3.375 0 00-.469-.686z" fill="#fff"/><path data-name="Tracé 38" d="M58.359 57.334c-.344.542-.647 1.016-.945 1.493a.3.3 0 01-.269.167 6.038 6.038 0 01-5.444-2.2 5.493 5.493 0 01-.752-5.94 5.624 5.624 0 014.934-3.418c.915-.088 1.688-.041 2.055.978a3.546 3.546 0 00.458.671c-.744 0-1.415-.01-2.085 0a4.124 4.124 0 00-4.036 2.919 4.139 4.139 0 004.078 5.326c.647.016 1.296.004 2.006.004z" fill="#fff"/><path data-name="Tracé 39" d="M13.24 57.334c-.344.537-.65 1.009-.946 1.485a.3.3 0 01-.263.174 6.125 6.125 0 01-5.062-1.755 5.512 5.512 0 01-1.247-6.109 5.559 5.559 0 014.938-3.679c.941-.1 1.794-.1 2.18 1a3.334 3.334 0 00.436.639h-1.931a4.538 4.538 0 00-2.2.5 4.127 4.127 0 00-2.129 4.193 4.131 4.131 0 003.058 3.409 5.381 5.381 0 001.3.146c.595.001 1.195-.003 1.866-.003z" fill="#fff"/><path data-name="Tracé 40" d="M72.767 45.96v2.125c0 .3-.219.414-.413.555a8.3 8.3 0 01-12.884-4.742 9.093 9.093 0 01-.233-1.729.373.373 0 01.32-.443 5.986 5.986 0 00.963-.33c.365-.172.4-.018.388.294a6.554 6.554 0 001.826 4.814 6.622 6.622 0 009.626-.1c.133-.142.26-.283.407-.444z" fill="#fff"/><path data-name="Tracé 41" d="M28.136 21.881c-.1.557-.208 1.112-.288 1.671-.035.245-.219.35-.366.49a9.023 9.023 0 00-2.181 10.191 8.52 8.52 0 001.4 2.257.962.962 0 01.256.7c-.018.59-.006 1.18-.006 1.879a10.492 10.492 0 01-4.025-8.289 10.386 10.386 0 015.091-9.2c.258.016.148.173.119.301z" fill="#fff"/><path data-name="Tracé 42" d="M27.413 46.258c.059.608.075 1.127.17 1.632a.649.649 0 01-.311.728 8.341 8.341 0 01-9.456.2 8.218 8.218 0 01-3.7-6.462c-.028-.37.026-.613.458-.672a2.4 2.4 0 00.731-.253c.363-.183.507-.138.476.308a5.674 5.674 0 00.228 1.92 6.607 6.607 0 0011.034 2.952c.1-.098.204-.19.37-.353z" fill="#fff"/><path data-name="Tracé 43" d="M32.542.274a10.712 10.712 0 01-16.3 5.4 13.429 13.429 0 011.448-.875c.162-.1.276.029.4.091a9 9 0 008.325.118A8.8 8.8 0 0030.55.847a.577.577 0 01.534-.39c.481-.035.957-.118 1.458-.183z" fill="#fff"/><path data-name="Tracé 44" d="M72.66 60.33a7.02 7.02 0 00-1.112-1.069 6.382 6.382 0 00-6.6-.848 6.307 6.307 0 00-4.014 5.607c-.029.327-.1.463-.445.422a3.37 3.37 0 00-.825 0c-.353.046-.427-.075-.414-.417a8.252 8.252 0 016.179-7.542 8.289 8.289 0 016.856 1.234.725.725 0 01.387.711c-.035.579-.012 1.163-.012 1.902z" fill="#fff"/><path data-name="Tracé 45" d="M18.262 39.774c0 .805-.01 1.5 0 2.19a4.034 4.034 0 003.932 4.077 4.053 4.053 0 004.236-3.321 5.589 5.589 0 00.069-1.015c.01-.609 0-1.219 0-1.887.359.15.543.3.556.682.047 1.359.128 2.717.217 4.074a1.073 1.073 0 01-.214.763 5.809 5.809 0 01-6.3 2.156 5.852 5.852 0 01-4.161-5.15c-.088-.98-.008-1.777 1.057-2.159a3.338 3.338 0 00.608-.41z" fill="#fff"/><path data-name="Tracé 46" d="M148.318 63.736a4.017 4.017 0 011.992.425 1.419 1.419 0 01.749 1.766c-.162.414-.655.107-.992.171-.141.027-.351.1-.406-.19a.9.9 0 00-.942-.88 2.514 2.514 0 00-1.2.113.913.913 0 00-.635.675.833.833 0 00.4.87 7.2 7.2 0 001.62.762 6.813 6.813 0 011.557.781 2.174 2.174 0 01-.235 3.715 4.431 4.431 0 01-5-.766c-.145-.154-.2-.267-.04-.446.214-.241.358-.622.618-.725s.451.314.692.476a3.075 3.075 0 002.34.568 1.083 1.083 0 00.947-.794c.127-.5-.19-.806-.579-1.01a20.46 20.46 0 00-1.543-.706 6.213 6.213 0 01-1.494-.8 2.059 2.059 0 01-.863-2.08 2.09 2.09 0 011.409-1.65 4.163 4.163 0 011.605-.275z" fill="#fff"/><path data-name="Tracé 47" d="M227.397 63.737a3.889 3.889 0 011.967.448 1.427 1.427 0 01.715 1.739c-.187.439-.718.1-1.085.177-.151.033-.35.04-.325-.22.052-.536-.32-.7-.729-.806a2.276 2.276 0 00-1.478.1.821.821 0 00-.212 1.471 5.618 5.618 0 001.428.712c.46.2.937.368 1.375.608a2.181 2.181 0 011.35 2.213 2.224 2.224 0 01-1.676 1.993 4.356 4.356 0 01-4.434-.948c-.22-.192-.241-.342-.037-.556s.354-.595.6-.669c.227-.069.429.321.664.483a3.047 3.047 0 002.339.572 1.154 1.154 0 00.965-.841.9.9 0 00-.6-.962c-.514-.271-1.054-.494-1.588-.725a6.238 6.238 0 01-1.409-.752 2.075 2.075 0 01-.924-2.012 2.116 2.116 0 011.473-1.766 4.352 4.352 0 011.621-.259z" fill="#fff"/><path data-name="Tracé 48" d="M140.949 63.741a3.793 3.793 0 012.047.507 1.6 1.6 0 01.651 1.7c-.02.064-.033.139-.106.14-.4.009-.81.022-1.213.007-.163-.006-.111-.171-.111-.273a.591.591 0 00-.147-.444 2.029 2.029 0 00-2.461.086.75.75 0 00.042 1.052 2.4 2.4 0 00.854.543c.655.28 1.326.525 1.961.842a2.242 2.242 0 011.484 2.279 2.359 2.359 0 01-1.959 2.082 4.407 4.407 0 01-4.087-.97c-.287-.244-.286-.421-.051-.707.516-.629.5-.638 1.138-.159a2.986 2.986 0 002.367.632 1.081 1.081 0 00.982-.812c.129-.531-.234-.821-.63-1.028-.5-.262-1.028-.472-1.547-.7a6.209 6.209 0 01-1.485-.814 2.1 2.1 0 01.56-3.679 4.4 4.4 0 011.711-.284z" fill="#fff"/><path data-name="Tracé 49" d="M195.506 63.74a3.972 3.972 0 011.881.4 1.4 1.4 0 01.8 1.778c-.17.442-.71.114-1.074.19-.161.034-.335.026-.313-.229.042-.473-.271-.657-.651-.771a2.274 2.274 0 00-1.57.074.813.813 0 00-.212 1.465 5.942 5.942 0 001.652.8 7.335 7.335 0 011.521.747 2.177 2.177 0 01-.2 3.768 4.432 4.432 0 01-4.958-.759c-.161-.168-.214-.3-.042-.489.2-.229.338-.6.584-.692.281-.11.458.3.7.46a3.084 3.084 0 002.288.586 1.1 1.1 0 001-.791c.144-.547-.225-.851-.644-1.066-.488-.251-1-.46-1.5-.675a6.328 6.328 0 01-1.451-.777 2.064 2.064 0 01-.876-2.076 2.078 2.078 0 011.4-1.657 4.327 4.327 0 011.665-.286z" fill="#fff"/><path data-name="Tracé 50" d="M71.654 66.619c-.077-1 .074-1.927-.091-2.841a4.093 4.093 0 00-4.359-3.407 4.083 4.083 0 00-3.823 4.043c-.006.43-.124.5-.494.351a1.9 1.9 0 00-.617-.126c-.479-.016-.605-.23-.552-.7a5.829 5.829 0 014.428-5.085 5.8 5.8 0 016.2 2.452 1.754 1.754 0 01.323 1.039c-.008 1 0 2.009.051 3.012a.77.77 0 01-.458.851 5.071 5.071 0 00-.608.411z" fill="#fff"/><path data-name="Tracé 51" d="M20.732 69.148c-.524-.565-1-1.135-1.534-1.649a.538.538 0 01-.125-.447c0-.906-.007-1.813 0-2.719a3.347 3.347 0 012.115-2.94 3.331 3.331 0 013.509.723 3.216 3.216 0 011 2.492v.049a10.429 10.429 0 01-.048 2.561c-.206.789-1.115 1.218-1.49 1.983-.192-.1-.116-.247-.117-.358-.007-.955 0-1.91 0-2.865 0-2.361-.4-3.134-1.639-3.148s-1.663.774-1.663 3.171z" fill="#fff"/><path data-name="Tracé 52" d="M6.412 32.329h4.419a1.812 1.812 0 001.426-.488 1.555 1.555 0 00.384-1.741 1.573 1.573 0 00-1.544-1.053c-1.41-.013-2.82-.006-4.23-.007a1.81 1.81 0 01-.493-.048c.616-.5 1.221-1 1.779-1.548.065-.064.213-.062.322-.062.956 0 1.914-.021 2.868.02a3.28 3.28 0 013.067 3.08 3.29 3.29 0 01-2.922 3.457c-1.019.106-2.04.026-3.06.053a.423.423 0 01-.347-.132c-.51-.54-1.097-.992-1.669-1.531z" fill="#fff"/><path data-name="Tracé 53" d="M20.733 37.099c0 1.706-.005 3.271 0 4.835a1.556 1.556 0 00.886 1.454 1.563 1.563 0 001.7-.108 1.623 1.623 0 00.714-1.41c-.007-1.392 0-2.783 0-4.176v-.606a11.775 11.775 0 001.542 1.834c.141.133.116.291.116.449 0 .907.01 1.813 0 2.719a3.312 3.312 0 01-3.313 3.15 3.305 3.305 0 01-3.306-3.154c-.01-.906 0-1.813 0-2.719a.58.58 0 01.153-.484 12.294 12.294 0 001.508-1.784z" fill="#fff"/><path data-name="Tracé 54" d="M24.035 24.256v-4.8a1.629 1.629 0 00-1.456-1.663 1.644 1.644 0 00-1.786 1.183 2.037 2.037 0 00-.058.625v4.623a16.142 16.142 0 00-1.57-1.826c-.125-.12-.087-.27-.088-.411 0-.907-.011-1.814 0-2.721a3.287 3.287 0 013.314-3.146 3.3 3.3 0 013.305 3.157c.008.907 0 1.814 0 2.721a.581.581 0 01-.166.479 12.155 12.155 0 00-1.495 1.779z" fill="#fff"/><path data-name="Tracé 55" d="M15.791 51.554h-2.8c-.681 0-1.364-.018-2.041.036a1.6 1.6 0 00-1.5 1.663 1.612 1.612 0 001.6 1.572c1.459.03 2.919.01 4.379.017a.557.557 0 01.427.084 14.142 14.142 0 00-1.819 1.52c-.056.055-.184.054-.278.053-.989 0-1.98.02-2.967-.028a3.294 3.294 0 01-3.007-3.144 3.308 3.308 0 012.9-3.389c1.02-.1 2.042-.023 3.063-.049a.478.478 0 01.391.149c.504.536 1.085.977 1.652 1.516z" fill="#fff"/><path data-name="Tracé 56" d="M60.903 51.554h-2.316c-.778 0-1.558-.025-2.335.011a1.612 1.612 0 00-1.669 1.7 1.619 1.619 0 001.744 1.574c1.41.014 2.821 0 4.232 0h.369c-.6.55-1.209 1.049-1.768 1.6a.43.43 0 01-.275.059c-.989 0-1.979.021-2.966-.028a3.271 3.271 0 01-3-3.187 3.29 3.29 0 012.886-3.347c1.02-.1 2.042-.024 3.062-.049a.482.482 0 01.394.145c.501.537 1.081.979 1.642 1.522z" fill="#fff"/><path data-name="Tracé 57" d="M65.863 40.326v1.506a1.63 1.63 0 001.626 1.74 1.639 1.639 0 001.66-1.759c0-.988 0-1.976.005-2.964 0-.179-.108-.47.1-.518a1.011 1.011 0 01.928.073 1.444 1.444 0 01.656 1.311 19.709 19.709 0 00-.017 2.184 3.322 3.322 0 01-3.328 3.34 3.305 3.305 0 01-3.3-3.313v-2.478a1.258 1.258 0 011.493-1.154c.223.052.172.2.173.333.007.567.004 1.134.004 1.699z" fill="#fff"/><path data-name="Tracé 58" d="M.112 32.851l.012-1.631a10.747 10.747 0 0110.356 9.261c.181 1.178.18 1.164-1.005 1.309-.4.048-.577.024-.606-.465a9.021 9.021 0 00-8.228-8.4c-.177-.011-.353-.048-.529-.074z" fill="#fff"/><path data-name="Tracé 59" d="M10.539 20.196a10.789 10.789 0 01-9.9 9.926c-.355.028-.394-.083-.357-.393.146-1.212.137-1.214 1.289-1.419a9.1 9.1 0 007.293-8.046c.056-.745.056-.744.82-.65a1.5 1.5 0 00.291.021c.472-.039.733.107.564.561z" fill="#fff"/><path data-name="Tracé 60" d="M5.143 56.583a28.354 28.354 0 01-2.178-4.139 1.151 1.151 0 010-.713 8.236 8.236 0 017.856-6.77c.3-.015.437.048.505.354a4.843 4.843 0 00.343.956c.14.3.033.353-.251.347a6.865 6.865 0 00-3.715.937 6.583 6.583 0 00-2.9 7.651c.028.092.047.187.07.281a2.982 2.982 0 00.186.505l.192.4c.07.121.07.207-.108.191z" fill="#fff"/><path data-name="Tracé 61" d="M69.459 68.886a.591.591 0 01-.311-.624 340.11 340.11 0 000-3.642 1.656 1.656 0 00-1.635-1.791 1.645 1.645 0 00-1.652 1.769c0 .356-.007.712 0 1.068.006.246-.076.283-.284.165a3.013 3.013 0 00-.7-.339c-.6-.153-.724-.519-.707-1.1a3.369 3.369 0 013.306-3.229 3.351 3.351 0 013.337 3.19c.015.89 0 1.781 0 2.671a.552.552 0 01-.119.452 13.958 13.958 0 00-1.235 1.41z" fill="#fff"/><path data-name="Tracé 62" d="M124.998 65.871a4.5 4.5 0 01.9-1.33 2.449 2.449 0 011.8-.709c.3 0 .394.112.371.4a3.519 3.519 0 01-.035 1.01c-.157.378-.6.1-.906.182a2.629 2.629 0 00-1.838 1.78 4.456 4.456 0 00-.229 1.578c.007 1.02-.01 2.041.01 3.061.006.306-.093.375-.385.379-1.229.014-1.229.024-1.229-1.182 0-1.7-.013-3.4.009-5.1.006-.471-.115-.726-.623-.648-.374.057-.414-.137-.412-.447.008-.916 0-.913.9-.917 1.286-.006 1.768-.089 1.67 1.666-.005.049-.003.097-.003.277z" fill="#fff"/><path data-name="Tracé 63" d="M.133 35.363l-.029-1.628a7.682 7.682 0 015.46 2.283 8.047 8.047 0 012.525 5.615c.015.31-.063.469-.377.544a5.531 5.531 0 00-.963.329c-.274.122-.338.047-.326-.225a6.552 6.552 0 00-.251-2.16 6.58 6.58 0 00-6.039-4.758z" fill="#fff"/><path data-name="Tracé 64" d="M2.27 50.768c-.242-.716-.46-1.375-.689-2.029a.716.716 0 01.068-.643 10.7 10.7 0 018.84-5.6c.24-.019.365.026.365.292a5.611 5.611 0 00.055.629c.081.714.081.7-.641.782a8.917 8.917 0 00-7.664 5.81c-.05.119-.085.244-.136.363s-.111.22-.198.396z" fill="#fff"/><path data-name="Tracé 65" d="M67.529 8.691a11.265 11.265 0 013.984.755.487.487 0 01.382.568 5.728 5.728 0 000 .921c.025.38-.016.526-.453.314a8.747 8.747 0 00-3.4-.878 8.888 8.888 0 00-6.076 1.875c-.3.228-.45.232-.626-.089a3.128 3.128 0 00-.293-.386c-.463-.6-.463-.6.172-1.053a10.63 10.63 0 016.31-2.027z" fill="#fff"/><path data-name="Tracé 66" d="M133.661 27.512c0 .647-.012 1.294.005 1.941.007.276-.041.4-.364.4-1.1-.021-2.2-.017-3.3 0-.286 0-.349-.1-.346-.361.012-1.31.015-2.62 0-3.93 0-.308.095-.379.387-.374 1.085.016 2.17.018 3.255 0 .312-.005.382.1.373.391-.023.638-.01 1.286-.01 1.933z" fill="#fff"/><path data-name="Tracé 67" d="M8.08 19.779a8.34 8.34 0 01-7.059 7.806c-.3.041-.337-.01-.291-.318a1.831 1.831 0 011.4-1.734 6.362 6.362 0 004.292-6.241c0-.553 0-.552.512-.362a3.915 3.915 0 00.6.2c.421.087.727.233.546.649z" fill="#fff"/><path data-name="Tracé 68" d="M69.151 24.078v-3.282-1.261a1.638 1.638 0 00-1.466-1.746 1.635 1.635 0 00-1.8 1.338.879.879 0 01-.075.128c-.313-.578-.609-1.126-.907-1.672-.1-.178.047-.269.136-.372a3.336 3.336 0 013.55-.916 3.348 3.348 0 012.235 2.951c.022.921 0 1.844 0 2.765a.551.551 0 01-.148.441c-.526.508-.988 1.068-1.525 1.626z" fill="#fff"/><path data-name="Tracé 69" d="M18.707 4.245c.687-.318 1.3-.6 1.916-.889a.668.668 0 01.427-.013 6.5 6.5 0 006.189-2 .92.92 0 01.534-.3c.62-.11 1.234-.246 1.877-.377a8.14 8.14 0 01-10.943 3.579z" fill="#fff"/><path data-name="Tracé 70" d="M71.814 14.377a7.291 7.291 0 00-2.707-1.354 6.586 6.586 0 00-5.761 1.266c-.262.2-.39.21-.535-.077a2.162 2.162 0 00-.163-.241c-.611-.882-.615-.889.328-1.465a8.288 8.288 0 018.416-.39.73.73 0 01.508.812c-.044.448-.015.9-.022 1.356 0 .026-.034.051-.064.093z" fill="#fff"/><path data-name="Tracé 71" d="M32.948 66.68a10.666 10.666 0 00-2.715.661 8.976 8.976 0 00-4.542 4.065c-.162.292-.312.406-.639.283a5.784 5.784 0 00-.889-.241c-.28-.057-.284-.177-.168-.4a10.665 10.665 0 017.675-5.847c.145-.03.289-.083.375.1a1.041 1.041 0 00.076.124z" fill="#fff"/><path data-name="Tracé 72" d="M71.635 21.541v-1.984a3.971 3.971 0 00-2.561-3.932 4 4 0 00-4.493.876c-.058.053-.121.1-.2.164-.241-.388-.455-.77-.708-1.124-.177-.248-.1-.385.1-.562a5.87 5.87 0 016.3-.734c.086.045.168.1.255.14a2.436 2.436 0 011.594 2.708 35.194 35.194 0 00-.035 3.931c0 .18.074.4-.252.517z" fill="#fff"/><path data-name="Tracé 73" d="M190.272 67.618c0 .891.016 1.782-.007 2.671-.011.429.166.608.571.563.346-.039.478.049.467.436-.027.929 0 .93-.946.929-.21 0-.421.007-.632 0-.76-.039-1.039-.333-1.04-1.1v-5.1c0-.693 0-.712-.69-.715-.3 0-.336-.123-.34-.374-.018-1-.026-1 .964-1 1.548 0 1.652.1 1.652 1.649z" fill="#fff"/><path data-name="Tracé 74" d="M155.084 67.611c0 .873.018 1.747-.007 2.619-.014.464.164.683.62.62.387-.053.447.114.44.457-.02.909 0 .909-.91.909-.227 0-.454.007-.68 0-.765-.04-1.036-.328-1.036-1.1v-5.094c0-.7 0-.714-.678-.721-.283 0-.35-.1-.358-.365-.029-1-.038-1 .969-1 1.549 0 1.64.091 1.64 1.644z" fill="#fff"/><path data-name="Tracé 75" d="M95.316 67.603c0 .873.017 1.747-.007 2.619-.013.456.147.692.612.629.375-.05.458.09.449.449-.023.917 0 .918-.9.917-.259 0-.519.009-.777-.011-.679-.054-.946-.343-.948-1.035 0-1.746-.015-3.493.009-5.238.006-.48-.133-.712-.63-.64-.32.047-.414-.082-.416-.4-.005-.963-.019-.963.963-.963 1.558 0 1.647.089 1.647 1.636z" fill="#fff"/><path data-name="Tracé 76" d="M.111 37.809l.012-1.632a5.817 5.817 0 015.515 5.953c.009.662-.128 1.093-.76 1.356a6.178 6.178 0 00-.922.607c0-.763.009-1.448 0-2.133a4.117 4.117 0 00-3.083-4c-.248-.065-.508-.101-.762-.151z" fill="#fff"/><path data-name="Tracé 77" d="M43.709 70.004c1.757-.315 2.911-1.536 4.135-2.634a3.718 3.718 0 001.216-2.766c.021-.738 0-1.476 0-2.269.546.343 1.034.651 1.524.954a.316.316 0 01.141.286 5.91 5.91 0 01-3.406 6.158 5.773 5.773 0 01-3.37.43.453.453 0 01-.137-.045c-.022-.013-.041-.044-.103-.114z" fill="#fff"/><path data-name="Tracé 78" d="M22.408 33.39a14.542 14.542 0 00.735 2.095 1.193 1.193 0 01.073.474q.007 2.89 0 5.781v.146a.846.846 0 01-.843.881.825.825 0 01-.822-.9c-.012-1.441.078-2.889-.028-4.322a9.4 9.4 0 01.885-4.155z" fill="#fff"/><path data-name="Tracé 79" d="M22.375 28.006a13.2 13.2 0 00-.739-2.1 1.08 1.08 0 01-.086-.473v-5.874c0-.731.519-1.13 1.134-.9a.783.783 0 01.53.792q.009 3.034 0 6.069a4 4 0 01-.4 1.135c-.121.405-.263.811-.439 1.351z" fill="#fff"/><path data-name="Tracé 80" d="M34.326 69.12a9.107 9.107 0 00-2.867.4 6.486 6.486 0 00-3.19 2.437.538.538 0 01-.673.274 4.839 4.839 0 00-.906-.17c-.416-.031-.339-.208-.187-.461a8.319 8.319 0 013.417-3.226 8.241 8.241 0 013.455-.887.43.43 0 01.506.332c.129.412.281.82.445 1.301z" fill="#fff"/><path data-name="Tracé 81" d="M49.026 47.556c-.086-.644-.165-1.264-.253-1.884-.028-.2.106-.294.224-.4a10.705 10.705 0 016.631-2.784c.248-.016.339.04.35.3.018.432.27.992.082 1.257-.2.282-.816.122-1.244.193a9.056 9.056 0 00-5.387 2.949c-.1.109-.192.219-.29.328-.009.015-.03.015-.113.041z" fill="#fff"/><path data-name="Tracé 82" d="M2.503 30.666a15.758 15.758 0 002.208-.774.9.9 0 01.38-.045h5.778a1.775 1.775 0 01.431.047.794.794 0 01.629.855.788.788 0 01-.767.743c-.484.026-.971.011-1.456.011-1.052 0-2.112-.079-3.154.02a9.5 9.5 0 01-4.049-.857z" fill="#fff"/><path data-name="Tracé 83" d="M64.837 53.243c-1.3.266-2.34.916-3.623.823-1.546-.112-3.107-.026-4.662-.028a2.436 2.436 0 01-.483-.031.828.828 0 01-.677-.827.811.811 0 01.775-.787c.387-.026.777-.01 1.165-.011 1.49 0 2.98.009 4.47-.006a3.048 3.048 0 011.312.25c.508.227 1.049.375 1.723.617z" fill="#fff"/><path data-name="Tracé 84" d="M19.464 53.259a9.224 9.224 0 01-3.395.8c-1.535-.093-3.081-.021-4.622-.023a2.59 2.59 0 01-.484-.027.8.8 0 01-.683-.866.789.789 0 01.753-.753c.274-.024.551-.011.827-.011 1.525 0 3.05.011 4.574-.006a3.544 3.544 0 011.694.3 8.906 8.906 0 001.144.4c.042.089.246.002.192.186z" fill="#fff"/><path data-name="Tracé 85" d="M49.049 58.951a.57.57 0 01.378.271 8.834 8.834 0 006.153 3.007c.4.024.669.082.484.568a.211.211 0 000 .048c-.132 1.119-.135 1.142-1.245 1a10.627 10.627 0 01-5.55-2.464.523.523 0 01-.22-.449c.008-.644 0-1.292 0-1.981z" fill="#fff"/><path data-name="Tracé 86" d="M.122 40.328l-.017-1.635a3.215 3.215 0 013.006 2.906c.045 1 .01 2.007.016 3.011a.488.488 0 01-.154.387 12.292 12.292 0 00-1.416 1.667c-.162-.094-.088-.237-.088-.347-.006-1.393 0-2.785 0-4.178a1.639 1.639 0 00-1.347-1.811z" fill="#fff"/><path data-name="Tracé 87" d="M23.218 67.517c0 1 .007 2.009 0 3.013-.005.536-.1.593-.6.425-1.067-.36-1.067-.36-1.067-1.479v-4.86c0-.617.328-.972.849-.961a.818.818 0 01.816.9c.011.985.002 1.971.002 2.962z" fill="#fff"/><path data-name="Tracé 88" d="M1.299 24.973c.228-.692.432-1.3.629-1.915.056-.174.206-.243.334-.337a4.041 4.041 0 001.689-3.434 2.272 2.272 0 01.323-1.433c.122-.169.2-.291.395-.108a.115.115 0 00.04.027c.822.289.949.893.931 1.7a5.866 5.866 0 01-4.341 5.5z" fill="#fff"/><path data-name="Tracé 89" d="M26.955 35.407a8.068 8.068 0 01.629-10.256c-.222 1.76-.413 3.43-.511 5.106s-.16 3.353-.118 5.15z" fill="#fff"/><path data-name="Tracé 90" d="M25.029 8.134a12.4 12.4 0 002.136-.73 1.131 1.131 0 01.519-.092h5.684a.983.983 0 01.58.11c-.336.473-.674.943-1 1.418-.1.147-.245.134-.389.134h-5a.876.876 0 01-.374-.078 22.691 22.691 0 00-2.156-.762z" fill="#fff"/><path data-name="Tracé 91" d="M40.261 3.247a5.066 5.066 0 01-1.493.486c-.513 0-.771-.611-1.189-.9a6.758 6.758 0 00-3.714-1.269c-.275-.009-.55 0-.871 0l.411-1.212c.043-.128.138-.15.259-.174a7.029 7.029 0 016.597 3.069z" fill="#fff"/><path data-name="Tracé 92" d="M63.772 38.297a10.7 10.7 0 01-3.9 2.478 11.248 11.248 0 01-2.989.621c-.283.022-.437-.025-.415-.344a2.535 2.535 0 00-.026-.436c-.094-.876-.095-.879.763-.939a8.564 8.564 0 003.576-1.152 1.613 1.613 0 01.866-.232c.671.014 1.344.004 2.125.004z" fill="#fff"/><path data-name="Tracé 93" d="M10.458 18.857a10.972 10.972 0 01-5.279-1.737c-.254-.159-.332-.3-.131-.559.235-.308.366-.779.667-.93.337-.169.644.292.971.46a9.261 9.261 0 003.987 1.108c.292.009.359.1.306.375a5.647 5.647 0 00-.111.914c-.011.319-.136.444-.41.369z" fill="#fff"/><path data-name="Tracé 94" d="M28.926 72.439a5.76 5.76 0 012.558-2.061 7.2 7.2 0 013.055-.416.33.33 0 01.322.161c.292.481.6.952.951 1.5-.672 0-1.293.014-1.913 0a4.263 4.263 0 00-2.77.865.423.423 0 01-.3.133z" fill="#fff"/><path data-name="Tracé 95" d="M46.907 38.297h2.31a.407.407 0 01.358.194 6.2 6.2 0 011.153 4.394.28.28 0 01-.135.239l-1.527.954c0-.6-.023-1.145 0-1.686a4.292 4.292 0 00-2.159-4.095z" fill="#fff"/><path data-name="Tracé 96" d="M11.776 8.859l1.9-1.476a.624.624 0 01.421-.069 16.487 16.487 0 001.99-.015c1.28-.163 2.321.534 3.485.858-1.035.209-1.9.885-3.024.836-1.567-.068-3.14-.017-4.71-.017z" fill="#fff"/><path data-name="Tracé 97" d="M48.202 42.879c-.4-1.2-1.422-1.73-2.386-2.324a1.737 1.737 0 00-1.025-.237c-.844.041-1.661-.194-2.516-.211a3.163 3.163 0 013.377-1.4c1.764.403 2.666 1.837 2.55 4.172z" fill="#fff"/><path data-name="Tracé 98" d="M64.199 8.293a6.215 6.215 0 01-3.466.691 8.423 8.423 0 01-2.074-.065 6.035 6.035 0 01-1.57-1.258c-.1-.082-.192-.167-.289-.252.105-.164.248-.091.362-.091 1.362-.006 2.725 0 4.087-.01a2.609 2.609 0 011.214.258c.564.279 1.158.489 1.736.727z" fill="#fff"/><path data-name="Tracé 99" d="M28.963 6.509c.571-.538 1.168-1 1.692-1.555.119-.125.264-.1.407-.1h2.672a3.385 3.385 0 011.783.554c.2.124.253.235.032.381a.232.232 0 00-.037.032 1.947 1.947 0 01-1.9.744 34.778 34.778 0 00-4.649-.056z" fill="#fff"/><path data-name="Tracé 100" d="M31.522 4.026c.347-.544.643-1 .933-1.469a.349.349 0 01.3-.2 6.481 6.481 0 014.791 1.491c.3.261.233.335-.065.571a1.416 1.416 0 01-2.007.07 3.7 3.7 0 00-2.344-.467c-.511.007-1.026.004-1.608.004z" fill="#fff"/><path data-name="Tracé 101" d="M69.676 29.34l-.735-2.393a.676.676 0 01-.032-.512 10.709 10.709 0 012.973-3.962c0 .808.011 1.524-.01 2.238 0 .123-.134.251-.223.363a9.233 9.233 0 00-1.67 3.359 8.736 8.736 0 01-.303.907z" fill="#fff"/><path data-name="Tracé 102" d="M11.761 14.759c-.173.512-.338.965-.478 1.427-.062.2-.179.227-.362.221a8.649 8.649 0 01-4.316-1.312c-.288-.175-.409-.319-.131-.615s.431-.742.744-.868c.3-.12.625.3.95.455a7.8 7.8 0 003.593.692z" fill="#fff"/><path data-name="Tracé 103" d="M12.592 65.163a10.331 10.331 0 017.444 4.7 27.517 27.517 0 01-7.444-4.7z" fill="#fff"/><path data-name="Tracé 104" d="M71.218 38.297h2.422a.666.666 0 01.367.1 9.162 9.162 0 004.314 1.343c.12.007.363-.117.356.174-.006.237-.194.211-.354.223a10.093 10.093 0 00-2.892.592.488.488 0 01-.371.015 10.957 10.957 0 01-3.842-2.447z" fill="#fff"/><path data-name="Tracé 105" d="M15.795 9.787c-.576.556-1.178 1.014-1.7 1.567a.374.374 0 01-.308.107c-1.068-.033-2.138.063-3.206-.063a3.37 3.37 0 01-1.056-.341c.387-.405.763-.8 1.14-1.191a.339.339 0 01.27-.079z" fill="#fff"/><path data-name="Tracé 106" d="M5.837 57.255a7.238 7.238 0 002.629 2 7.35 7.35 0 003.3.541c-.174.52-.339.989-.487 1.462-.058.185-.181.195-.337.193a8.152 8.152 0 01-2.388-.389.565.565 0 01-.287-.168 35.151 35.151 0 01-2.621-3.538c-.056-.069-.058-.15.016-.19s.135.02.175.089z" fill="#fff"/><path data-name="Tracé 107" d="M13.25 12.264c-.351.548-.648 1.008-.94 1.473-.063.1-.12.181-.255.187a6.4 6.4 0 01-4.284-1.06l.97-1.087c.081-.091.161-.145.29-.065a5.823 5.823 0 003.3.552c.283-.002.57 0 .919 0z" fill="#fff"/><path data-name="Tracé 108" d="M67.014 7.583a3.573 3.573 0 001.134-1.445.333.333 0 01.322-.237 9.525 9.525 0 003.423-1.054v1.64a.285.285 0 01-.206.291 10.575 10.575 0 01-4.673.805z" fill="#fff"/><path data-name="Tracé 109" d="M68.334 40.245c0 .548.008 1.1 0 1.645a.828.828 0 01-.834.876.831.831 0 01-.821-.89c-.009-1.081.007-2.162-.009-3.242 0-.282.09-.36.357-.343.416.027.958-.128 1.218.079.276.22.066.784.089 1.2.011.223.001.449 0 .675z" fill="#fff"/><path data-name="Tracé 110" d="M68.259 24.902c-.341-.845-.625-1.719-1.037-2.527a5.275 5.275 0 01-.553-2.851c.04-.565.346-.94.835-.939a.845.845 0 01.829.938v5.365z" fill="#fff"/><path data-name="Tracé 111" d="M51.552 42.599a6.864 6.864 0 00-1.114-4.3h1.728c.184 0 .246.105.309.247a8.369 8.369 0 01.743 3.189c.005.156.034.312-.194.379-.476.136-.946.307-1.472.485z" fill="#fff"/><path data-name="Tracé 112" d="M42.997 2.886c-.568.054-1.1.1-1.622.159a.3.3 0 01-.315-.16A9.1 9.1 0 0037.734.052a7.216 7.216 0 011.453-.025 1.726 1.726 0 00.242.009 2.459 2.459 0 012.447 1.2 9.368 9.368 0 011.121 1.65z" fill="#fff"/><path data-name="Tracé 113" d="M51.559 63.814c.516.172.972.333 1.433.475a.3.3 0 01.23.358 9.2 9.2 0 01-.362 2.2.5.5 0 01-.211.31c-.851.523-1.7 1.049-2.594 1.553a7.108 7.108 0 001.504-4.896z" fill="#fff"/><path data-name="Tracé 114" d="M40.26 72.272c-.833.095-1.519.171-2.205.252a.447.447 0 01-.35-.125 10.378 10.378 0 01-2.529-3.534 5.751 5.751 0 00.66.364 9.34 9.34 0 013.485 2.338 7.663 7.663 0 00.939.705z" fill="#fff"/><path data-name="Tracé 115" d="M54.106 5.567a3.174 3.174 0 013.339-.416c.844.439 1.707.843 2.57 1.266-.1.164-.242.083-.353.087-1.275.046-2.554-.079-3.827.073a.392.392 0 01-.273-.069z" fill="#fff"/><path data-name="Tracé 116" d="M53.291 38.297h.781c1.035 0 1.04 0 1.288.988a11.351 11.351 0 01.319 2c.018.27-.02.415-.346.42-.418.007-.969.255-1.213.071s-.127-.777-.195-1.187a11.163 11.163 0 00-.247-1.132c-.102-.366-.241-.727-.387-1.16z" fill="#fff"/><path data-name="Tracé 117" d="M71.891 26.339v4.875c0 .228-.08.318-.31.309-1.211-.051-1.048.272-1.062-1.022a6.889 6.889 0 011.372-4.162z" fill="#fff"/><path data-name="Tracé 118" d="M68.61 5.054c.181-.559.343-1.048.495-1.54.045-.147.1-.263.266-.308a7.124 7.124 0 002.512-1.357v1.933c0 .13-.12.182-.218.238a8.029 8.029 0 01-3.055 1.034z" fill="#fff"/><path data-name="Tracé 119" d="M71.016 71.029c-.315-.451-.6-.865-.89-1.267a.28.28 0 01-.005-.384 11.151 11.151 0 012.514-2.435l.157.033v1.805c0 .151-.1.23-.193.318a9.4 9.4 0 00-1.583 1.93z" fill="#fff"/><path data-name="Tracé 120" d="M68.333 67.785c-.546-.424-1.012-.8-1.492-1.152a.4.4 0 01-.169-.37c0-.6-.011-1.2.006-1.8a.8.8 0 01.843-.813.793.793 0 01.806.8c.016 1.087.006 2.164.006 3.335z" fill="#fff"/><path data-name="Tracé 121" d="M44.675 71.235a28.939 28.939 0 01-2.859.736.511.511 0 01-.371-.029 8.364 8.364 0 01-2.268-1.559c.675 0 1.275.017 1.874-.005a3.326 3.326 0 011.55.246 5.657 5.657 0 002.171.444c.058.108-.034.13-.097.167z" fill="#fff"/><path data-name="Tracé 122" d="M44.107 1.613c.065-.317-.2-.858.106-1.062.236-.158.735.087 1.119.128.33.035.473.161.447.522-.037.5-.018 1-.005 1.5.005.23-.066.337-.3.293a.672.672 0 00-.1-.006c-1.267-.048-1.267-.048-1.267-1.375z" fill="#fff"/><path data-name="Tracé 123" d="M232.609 17.702c.451-.785.869-1.506 1.28-2.23.07-.124.175-.124.289-.124h1.606c-.592.79-1.138 1.519-1.682 2.248-.107.144-.261.1-.4.1-.337.014-.672.006-1.093.006z" fill="#fff"/><path data-name="Tracé 124" d="M55.373 4.119a4.329 4.329 0 00-1.863.933.248.248 0 01-.3.067c-.461-.224-.926-.442-1.406-.671a5.07 5.07 0 011.324-1.166.307.307 0 01.316-.061l1.929.898z" fill="#fff"/><path data-name="Tracé 125" d="M39.536 39.94a5.018 5.018 0 01.775-1.456.357.357 0 01.311-.19c.738.006 1.477 0 2.363 0a4.567 4.567 0 00-1.618 1.6c-.081.141-.2.137-.336.13z" fill="#fff"/><path data-name="Tracé 126" d="M49.703 1.8a14.116 14.116 0 00-1.136 1.469.222.222 0 01-.237.129c-.462-.079-.923-.159-1.384-.243-.209-.038-.148-.16-.079-.283a12.35 12.35 0 01.948-1.4.338.338 0 01.427-.1z" fill="#fff"/><path data-name="Tracé 127" d="M25.009 53.22c.8-.271 1.558-.468 2.278-.8a1.646 1.646 0 01.767-.029 3 3 0 01.332 1.6 1.886 1.886 0 01-1.141-.022 16.4 16.4 0 00-2.236-.749z" fill="#fff"/><path data-name="Tracé 128" d="M32.314 9.836l-.685 1.325a.628.628 0 01-.959.179 17.506 17.506 0 00-1.8-1.5z" fill="#fff"/><path data-name="Tracé 129" d="M52.381 2.766a8.031 8.031 0 00-1.287 1.236.262.262 0 01-.341.081c-.4-.129-.8-.268-1.206-.373-.238-.061-.191-.157-.091-.3a9.578 9.578 0 01.973-1.147.345.345 0 01.436-.064c.478.19.968.364 1.516.567z" fill="#fff"/><path data-name="Tracé 130" d="M81.698 38.322c-.153.492-.295.953-.44 1.413-.019.06-.052.161-.085.164q-.792.075-1.587.123c-.079 0-.066-.094-.061-.155a1.794 1.794 0 01.031-.191c.291-1.45.332-1.477 2.142-1.354z" fill="#fff"/><path data-name="Tracé 131" d="M69.472 2.289c.154-.654.294-1.245.431-1.836.048-.206.21-.165.349-.166h1.309c.106 0 .252-.051.307.071a.364.364 0 01-.078.406 5.407 5.407 0 01-2.318 1.525z" fill="#fff"/><path data-name="Tracé 132" d="M39.419 38.296a7.925 7.925 0 00-.678 1.388.284.284 0 01-.361.228c-.1-.016-.2-.008-.29-.03-.258-.06-.681.113-.752-.14a1.677 1.677 0 01.106-1.275.3.3 0 01.308-.171c.532.002 1.064 0 1.667 0z" fill="#fff"/><path data-name="Tracé 133" d="M93.778 61.47c0-.823 0-.789.841-.835.494-.027.674.116.591.6a1.441 1.441 0 000 .482c.089.5-.116.621-.6.6-.83-.044-.832-.014-.832-.847z" fill="#fff"/><path data-name="Tracé 134" d="M154.973 61.503c0 .8 0 .8-.718.8s-.711 0-.711-.763c0-.893 0-.861.868-.905.477-.024.646.119.563.579a1.636 1.636 0 00-.002.289z" fill="#fff"/><path data-name="Tracé 135" d="M53.826 66.466a13.038 13.038 0 00.193-1.718c0-.2.1-.186.254-.161.335.054.676.075 1.01.131.137.023.388-.085.379.166-.009.268.141.61-.2.786-.526.271-1.064.519-1.636.796z" fill="#fff"/><path data-name="Tracé 136" d="M188.729 61.434c0-.786 0-.786.721-.786.7 0 .7 0 .7.815 0 .84 0 .811-.826.851-.474.024-.7-.088-.6-.591a1.524 1.524 0 00.005-.289z" fill="#fff"/><path data-name="Tracé 137" d="M70.142 53.218a18.506 18.506 0 002.256-.8c.135-.067.261-.037.262.155v1.263c0 .222-.124.234-.29.153a13.508 13.508 0 00-2.228-.771z" fill="#fff"/><path data-name="Tracé 138" d="M75.83 38.296c.966 0 1.933 0 2.9.006.108 0 .351-.11.3.153-.036.193 0 .49-.347.479a6.668 6.668 0 01-2.853-.638z" fill="#fff"/><path data-name="Tracé 139" d="M59.173 38.296a6.814 6.814 0 01-2.824.641c-.357.016-.333-.269-.372-.459-.063-.3.206-.175.327-.176.96-.011 1.917-.006 2.869-.006z" fill="#fff"/><path data-name="Tracé 140" d="M72.845 70.174c0 .467-.008.935 0 1.4.005.207-.063.293-.275.286-.333-.01-.667 0-1.076 0a7.48 7.48 0 011.224-1.726z" fill="#fff"/><path data-name="Tracé 141" d="M.207 42.67l-.1-1.45c.423.064.545.385.554.732.022.865.007 1.732-.027 2.6a12.029 12.029 0 01-.427-1.882z" fill="#fff"/><path data-name="Tracé 142" d="M9.551 62.155c.308.028.694.088 1.081.091.349 0 .4.154.333.45-.058.267-.076.543-.1.7z" fill="#fff"/><path data-name="Tracé 143" d="M36.664 72.535a19.526 19.526 0 01-4.08.126 11.837 11.837 0 014.08-.126z" fill="#fff"/><path data-name="Tracé 144" d="M70.148 8.154c.55-.177.986-.3 1.406-.459.3-.115.345-.012.348.265.006.744.018.742-.684.515-.318-.102-.639-.192-1.07-.321z" fill="#fff"/><path data-name="Tracé 145" d="M25.506 1.756a5.787 5.787 0 01-2.625.886c-.1 0-.26.147-.28-.1a36.208 36.208 0 012.8-.9c.101-.023.126.022.105.114z" fill="#fff"/><path data-name="Tracé 146" d="M42.648.282c.777.09.659-.179.646 1.4L42.237.405c.07-.274.26-.133.411-.123z" fill="#fff"/><path data-name="Tracé 147" d="M59.478 9.814h1.454c-.675.844-1.039.844-1.454 0z" fill="#fff"/><path data-name="Tracé 148" d="M82.64 38.405c0 .455.006.792 0 1.129 0 .114.067.281-.124.312a.579.579 0 01-.372-.018c-.121-.084 0-.236.031-.344a4.054 4.054 0 01.465-1.079z" fill="#fff"/><path data-name="Tracé 149" d="M5.837 57.255c-.116-.065-.188-.048-.192.1l-.5-.772a.206.206 0 00.112-.194 3.041 3.041 0 01.58.866z" fill="#fff"/><path data-name="Tracé 150" d="M15.801 6.484h-.743c.309-.42.402-.427.743 0z" fill="#fff"/><path data-name="Tracé 151" d="M46.652 1.6c-.007-.22-.192-.459.05-.612.082-.052.278.011.291.1.036.238-.222.333-.341.512z" fill="#fff"/><path data-name="Tracé 152" d="M195.644 39.847c.029.124-.054.207-.138.394a2.232 2.232 0 01.04-1.081c.097.221-.062.476.098.687z" fill="#fff"/><path data-name="Tracé 153" d="M56.942 65.028c-.183.128-.292.188-.421.163-.018 0-.045-.1-.028-.119.105-.11.231-.045.449-.044z" fill="#fff"/><path data-name="Tracé 154" d="M74.158 41.267c.091 0 .087.071.1.126.024.077-.021.118-.086.135-.1.025-.089-.061-.1-.114a.123.123 0 01.086-.147z" fill="#fff"/><path data-name="Tracé 155" d="M42.651.282c-.128.071-.316-.065-.411.12-.107-.077-.242-.169.013-.207a.545.545 0 01.398.087z" fill="#fff"/><path data-name="Tracé 156" d="M213.763 38.982c0 .067 0 .134-.075.16s-.119-.017-.121-.093a.553.553 0 01.082-.37c.062.092-.019.238.114.303z" fill="#fff"/><path data-name="Tracé 157" d="M19.464 53.259l-.191-.181a2.315 2.315 0 01.276.055.553.553 0 01.137.1.2.2 0 01-.222.026z" fill="#fff"/><path data-name="Tracé 158" d="M5.062 55.991a.523.523 0 01-.186-.505.788.788 0 01.186.505z" fill="#fff"/><path data-name="Tracé 159" d="M22.602 2.548c.069.1.192.048.279.1a.445.445 0 01-.316.077c-.059 0-.145 0-.113-.09.015-.045.098-.061.15-.087z" fill="#fff"/><path data-name="Tracé 160" d="M25.506 1.756l-.107-.11c.1-.08.216-.171.31-.036.031.045-.103.135-.203.146z" fill="#fff"/><path data-name="Tracé 161" d="M28.132 21.881c-.045-.1.018-.241-.115-.309.042-.072.132-.135.175-.068a.319.319 0 01-.06.377z" fill="#fff"/><path data-name="Tracé 162" d="M44.675 71.238l.1-.167.257-.017a.346.346 0 01-.357.184z" fill="#fff"/><path data-name="Tracé 163" d="M29.316 58.603l.091-.19c.1.1.147.227.051.326-.049.049-.126-.056-.142-.136z" fill="#fff"/><path data-name="Tracé 164" d="M184.941 41.618a9.557 9.557 0 00-4.75-6.609 10.366 10.366 0 00-6.322-1.083 10.84 10.84 0 00-9.471 7.215 13.164 13.164 0 00-.764 6.495 11.62 11.62 0 004.2 7.847 12.242 12.242 0 007.835 2.721 13.623 13.623 0 008.907-3.089c.263-.209.322-.365.122-.671a35.807 35.807 0 01-1.438-2.365c-.223-.4-.356-.373-.694-.108a9.794 9.794 0 01-7.989 2.23 7.688 7.688 0 01-6.4-7.148c-.032-.382.037-.493.44-.491 2.677.019 5.353.01 8.03.01s5.354-.009 8.031.01c.382 0 .491-.12.523-.475a14.076 14.076 0 00-.26-4.489zm-4.711 1.712c-1.912-.021-3.825-.009-5.738-.009s-3.825-.007-5.738.007c-.331 0-.427-.079-.354-.411a6.66 6.66 0 018.354-5.3 5.077 5.077 0 013.7 4.049c.1.391.132.8.2 1.194.072.353-.04.475-.428.475z" fill="#fff"/><path data-name="Tracé 165" d="M230.866 23.999c1.021.02 2.042.007 3.064.007h2.821c.669 0 .683 0 .686-.669a4.185 4.185 0 00-1.806-3.86 4.741 4.741 0 00-5.775.872c-1.876 2.09-1.748 6.528 1.694 7.94a5.385 5.385 0 005.07-.445c.726-.442.721-.45.293-1.152-.366-.6-.367-.6-.932-.235a4.488 4.488 0 01-1.095.515 3.229 3.229 0 01-4.334-2.583c-.052-.297-.013-.397.314-.39zm-.2-1.651a2.732 2.732 0 013.157-2.025 2.276 2.276 0 011.753 2.074c.009.272-.122.281-.321.279h-2.189c-.713 0-1.427-.008-2.14 0-.271.007-.337-.048-.265-.328z" fill="#fff"/><path data-name="Tracé 166" d="M245.71 19.34a4.91 4.91 0 00-5.475.9c-1.967 2.044-1.9 6.616 1.6 8.049a5.388 5.388 0 005.069-.448c.723-.44.718-.45.292-1.148a3.114 3.114 0 01-.174-.291c-.126-.265-.252-.353-.523-.121a3.728 3.728 0 01-1.328.688 3.238 3.238 0 01-4.334-2.529c-.056-.323-.014-.456.366-.445 1 .028 2.009.01 3.015.01h3.111c.177 0 .356.034.383-.239a4.507 4.507 0 00-2.002-4.426zm-.144 3.335h-2.189c-.714 0-1.427-.01-2.141.006-.3.007-.36-.08-.284-.365a2.74 2.74 0 013.183-1.985 2.3 2.3 0 011.732 2.1c.009.261-.133.245-.303.244z" fill="#fff"/><path data-name="Tracé 167" d="M120.895 65.603a3.417 3.417 0 00-4.167-1.727 3.007 3.007 0 00-1.658 1.249c-.079-1-.271-1.179-1.183-1.194h-.438c-.951 0-.941 0-.936.976 0 .281.052.4.37.393.664-.007.672.02.672.69v8.359c0 1.166 0 1.152 1.165 1.16.338 0 .44-.086.435-.431-.02-1.277-.008-2.555-.008-3.929a3.453 3.453 0 005.558-.35 5.183 5.183 0 00.19-5.196zm-1.625 4.484a2.169 2.169 0 01-3.732-.22 3.827 3.827 0 01-.162-3.325 2.09 2.09 0 011.922-1.407 2.115 2.115 0 012.125 1.16 3.346 3.346 0 01.411 1.618 3.55 3.55 0 01-.564 2.174z" fill="#fff"/><path data-name="Tracé 168" d="M161.597 63.737a4.307 4.307 0 00-4.462 4.328 4.347 4.347 0 004.464 4.345 4.335 4.335 0 004.481-4.371 4.3 4.3 0 00-4.483-4.302zm0 7.3a2.878 2.878 0 01-2.837-3.007 2.832 2.832 0 012.859-2.917 2.848 2.848 0 012.844 2.939 2.891 2.891 0 01-2.863 2.984z" fill="#fff"/><path data-name="Tracé 169" d="M220.836 64.034a4.235 4.235 0 00-4.541.911 4.62 4.62 0 00.035 6.193 4.8 4.8 0 006.159.284c.208-.166.247-.295.089-.512-.18-.248-.281-.625-.516-.736-.145-.069-.475.253-.723.4-.07.041-.144.075-.217.109a2.9 2.9 0 01-4.306-1.989c-.074-.366.023-.446.371-.438.875.02 1.752.006 2.628.006.86 0 1.72-.013 2.58.007.318.007.455-.069.486-.412a3.787 3.787 0 00-2.045-3.823zm.1 3.064c-.63-.008-1.26 0-1.89 0-.614 0-1.228-.009-1.841 0-.272.006-.377-.038-.287-.35a2.4 2.4 0 012.817-1.709 2.107 2.107 0 011.505 1.767c.026.266-.09.295-.304.292z" fill="#fff"/><path data-name="Tracé 170" d="M131.904 63.835c-3.392.678-3.937 4.706-2.462 6.775a4.635 4.635 0 005.972 1.205c.956-.527.95-.531.387-1.436-.143-.229-.238-.291-.468-.1a3.459 3.459 0 01-1.252.625 2.842 2.842 0 01-3.7-2.113c-.1-.432-.009-.563.451-.542.842.039 1.687.011 2.53.011.892 0 1.784-.006 2.676 0 .234 0 .345-.046.365-.311.194-2.546-1.438-4.726-4.499-4.114zm2.572 3.26h-1.9c-.6 0-1.2-.019-1.8.007-.378.017-.4-.119-.3-.426a2.384 2.384 0 012.737-1.646 2.1 2.1 0 011.565 1.826c.016.267-.141.239-.303.239z" fill="#fff"/></svg>