<svg id="Logo" xmlns="http://www.w3.org/2000/svg" width="258.346" height="75.509" viewBox="0 0 258.346 75.509">
  <path id="Tracé_5" data-name="Tracé 5" d="M2927.391-1548.641l.107,0v3.791l-.115-.009a.713.713,0,0,1-.135-.5q-.01-1.392,0-2.783A.7.7,0,0,1,2927.391-1548.641Z" transform="translate(-2669.151 1583.059)" fill="#fff"/>
  <path id="Tracé_6" data-name="Tracé 6" d="M276.175-1554.005l-.134.021v-1.652l.1,0A2.293,2.293,0,0,1,276.175-1554.005Z" transform="translate(-276.042 1589.369)" fill="#fff"/>
  <path id="Tracé_7" data-name="Tracé 7" d="M276.042-1581.6l.124.014a2.281,2.281,0,0,1-.012,1.631l-.112.007Z" transform="translate(-276.042 1612.802)" fill="#fff"/>
  <path id="Tracé_8" data-name="Tracé 8" d="M276.165-1503.075l-.123.014v-1.652l.105,0A2.225,2.225,0,0,1,276.165-1503.075Z" transform="translate(-276.042 1543.404)" fill="#fff"/>
  <path id="Tracé_9" data-name="Tracé 9" d="M276.042-1530.674l.123.014a2.271,2.271,0,0,1-.012,1.632l-.111.007Z" transform="translate(-276.042 1566.837)" fill="#fff"/>
  <path id="Tracé_10" data-name="Tracé 10" d="M276.042-1478.754l.1,0a1.726,1.726,0,0,1,.1,1.45c-.24-.172.006-.494-.208-.675Z" transform="translate(-276.042 1519.971)" fill="#fff"/>
  <path id="Tracé_11" data-name="Tracé 11" d="M1258.932-1619.271c-.47.38-.9.766-1.372,1.105a14.423,14.423,0,0,1-8.732,2.815,15.119,15.119,0,0,1-12.573-6.244,16.832,16.832,0,0,1-3.291-9.247,16.612,16.612,0,0,1,4.4-12.951,15.838,15.838,0,0,1,12.129-5.107,19.241,19.241,0,0,1,7.258,1.392,14.538,14.538,0,0,1,3.865,2.306c.259.215.267.36.057.62-.714.88-1.416,1.773-2.094,2.682-.214.287-.332.3-.628.084a13.6,13.6,0,0,0-9.433-2.8,10.893,10.893,0,0,0-9.947,7.638,13,13,0,0,0,2.313,13.529,10.8,10.8,0,0,0,8.625,3.771,12.682,12.682,0,0,0,8.9-3.662,1.025,1.025,0,0,0,.353-.849c-.024-.89-.005-1.781-.008-2.672,0-.8-.309-1.106-1.124-1.117-.5-.006-1.006-.016-1.509,0-.282.012-.358-.087-.354-.359q.019-1.628,0-3.256c0-.263.053-.368.345-.365,1.346.016,2.693.009,4.039.012.113,0,.227.01.34.019a2.379,2.379,0,0,1,2.5,2.618c0,.1,0,.194,0,.291,0,4.212,0,8.423.008,12.635,0,.366-.069.5-.471.489-1.037-.031-2.077-.025-3.114,0-.369.009-.508-.073-.495-.474C1258.953-1617.317,1258.932-1618.272,1258.932-1619.271Z" transform="translate(-1139.765 1673.553)" fill="#fff"/>
  <path id="Tracé_12" data-name="Tracé 12" d="M2704.337-1548.823l-.007,3.777c-1.271-.157-1.9.451-2.363,1.623-2.939,7.391-5.941,14.758-8.944,22.124a7.959,7.959,0,0,1-5,4.97,7.614,7.614,0,0,1-7.7-1.639c-.153-.132-.271-.244-.13-.483.576-.973,1.131-1.958,1.707-2.964a5.945,5.945,0,0,0,1.707,1.234,3.815,3.815,0,0,0,4.84-1.273,18.73,18.73,0,0,0,1.975-4.094c.093-.208-.051-.377-.125-.549-2.538-5.879-5.093-11.75-7.605-17.64a1.729,1.729,0,0,0-1.9-1.3c-.277.027-.316-.1-.314-.337.01-1.053,0-2.105,0-3.158,0-.161-.034-.327.229-.317a32.74,32.74,0,0,1,3.449.086,2.311,2.311,0,0,1,1.789,1.269,41.224,41.224,0,0,1,1.642,3.884c1.35,3.308,2.68,6.625,4.019,9.938a20.723,20.723,0,0,1,.919,2.993,1.1,1.1,0,0,0,.25-.631c1.168-3.942,2.788-7.722,4.154-11.593.435-1.235.9-2.46,1.359-3.686a2.92,2.92,0,0,1,3.216-2.253C2702.456-1548.845,2703.4-1548.828,2704.337-1548.823Z" transform="translate(-2446.098 1583.241)" fill="#fff"/>
  <path id="Tracé_13" data-name="Tracé 13" d="M2404.047-1549.255c2.114-3.791,5.409-5.362,9.664-5.1a7.448,7.448,0,0,1,4.263,1.437,7.046,7.046,0,0,1,2.512,4.568,16.119,16.119,0,0,1,.237,2.851q-.009,4.98,0,9.959c0,.819.29,1.125,1.1,1.145q.729.017,1.459,0c.228-.006.352.026.347.307-.015,1.069-.006,2.138-.006,3.206,0,.147.017.3-.208.3a47.271,47.271,0,0,1-5.149-.093,2.082,2.082,0,0,1-1.952-2.071,9.008,9.008,0,0,1-.054-1.017c-.029-3.983.057-7.967-.049-11.95a6.359,6.359,0,0,0-.56-2.542,3.357,3.357,0,0,0-2.9-1.983c-4.331-.464-7.778,2.369-8.514,6.792a12.8,12.8,0,0,0-.134,2.129c.006,3.417,0,6.834.01,10.251,0,.366-.073.5-.474.5q-1.751-.043-3.5,0c-.406.01-.506-.1-.505-.5q.021-8.867.01-17.733c0-.923-.286-1.211-1.222-1.222-.455,0-.909-.016-1.362,0-.262.012-.328-.08-.325-.33.012-1.052,0-2.105.007-3.158,0-.151-.059-.335.216-.326a44.855,44.855,0,0,1,5,.1,2.146,2.146,0,0,1,2,2.337c.009.615-.011,1.231-.019,1.846C2403.924-1549.439,2403.786-1549.273,2404.047-1549.255Z" transform="translate(-2190.283 1588.237)" fill="#fff"/>
  <path id="Tracé_14" data-name="Tracé 14" d="M1709.874-1530.2c1.681-5.62,3.957-11,5.934-16.482a2.864,2.864,0,0,1,3.119-2.186c.713-.012,1.428.012,2.141-.014.331-.013.405.1.4.412-.018,1-.015,2.009,0,3.013,0,.278-.043.414-.366.4a1.636,1.636,0,0,0-1.772,1.249c-2.233,5.914-4.508,11.813-6.756,17.721a.607.607,0,0,1-.684.485c-1.411-.032-2.823-.023-4.234,0a.525.525,0,0,1-.6-.4c-2.3-5.975-4.626-11.941-6.923-17.918a1.5,1.5,0,0,0-1.6-1.131c-.338.019-.406-.108-.4-.414.016-1.02.008-2.041,0-3.062,0-.191-.008-.353.267-.342a26.5,26.5,0,0,1,3.3.1,2.4,2.4,0,0,1,1.841,1.283,32.962,32.962,0,0,1,1.5,3.785q2.063,5.468,4.085,10.952C1709.441-1531.928,1709.629-1531.059,1709.874-1530.2Z" transform="translate(-1559.698 1583.271)" fill="#fff"/>
  <path id="Tracé_15" data-name="Tracé 15" d="M2217.75-1545.867a9.55,9.55,0,0,1,2.71-4.027,6.868,6.868,0,0,1,5.513-1.631c.277.035.247.188.246.365,0,1.2-.023,2.4.012,3.6.014.449-.182.458-.512.41a5.885,5.885,0,0,0-4.095.873,7.884,7.884,0,0,0-3.368,4.82,14.375,14.375,0,0,0-.482,3.843c.006,3.029,0,6.057.012,9.086,0,.383-.1.49-.481.481-1.168-.026-2.336-.028-3.5,0-.417.01-.5-.126-.5-.518q.02-8.867.009-17.734c0-.906-.275-1.192-1.181-1.206-.454-.007-.908-.01-1.362,0-.229.007-.356-.026-.353-.308.014-1.069.005-2.138.006-3.207,0-.141-.033-.3.2-.3a47.271,47.271,0,0,1,4.909.08,2.218,2.218,0,0,1,2.118,2.447c.018.745,0,1.49,0,2.235a1.576,1.576,0,0,0,0,.742c0,.009.032.021.034.018C2217.71-1545.819,2217.729-1545.844,2217.75-1545.867Z" transform="translate(-2022.106 1585.715)" fill="#fff"/>
  <path id="Tracé_16" data-name="Tracé 16" d="M1584.393-1538.317q0,3.861,0,7.722c0,.881.28,1.175,1.151,1.188.47.007.941.01,1.41,0,.236-.007.344.044.34.316q-.023,1.578,0,3.156c0,.292-.108.347-.369.344-1.427-.013-2.854.007-4.28-.018a2.393,2.393,0,0,1-2.671-2.638c-.025-.792-.007-1.586-.007-2.38q0-6.629,0-13.259c0-.842-.283-1.137-1.13-1.157-.454-.011-.909-.019-1.362,0-.306.016-.427-.058-.42-.394.022-1.02.016-2.04,0-3.06,0-.265.059-.368.347-.365,1.475.016,2.951-.013,4.426.022a2.26,2.26,0,0,1,2.52,2.411c.081,1.777.035,3.56.041,5.34C1584.4-1540.162,1584.393-1539.239,1584.393-1538.317Z" transform="translate(-1450.403 1583.251)" fill="#fff"/>
  <path id="Tracé_17" data-name="Tracé 17" d="M2239.841-1706.511c1.654-2.779,5.436-2.646,6.1.041a4.7,4.7,0,0,1,.967-1.16,3.7,3.7,0,0,1,3.551-.76,2.657,2.657,0,0,1,1.911,2.591c.134,1.519.035,3.043.057,4.564.011.744.021.782.756.767.347-.007.433.107.43.44,0,1.116.009,1.116-1.1,1.116-.26,0-.519.006-.779,0-.784-.032-1.112-.373-1.113-1.16q0-2.283,0-4.566a3.8,3.8,0,0,0-.069-.82,1.649,1.649,0,0,0-2.562-1.218,3.2,3.2,0,0,0-1.749,2.587,39.923,39.923,0,0,0-.082,4.415c-.016.767,0,.767-.761.767-1.036,0-1.037,0-1.036-1.022q0-2.4.006-4.809a1.51,1.51,0,0,0-.008-.242c-.115-.733-.136-1.52-1.016-1.827a2.373,2.373,0,0,0-2.424.727,3.891,3.891,0,0,0-1.014,2.659c0,1.344-.013,2.688.006,4.032,0,.359-.057.539-.468.49-.431-.052-.993.172-1.268-.083s-.086-.827-.088-1.258c-.01-1.943,0-3.886,0-5.829,0-.647-.053-.727-.68-.7-.41.018-.513-.11-.5-.51.026-1.046.007-1.048,1.078-1.046a5.433,5.433,0,0,1,1.018.053.88.88,0,0,1,.841.993C2239.844-1707.059,2239.841-1706.833,2239.841-1706.511Z" transform="translate(-2046.016 1727.397)" fill="#fff"/>
  <path id="Tracé_18" data-name="Tracé 18" d="M2328.3-1246.147c1.558-2.459,4.863-2.087,5.333.141a3.766,3.766,0,0,1,1.833-1.611,2.646,2.646,0,0,1,3.855,2.464c.052,1.26.015,2.525.019,3.788,0,.584.059.667.628.649.345-.011.432.1.427.433-.015.937,0,.938-.937.937-.26,0-.52.009-.778-.013-.663-.057-.918-.335-.919-1.005,0-1.328,0-2.655,0-3.983a2.22,2.22,0,0,0,0-.34c-.1-.639-.125-1.345-.877-1.6a1.927,1.927,0,0,0-2.055.515,2.968,2.968,0,0,0-.951,2.068q-.055,1.941-.034,3.884c0,.386-.106.486-.486.48-1.121-.02-1.122,0-1.121-1.141q0-1.991,0-3.983a1.717,1.717,0,0,0,0-.194c-.069-.646-.088-1.323-.824-1.625a2.05,2.05,0,0,0-2.137.552,3.379,3.379,0,0,0-.949,2.375c-.005,1.182-.021,2.364.008,3.545.01.4-.123.477-.49.471-1.12-.018-1.121,0-1.121-1.145,0-1.716-.013-3.432.009-5.148.007-.48-.14-.712-.636-.64-.321.047-.41-.08-.407-.4.005-.962-.01-.962.952-.962C2328.126-1247.633,2328.126-1247.633,2328.3-1246.147Z" transform="translate(-2126.158 1311.563)" fill="#fff"/>
  <path id="Tracé_19" data-name="Tracé 19" d="M1276.475-1245.681a3.3,3.3,0,0,1,3.257-1.726,2.218,2.218,0,0,1,2.059,1.811,3.491,3.491,0,0,1,2.247-1.738c1.883-.371,3.316.367,3.436,2.471.075,1.308.041,2.623.025,3.934-.006.468.172.681.626.617.4-.056.441.132.434.465-.017.9,0,.9-.92.9-.243,0-.487.008-.729-.008-.716-.046-.984-.331-.985-1.047,0-1.328,0-2.656,0-3.984a2.748,2.748,0,0,0-.016-.484c-.108-.593-.194-1.228-.893-1.431a1.972,1.972,0,0,0-2.049.557,3.1,3.1,0,0,0-.939,2.176q-.036,1.894-.014,3.789c0,.331-.073.442-.425.44-1.19-.007-1.191.008-1.19-1.173q0-1.967,0-3.935a2.237,2.237,0,0,0,0-.243c-.07-.63-.09-1.317-.811-1.579a1.919,1.919,0,0,0-2.1.5,3.374,3.374,0,0,0-1,2.5c0,1.182-.01,2.365.005,3.547,0,.291-.065.383-.373.385-1.219.008-1.219.021-1.219-1.188,0-1.7-.013-3.4.008-5.1.006-.478-.142-.716-.638-.644-.36.053-.423-.116-.419-.438.011-.925,0-.925.943-.925C1276.319-1247.233,1276.323-1247.23,1276.475-1245.681Z" transform="translate(-1176.715 1311.163)" fill="#fff"/>
  <path id="Tracé_20" data-name="Tracé 20" d="M401.8-1686.487a10.765,10.765,0,0,1-10.068,10.7c-.3.021-.441-.022-.437-.363a3.38,3.38,0,0,0-.114-.913c-.087-.323.024-.373.317-.388a8.964,8.964,0,0,0,5.265-2.006,9.068,9.068,0,0,0,3.027-9.521,9.122,9.122,0,0,0-7.531-6.516c-.032,0-.065-.005-.1-.01-.331-.052-.906.071-.949-.141a4.609,4.609,0,0,1,.122-1.476c.023-.168.178-.1.28-.091a10.527,10.527,0,0,1,6.992,3.094A10.612,10.612,0,0,1,401.8-1686.487Z" transform="translate(-379.951 1717.179)" fill="#fff"/>
  <path id="Tracé_21" data-name="Tracé 21" d="M2423.731-1699.011c-1.25,1.757-2.722,2.367-4.53,1.953a2.515,2.515,0,0,1-1.971-1.924,5.873,5.873,0,0,1-.2-1.584q.005-1.894,0-3.788c0-.611-.064-.709-.654-.674-.436.025-.543-.107-.53-.533.033-1.024.01-1.027,1.051-1.024a7.9,7.9,0,0,1,.922.031c.78.1,1.034.4,1.034,1.181q0,2.209,0,4.42a4.509,4.509,0,0,0,.11,1.156,1.444,1.444,0,0,0,1.469,1.171,3.175,3.175,0,0,0,3.239-3.421c.007-1.327.015-2.655-.011-3.982-.009-.427.081-.622.55-.565.4.048.933-.123,1.174.079.283.238.093.788.095,1.2.01,1.959,0,3.918,0,5.876,0,.688.03.745.709.713.406-.019.477.127.471.492-.019,1.066,0,1.066-1.048,1.066-.26,0-.52.007-.778-.005-.78-.037-1.1-.38-1.105-1.162C2423.731-1698.527,2423.731-1698.719,2423.731-1699.011Z" transform="translate(-2207.539 1725.652)" fill="#fff"/>
  <path id="Tracé_22" data-name="Tracé 22" d="M414.225-1807.022a9.791,9.791,0,0,0-3.117-3.06,9.115,9.115,0,0,0-13.6,6.252c-.03.192-.066.383-.085.576-.086.864-.084.865-.964.768a1.408,1.408,0,0,0-.289-.036c-.421.044-.461-.185-.429-.526a10.461,10.461,0,0,1,5.531-8.621,10.709,10.709,0,0,1,13.41,2.461.591.591,0,0,1,.129.727C414.6-1808.029,414.435-1807.555,414.225-1807.022Z" transform="translate(-384.08 1821.703)" fill="#fff"/>
  <path id="Tracé_23" data-name="Tracé 23" d="M383.237-1670.1c.178-.528.343-1.014.5-1.5.073-.222.253-.161.406-.155a7.915,7.915,0,0,1,6.306,3.232,7.807,7.807,0,0,1,.914,8.509,7.979,7.979,0,0,1-6.909,4.732c-.516.047-.782-.058-.859-.588a2.3,2.3,0,0,0-.245-.682c-.156-.31-.065-.381.257-.373a6.839,6.839,0,0,0,3.67-.929,6.58,6.58,0,0,0,1.9-9.616,6.487,6.487,0,0,0-5.136-2.627C383.791-1670.1,383.534-1670.1,383.237-1670.1Z" transform="translate(-372.802 1694.193)" fill="#fff"/>
  <path id="Tracé_24" data-name="Tracé 24" d="M435.747-1316.112a6.707,6.707,0,0,0-6.675-7.266,6.687,6.687,0,0,0-6.592,7.24c-.511-.166-1.009-.32-1.5-.492-.236-.083-.141-.306-.133-.465a7.959,7.959,0,0,1,2.995-6.032,7.882,7.882,0,0,1,8.4-1.268,8,8,0,0,1,5.123,6.986c.078.706.061.707-.611.928q-.254.083-.5.175C436.1-1316.252,435.949-1316.191,435.747-1316.112Z" transform="translate(-406.727 1381.253)" fill="#fff"/>
  <path id="Tracé_25" data-name="Tracé 25" d="M413.425-1345.3a8.947,8.947,0,0,0-9.839-2.715,8.974,8.974,0,0,0-6.146,8.02c-.018.407-.149.5-.512.419a3.506,3.506,0,0,0-.53-.072c-.687-.05-.657.076-.616-.688a10.74,10.74,0,0,1,8.128-9.507,10.606,10.606,0,0,1,8.638,1.545,1.024,1.024,0,0,1,.489.728c.128.7.315,1.387.478,2.079C413.559-1345.4,413.6-1345.3,413.425-1345.3Z" transform="translate(-384.109 1403.907)" fill="#fff"/>
  <path id="Tracé_26" data-name="Tracé 26" d="M2540.866-1698.724a5.1,5.1,0,0,1-3.587-1.3c-.245-.217-.337-.4-.072-.67.235-.243.384-.672.651-.752.292-.087.506.362.778.547a3.582,3.582,0,0,0,2.421.692,1.549,1.549,0,0,0,1.039-.463.9.9,0,0,0-.064-1.4,5.1,5.1,0,0,0-1.449-.773,10.982,10.982,0,0,1-2.258-1.114,2.389,2.389,0,0,1-.789-3.173,2.766,2.766,0,0,1,1.958-1.31,5.552,5.552,0,0,1,2.883.113,1.815,1.815,0,0,1,1.471,2.219c-.017.18-.06.263-.253.257-.372-.01-.746-.012-1.118,0-.231.008-.283-.114-.259-.3.061-.494-.262-.707-.646-.838a2.625,2.625,0,0,0-1.811.043.936.936,0,0,0-.265,1.709,6.81,6.81,0,0,0,1.786.859,8.984,8.984,0,0,1,1.745.842,2.371,2.371,0,0,1,1.171,2.2,2.516,2.516,0,0,1-1.527,2.2A3.931,3.931,0,0,1,2540.866-1698.724Z" transform="translate(-2316.941 1727.423)" fill="#fff"/>
  <path id="Tracé_27" data-name="Tracé 27" d="M422.578-1778.732c-.368-.129-.685-.245-1.006-.351-.668-.22-.669-.218-.611-.935a8.287,8.287,0,0,1,6.594-7.461,8.325,8.325,0,0,1,8.839,3.979.934.934,0,0,1,.1.858c-.258.729-.468,1.475-.724,2.3a6.682,6.682,0,0,0-2.7-4.4,6.53,6.53,0,0,0-4.983-1.145A6.706,6.706,0,0,0,422.578-1778.732Z" transform="translate(-406.832 1798.805)" fill="#fff"/>
  <path id="Tracé_28" data-name="Tracé 28" d="M411.826-1462.788c.07.523.126,1.032.209,1.536.047.29-.164.359-.343.456a10.582,10.582,0,0,1-3.711,1.24,10.512,10.512,0,0,1-8.393-2.4,10.514,10.514,0,0,1-3.843-7.529c-.024-.32.036-.477.4-.466a3.9,3.9,0,0,0,.869-.093c.3-.06.383.031.4.338a8.665,8.665,0,0,0,2.346,5.614,8.74,8.74,0,0,0,7.359,2.931C408.883-1461.288,409.257-1461.439,411.826-1462.788Z" transform="translate(-384.087 1512.124)" fill="#fff"/>
  <path id="Tracé_29" data-name="Tracé 29" d="M875.015-1462.855c0,.559-.016,1.093.006,1.625.014.333-.229.4-.439.5a10.817,10.817,0,0,1-7.716.658,10.813,10.813,0,0,1-7.746-9.627c-.018-.3.023-.477.37-.437a1.061,1.061,0,0,0,.194-.011c.349-.029.792-.244,1.017-.047.188.165.112.635.147.971a9.087,9.087,0,0,0,9.6,7.878C872.276-1461.516,872.572-1461.614,875.015-1462.855Z" transform="translate(-802.354 1512.321)" fill="#fff"/>
  <path id="Tracé_30" data-name="Tracé 30" d="M1994.368-1245.684a3.557,3.557,0,0,1,3.953-1.719,2.242,2.242,0,0,1,1.927,2.086,32.424,32.424,0,0,1,.09,4.072c.018.789.014.737.783.9.516.11.162.609.235.922.042.179.091.438-.269.424-.469-.02-.941.011-1.41-.019a.866.866,0,0,1-.938-.994c-.007-1.327-.014-2.655.01-3.982.039-2.07-1.242-2.406-2.736-1.762a2.728,2.728,0,0,0-1.6,2.677c-.025,1.214-.016,2.428,0,3.641,0,.32-.052.447-.414.444-1.18-.01-1.18.006-1.18-1.178,0-1.7-.011-3.4.007-5.1.005-.462-.109-.731-.622-.658-.34.049-.438-.08-.434-.423.012-.94,0-.94.927-.94h.146C1994.223-1247.289,1994.338-1247.177,1994.368-1245.684Z" transform="translate(-1824.75 1311.219)" fill="#fff"/>
  <path id="Tracé_31" data-name="Tracé 31" d="M2099.9-1245.707a3.543,3.543,0,0,1,3.7-1.733,2.391,2.391,0,0,1,2.187,2.492c.063,1.292.029,2.589.037,3.884,0,.649.045.714.674.7.3,0,.377.08.376.378,0,.991.012.991-.976.991-.227,0-.454.008-.68-.008-.709-.049-.978-.337-.979-1.053,0-1.328-.014-2.655.006-3.982.032-2.089-1.354-2.325-2.741-1.707a2.826,2.826,0,0,0-1.6,2.828c-.008,1.165-.013,2.331.007,3.5.005.336-.085.438-.429.436-1.173-.007-1.173.007-1.173-1.185,0-1.7-.013-3.4.009-5.1.006-.469-.112-.725-.621-.649-.357.053-.429-.114-.426-.439.007-.923-.007-.923.907-.923C2099.743-1247.278,2099.743-1247.278,2099.9-1245.707Z" transform="translate(-1919.978 1311.208)" fill="#fff"/>
  <path id="Tracé_32" data-name="Tracé 32" d="M875.167-1346.976a10.723,10.723,0,0,0-3.441-1.4,9.089,9.089,0,0,0-10.62,7.118,9.505,9.505,0,0,0-.168,1.347c-.013.3-.119.36-.38.3a5,5,0,0,0-.53-.074c-.795-.084-.8-.083-.7-.909a10.767,10.767,0,0,1,15.291-8.595c.4.185.617.394.561.868A12.129,12.129,0,0,0,875.167-1346.976Z" transform="translate(-802.506 1403.942)" fill="#fff"/>
  <path id="Tracé_33" data-name="Tracé 33" d="M780.225-1432.122c0-1.263.005-2.526,0-3.789a1.057,1.057,0,0,1,.169-.639,8.215,8.215,0,0,1,6.8-3.813.318.318,0,0,1,.374.272,8.158,8.158,0,0,0,.349,1.007c.144.315.063.389-.26.383a6.878,6.878,0,0,0-3.672.928,6.59,6.59,0,0,0-1.978,9.505,6.5,6.5,0,0,0,5.323,2.744c.709.018.709.019.459.7-.011.03-.02.061-.031.091-.339.945-.342.962-1.35.824a8.28,8.28,0,0,1-5.91-3.612,1.25,1.25,0,0,1-.236-.766c.013-1.28.005-2.559.005-3.839Z" transform="translate(-731.139 1485.318)" fill="#fff"/>
  <path id="Tracé_34" data-name="Tracé 34" d="M456.067-1754.312c0-.757.01-1.451,0-2.144a4.079,4.079,0,0,0-3.608-4.036,4.086,4.086,0,0,0-4.564,3.306,14.535,14.535,0,0,0-.069,2.279,1.064,1.064,0,0,1-.061.583l-1.479-.922c-.112-.07-.115-.18-.127-.3a5.928,5.928,0,0,1,3.427-6.15,5.807,5.807,0,0,1,8.115,4.633C457.846-1755.354,457.732-1755.155,456.067-1754.312Z" transform="translate(-429.563 1775.833)" fill="#fff"/>
  <path id="Tracé_35" data-name="Tracé 35" d="M456.261-1291.327c0-.745.007-1.418,0-2.092a3.935,3.935,0,0,0-2.2-3.671,3.943,3.943,0,0,0-4.237.224,3.834,3.834,0,0,0-1.788,3.123c-.042.783-.008,1.57-.008,2.423-.567-.357-1.053-.667-1.544-.971a.309.309,0,0,1-.137-.288,6.1,6.1,0,0,1,1.506-4.763,5.557,5.557,0,0,1,5.7-1.7,5.568,5.568,0,0,1,4.219,4.253,8.58,8.58,0,0,1,.154,2.172.4.4,0,0,1-.229.385C457.245-1291.96,456.8-1291.668,456.261-1291.327Z" transform="translate(-429.757 1357.937)" fill="#fff"/>
  <path id="Tracé_36" data-name="Tracé 36" d="M911.416-1493.281c.082,1-.059,1.924.1,2.839a4.053,4.053,0,0,0,4.215,3.4,4.091,4.091,0,0,0,3.973-4.048c.009-.711,0-1.423,0-2.183.539.337,1.038.652,1.539.964a.274.274,0,0,1,.122.243,5.888,5.888,0,0,1-4.582,6.575,5.838,5.838,0,0,1-7.02-5.5c-.027-.854.083-1.5.959-1.83A3.993,3.993,0,0,0,911.416-1493.281Z" transform="translate(-848.066 1533.084)" fill="#fff"/>
  <path id="Tracé_37" data-name="Tracé 37" d="M367.921-1636.639c.984-.066,1.894.049,2.8-.085a4.1,4.1,0,0,0,3.486-4.1,4.1,4.1,0,0,0-3.629-4.025c-.857-.095-1.716-.014-2.622-.068l.96-1.524a.276.276,0,0,1,.248-.121,6.09,6.09,0,0,1,5.159,1.87,5.5,5.5,0,0,1,1.066,6.182,5.622,5.622,0,0,1-5.071,3.511c-.862.072-1.593.014-1.928-.954A3.375,3.375,0,0,0,367.921-1636.639Z" transform="translate(-358.977 1671.456)" fill="#fff"/>
  <path id="Tracé_38" data-name="Tracé 38" d="M801.746-1405.242c-.344.542-.647,1.016-.945,1.493a.3.3,0,0,1-.269.167,6.038,6.038,0,0,1-5.444-2.2,5.493,5.493,0,0,1-.752-5.94,5.624,5.624,0,0,1,4.934-3.418c.915-.088,1.688-.041,2.055.978a3.546,3.546,0,0,0,.458.671c-.744,0-1.415-.01-2.085,0a4.124,4.124,0,0,0-4.036,2.919,4.139,4.139,0,0,0,4.078,5.326C800.387-1405.23,801.036-1405.242,801.746-1405.242Z" transform="translate(-743.387 1462.576)" fill="#fff"/>
  <path id="Tracé_39" data-name="Tracé 39" d="M338.319-1405.227c-.344.537-.65,1.009-.946,1.485a.3.3,0,0,1-.263.174,6.125,6.125,0,0,1-5.062-1.755,5.512,5.512,0,0,1-1.247-6.109,5.559,5.559,0,0,1,4.938-3.679c.941-.1,1.794-.1,2.18,1a3.334,3.334,0,0,0,.436.639c-.69,0-1.311,0-1.931,0a4.538,4.538,0,0,0-2.2.5,4.127,4.127,0,0,0-2.129,4.193,4.131,4.131,0,0,0,3.058,3.409,5.381,5.381,0,0,0,1.3.146C337.048-1405.223,337.648-1405.227,338.319-1405.227Z" transform="translate(-325.079 1462.561)" fill="#fff"/>
  <path id="Tracé_40" data-name="Tracé 40" d="M898.084-1473.021c0,.742,0,1.434,0,2.125,0,.3-.219.414-.413.555a8.3,8.3,0,0,1-12.884-4.742,9.093,9.093,0,0,1-.233-1.729.373.373,0,0,1,.32-.443,5.986,5.986,0,0,0,.963-.33c.365-.172.4-.018.388.294a6.554,6.554,0,0,0,1.826,4.814,6.622,6.622,0,0,0,9.626-.1C897.81-1472.719,897.937-1472.86,898.084-1473.021Z" transform="translate(-825.317 1518.981)" fill="#fff"/>
  <path id="Tracé_41" data-name="Tracé 41" d="M516.8-1680.246c-.1.557-.208,1.112-.288,1.671-.035.245-.219.35-.366.49a9.023,9.023,0,0,0-2.181,10.191,8.52,8.52,0,0,0,1.4,2.257.962.962,0,0,1,.256.7c-.018.59-.006,1.18-.006,1.879a10.492,10.492,0,0,1-4.025-8.289,10.386,10.386,0,0,1,5.091-9.2C516.939-1680.531,516.829-1680.374,516.8-1680.246Z" transform="translate(-488.664 1702.127)" fill="#fff"/>
  <path id="Tracé_42" data-name="Tracé 42" d="M434.257-1472.663c.059.608.075,1.127.17,1.632a.649.649,0,0,1-.311.728,8.341,8.341,0,0,1-9.456.2,8.218,8.218,0,0,1-3.7-6.462c-.028-.37.026-.613.458-.672a2.4,2.4,0,0,0,.731-.253c.363-.183.507-.138.476.308a5.674,5.674,0,0,0,.228,1.92,6.607,6.607,0,0,0,11.034,2.952C433.987-1472.408,434.091-1472.5,434.257-1472.663Z" transform="translate(-406.844 1518.921)" fill="#fff"/>
  <path id="Tracé_43" data-name="Tracé 43" d="M459.183-1899.334a10.712,10.712,0,0,1-16.3,5.4,13.429,13.429,0,0,1,1.448-.875c.162-.1.276.029.4.091a9,9,0,0,0,8.325.118,8.8,8.8,0,0,0,4.135-4.161.577.577,0,0,1,.534-.39C458.206-1899.186,458.682-1899.269,459.183-1899.334Z" transform="translate(-426.641 1899.608)" fill="#fff"/>
  <path id="Tracé_44" data-name="Tracé 44" d="M898.043-1320.577a7.02,7.02,0,0,0-1.112-1.069,6.382,6.382,0,0,0-6.6-.848,6.307,6.307,0,0,0-4.014,5.607c-.029.327-.1.463-.445.422a3.37,3.37,0,0,0-.825,0c-.353.046-.427-.075-.414-.417a8.252,8.252,0,0,1,6.179-7.542,8.289,8.289,0,0,1,6.856,1.234.725.725,0,0,1,.387.711C898.02-1321.9,898.043-1321.316,898.043-1320.577Z" transform="translate(-825.383 1380.907)" fill="#fff"/>
  <path id="Tracé_45" data-name="Tracé 45" d="M447.962-1493.576c0,.805-.01,1.5,0,2.19a4.034,4.034,0,0,0,3.932,4.077,4.053,4.053,0,0,0,4.236-3.321,5.589,5.589,0,0,0,.069-1.015c.01-.609,0-1.219,0-1.887.359.15.543.3.556.682.047,1.359.128,2.717.217,4.074a1.073,1.073,0,0,1-.214.763,5.809,5.809,0,0,1-6.3,2.156,5.852,5.852,0,0,1-4.161-5.15c-.088-.98-.008-1.777,1.057-2.159A3.338,3.338,0,0,0,447.962-1493.576Z" transform="translate(-429.7 1533.35)" fill="#fff"/>
  <path id="Tracé_46" data-name="Tracé 46" d="M1769.749-1247.4a4.017,4.017,0,0,1,1.992.425,1.419,1.419,0,0,1,.749,1.766c-.162.414-.655.107-.992.171-.141.027-.351.1-.406-.19a.9.9,0,0,0-.942-.88,2.514,2.514,0,0,0-1.2.113.913.913,0,0,0-.635.675.833.833,0,0,0,.4.87,7.2,7.2,0,0,0,1.62.762,6.813,6.813,0,0,1,1.557.781,2.174,2.174,0,0,1-.235,3.715,4.431,4.431,0,0,1-5-.766c-.145-.154-.2-.267-.04-.446.214-.241.358-.622.618-.725s.451.314.692.476a3.075,3.075,0,0,0,2.34.568,1.083,1.083,0,0,0,.947-.794c.127-.5-.19-.806-.579-1.01-.5-.262-1.022-.486-1.543-.706a6.213,6.213,0,0,1-1.494-.8,2.059,2.059,0,0,1-.863-2.08,2.09,2.09,0,0,1,1.409-1.65A4.163,4.163,0,0,1,1769.749-1247.4Z" transform="translate(-1621.431 1311.136)" fill="#fff"/>
  <path id="Tracé_47" data-name="Tracé 47" d="M2581.507-1247.4a3.889,3.889,0,0,1,1.967.448,1.427,1.427,0,0,1,.715,1.739c-.187.439-.718.1-1.085.177-.151.033-.35.04-.325-.22.052-.536-.32-.7-.729-.806a2.276,2.276,0,0,0-1.478.1.821.821,0,0,0-.212,1.471,5.618,5.618,0,0,0,1.428.712c.46.2.937.368,1.375.608a2.181,2.181,0,0,1,1.35,2.213,2.224,2.224,0,0,1-1.676,1.993,4.356,4.356,0,0,1-4.434-.948c-.22-.192-.241-.342-.037-.556s.354-.595.6-.669c.227-.069.429.321.664.483a3.047,3.047,0,0,0,2.339.572,1.154,1.154,0,0,0,.965-.841.9.9,0,0,0-.6-.962c-.514-.271-1.054-.494-1.588-.725a6.238,6.238,0,0,1-1.409-.752,2.075,2.075,0,0,1-.924-2.012,2.116,2.116,0,0,1,1.473-1.766A4.352,4.352,0,0,1,2581.507-1247.4Z" transform="translate(-2354.11 1311.137)" fill="#fff"/>
  <path id="Tracé_48" data-name="Tracé 48" d="M1693.624-1247.4a3.793,3.793,0,0,1,2.047.507,1.6,1.6,0,0,1,.651,1.7c-.02.064-.033.139-.106.14-.4.009-.81.022-1.213.007-.163-.006-.111-.171-.111-.273a.591.591,0,0,0-.147-.444,2.029,2.029,0,0,0-2.461.086.75.75,0,0,0,.042,1.052,2.4,2.4,0,0,0,.854.543c.655.28,1.326.525,1.961.842a2.242,2.242,0,0,1,1.484,2.279,2.359,2.359,0,0,1-1.959,2.082,4.407,4.407,0,0,1-4.087-.97c-.287-.244-.286-.421-.051-.707.516-.629.5-.638,1.138-.159a2.986,2.986,0,0,0,2.367.632,1.081,1.081,0,0,0,.982-.812c.129-.531-.234-.821-.63-1.028-.5-.262-1.028-.472-1.547-.7a6.209,6.209,0,0,1-1.485-.814,2.1,2.1,0,0,1,.56-3.679A4.4,4.4,0,0,1,1693.624-1247.4Z" transform="translate(-1552.675 1311.141)" fill="#fff"/>
  <path id="Tracé_49" data-name="Tracé 49" d="M2254.056-1247.4a3.972,3.972,0,0,1,1.881.4,1.4,1.4,0,0,1,.8,1.778c-.17.442-.71.114-1.074.19-.161.034-.335.026-.313-.229.042-.473-.271-.657-.651-.771a2.274,2.274,0,0,0-1.57.074.813.813,0,0,0-.212,1.465,5.942,5.942,0,0,0,1.652.8,7.335,7.335,0,0,1,1.521.747,2.177,2.177,0,0,1-.2,3.768,4.432,4.432,0,0,1-4.958-.759c-.161-.168-.214-.3-.042-.489.2-.229.338-.6.584-.692.281-.11.458.3.7.46a3.084,3.084,0,0,0,2.288.586,1.1,1.1,0,0,0,1-.791c.144-.547-.225-.851-.644-1.066-.488-.251-1-.46-1.5-.675a6.328,6.328,0,0,1-1.451-.777,2.064,2.064,0,0,1-.876-2.076,2.078,2.078,0,0,1,1.4-1.657A4.327,4.327,0,0,1,2254.056-1247.4Z" transform="translate(-2058.55 1311.14)" fill="#fff"/>
  <path id="Tracé_50" data-name="Tracé 50" d="M919.9-1291.365c-.077-1,.074-1.927-.091-2.841a4.093,4.093,0,0,0-4.359-3.407,4.083,4.083,0,0,0-3.823,4.043c-.006.43-.124.5-.494.351a1.9,1.9,0,0,0-.617-.126c-.479-.016-.605-.23-.552-.7a5.829,5.829,0,0,1,4.428-5.085,5.8,5.8,0,0,1,6.2,2.452,1.754,1.754,0,0,1,.323,1.039c-.008,1,0,2.009.051,3.012a.77.77,0,0,1-.458.851A5.071,5.071,0,0,0,919.9-1291.365Z" transform="translate(-848.246 1357.984)" fill="#fff"/>
  <path id="Tracé_51" data-name="Tracé 51" d="M473.595-1265.757c-.524-.565-1-1.135-1.534-1.649a.538.538,0,0,1-.125-.447c0-.906-.007-1.813,0-2.719a3.347,3.347,0,0,1,2.115-2.94,3.331,3.331,0,0,1,3.509.723,3.216,3.216,0,0,1,1,2.492c0,.016,0,.032,0,.049a10.429,10.429,0,0,1-.048,2.561c-.206.789-1.115,1.218-1.49,1.983-.192-.1-.116-.247-.117-.358-.007-.955,0-1.91,0-2.865,0-2.361-.4-3.134-1.639-3.148s-1.663.774-1.663,3.171Z" transform="translate(-452.863 1334.905)" fill="#fff"/>
  <path id="Tracé_52" data-name="Tracé 52" d="M341.553-1615.964h4.419a1.812,1.812,0,0,0,1.426-.488,1.555,1.555,0,0,0,.384-1.741,1.573,1.573,0,0,0-1.544-1.053c-1.41-.013-2.82-.006-4.23-.007a1.81,1.81,0,0,1-.493-.048c.616-.5,1.221-1,1.779-1.548.065-.064.213-.062.322-.062.956,0,1.914-.021,2.868.02a3.28,3.28,0,0,1,3.067,3.08,3.29,3.29,0,0,1-2.922,3.457c-1.019.106-2.04.026-3.06.053a.423.423,0,0,1-.347-.132C342.712-1614.973,342.125-1615.425,341.553-1615.964Z" transform="translate(-335.141 1648.293)" fill="#fff"/>
  <path id="Tracé_53" data-name="Tracé 53" d="M473.59-1521.153c0,1.706-.005,3.271,0,4.835a1.556,1.556,0,0,0,.886,1.454,1.563,1.563,0,0,0,1.7-.108,1.623,1.623,0,0,0,.714-1.41c-.007-1.392,0-2.783,0-4.176v-.606a11.775,11.775,0,0,0,1.542,1.834c.141.133.116.291.116.449,0,.907.01,1.813,0,2.719a3.312,3.312,0,0,1-3.313,3.15,3.305,3.305,0,0,1-3.306-3.154c-.01-.906,0-1.813,0-2.719a.58.58,0,0,1,.153-.484A12.294,12.294,0,0,0,473.59-1521.153Z" transform="translate(-452.857 1558.252)" fill="#fff"/>
  <path id="Tracé_54" data-name="Tracé 54" d="M476.887-1728.418c0-1.695,0-3.247,0-4.8a1.629,1.629,0,0,0-1.456-1.663,1.644,1.644,0,0,0-1.786,1.183,2.037,2.037,0,0,0-.058.625c0,1.5,0,3,0,4.623a16.142,16.142,0,0,0-1.57-1.826c-.125-.12-.087-.27-.088-.411,0-.907-.011-1.814,0-2.721a3.287,3.287,0,0,1,3.314-3.146,3.3,3.3,0,0,1,3.305,3.157c.008.907,0,1.814,0,2.721a.581.581,0,0,1-.166.479A12.155,12.155,0,0,0,476.887-1728.418Z" transform="translate(-452.852 1752.674)" fill="#fff"/>
  <path id="Tracé_55" data-name="Tracé 55" d="M364.024-1388c-.934,0-1.868,0-2.8,0-.681,0-1.364-.018-2.041.036a1.6,1.6,0,0,0-1.5,1.663,1.612,1.612,0,0,0,1.6,1.572c1.459.03,2.919.01,4.379.017a.557.557,0,0,1,.427.084,14.142,14.142,0,0,0-1.819,1.52c-.056.055-.184.054-.278.053-.989,0-1.98.02-2.967-.028a3.294,3.294,0,0,1-3.007-3.144,3.308,3.308,0,0,1,2.9-3.389c1.02-.1,2.042-.023,3.063-.049a.478.478,0,0,1,.391.149C362.876-1388.98,363.457-1388.539,364.024-1388Z" transform="translate(-348.233 1439.554)" fill="#fff"/>
  <path id="Tracé_56" data-name="Tracé 56" d="M827.616-1388H825.3c-.778,0-1.558-.025-2.335.011a1.612,1.612,0,0,0-1.669,1.7,1.619,1.619,0,0,0,1.744,1.574c1.41.014,2.821,0,4.232,0h.369c-.6.55-1.209,1.049-1.768,1.6a.43.43,0,0,1-.275.059c-.989,0-1.979.021-2.966-.028a3.271,3.271,0,0,1-3-3.187,3.29,3.29,0,0,1,2.886-3.347c1.02-.1,2.042-.024,3.062-.049a.482.482,0,0,1,.394.145C826.475-1388.985,827.055-1388.543,827.616-1388Z" transform="translate(-766.713 1439.554)" fill="#fff"/>
  <path id="Tracé_57" data-name="Tracé 57" d="M937.135-1507.1c0,.5,0,1,0,1.506a1.63,1.63,0,0,0,1.626,1.74,1.639,1.639,0,0,0,1.66-1.759c0-.988,0-1.976.005-2.964,0-.179-.108-.47.1-.518a1.011,1.011,0,0,1,.928.073,1.444,1.444,0,0,1,.656,1.311,19.709,19.709,0,0,0-.017,2.184,3.322,3.322,0,0,1-3.328,3.34,3.305,3.305,0,0,1-3.3-3.313c0-.826,0-1.652,0-2.478a1.258,1.258,0,0,1,1.493-1.154c.223.052.172.2.173.333C937.138-1508.232,937.135-1507.665,937.135-1507.1Z" transform="translate(-871.272 1547.426)" fill="#fff"/>
  <path id="Tracé_58" data-name="Tracé 58" d="M277.192-1579.819l.012-1.631a10.747,10.747,0,0,1,10.356,9.261c.181,1.178.18,1.164-1.005,1.309-.4.048-.577.024-.606-.465a9.021,9.021,0,0,0-8.228-8.4C277.544-1579.756,277.368-1579.793,277.192-1579.819Z" transform="translate(-277.08 1612.67)" fill="#fff"/>
  <path id="Tracé_59" data-name="Tracé 59" d="M289.092-1700.5a10.789,10.789,0,0,1-9.9,9.926c-.355.028-.394-.083-.357-.393.146-1.212.137-1.214,1.289-1.419a9.1,9.1,0,0,0,7.293-8.046c.056-.745.056-.744.82-.65a1.5,1.5,0,0,0,.291.021C289-1701.1,289.261-1700.954,289.092-1700.5Z" transform="translate(-278.553 1720.696)" fill="#fff"/>
  <path id="Tracé_60" data-name="Tracé 60" d="M308.136-1428.69a28.354,28.354,0,0,1-2.178-4.139,1.151,1.151,0,0,1,0-.713,8.236,8.236,0,0,1,7.856-6.77c.3-.015.437.048.505.354a4.843,4.843,0,0,0,.343.956c.14.3.033.353-.251.347a6.865,6.865,0,0,0-3.715.937,6.583,6.583,0,0,0-2.9,7.651c.028.092.047.187.07.281a2.982,2.982,0,0,0,.186.505l.192.4C308.314-1428.76,308.314-1428.674,308.136-1428.69Z" transform="translate(-302.993 1485.273)" fill="#fff"/>
  <path id="Tracé_61" data-name="Tracé 61" d="M940.572-1266.125a.591.591,0,0,1-.311-.624c.007-1.214.006-2.428,0-3.642a1.656,1.656,0,0,0-1.635-1.791,1.645,1.645,0,0,0-1.652,1.769c0,.356-.007.712,0,1.068.006.246-.076.283-.284.165a3.013,3.013,0,0,0-.7-.339c-.6-.153-.724-.519-.707-1.1a3.369,3.369,0,0,1,3.306-3.229,3.351,3.351,0,0,1,3.337,3.19c.015.89,0,1.781,0,2.671a.552.552,0,0,1-.119.452A13.958,13.958,0,0,0,940.572-1266.125Z" transform="translate(-871.113 1335.011)" fill="#fff"/>
  <path id="Tracé_62" data-name="Tracé 62" d="M1536.221-1244.408a4.5,4.5,0,0,1,.9-1.33,2.449,2.449,0,0,1,1.8-.709c.3,0,.394.112.371.4a3.519,3.519,0,0,1-.035,1.01c-.157.378-.6.1-.906.182a2.629,2.629,0,0,0-1.838,1.78,4.456,4.456,0,0,0-.229,1.578c.007,1.02-.01,2.041.01,3.061.006.306-.093.375-.385.379-1.229.014-1.229.024-1.229-1.182,0-1.7-.013-3.4.009-5.1.006-.471-.115-.726-.623-.648-.374.057-.414-.137-.412-.447.008-.916,0-.913.9-.917,1.286-.006,1.768-.089,1.67,1.666C1536.219-1244.636,1536.221-1244.588,1536.221-1244.408Z" transform="translate(-1411.223 1310.279)" fill="#fff"/>
  <path id="Tracé_63" data-name="Tracé 63" d="M277.141-1553.977l-.029-1.628a7.682,7.682,0,0,1,5.46,2.283,8.047,8.047,0,0,1,2.525,5.615c.015.31-.063.469-.377.544a5.531,5.531,0,0,0-.963.329c-.274.122-.338.047-.326-.225a6.552,6.552,0,0,0-.251-2.16A6.58,6.58,0,0,0,277.141-1553.977Z" transform="translate(-277.008 1589.34)" fill="#fff"/>
  <path id="Tracé_64" data-name="Tracé 64" d="M292.531-1457.424c-.242-.716-.46-1.375-.689-2.029a.716.716,0,0,1,.068-.643,10.7,10.7,0,0,1,8.84-5.6c.24-.019.365.026.365.292a5.611,5.611,0,0,0,.055.629c.081.714.081.7-.641.782a8.917,8.917,0,0,0-7.664,5.81c-.05.119-.085.244-.136.363S292.618-1457.6,292.531-1457.424Z" transform="translate(-290.261 1508.192)" fill="#fff"/>
  <path id="Tracé_65" data-name="Tracé 65" d="M906.525-1812.872a11.265,11.265,0,0,1,3.984.755.487.487,0,0,1,.382.568,5.728,5.728,0,0,0,0,.921c.025.38-.016.526-.453.314a8.747,8.747,0,0,0-3.4-.878,8.888,8.888,0,0,0-6.076,1.875c-.3.228-.45.232-.626-.089a3.128,3.128,0,0,0-.293-.386c-.463-.6-.463-.6.172-1.053A10.63,10.63,0,0,1,906.525-1812.872Z" transform="translate(-838.996 1821.563)" fill="#fff"/>
  <path id="Tracé_66" data-name="Tracé 66" d="M1611.871-1641.163c0,.647-.012,1.294.005,1.941.007.276-.041.4-.364.4-1.1-.021-2.2-.017-3.3,0-.286,0-.349-.1-.346-.361.012-1.31.015-2.62,0-3.93,0-.308.095-.379.387-.374,1.085.016,2.17.018,3.255,0,.312-.005.382.1.373.391C1611.858-1642.458,1611.871-1641.81,1611.871-1641.163Z" transform="translate(-1478.21 1668.675)" fill="#fff"/>
  <path id="Tracé_67" data-name="Tracé 67" d="M290.747-1707.907a8.34,8.34,0,0,1-7.059,7.806c-.3.041-.337-.01-.291-.318a1.831,1.831,0,0,1,1.4-1.734,6.362,6.362,0,0,0,4.292-6.241c0-.553,0-.552.512-.362a3.915,3.915,0,0,0,.6.2C290.622-1708.469,290.928-1708.323,290.747-1707.907Z" transform="translate(-282.667 1727.686)" fill="#fff"/>
  <path id="Tracé_68" data-name="Tracé 68" d="M946.652-1728.6v-3.282c0-.42,0-.841,0-1.261a1.638,1.638,0,0,0-1.466-1.746,1.635,1.635,0,0,0-1.8,1.338.879.879,0,0,1-.075.128c-.313-.578-.609-1.126-.907-1.672-.1-.178.047-.269.136-.372a3.336,3.336,0,0,1,3.55-.916,3.348,3.348,0,0,1,2.235,2.951c.022.921,0,1.844,0,2.765a.551.551,0,0,1-.148.441C947.651-1729.718,947.189-1729.158,946.652-1728.6Z" transform="translate(-877.501 1752.678)" fill="#fff"/>
  <path id="Tracé_69" data-name="Tracé 69" d="M468.208-1891.7c.687-.318,1.3-.6,1.916-.889a.668.668,0,0,1,.427-.013,6.5,6.5,0,0,0,6.189-2,.92.92,0,0,1,.534-.3c.62-.11,1.234-.246,1.877-.377A8.14,8.14,0,0,1,468.208-1891.7Z" transform="translate(-449.501 1895.945)" fill="#fff"/>
  <path id="Tracé_70" data-name="Tracé 70" d="M924.809-1784.344a7.291,7.291,0,0,0-2.707-1.354,6.586,6.586,0,0,0-5.761,1.266c-.262.2-.39.21-.535-.077a2.162,2.162,0,0,0-.163-.241c-.611-.882-.615-.889.328-1.465a8.288,8.288,0,0,1,8.416-.39.73.73,0,0,1,.508.812c-.044.448-.015.9-.022,1.356C924.873-1784.411,924.839-1784.386,924.809-1784.344Z" transform="translate(-852.995 1798.721)" fill="#fff"/>
  <path id="Tracé_71" data-name="Tracé 71" d="M530.815-1231.214a10.666,10.666,0,0,0-2.715.661,8.976,8.976,0,0,0-4.542,4.065c-.162.292-.312.406-.639.283a5.784,5.784,0,0,0-.889-.241c-.28-.057-.284-.177-.168-.4a10.665,10.665,0,0,1,7.675-5.847c.145-.03.289-.083.375.1a1.041,1.041,0,0,0,.076.124Z" transform="translate(-497.867 1297.894)" fill="#fff"/>
  <path id="Tracé_72" data-name="Tracé 72" d="M937.174-1754.075c0-.691,0-1.338,0-1.984a3.971,3.971,0,0,0-2.561-3.932,4,4,0,0,0-4.493.876c-.058.053-.121.1-.2.164-.241-.388-.455-.77-.708-1.124-.177-.248-.1-.385.1-.562a5.87,5.87,0,0,1,6.3-.734c.086.045.168.1.255.14a2.436,2.436,0,0,1,1.594,2.708,35.194,35.194,0,0,0-.035,3.931C937.426-1754.412,937.5-1754.192,937.174-1754.075Z" transform="translate(-865.539 1775.616)" fill="#fff"/>
  <path id="Tracé_73" data-name="Tracé 73" d="M2206.281-1241.754c0,.891.016,1.782-.007,2.671-.011.429.166.608.571.563.346-.039.478.049.467.436-.027.929,0,.93-.946.929-.21,0-.421.007-.632,0-.76-.039-1.039-.333-1.04-1.1q0-2.55,0-5.1c0-.693,0-.712-.69-.715-.3,0-.336-.123-.34-.374-.018-1-.026-1,.964-1,1.548,0,1.652.1,1.652,1.649Z" transform="translate(-2016.009 1309.372)" fill="#fff"/>
  <path id="Tracé_74" data-name="Tracé 74" d="M1844.845-1241.76c0,.873.018,1.747-.007,2.619-.014.464.164.683.62.62.387-.053.447.114.44.457-.02.909,0,.909-.91.909-.227,0-.454.007-.68,0-.765-.04-1.036-.328-1.036-1.1q0-2.547,0-5.094c0-.7,0-.714-.678-.721-.283,0-.35-.1-.358-.365-.029-1-.038-1,.969-1,1.549,0,1.64.091,1.64,1.644Z" transform="translate(-1689.761 1309.371)" fill="#fff"/>
  <path id="Tracé_75" data-name="Tracé 75" d="M1230.953-1241.768c0,.873.017,1.747-.007,2.619-.013.456.147.692.612.629.375-.05.458.09.449.449-.023.917,0,.918-.9.917-.259,0-.519.009-.777-.011-.679-.054-.946-.343-.948-1.035,0-1.746-.015-3.493.009-5.238.006-.48-.133-.712-.63-.64-.32.047-.414-.082-.416-.4-.005-.963-.019-.963.963-.963,1.558,0,1.647.089,1.647,1.636Z" transform="translate(-1135.637 1309.371)" fill="#fff"/>
  <path id="Tracé_76" data-name="Tracé 76" d="M277.186-1528.9l.012-1.632a5.817,5.817,0,0,1,5.515,5.953c.009.662-.128,1.093-.76,1.356a6.178,6.178,0,0,0-.922.607c0-.763.009-1.448,0-2.133a4.117,4.117,0,0,0-3.083-4C277.7-1528.814,277.44-1528.85,277.186-1528.9Z" transform="translate(-277.075 1566.709)" fill="#fff"/>
  <path id="Tracé_77" data-name="Tracé 77" d="M725.038-1254.158c1.757-.315,2.911-1.536,4.135-2.634a3.718,3.718,0,0,0,1.216-2.766c.021-.738,0-1.476,0-2.269.546.343,1.034.651,1.524.954a.316.316,0,0,1,.141.286,5.91,5.91,0,0,1-3.406,6.158,5.773,5.773,0,0,1-3.37.43.453.453,0,0,1-.137-.045C725.119-1254.057,725.1-1254.088,725.038-1254.158Z" transform="translate(-681.329 1324.162)" fill="#fff"/>
  <path id="Tracé_78" data-name="Tracé 78" d="M497.883-1559.157a14.542,14.542,0,0,0,.735,2.095,1.193,1.193,0,0,1,.073.474q.007,2.89,0,5.781c0,.049,0,.1,0,.146a.846.846,0,0,1-.843.881.825.825,0,0,1-.822-.9c-.012-1.441.078-2.889-.028-4.322A9.4,9.4,0,0,1,497.883-1559.157Z" transform="translate(-475.475 1592.547)" fill="#fff"/>
  <path id="Tracé_79" data-name="Tracé 79" d="M498.2-1701.754a13.2,13.2,0,0,0-.739-2.1,1.08,1.08,0,0,1-.086-.473c0-1.958,0-3.916,0-5.874,0-.731.519-1.13,1.134-.9a.783.783,0,0,1,.53.792q.009,3.034,0,6.069a4,4,0,0,1-.4,1.135C498.518-1702.7,498.376-1702.294,498.2-1701.754Z" transform="translate(-475.825 1729.76)" fill="#fff"/>
  <path id="Tracé_80" data-name="Tracé 80" d="M554.981-1207.3a9.107,9.107,0,0,0-2.867.4,6.486,6.486,0,0,0-3.19,2.437.538.538,0,0,1-.673.274,4.839,4.839,0,0,0-.906-.17c-.416-.031-.339-.208-.187-.461a8.319,8.319,0,0,1,3.417-3.226,8.241,8.241,0,0,1,3.455-.887.43.43,0,0,1,.506.332C554.665-1208.189,554.817-1207.781,554.981-1207.3Z" transform="translate(-520.655 1276.42)" fill="#fff"/>
  <path id="Tracé_81" data-name="Tracé 81" d="M777.269-1460.645c-.086-.644-.165-1.264-.253-1.884-.028-.2.106-.294.224-.4a10.705,10.705,0,0,1,6.631-2.784c.248-.016.339.04.35.3.018.432.27.992.082,1.257-.2.282-.816.122-1.244.193a9.056,9.056,0,0,0-5.387,2.949c-.1.109-.192.219-.29.328C777.373-1460.671,777.352-1460.671,777.269-1460.645Z" transform="translate(-728.243 1508.201)" fill="#fff"/>
  <path id="Tracé_82" data-name="Tracé 82" d="M301.751-1594.753a15.758,15.758,0,0,0,2.208-.774.9.9,0,0,1,.38-.045q2.889,0,5.778,0a1.775,1.775,0,0,1,.431.047.794.794,0,0,1,.629.855.788.788,0,0,1-.767.743c-.484.026-.971.011-1.456.011-1.052,0-2.112-.079-3.154.02A9.5,9.5,0,0,1,301.751-1594.753Z" transform="translate(-299.248 1625.419)" fill="#fff"/>
  <path id="Tracé_83" data-name="Tracé 83" d="M854.483-1363.258c-1.3.266-2.34.916-3.623.823-1.546-.112-3.107-.026-4.662-.028a2.436,2.436,0,0,1-.483-.031.828.828,0,0,1-.677-.827.811.811,0,0,1,.775-.787c.387-.026.777-.01,1.165-.011,1.49,0,2.98.009,4.47-.006a3.048,3.048,0,0,1,1.312.25C853.268-1363.648,853.809-1363.5,854.483-1363.258Z" transform="translate(-789.646 1416.501)" fill="#fff"/>
  <path id="Tracé_84" data-name="Tracé 84" d="M390.816-1363.25a9.224,9.224,0,0,1-3.395.8c-1.535-.093-3.081-.021-4.622-.023a2.59,2.59,0,0,1-.484-.027.8.8,0,0,1-.683-.866.789.789,0,0,1,.753-.753c.274-.024.551-.011.827-.011,1.525,0,3.05.011,4.574-.006a3.544,3.544,0,0,1,1.694.3,8.906,8.906,0,0,0,1.144.4C390.666-1363.347,390.87-1363.434,390.816-1363.25Z" transform="translate(-371.352 1416.509)" fill="#fff"/>
  <path id="Tracé_85" data-name="Tracé 85" d="M779.841-1296.589a.57.57,0,0,1,.378.271,8.834,8.834,0,0,0,6.153,3.007c.4.024.669.082.484.568a.211.211,0,0,0,0,.048c-.132,1.119-.135,1.142-1.245,1a10.627,10.627,0,0,1-5.55-2.464.523.523,0,0,1-.22-.449C779.849-1295.252,779.841-1295.9,779.841-1296.589Z" transform="translate(-730.792 1355.54)" fill="#fff"/>
  <path id="Tracé_86" data-name="Tracé 86" d="M277.142-1503.042l-.017-1.635a3.215,3.215,0,0,1,3.006,2.906c.045,1,.01,2.007.016,3.011a.488.488,0,0,1-.154.387,12.292,12.292,0,0,0-1.416,1.667c-.162-.094-.088-.237-.088-.347-.006-1.393,0-2.785,0-4.178A1.639,1.639,0,0,0,277.142-1503.042Z" transform="translate(-277.02 1543.37)" fill="#fff"/>
  <path id="Tracé_87" data-name="Tracé 87" d="M499.043-1244.409c0,1,.007,2.009,0,3.013-.005.536-.1.593-.6.425-1.067-.36-1.067-.36-1.067-1.479,0-1.62,0-3.24,0-4.86,0-.617.328-.972.849-.961a.818.818,0,0,1,.816.9C499.052-1246.386,499.043-1245.4,499.043-1244.409Z" transform="translate(-475.825 1311.926)" fill="#fff"/>
  <path id="Tracé_88" data-name="Tracé 88" d="M289.388-1713.471c.228-.692.432-1.3.629-1.915.056-.174.206-.243.334-.337a4.041,4.041,0,0,0,1.689-3.434,2.272,2.272,0,0,1,.323-1.433c.122-.169.2-.291.395-.108a.115.115,0,0,0,.04.027c.822.289.949.893.931,1.7A5.866,5.866,0,0,1,289.388-1713.471Z" transform="translate(-288.089 1738.444)" fill="#fff"/>
  <path id="Tracé_89" data-name="Tracé 89" d="M538.583-1633.536a8.068,8.068,0,0,1,.629-10.256c-.222,1.76-.413,3.43-.511,5.106S538.541-1635.333,538.583-1633.536Z" transform="translate(-511.628 1668.943)" fill="#fff"/>
  <path id="Tracé_90" data-name="Tracé 90" d="M533.145-1826.222a12.4,12.4,0,0,0,2.136-.73,1.131,1.131,0,0,1,.519-.092q2.842,0,5.684,0a.983.983,0,0,1,.58.11c-.336.473-.674.943-1,1.418-.1.147-.245.134-.389.134q-2.5,0-5,0a.876.876,0,0,1-.374-.078A22.691,22.691,0,0,0,533.145-1826.222Z" transform="translate(-508.116 1834.356)" fill="#fff"/>
  <path id="Tracé_91" data-name="Tracé 91" d="M622.242-1897.991a5.066,5.066,0,0,1-1.493.486c-.513,0-.771-.611-1.189-.9a6.758,6.758,0,0,0-3.714-1.269c-.275-.009-.55,0-.871,0,.145-.428.279-.82.411-1.212.043-.128.138-.15.259-.174A7.029,7.029,0,0,1,622.242-1897.991Z" transform="translate(-581.981 1901.238)" fill="#fff"/>
  <path id="Tracé_92" data-name="Tracé 92" d="M862.754-1508.81a10.7,10.7,0,0,1-3.9,2.478,11.248,11.248,0,0,1-2.989.621c-.283.022-.437-.025-.415-.344a2.535,2.535,0,0,0-.026-.436c-.094-.876-.095-.879.763-.939a8.564,8.564,0,0,0,3.576-1.152,1.613,1.613,0,0,1,.866-.232C861.3-1508.8,861.973-1508.81,862.754-1508.81Z" transform="translate(-798.982 1547.107)" fill="#fff"/>
  <path id="Tracé_93" data-name="Tracé 93" d="M332.241-1738.7a10.972,10.972,0,0,1-5.279-1.737c-.254-.159-.332-.3-.131-.559.235-.308.366-.779.667-.93.337-.169.644.292.971.46a9.261,9.261,0,0,0,3.987,1.108c.292.009.359.1.306.375a5.647,5.647,0,0,0-.111.914C332.64-1738.75,332.515-1738.625,332.241-1738.7Z" transform="translate(-321.783 1757.557)" fill="#fff"/>
  <path id="Tracé_94" data-name="Tracé 94" d="M573.181-1181.069a5.76,5.76,0,0,1,2.558-2.061,7.2,7.2,0,0,1,3.055-.416.33.33,0,0,1,.322.161c.292.481.6.952.951,1.5-.672,0-1.293.014-1.913,0a4.263,4.263,0,0,0-2.77.865.423.423,0,0,1-.3.133Z" transform="translate(-544.255 1253.508)" fill="#fff"/>
  <path id="Tracé_95" data-name="Tracé 95" d="M757.883-1508.78c.86,0,1.585,0,2.31,0a.407.407,0,0,1,.358.194,6.2,6.2,0,0,1,1.153,4.394.28.28,0,0,1-.135.239l-1.527.954c0-.6-.023-1.145,0-1.686A4.292,4.292,0,0,0,757.883-1508.78Z" transform="translate(-710.976 1547.077)" fill="#fff"/>
  <path id="Tracé_96" data-name="Tracé 96" d="M397.006-1825.842l1.9-1.476a.624.624,0,0,1,.421-.069,16.487,16.487,0,0,0,1.99-.015c1.28-.163,2.321.534,3.485.858-1.035.209-1.9.885-3.024.836-1.567-.068-3.14-.017-4.71-.017Z" transform="translate(-385.23 1834.701)" fill="#fff"/>
  <path id="Tracé_97" data-name="Tracé 97" d="M716.239-1500.984c-.4-1.2-1.422-1.73-2.386-2.324a1.737,1.737,0,0,0-1.025-.237c-.844.041-1.661-.194-2.516-.211a3.163,3.163,0,0,1,3.377-1.4C715.453-1504.753,716.355-1503.319,716.239-1500.984Z" transform="translate(-668.037 1543.863)" fill="#fff"/>
  <path id="Tracé_98" data-name="Tracé 98" d="M866.916-1826.152a6.215,6.215,0,0,1-3.466.691,8.423,8.423,0,0,1-2.074-.065,6.035,6.035,0,0,1-1.57-1.258c-.1-.082-.192-.167-.289-.252.105-.164.248-.091.362-.091,1.362-.006,2.725,0,4.087-.01a2.609,2.609,0,0,1,1.214.258C865.744-1826.6,866.338-1826.39,866.916-1826.152Z" transform="translate(-802.717 1834.445)" fill="#fff"/>
  <path id="Tracé_99" data-name="Tracé 99" d="M573.564-1850.668c.571-.538,1.168-1,1.692-1.555.119-.125.264-.1.407-.1q1.336,0,2.672,0a3.385,3.385,0,0,1,1.783.554c.2.124.253.235.032.381a.232.232,0,0,0-.037.032,1.947,1.947,0,0,1-1.9.744A34.778,34.778,0,0,0,573.564-1850.668Z" transform="translate(-544.601 1857.177)" fill="#fff"/>
  <path id="Tracé_100" data-name="Tracé 100" d="M599.846-1876.357c.347-.544.643-1,.933-1.469a.349.349,0,0,1,.3-.2,6.481,6.481,0,0,1,4.791,1.491c.3.261.233.335-.065.571a1.416,1.416,0,0,1-2.007.07,3.7,3.7,0,0,0-2.344-.467C600.943-1876.354,600.428-1876.357,599.846-1876.357Z" transform="translate(-568.324 1880.383)" fill="#fff"/>
  <path id="Tracé_101" data-name="Tracé 101" d="M984.286-1664.4q-.368-1.2-.735-2.393a.676.676,0,0,1-.032-.512,10.709,10.709,0,0,1,2.973-3.962c0,.808.011,1.524-.01,2.238,0,.123-.134.251-.223.363a9.233,9.233,0,0,0-1.67,3.359A8.736,8.736,0,0,1,984.286-1664.4Z" transform="translate(-914.61 1693.74)" fill="#fff"/>
  <path id="Tracé_102" data-name="Tracé 102" d="M346.39-1761.374c-.173.512-.338.965-.478,1.427-.062.2-.179.227-.362.221a8.649,8.649,0,0,1-4.316-1.312c-.288-.175-.409-.319-.131-.615s.431-.742.744-.868c.3-.12.625.3.95.455A7.8,7.8,0,0,0,346.39-1761.374Z" transform="translate(-334.629 1776.133)" fill="#fff"/>
  <path id="Tracé_103" data-name="Tracé 103" d="M405.4-1232.8a10.331,10.331,0,0,1,7.444,4.7A27.517,27.517,0,0,1,405.4-1232.8Z" transform="translate(-392.808 1297.963)" fill="#fff"/>
  <path id="Tracé_104" data-name="Tracé 104" d="M1007.618-1508.762c.9,0,1.661,0,2.422,0a.666.666,0,0,1,.367.1,9.162,9.162,0,0,0,4.314,1.343c.12.007.363-.117.356.174-.006.237-.194.211-.354.223a10.093,10.093,0,0,0-2.892.592.488.488,0,0,1-.371.015A10.957,10.957,0,0,1,1007.618-1508.762Z" transform="translate(-936.4 1547.059)" fill="#fff"/>
  <path id="Tracé_105" data-name="Tracé 105" d="M380.178-1801.619c-.576.556-1.178,1.014-1.7,1.567a.374.374,0,0,1-.308.107c-1.068-.033-2.138.063-3.206-.063a3.37,3.37,0,0,1-1.056-.341c.387-.405.763-.8,1.14-1.191a.339.339,0,0,1,.27-.079Z" transform="translate(-364.383 1811.406)" fill="#fff"/>
  <path id="Tracé_106" data-name="Tracé 106" d="M333.835-1314.97a7.238,7.238,0,0,0,2.629,2,7.35,7.35,0,0,0,3.3.541c-.174.52-.339.989-.487,1.462-.058.185-.181.195-.337.193a8.152,8.152,0,0,1-2.388-.389.565.565,0,0,1-.287-.168,35.151,35.151,0,0,1-2.621-3.538c-.056-.069-.058-.15.016-.19S333.795-1315.039,333.835-1314.97Z" transform="translate(-327.998 1372.225)" fill="#fff"/>
  <path id="Tracé_107" data-name="Tracé 107" d="M361.349-1781.642c-.351.548-.648,1.008-.94,1.473-.063.1-.12.181-.255.187a6.4,6.4,0,0,1-4.284-1.06l.97-1.087c.081-.091.161-.145.29-.065a5.823,5.823,0,0,0,3.3.552C360.713-1781.644,361-1781.642,361.349-1781.642Z" transform="translate(-348.099 1793.906)" fill="#fff"/>
  <path id="Tracé_108" data-name="Tracé 108" d="M964.4-1849.629a3.573,3.573,0,0,0,1.134-1.445.333.333,0,0,1,.322-.237,9.525,9.525,0,0,0,3.423-1.054c0,.59,0,1.115,0,1.64a.285.285,0,0,1-.206.291A10.575,10.575,0,0,1,964.4-1849.629Z" transform="translate(-897.386 1857.212)" fill="#fff"/>
  <path id="Tracé_109" data-name="Tracé 109" d="M962.539-1507.131c0,.548.008,1.1,0,1.645a.828.828,0,0,1-.834.876.831.831,0,0,1-.821-.89c-.009-1.081.007-2.162-.009-3.242,0-.282.09-.36.357-.343.416.027.958-.128,1.218.079.276.22.066.784.089,1.2C962.55-1507.583,962.54-1507.357,962.539-1507.131Z" transform="translate(-894.205 1547.376)" fill="#fff"/>
  <path id="Tracé_110" data-name="Tracé 110" d="M962.327-1704.9c-.341-.845-.625-1.719-1.037-2.527a5.275,5.275,0,0,1-.553-2.851c.04-.565.346-.94.835-.939a.845.845,0,0,1,.829.938c0,1.788,0,3.576,0,5.365Z" transform="translate(-894.068 1729.802)" fill="#fff"/>
  <path id="Tracé_111" data-name="Tracé 111" d="M795.274-1504.471a6.864,6.864,0,0,0-1.114-4.3c.643,0,1.185,0,1.728,0,.184,0,.246.105.309.247a8.369,8.369,0,0,1,.743,3.189c.005.156.034.312-.194.379C796.27-1504.82,795.8-1504.649,795.274-1504.471Z" transform="translate(-743.722 1547.07)" fill="#fff"/>
  <path id="Tracé_112" data-name="Tracé 112" d="M668.929-1899.263c-.568.054-1.1.1-1.622.159a.3.3,0,0,1-.315-.16,9.1,9.1,0,0,0-3.326-2.833,7.216,7.216,0,0,1,1.453-.025,1.726,1.726,0,0,0,.242.009,2.459,2.459,0,0,1,2.447,1.2A9.368,9.368,0,0,1,668.929-1899.263Z" transform="translate(-625.932 1902.149)" fill="#fff"/>
  <path id="Tracé_113" data-name="Tracé 113" d="M791.735-1246.629c.516.172.972.333,1.433.475a.3.3,0,0,1,.23.358,9.2,9.2,0,0,1-.362,2.2.5.5,0,0,1-.211.31c-.851.523-1.7,1.049-2.594,1.553A7.108,7.108,0,0,0,791.735-1246.629Z" transform="translate(-740.176 1310.443)" fill="#fff"/>
  <path id="Tracé_114" data-name="Tracé 114" d="M642.458-1191.339c-.833.095-1.519.171-2.205.252a.447.447,0,0,1-.35-.125,10.378,10.378,0,0,1-2.529-3.534,5.751,5.751,0,0,0,.66.364,9.34,9.34,0,0,1,3.485,2.338A7.663,7.663,0,0,0,642.458-1191.339Z" transform="translate(-602.198 1263.611)" fill="#fff"/>
  <path id="Tracé_115" data-name="Tracé 115" d="M831.834-1851.749a3.174,3.174,0,0,1,3.339-.416c.844.439,1.707.843,2.57,1.266-.1.164-.242.083-.353.087-1.275.046-2.554-.079-3.827.073a.392.392,0,0,1-.273-.069Z" transform="translate(-777.728 1857.316)" fill="#fff"/>
  <path id="Tracé_116" data-name="Tracé 116" d="M823.464-1508.755h.781c1.035,0,1.04,0,1.288.988a11.351,11.351,0,0,1,.319,2c.018.27-.02.415-.346.42-.418.007-.969.255-1.213.071s-.127-.777-.195-1.187a11.163,11.163,0,0,0-.247-1.132C823.749-1507.961,823.61-1508.322,823.464-1508.755Z" transform="translate(-770.173 1547.052)" fill="#fff"/>
  <path id="Tracé_117" data-name="Tracé 117" d="M1001.834-1631.584c0,1.625,0,3.25,0,4.875,0,.228-.08.318-.31.309-1.211-.051-1.048.272-1.062-1.022A6.889,6.889,0,0,1,1001.834-1631.584Z" transform="translate(-929.943 1657.923)" fill="#fff"/>
  <path id="Tracé_118" data-name="Tracé 118" d="M980.826-1879.948c.181-.559.343-1.048.495-1.54.045-.147.1-.263.266-.308a7.124,7.124,0,0,0,2.512-1.357c0,.7,0,1.318,0,1.933,0,.13-.12.182-.218.238A8.029,8.029,0,0,1,980.826-1879.948Z" transform="translate(-912.216 1885.002)" fill="#fff"/>
  <path id="Tracé_119" data-name="Tracé 119" d="M996.553-1210.407c-.315-.451-.6-.865-.89-1.267a.28.28,0,0,1-.005-.384,11.151,11.151,0,0,1,2.514-2.435l.157.033c0,.6,0,1.2,0,1.805,0,.151-.1.23-.193.318A9.4,9.4,0,0,0,996.553-1210.407Z" transform="translate(-925.537 1281.436)" fill="#fff"/>
  <path id="Tracé_120" data-name="Tracé 120" d="M962.565-1244.152c-.546-.424-1.012-.8-1.492-1.152a.4.4,0,0,1-.169-.37c0-.6-.011-1.2.006-1.8a.8.8,0,0,1,.843-.813.793.793,0,0,1,.806.8C962.575-1246.4,962.565-1245.323,962.565-1244.152Z" transform="translate(-894.232 1311.937)" fill="#fff"/>
  <path id="Tracé_121" data-name="Tracé 121" d="M683.979-1178.388a28.939,28.939,0,0,1-2.859.736.511.511,0,0,1-.371-.029,8.364,8.364,0,0,1-2.268-1.559c.675,0,1.275.017,1.874-.005a3.326,3.326,0,0,1,1.55.246,5.657,5.657,0,0,0,2.171.444C684.134-1178.447,684.042-1178.425,683.979-1178.388Z" transform="translate(-639.304 1249.623)" fill="#fff"/>
  <path id="Tracé_122" data-name="Tracé 122" d="M728.714-1895.911c.065-.317-.2-.858.106-1.062.236-.158.735.087,1.119.128.33.035.473.161.447.522-.037.5-.018,1-.005,1.5.005.23-.066.337-.3.293a.672.672,0,0,0-.1-.006C728.714-1894.584,728.714-1894.584,728.714-1895.911Z" transform="translate(-684.607 1897.524)" fill="#fff"/>
  <path id="Tracé_123" data-name="Tracé 123" d="M2665.479-1742.1c.451-.785.869-1.506,1.28-2.23.07-.124.175-.124.289-.124h1.606c-.592.79-1.138,1.519-1.682,2.248-.107.144-.261.1-.4.1C2666.235-1742.092,2665.9-1742.1,2665.479-1742.1Z" transform="translate(-2432.87 1759.802)" fill="#fff"/>
  <path id="Tracé_124" data-name="Tracé 124" d="M811.7-1868.384a4.329,4.329,0,0,0-1.863.933.248.248,0,0,1-.3.067c-.461-.224-.926-.442-1.406-.671a5.07,5.07,0,0,1,1.324-1.166.307.307,0,0,1,.316-.061C810.375-1869,810.983-1868.717,811.7-1868.384Z" transform="translate(-756.327 1872.503)" fill="#fff"/>
  <path id="Tracé_125" data-name="Tracé 125" d="M682.165-1507.133a5.018,5.018,0,0,1,.775-1.456.357.357,0,0,1,.311-.19c.738.006,1.477,0,2.363,0a4.567,4.567,0,0,0-1.618,1.6c-.081.141-.2.137-.336.13Z" transform="translate(-642.629 1547.073)" fill="#fff"/>
  <path id="Tracé_126" data-name="Tracé 126" d="M759.719-1887.985a14.116,14.116,0,0,0-1.136,1.469.222.222,0,0,1-.237.129c-.462-.079-.923-.159-1.384-.243-.209-.038-.148-.16-.079-.283a12.35,12.35,0,0,1,.948-1.4.338.338,0,0,1,.427-.1Z" transform="translate(-710.016 1889.785)" fill="#fff"/>
  <path id="Tracé_127" data-name="Tracé 127" d="M532.9-1363.391c.8-.271,1.558-.468,2.278-.8a1.646,1.646,0,0,1,.767-.029,3,3,0,0,1,.332,1.6,1.886,1.886,0,0,1-1.141-.022A16.4,16.4,0,0,0,532.9-1363.391Z" transform="translate(-507.891 1416.611)" fill="#fff"/>
  <path id="Tracé_128" data-name="Tracé 128" d="M576-1801.109l-.685,1.325a.628.628,0,0,1-.959.179,17.506,17.506,0,0,0-1.8-1.5Z" transform="translate(-543.686 1810.945)" fill="#fff"/>
  <path id="Tracé_129" data-name="Tracé 129" d="M786.238-1879.442a8.031,8.031,0,0,0-1.287,1.236.262.262,0,0,1-.341.081c-.4-.129-.8-.268-1.206-.373-.238-.061-.191-.157-.091-.3a9.578,9.578,0,0,1,.973-1.147.345.345,0,0,1,.436-.064C785.2-1879.819,785.69-1879.645,786.238-1879.442Z" transform="translate(-733.857 1882.208)" fill="#fff"/>
  <path id="Tracé_130" data-name="Tracé 130" d="M1095.079-1508.916c-.153.492-.295.953-.44,1.413-.019.06-.052.161-.085.164q-.792.075-1.587.123c-.079,0-.066-.094-.061-.155a1.794,1.794,0,0,1,.031-.191C1093.228-1509.012,1093.269-1509.039,1095.079-1508.916Z" transform="translate(-1013.381 1547.238)" fill="#fff"/>
  <path id="Tracé_131" data-name="Tracé 131" d="M989.685-1897.282c.154-.654.294-1.245.431-1.836.048-.206.21-.165.349-.166.436,0,.873,0,1.309,0,.106,0,.252-.051.307.071a.364.364,0,0,1-.078.406A5.407,5.407,0,0,1,989.685-1897.282Z" transform="translate(-920.213 1899.571)" fill="#fff"/>
  <path id="Tracé_132" data-name="Tracé 132" d="M660.952-1508.765a7.925,7.925,0,0,0-.678,1.388.284.284,0,0,1-.361.228c-.1-.016-.2-.008-.29-.03-.258-.06-.681.113-.752-.14a1.677,1.677,0,0,1,.106-1.275.3.3,0,0,1,.308-.171C659.817-1508.763,660.349-1508.765,660.952-1508.765Z" transform="translate(-621.533 1547.061)" fill="#fff"/>
  <path id="Tracé_133" data-name="Tracé 133" d="M1239.356-1278.487c0-.823,0-.789.841-.835.494-.027.674.116.591.6a1.441,1.441,0,0,0,0,.482c.089.5-.116.621-.6.6C1239.358-1277.684,1239.356-1277.654,1239.356-1278.487Z" transform="translate(-1145.578 1339.957)" fill="#fff"/>
  <path id="Tracé_134" data-name="Tracé 134" d="M1854.729-1278.446c0,.8,0,.8-.718.8s-.711,0-.711-.763c0-.893,0-.861.868-.905.477-.024.646.119.563.579A1.636,1.636,0,0,0,1854.729-1278.446Z" transform="translate(-1699.756 1339.949)" fill="#fff"/>
  <path id="Tracé_135" data-name="Tracé 135" d="M829-1236.923a13.038,13.038,0,0,0,.193-1.718c0-.2.1-.186.254-.161.335.054.676.075,1.01.131.137.023.388-.085.379.166-.009.268.141.61-.2.786C830.11-1237.448,829.572-1237.2,829-1236.923Z" transform="translate(-775.174 1303.389)" fill="#fff"/>
  <path id="Tracé_136" data-name="Tracé 136" d="M2214.494-1278.371c0-.786,0-.786.721-.786.7,0,.7,0,.7.815,0,.84,0,.811-.826.851-.474.024-.7-.088-.6-.591A1.524,1.524,0,0,0,2214.494-1278.371Z" transform="translate(-2025.765 1339.805)" fill="#fff"/>
  <path id="Tracé_137" data-name="Tracé 137" d="M996.564-1363.211a18.506,18.506,0,0,0,2.256-.8c.135-.067.261-.037.262.155,0,.421,0,.842,0,1.263,0,.222-.124.234-.29.153A13.508,13.508,0,0,0,996.564-1363.211Z" transform="translate(-926.422 1416.429)" fill="#fff"/>
  <path id="Tracé_138" data-name="Tracé 138" d="M1054.991-1508.915c.966,0,1.933,0,2.9.006.108,0,.351-.11.3.153-.036.193,0,.49-.347.479A6.668,6.668,0,0,1,1054.991-1508.915Z" transform="translate(-979.161 1547.211)" fill="#fff"/>
  <path id="Tracé_139" data-name="Tracé 139" d="M854.2-1508.945a6.814,6.814,0,0,1-2.824.641c-.357.016-.333-.269-.372-.459-.063-.3.206-.175.327-.176C852.291-1508.95,853.248-1508.945,854.2-1508.945Z" transform="translate(-795.027 1547.241)" fill="#fff"/>
  <path id="Tracé_140" data-name="Tracé 140" d="M1011.834-1181.68c0,.467-.008.935,0,1.4.005.207-.063.293-.275.286-.333-.01-.667,0-1.076,0a7.48,7.48,0,0,1,1.224-1.726Z" transform="translate(-938.989 1251.854)" fill="#fff"/>
  <path id="Tracé_141" data-name="Tracé 141" d="M277.209-1477.277l-.1-1.45c.423.064.545.385.554.732.022.865.007,1.732-.027,2.6A12.029,12.029,0,0,1,277.209-1477.277Z" transform="translate(-277.002 1519.947)" fill="#fff"/>
  <path id="Tracé_142" data-name="Tracé 142" d="M374.2-1263.668c.308.028.694.088,1.081.091.349,0,.4.154.333.45-.058.267-.076.543-.1.7Z" transform="translate(-364.649 1325.823)" fill="#fff"/>
  <path id="Tracé_143" data-name="Tracé 143" d="M614.833-1158.106a19.526,19.526,0,0,1-4.08.126A11.837,11.837,0,0,1,614.833-1158.106Z" transform="translate(-578.169 1230.641)" fill="#fff"/>
  <path id="Tracé_144" data-name="Tracé 144" d="M996.626-1823.072c.55-.177.986-.3,1.406-.459.3-.115.345-.012.348.265.006.744.018.742-.684.515C997.378-1822.853,997.057-1822.943,996.626-1823.072Z" transform="translate(-926.478 1831.226)" fill="#fff"/>
  <path id="Tracé_145" data-name="Tracé 145" d="M511.119-1885.208a5.787,5.787,0,0,1-2.625.886c-.1,0-.26.147-.28-.1.922-.332,1.851-.643,2.8-.9C511.115-1885.345,511.14-1885.3,511.119-1885.208Z" transform="translate(-485.613 1886.964)" fill="#fff"/>
  <path id="Tracé_146" data-name="Tracé 146" d="M710.327-1899.677c.777.09.659-.179.646,1.4l-1.057-1.277C709.986-1899.828,710.176-1899.687,710.327-1899.677Z" transform="translate(-667.679 1899.959)" fill="#fff"/>
  <path id="Tracé_147" data-name="Tracé 147" d="M887.021-1801.339h1.454C887.8-1800.495,887.436-1800.495,887.021-1801.339Z" transform="translate(-827.543 1811.153)" fill="#fff"/>
  <path id="Tracé_148" data-name="Tracé 148" d="M1119.833-1507.642c0,.455.006.792,0,1.129,0,.114.067.281-.124.312a.579.579,0,0,1-.372-.018c-.121-.084,0-.236.031-.344A4.054,4.054,0,0,1,1119.833-1507.642Z" transform="translate(-1037.193 1546.047)" fill="#fff"/>
  <path id="Tracé_149" data-name="Tracé 149" d="M329.569-1322.04c-.116-.065-.188-.048-.192.1l-.5-.772a.206.206,0,0,0,.112-.194A3.041,3.041,0,0,1,329.569-1322.04Z" transform="translate(-323.732 1379.295)" fill="#fff"/>
  <path id="Tracé_150" data-name="Tracé 150" d="M431.461-1838.5h-.743C431.027-1838.92,431.12-1838.927,431.461-1838.5Z" transform="translate(-415.66 1844.984)" fill="#fff"/>
  <path id="Tracé_151" data-name="Tracé 151" d="M754.581-1891.56c-.007-.22-.192-.459.05-.612.082-.052.278.011.291.1C754.958-1891.834,754.7-1891.739,754.581-1891.56Z" transform="translate(-707.929 1893.16)" fill="#fff"/>
  <path id="Tracé_152" data-name="Tracé 152" d="M2284.037-1499.2c.029.124-.054.207-.138.394a2.232,2.232,0,0,1,.04-1.081C2284.036-1499.666,2283.877-1499.411,2284.037-1499.2Z" transform="translate(-2088.393 1539.047)" fill="#fff"/>
  <path id="Tracé_153" data-name="Tracé 153" d="M856.751-1234.35c-.183.128-.292.188-.421.163-.018,0-.045-.1-.028-.119C856.407-1234.416,856.533-1234.351,856.751-1234.35Z" transform="translate(-799.809 1299.378)" fill="#fff"/>
  <path id="Tracé_154" data-name="Tracé 154" d="M1037-1478.242c.091,0,.087.071.1.126.024.077-.021.118-.086.135-.1.025-.089-.061-.1-.114A.123.123,0,0,1,1037-1478.242Z" transform="translate(-962.842 1519.509)" fill="#fff"/>
  <path id="Tracé_155" data-name="Tracé 155" d="M709.1-1900.129c-.128.071-.316-.065-.411.12-.107-.077-.242-.169.013-.207A.545.545,0,0,1,709.1-1900.129Z" transform="translate(-666.449 1900.411)" fill="#fff"/>
  <path id="Tracé_156" data-name="Tracé 156" d="M2470.076-1504.526c0,.067,0,.134-.075.16s-.119-.017-.121-.093a.553.553,0,0,1,.082-.37C2470.024-1504.737,2469.943-1504.591,2470.076-1504.526Z" transform="translate(-2256.313 1543.508)" fill="#fff"/>
  <path id="Tracé_157" data-name="Tracé 157" d="M474.216-1356.733l-.191-.181a2.315,2.315,0,0,1,.276.055.553.553,0,0,1,.137.1A.2.2,0,0,1,474.216-1356.733Z" transform="translate(-454.752 1409.992)" fill="#fff"/>
  <path id="Tracé_158" data-name="Tracé 158" d="M326.254-1331.675a.523.523,0,0,1-.186-.505A.788.788,0,0,1,326.254-1331.675Z" transform="translate(-321.192 1387.666)" fill="#fff"/>
  <path id="Tracé_159" data-name="Tracé 159" d="M506.768-1876c.069.1.192.048.279.1a.445.445,0,0,1-.316.077c-.059,0-.145,0-.113-.09C506.633-1875.958,506.716-1875.974,506.768-1876Z" transform="translate(-484.166 1878.548)" fill="#fff"/>
  <path id="Tracé_160" data-name="Tracé 160" d="M537.06-1886.109l-.107-.11c.1-.08.216-.171.31-.036C537.294-1886.21,537.16-1886.12,537.06-1886.109Z" transform="translate(-511.554 1887.865)" fill="#fff"/>
  <path id="Tracé_161" data-name="Tracé 161" d="M564-1681.143c-.045-.1.018-.241-.115-.309.042-.072.132-.135.175-.068A.319.319,0,0,1,564-1681.143Z" transform="translate(-535.868 1703.024)" fill="#fff"/>
  <path id="Tracé_162" data-name="Tracé 162" d="M734.957-1172.1l.1-.167.257-.017A.346.346,0,0,1,734.957-1172.1Z" transform="translate(-690.282 1243.338)" fill="#fff"/>
  <path id="Tracé_163" data-name="Tracé 163" d="M577.184-1301.923l.091-.19c.1.1.147.227.051.326C577.277-1301.738,577.2-1301.843,577.184-1301.923Z" transform="translate(-547.868 1360.526)" fill="#fff"/>
  <path id="Tracé_164" data-name="Tracé 164" d="M1977.215-1546.817a9.557,9.557,0,0,0-4.75-6.609,10.366,10.366,0,0,0-6.322-1.083,10.84,10.84,0,0,0-9.471,7.215,13.164,13.164,0,0,0-.764,6.495,11.62,11.62,0,0,0,4.2,7.847,12.242,12.242,0,0,0,7.835,2.721,13.623,13.623,0,0,0,8.907-3.089c.263-.209.322-.365.122-.671-.506-.771-.993-1.557-1.438-2.365-.223-.4-.356-.373-.694-.108a9.794,9.794,0,0,1-7.989,2.23,7.688,7.688,0,0,1-6.4-7.148c-.032-.382.037-.493.44-.491,2.677.019,5.353.01,8.03.01s5.354-.009,8.031.01c.382,0,.491-.12.523-.475A14.076,14.076,0,0,0,1977.215-1546.817Zm-4.711,1.712c-1.912-.021-3.825-.009-5.738-.009s-3.825-.007-5.738.007c-.331,0-.427-.079-.354-.411a6.66,6.66,0,0,1,8.354-5.3,5.077,5.077,0,0,1,3.7,4.049c.1.391.132.8.2,1.194C1973-1545.222,1972.888-1545.1,1972.5-1545.1Z" transform="translate(-1792.274 1588.435)" fill="#fff"/>
  <path id="Tracé_165" data-name="Tracé 165" d="M2627.011-1703.329c1.021.02,2.042.007,3.064.007h2.821c.669,0,.683,0,.686-.669a4.185,4.185,0,0,0-1.806-3.86,4.741,4.741,0,0,0-5.775.872c-1.876,2.09-1.748,6.528,1.694,7.94a5.385,5.385,0,0,0,5.07-.445c.726-.442.721-.45.293-1.152-.366-.6-.367-.6-.932-.235a4.488,4.488,0,0,1-1.095.515,3.229,3.229,0,0,1-4.334-2.583C2626.645-1703.236,2626.684-1703.336,2627.011-1703.329Zm-.2-1.651a2.732,2.732,0,0,1,3.157-2.025,2.276,2.276,0,0,1,1.753,2.074c.009.272-.122.281-.321.279-.73,0-1.459,0-2.189,0-.713,0-1.427-.008-2.14,0C2626.8-1704.645,2626.734-1704.7,2626.806-1704.98Z" transform="translate(-2396.145 1727.328)" fill="#fff"/>
  <path id="Tracé_166" data-name="Tracé 166" d="M2737.246-1707.852a4.91,4.91,0,0,0-5.475.9c-1.967,2.044-1.9,6.616,1.6,8.049a5.388,5.388,0,0,0,5.069-.448c.723-.44.718-.45.292-1.148a3.114,3.114,0,0,1-.174-.291c-.126-.265-.252-.353-.523-.121a3.728,3.728,0,0,1-1.328.688,3.238,3.238,0,0,1-4.334-2.529c-.056-.323-.014-.456.366-.445,1,.028,2.009.01,3.015.01h3.111c.177,0,.356.034.383-.239A4.507,4.507,0,0,0,2737.246-1707.852Zm-.144,3.335h-2.189c-.714,0-1.427-.01-2.141.006-.3.007-.36-.08-.284-.365a2.74,2.74,0,0,1,3.183-1.985,2.3,2.3,0,0,1,1.732,2.1C2737.412-1704.5,2737.27-1704.516,2737.1-1704.517Z" transform="translate(-2491.536 1727.192)" fill="#fff"/>
  <path id="Tracé_167" data-name="Tracé 167" d="M1440.18-1245.815a3.417,3.417,0,0,0-4.167-1.727,3.007,3.007,0,0,0-1.658,1.249c-.079-1-.271-1.179-1.183-1.194-.146,0-.292,0-.438,0-.951,0-.941,0-.936.976,0,.281.052.4.37.393.664-.007.672.02.672.69q0,4.179,0,8.359c0,1.166,0,1.152,1.165,1.16.338,0,.44-.086.435-.431-.02-1.277-.008-2.555-.008-3.929a3.453,3.453,0,0,0,5.558-.35A5.183,5.183,0,0,0,1440.18-1245.815Zm-1.625,4.484a2.169,2.169,0,0,1-3.732-.22,3.827,3.827,0,0,1-.162-3.325,2.09,2.09,0,0,1,1.922-1.407,2.115,2.115,0,0,1,2.125,1.16,3.346,3.346,0,0,1,.411,1.618A3.55,3.55,0,0,1,1438.555-1241.331Z" transform="translate(-1319.285 1311.418)" fill="#fff"/>
  <path id="Tracé_168" data-name="Tracé 168" d="M1894.644-1247.424a4.307,4.307,0,0,0-4.462,4.328,4.347,4.347,0,0,0,4.464,4.345,4.335,4.335,0,0,0,4.481-4.371A4.3,4.3,0,0,0,1894.644-1247.424Zm0,7.3a2.878,2.878,0,0,1-2.837-3.007,2.832,2.832,0,0,1,2.859-2.917,2.848,2.848,0,0,1,2.844,2.939A2.891,2.891,0,0,1,1894.647-1240.125Z" transform="translate(-1733.047 1311.161)" fill="#fff"/>
  <path id="Tracé_169" data-name="Tracé 169" d="M2491.6-1247.238a4.235,4.235,0,0,0-4.541.911,4.62,4.62,0,0,0,.035,6.193,4.8,4.8,0,0,0,6.159.284c.208-.166.247-.295.089-.512-.18-.248-.281-.625-.516-.736-.145-.069-.475.253-.723.4-.07.041-.144.075-.217.109a2.9,2.9,0,0,1-4.306-1.989c-.074-.366.023-.446.371-.438.875.02,1.752.006,2.628.006.86,0,1.72-.013,2.58.007.318.007.455-.069.486-.412A3.787,3.787,0,0,0,2491.6-1247.238Zm.1,3.064c-.63-.008-1.26,0-1.89,0-.614,0-1.228-.009-1.841,0-.272.006-.377-.038-.287-.35a2.4,2.4,0,0,1,2.817-1.709,2.107,2.107,0,0,1,1.505,1.767C2492.03-1244.2,2491.914-1244.171,2491.7-1244.174Z" transform="translate(-2270.764 1311.272)" fill="#fff"/>
  <path id="Tracé_170" data-name="Tracé 170" d="M1601.022-1247.388c-3.392.678-3.937,4.706-2.462,6.775a4.635,4.635,0,0,0,5.972,1.205c.956-.527.95-.531.387-1.436-.143-.229-.238-.291-.468-.1a3.459,3.459,0,0,1-1.252.625,2.842,2.842,0,0,1-3.7-2.113c-.1-.432-.009-.563.451-.542.842.039,1.687.011,2.53.011.892,0,1.784-.006,2.676,0,.234,0,.345-.046.365-.311C1605.715-1245.82,1604.083-1248,1601.022-1247.388Zm2.572,3.26c-.632,0-1.264,0-1.9,0-.6,0-1.2-.019-1.8.007-.378.017-.4-.119-.3-.426a2.384,2.384,0,0,1,2.737-1.646,2.1,2.1,0,0,1,1.565,1.826C1603.912-1244.1,1603.755-1244.128,1603.593-1244.128Z" transform="translate(-1469.118 1311.223)" fill="#fff"/>
</svg>
