<svg xmlns="http://www.w3.org/2000/svg" width="63.767" height="56.097" viewBox="0 0 63.767 56.097">
  <g id="Logo" transform="translate(-276.042 1902.15)">
    <path id="Tracé_6" data-name="Tracé 6" d="M276.145-1554.378l-.1.016v-1.275l.08,0A1.768,1.768,0,0,1,276.145-1554.378Z" transform="translate(0 -320.487)" fill="#fff"/>
    <path id="Tracé_7" data-name="Tracé 7" d="M276.042-1581.6l.1.011a1.761,1.761,0,0,1-.009,1.259l-.086.005Z" transform="translate(0 -296.477)" fill="#fff"/>
    <path id="Tracé_8" data-name="Tracé 8" d="M276.137-1503.45l-.095.01v-1.275l.081,0A1.716,1.716,0,0,1,276.137-1503.45Z" transform="translate(0 -367.584)" fill="#fff"/>
    <path id="Tracé_9" data-name="Tracé 9" d="M276.042-1530.674l.1.011a1.752,1.752,0,0,1-.009,1.259l-.086.005Z" transform="translate(0 -343.574)" fill="#fff"/>
    <path id="Tracé_10" data-name="Tracé 10" d="M276.042-1478.754l.08,0a1.331,1.331,0,0,1,.081,1.119c-.186-.133,0-.382-.16-.521Z" transform="translate(0 -391.595)" fill="#fff"/>
    <path id="Tracé_20" data-name="Tracé 20" d="M399.372-1688.941a8.306,8.306,0,0,1-7.768,8.256c-.231.017-.34-.017-.337-.28a2.609,2.609,0,0,0-.088-.7c-.067-.249.019-.287.245-.3a6.915,6.915,0,0,0,4.062-1.548,7,7,0,0,0,2.336-7.346,7.038,7.038,0,0,0-5.811-5.027c-.025,0-.05,0-.075-.008-.255-.04-.7.054-.732-.109a3.557,3.557,0,0,1,.094-1.139c.018-.13.137-.075.216-.07a8.122,8.122,0,0,1,5.394,2.387A8.187,8.187,0,0,1,399.372-1688.941Z" transform="translate(-106.469 -189.528)" fill="#fff"/>
    <path id="Tracé_22" data-name="Tracé 22" d="M410-1808.394a7.555,7.555,0,0,0-2.4-2.361,7.033,7.033,0,0,0-10.494,4.824c-.023.148-.051.3-.066.445-.066.667-.065.667-.744.593a1.105,1.105,0,0,0-.223-.027c-.325.034-.355-.142-.331-.406a8.071,8.071,0,0,1,4.268-6.652,8.263,8.263,0,0,1,10.346,1.9.456.456,0,0,1,.1.561C410.288-1809.171,410.163-1808.8,410-1808.394Z" transform="translate(-110.7 -82.429)" fill="#fff"/>
    <path id="Tracé_23" data-name="Tracé 23" d="M383.237-1670.478c.137-.408.265-.782.389-1.158.056-.171.2-.124.313-.119a6.108,6.108,0,0,1,4.865,2.494,6.023,6.023,0,0,1,.705,6.565,6.157,6.157,0,0,1-5.33,3.651c-.4.037-.6-.045-.663-.454a1.778,1.778,0,0,0-.189-.526c-.12-.239-.05-.293.2-.288a5.277,5.277,0,0,0,2.831-.717,5.077,5.077,0,0,0,1.468-7.42,5,5,0,0,0-3.963-2.027C383.665-1670.484,383.466-1670.478,383.237-1670.478Z" transform="translate(-99.144 -213.08)" fill="#fff"/>
    <path id="Tracé_24" data-name="Tracé 24" d="M432.337-1318.16a5.174,5.174,0,0,0-5.15-5.606,5.159,5.159,0,0,0-5.086,5.586c-.394-.128-.779-.247-1.158-.38-.182-.064-.109-.236-.1-.359a6.141,6.141,0,0,1,2.311-4.654,6.082,6.082,0,0,1,6.479-.979,6.174,6.174,0,0,1,3.952,5.39c.061.545.047.546-.472.716-.13.043-.26.088-.389.135S432.493-1318.221,432.337-1318.16Z" transform="translate(-133.905 -533.73)" fill="#fff"/>
    <path id="Tracé_25" data-name="Tracé 25" d="M409.391-1346.416a6.9,6.9,0,0,0-7.592-2.095,6.924,6.924,0,0,0-4.742,6.188c-.014.314-.115.388-.395.323a2.686,2.686,0,0,0-.409-.056c-.53-.039-.507.058-.475-.531a8.287,8.287,0,0,1,6.271-7.335,8.182,8.182,0,0,1,6.665,1.192.79.79,0,0,1,.378.562c.1.539.243,1.07.369,1.6C409.494-1346.487,409.523-1346.413,409.391-1346.416Z" transform="translate(-110.73 -510.518)" fill="#fff"/>
    <path id="Tracé_27" data-name="Tracé 27" d="M422.2-1780.771c-.284-.1-.529-.189-.776-.271-.515-.17-.516-.168-.471-.721a6.394,6.394,0,0,1,5.088-5.757,6.423,6.423,0,0,1,6.82,3.07.721.721,0,0,1,.081.662c-.2.563-.361,1.138-.559,1.775a5.155,5.155,0,0,0-2.084-3.4,5.039,5.039,0,0,0-3.845-.883A5.174,5.174,0,0,0,422.2-1780.771Z" transform="translate(-134.012 -105.89)" fill="#fff"/>
    <path id="Tracé_28" data-name="Tracé 28" d="M408.151-1464.45c.054.4.1.8.161,1.186.036.224-.126.277-.264.351a8.163,8.163,0,0,1-2.864.957,8.111,8.111,0,0,1-6.475-1.85,8.112,8.112,0,0,1-2.965-5.809c-.019-.247.027-.368.307-.36a2.992,2.992,0,0,0,.67-.072c.233-.047.3.024.308.261a6.686,6.686,0,0,0,1.81,4.332,6.744,6.744,0,0,0,5.678,2.261C405.881-1463.292,406.169-1463.409,408.151-1464.45Z" transform="translate(-110.707 -399.635)" fill="#fff"/>
    <path id="Tracé_29" data-name="Tracé 29" d="M871.383-1464.551c0,.431-.013.843,0,1.254.011.256-.176.309-.339.385a8.345,8.345,0,0,1-5.953.508,8.343,8.343,0,0,1-5.976-7.428c-.014-.228.018-.368.286-.338a.783.783,0,0,0,.15-.009c.27-.022.611-.188.785-.036.145.127.086.49.113.749a7.011,7.011,0,0,0,7.409,6.079A7.18,7.18,0,0,0,871.383-1464.551Z" transform="translate(-539.28 -399.433)" fill="#fff"/>
    <path id="Tracé_32" data-name="Tracé 32" d="M871.538-1347.715a8.273,8.273,0,0,0-2.655-1.079,7.013,7.013,0,0,0-8.194,5.492,7.345,7.345,0,0,0-.129,1.039c-.01.228-.091.278-.293.235a3.887,3.887,0,0,0-.409-.057c-.613-.065-.613-.064-.543-.7a8.307,8.307,0,0,1,11.8-6.631c.308.143.476.3.433.67A9.334,9.334,0,0,0,871.538-1347.715Z" transform="translate(-539.435 -510.482)" fill="#fff"/>
    <path id="Tracé_33" data-name="Tracé 33" d="M780.224-1434c0-.974,0-1.949,0-2.923a.816.816,0,0,1,.131-.493,6.338,6.338,0,0,1,5.245-2.942.245.245,0,0,1,.289.209,6.28,6.28,0,0,0,.269.777c.111.243.048.3-.2.3a5.305,5.305,0,0,0-2.833.716,5.084,5.084,0,0,0-1.526,7.334,5.01,5.01,0,0,0,4.107,2.117c.547.013.547.014.354.543-.009.023-.016.047-.024.071-.262.729-.264.742-1.042.636a6.388,6.388,0,0,1-4.56-2.787.964.964,0,0,1-.182-.591c.01-.987,0-1.974,0-2.962Z" transform="translate(-466.31 -427.102)" fill="#fff"/>
    <path id="Tracé_34" data-name="Tracé 34" d="M453.794-1756.116c0-.584.008-1.119,0-1.654a3.147,3.147,0,0,0-2.784-3.114,3.152,3.152,0,0,0-3.522,2.551,11.226,11.226,0,0,0-.054,1.759.821.821,0,0,1-.047.45l-1.141-.712c-.087-.054-.089-.139-.1-.228a4.574,4.574,0,0,1,2.644-4.745,4.48,4.48,0,0,1,6.261,3.575C455.167-1756.92,455.079-1756.767,453.794-1756.116Z" transform="translate(-157.303 -129.429)" fill="#fff"/>
    <path id="Tracé_35" data-name="Tracé 35" d="M453.994-1293.136c0-.574.006-1.094,0-1.614a3.036,3.036,0,0,0-1.7-2.832,3.042,3.042,0,0,0-3.269.172,2.959,2.959,0,0,0-1.379,2.41c-.033.6-.006,1.211-.006,1.87-.437-.276-.813-.515-1.191-.749a.239.239,0,0,1-.105-.223,4.708,4.708,0,0,1,1.162-3.675,4.288,4.288,0,0,1,4.4-1.314,4.3,4.3,0,0,1,3.255,3.281,6.62,6.62,0,0,1,.119,1.676.31.31,0,0,1-.176.3C454.753-1293.624,454.409-1293.4,453.994-1293.136Z" transform="translate(-157.502 -557.621)" fill="#fff"/>
    <path id="Tracé_36" data-name="Tracé 36" d="M911.037-1493.281c.063.772-.046,1.485.074,2.191a3.127,3.127,0,0,0,3.252,2.625,3.156,3.156,0,0,0,3.066-3.123c.007-.549,0-1.1,0-1.684.416.26.8.5,1.188.744a.211.211,0,0,1,.094.188,4.543,4.543,0,0,1-3.535,5.073,4.5,4.5,0,0,1-5.416-4.244c-.021-.659.064-1.155.74-1.412A3.082,3.082,0,0,0,911.037-1493.281Z" transform="translate(-586.118 -378.159)" fill="#fff"/>
    <path id="Tracé_37" data-name="Tracé 37" d="M367.921-1638.909c.759-.051,1.461.038,2.159-.065a3.165,3.165,0,0,0,2.689-3.167,3.162,3.162,0,0,0-2.8-3.105c-.661-.073-1.324-.011-2.023-.052l.741-1.176a.212.212,0,0,1,.191-.093,4.7,4.7,0,0,1,3.98,1.443,4.24,4.24,0,0,1,.822,4.77,4.338,4.338,0,0,1-3.913,2.709c-.665.055-1.229.011-1.488-.736A2.609,2.609,0,0,0,367.921-1638.909Z" transform="translate(-84.978 -236.377)" fill="#fff"/>
    <path id="Tracé_38" data-name="Tracé 38" d="M799.928-1407.51c-.265.418-.5.784-.729,1.152a.235.235,0,0,1-.208.129,4.659,4.659,0,0,1-4.2-1.7,4.238,4.238,0,0,1-.58-4.583,4.34,4.34,0,0,1,3.806-2.637c.706-.068,1.3-.032,1.586.755a2.728,2.728,0,0,0,.353.518c-.574,0-1.092-.008-1.609,0a3.182,3.182,0,0,0-3.114,2.252,3.193,3.193,0,0,0,3.147,4.109C798.88-1407.5,799.38-1407.51,799.928-1407.51Z" transform="translate(-478.859 -450.403)" fill="#fff"/>
    <path id="Tracé_39" data-name="Tracé 39" d="M336.5-1407.494c-.265.415-.5.778-.73,1.146a.232.232,0,0,1-.2.135,4.725,4.725,0,0,1-3.906-1.354,4.253,4.253,0,0,1-.962-4.713,4.289,4.289,0,0,1,3.81-2.839c.726-.08,1.384-.079,1.682.768a2.571,2.571,0,0,0,.336.493c-.533,0-1.011,0-1.49,0a3.5,3.5,0,0,0-1.7.384,3.184,3.184,0,0,0-1.642,3.235,3.187,3.187,0,0,0,2.359,2.63,4.152,4.152,0,0,0,1,.113C335.522-1407.491,335.985-1407.494,336.5-1407.494Z" transform="translate(-50.245 -450.419)" fill="#fff"/>
    <path id="Tracé_40" data-name="Tracé 40" d="M894.994-1474.08c0,.573,0,1.106,0,1.639,0,.228-.169.32-.319.428a6.4,6.4,0,0,1-9.941-3.659,7.018,7.018,0,0,1-.18-1.334.287.287,0,0,1,.247-.342,4.653,4.653,0,0,0,.743-.255c.281-.133.307-.014.3.226a5.056,5.056,0,0,0,1.409,3.714,5.109,5.109,0,0,0,7.427-.078C894.782-1473.847,894.88-1473.956,894.994-1474.08Z" transform="translate(-562.808 -392.609)" fill="#fff"/>
    <path id="Tracé_41" data-name="Tracé 41" d="M515.611-1680.317c-.075.43-.16.858-.222,1.29-.027.189-.169.27-.282.378a6.962,6.962,0,0,0-1.683,7.863,6.573,6.573,0,0,0,1.083,1.741.742.742,0,0,1,.2.537c-.014.455,0,.91,0,1.449a8.094,8.094,0,0,1-3.106-6.4,8.014,8.014,0,0,1,3.928-7.1C515.718-1680.537,515.633-1680.415,515.611-1680.317Z" transform="translate(-217.861 -204.95)" fill="#fff"/>
    <path id="Tracé_42" data-name="Tracé 42" d="M431.217-1473.788c.045.469.058.87.131,1.259a.5.5,0,0,1-.24.561,6.436,6.436,0,0,1-7.3.155,6.341,6.341,0,0,1-2.857-4.986c-.022-.286.02-.473.353-.519a1.852,1.852,0,0,0,.564-.2c.28-.141.391-.107.367.238a4.377,4.377,0,0,0,.176,1.482,5.1,5.1,0,0,0,8.513,2.278C431.008-1473.592,431.089-1473.667,431.217-1473.788Z" transform="translate(-134.025 -392.671)" fill="#fff"/>
    <path id="Tracé_43" data-name="Tracé 43" d="M455.459-1899.334a8.265,8.265,0,0,1-12.576,4.165,10.364,10.364,0,0,1,1.117-.676c.125-.074.213.022.309.07a6.944,6.944,0,0,0,6.423.091,6.788,6.788,0,0,0,3.19-3.21.445.445,0,0,1,.412-.3C454.705-1899.22,455.073-1899.284,455.459-1899.334Z" transform="translate(-154.31 -2.604)" fill="#fff"/>
    <path id="Tracé_44" data-name="Tracé 44" d="M894.979-1321.517a5.42,5.42,0,0,0-.858-.825,4.923,4.923,0,0,0-5.1-.654,4.866,4.866,0,0,0-3.1,4.326c-.023.252-.075.358-.343.326a2.592,2.592,0,0,0-.636,0c-.272.036-.329-.058-.319-.322a6.367,6.367,0,0,1,4.768-5.819,6.4,6.4,0,0,1,5.29.952.56.56,0,0,1,.3.548C894.961-1322.537,894.979-1322.088,894.979-1321.517Z" transform="translate(-562.876 -534.085)" fill="#fff"/>
    <path id="Tracé_45" data-name="Tracé 45" d="M447.576-1493.576c0,.621-.008,1.155,0,1.689a3.112,3.112,0,0,0,3.034,3.146,3.127,3.127,0,0,0,3.268-2.562,4.311,4.311,0,0,0,.053-.783c.008-.47,0-.941,0-1.456.277.116.419.231.429.526.036,1.049.1,2.1.168,3.143a.828.828,0,0,1-.165.589,4.481,4.481,0,0,1-4.864,1.664,4.515,4.515,0,0,1-3.21-3.973c-.068-.756-.006-1.371.816-1.666A2.57,2.57,0,0,0,447.576-1493.576Z" transform="translate(-157.444 -377.886)" fill="#fff"/>
    <path id="Tracé_50" data-name="Tracé 50" d="M917.632-1293.177c-.06-.77.057-1.486-.07-2.192A3.159,3.159,0,0,0,914.2-1298a3.15,3.15,0,0,0-2.95,3.12c0,.332-.1.382-.381.271a1.469,1.469,0,0,0-.476-.1c-.37-.012-.467-.178-.426-.54a4.5,4.5,0,0,1,3.416-3.923,4.475,4.475,0,0,1,4.781,1.892,1.355,1.355,0,0,1,.249.8c-.006.775,0,1.55.039,2.324a.594.594,0,0,1-.353.656A3.933,3.933,0,0,0,917.632-1293.177Z" transform="translate(-586.302 -557.573)" fill="#fff"/>
    <path id="Tracé_51" data-name="Tracé 51" d="M473.215-1267.578c-.4-.436-.77-.876-1.184-1.272a.416.416,0,0,1-.1-.345c0-.7-.005-1.4,0-2.1a2.582,2.582,0,0,1,1.631-2.268,2.57,2.57,0,0,1,2.708.558,2.481,2.481,0,0,1,.769,1.923c0,.012,0,.025,0,.037a8.049,8.049,0,0,1-.037,1.976c-.159.609-.86.94-1.15,1.53-.148-.078-.09-.19-.091-.276-.006-.737,0-1.473,0-2.21,0-1.822-.31-2.418-1.265-2.429s-1.283.6-1.283,2.447Z" transform="translate(-181.177 -581.22)" fill="#fff"/>
    <path id="Tracé_52" data-name="Tracé 52" d="M341.545-1617.1h3.41a1.4,1.4,0,0,0,1.1-.376,1.2,1.2,0,0,0,.3-1.343,1.213,1.213,0,0,0-1.191-.812c-1.088-.01-2.176,0-3.264-.005a1.409,1.409,0,0,1-.38-.037c.476-.388.942-.771,1.373-1.195.05-.049.164-.048.248-.048.738,0,1.476-.016,2.213.015a2.53,2.53,0,0,1,2.367,2.376,2.539,2.539,0,0,1-2.254,2.667c-.786.082-1.574.02-2.361.042a.327.327,0,0,1-.268-.1C342.439-1616.331,341.986-1616.679,341.545-1617.1Z" transform="translate(-60.555 -260.11)" fill="#fff"/>
    <path id="Tracé_53" data-name="Tracé 53" d="M473.21-1521.156c0,1.317,0,2.523,0,3.73a1.2,1.2,0,0,0,.684,1.122,1.206,1.206,0,0,0,1.313-.084,1.253,1.253,0,0,0,.551-1.088c-.005-1.074,0-2.148,0-3.222v-.467a9.081,9.081,0,0,0,1.19,1.415c.108.1.089.224.09.346,0,.7.008,1.4,0,2.1a2.555,2.555,0,0,1-2.556,2.43,2.55,2.55,0,0,1-2.551-2.433c-.008-.7,0-1.4,0-2.1a.447.447,0,0,1,.118-.374A9.488,9.488,0,0,0,473.21-1521.156Z" transform="translate(-181.172 -352.37)" fill="#fff"/>
    <path id="Tracé_54" data-name="Tracé 54" d="M475.752-1730.277c0-1.307,0-2.505,0-3.7a1.257,1.257,0,0,0-1.124-1.283,1.268,1.268,0,0,0-1.378.913,1.574,1.574,0,0,0-.044.482c0,1.159,0,2.317,0,3.567a12.454,12.454,0,0,0-1.212-1.409c-.1-.093-.067-.208-.068-.317,0-.7-.008-1.4,0-2.1a2.536,2.536,0,0,1,2.557-2.427,2.544,2.544,0,0,1,2.55,2.436c.006.7,0,1.4,0,2.1a.448.448,0,0,1-.128.369A9.382,9.382,0,0,0,475.752-1730.277Z" transform="translate(-181.166 -153.159)" fill="#fff"/>
    <path id="Tracé_55" data-name="Tracé 55" d="M362.195-1388.377c-.721,0-1.442,0-2.162,0-.525,0-1.052-.014-1.575.028a1.238,1.238,0,0,0-1.155,1.283,1.244,1.244,0,0,0,1.236,1.213c1.126.023,2.252.008,3.378.013a.428.428,0,0,1,.33.065,10.912,10.912,0,0,0-1.4,1.173c-.043.043-.142.042-.215.041-.763,0-1.528.015-2.289-.022a2.541,2.541,0,0,1-2.32-2.426,2.552,2.552,0,0,1,2.238-2.615c.787-.077,1.575-.018,2.363-.038a.368.368,0,0,1,.3.115C361.31-1389.136,361.758-1388.8,362.195-1388.377Z" transform="translate(-73.97 -473.993)" fill="#fff"/>
    <path id="Tracé_56" data-name="Tracé 56" d="M825.792-1388.377h-1.785c-.6,0-1.2-.019-1.8.009a1.244,1.244,0,0,0-1.288,1.31,1.249,1.249,0,0,0,1.346,1.214c1.088.01,2.177,0,3.265,0h.285c-.466.425-.933.809-1.364,1.235a.333.333,0,0,1-.212.046c-.763,0-1.527.016-2.289-.021a2.523,2.523,0,0,1-2.318-2.459,2.538,2.538,0,0,1,2.227-2.582c.786-.078,1.575-.018,2.362-.038a.372.372,0,0,1,.3.112C824.912-1389.14,825.359-1388.8,825.792-1388.377Z" transform="translate(-502.76 -473.993)" fill="#fff"/>
    <path id="Tracé_57" data-name="Tracé 57" d="M936.754-1507.571c0,.387,0,.775,0,1.162a1.258,1.258,0,0,0,1.255,1.342,1.265,1.265,0,0,0,1.281-1.358c0-.762,0-1.525,0-2.287,0-.138-.084-.363.077-.4a.781.781,0,0,1,.716.056,1.114,1.114,0,0,1,.506,1.011,15.287,15.287,0,0,0-.013,1.686,2.563,2.563,0,0,1-2.568,2.577,2.55,2.55,0,0,1-2.546-2.557c0-.637,0-1.275,0-1.912a.971.971,0,0,1,1.152-.891c.172.04.132.155.133.257C936.756-1508.446,936.754-1508.009,936.754-1507.571Z" transform="translate(-609.895 -363.463)" fill="#fff"/>
    <path id="Tracé_58" data-name="Tracé 58" d="M277.192-1580.191l.009-1.259a8.292,8.292,0,0,1,7.99,7.145c.14.909.138.9-.775,1.01-.308.037-.445.019-.467-.359a6.96,6.96,0,0,0-6.349-6.479C277.464-1580.142,277.328-1580.172,277.192-1580.191Z" transform="translate(-1.064 -296.612)" fill="#fff"/>
    <path id="Tracé_59" data-name="Tracé 59" d="M286.746-1700.644a8.325,8.325,0,0,1-7.638,7.658c-.274.021-.3-.064-.275-.3.112-.935.105-.936.994-1.095a7.021,7.021,0,0,0,5.627-6.208c.043-.574.043-.574.633-.5a1.158,1.158,0,0,0,.224.016C286.676-1701.1,286.877-1700.993,286.746-1700.644Z" transform="translate(-2.573 -185.924)" fill="#fff"/>
    <path id="Tracé_60" data-name="Tracé 60" d="M307.625-1431.346a21.882,21.882,0,0,1-1.681-3.193.888.888,0,0,1,0-.55,6.354,6.354,0,0,1,6.061-5.223c.23-.012.337.037.39.273a3.741,3.741,0,0,0,.265.738c.108.234.025.272-.194.267a5.3,5.3,0,0,0-2.866.723,5.079,5.079,0,0,0-2.235,5.9c.022.071.036.144.054.217a2.3,2.3,0,0,0,.144.39l.148.307C307.763-1431.4,307.763-1431.333,307.625-1431.346Z" transform="translate(-27.615 -427.147)" fill="#fff"/>
    <path id="Tracé_61" data-name="Tracé 61" d="M939.365-1267.889a.457.457,0,0,1-.24-.481c.006-.937,0-1.874,0-2.81a1.278,1.278,0,0,0-1.261-1.382,1.27,1.27,0,0,0-1.275,1.365c0,.275-.005.55,0,.824,0,.19-.059.218-.219.127a2.31,2.31,0,0,0-.537-.261c-.46-.118-.559-.4-.545-.847a2.6,2.6,0,0,1,2.551-2.492,2.585,2.585,0,0,1,2.574,2.461c.012.687,0,1.374,0,2.061a.425.425,0,0,1-.092.349A10.8,10.8,0,0,0,939.365-1267.889Z" transform="translate(-609.732 -581.111)" fill="#fff"/>
    <path id="Tracé_63" data-name="Tracé 63" d="M277.135-1554.349l-.023-1.256a5.928,5.928,0,0,1,4.213,1.761,6.208,6.208,0,0,1,1.948,4.333c.011.239-.048.362-.291.42a4.247,4.247,0,0,0-.743.254c-.212.094-.261.036-.252-.173a5.054,5.054,0,0,0-.194-1.667A5.076,5.076,0,0,0,277.135-1554.349Z" transform="translate(-0.99 -320.516)" fill="#fff"/>
    <path id="Tracé_64" data-name="Tracé 64" d="M292.363-1459.315c-.187-.552-.355-1.061-.532-1.566a.553.553,0,0,1,.053-.5,8.252,8.252,0,0,1,6.821-4.324c.185-.015.281.02.282.225a4.331,4.331,0,0,0,.042.485c.063.551.062.54-.494.6a6.88,6.88,0,0,0-5.913,4.483c-.038.092-.066.189-.105.28S292.43-1459.45,292.363-1459.315Z" transform="translate(-14.57 -403.664)" fill="#fff"/>
    <path id="Tracé_65" data-name="Tracé 65" d="M904.968-1812.872a8.7,8.7,0,0,1,3.074.582.376.376,0,0,1,.3.439,4.416,4.416,0,0,0,0,.711c.019.293-.012.406-.35.242a6.749,6.749,0,0,0-2.626-.677,6.857,6.857,0,0,0-4.688,1.447c-.228.176-.347.179-.483-.068a2.406,2.406,0,0,0-.226-.3c-.358-.461-.358-.461.133-.812A8.2,8.2,0,0,1,904.968-1812.872Z" transform="translate(-576.823 -82.572)" fill="#fff"/>
    <path id="Tracé_67" data-name="Tracé 67" d="M289.065-1708.127a6.435,6.435,0,0,1-5.447,6.022c-.229.031-.26-.008-.225-.245a1.413,1.413,0,0,1,1.082-1.338,4.908,4.908,0,0,0,3.311-4.815c0-.427,0-.426.395-.279a3.049,3.049,0,0,0,.46.156C288.968-1708.561,289.2-1708.448,289.065-1708.127Z" transform="translate(-6.788 -178.762)" fill="#fff"/>
    <path id="Tracé_68" data-name="Tracé 68" d="M945.673-1730.415v-2.532c0-.324,0-.649,0-.973a1.264,1.264,0,0,0-1.131-1.347,1.262,1.262,0,0,0-1.392,1.033.667.667,0,0,1-.058.1c-.242-.446-.47-.868-.7-1.29-.075-.137.036-.208.1-.288a2.574,2.574,0,0,1,2.739-.707,2.583,2.583,0,0,1,1.724,2.277c.017.711,0,1.422,0,2.134a.424.424,0,0,1-.114.34C946.444-1731.281,946.087-1730.849,945.673-1730.415Z" transform="translate(-616.278 -153.154)" fill="#fff"/>
    <path id="Tracé_69" data-name="Tracé 69" d="M468.208-1892.521c.53-.245,1.005-.463,1.479-.686a.513.513,0,0,1,.33-.01,5.015,5.015,0,0,0,4.775-1.541.712.712,0,0,1,.412-.228c.478-.085.952-.19,1.448-.291A6.281,6.281,0,0,1,468.208-1892.521Z" transform="translate(-177.733 -6.357)" fill="#fff"/>
    <path id="Tracé_70" data-name="Tracé 70" d="M922.618-1785.08a5.632,5.632,0,0,0-2.089-1.044,5.08,5.08,0,0,0-4.445.977c-.2.157-.3.162-.413-.059a1.642,1.642,0,0,0-.125-.186c-.471-.681-.474-.686.253-1.131a6.4,6.4,0,0,1,6.493-.3.563.563,0,0,1,.392.626c-.034.346-.012.7-.017,1.047C922.667-1785.132,922.641-1785.112,922.618-1785.08Z" transform="translate(-591.168 -105.977)" fill="#fff"/>
    <path id="Tracé_71" data-name="Tracé 71" d="M528.753-1231.56a8.225,8.225,0,0,0-2.094.51,6.924,6.924,0,0,0-3.5,3.137c-.125.225-.241.313-.493.218a4.452,4.452,0,0,0-.686-.186c-.216-.044-.219-.136-.129-.31a8.229,8.229,0,0,1,5.922-4.511c.112-.023.223-.064.289.078a.791.791,0,0,0,.059.1Z" transform="translate(-227.29 -619.143)" fill="#fff"/>
    <path id="Tracé_72" data-name="Tracé 72" d="M935.333-1755.879c0-.533,0-1.032,0-1.531a3.064,3.064,0,0,0-1.976-3.033,3.088,3.088,0,0,0-3.466.676c-.045.041-.093.078-.152.127-.186-.3-.351-.594-.546-.868-.137-.191-.079-.3.077-.433a4.529,4.529,0,0,1,4.859-.567c.066.035.13.075.2.108a1.88,1.88,0,0,1,1.23,2.089,27.159,27.159,0,0,0-.027,3.033C935.527-1756.139,935.581-1755.969,935.333-1755.879Z" transform="translate(-604.021 -129.651)" fill="#fff"/>
    <path id="Tracé_76" data-name="Tracé 76" d="M277.186-1529.274l.009-1.259a4.488,4.488,0,0,1,4.255,4.593.933.933,0,0,1-.586,1.046,4.76,4.76,0,0,0-.711.468c0-.589.007-1.117,0-1.645a3.177,3.177,0,0,0-2.379-3.084C277.58-1529.207,277.382-1529.235,277.186-1529.274Z" transform="translate(-1.058 -343.705)" fill="#fff"/>
    <path id="Tracé_77" data-name="Tracé 77" d="M725.038-1255.91a6.669,6.669,0,0,0,3.191-2.032,2.869,2.869,0,0,0,.938-2.134c.016-.569,0-1.139,0-1.751.422.264.8.5,1.176.736a.245.245,0,0,1,.108.221,4.56,4.56,0,0,1-2.628,4.751,4.456,4.456,0,0,1-2.6.332.351.351,0,0,1-.106-.035C725.1-1255.832,725.088-1255.856,725.038-1255.91Z" transform="translate(-415.272 -592.228)" fill="#fff"/>
    <path id="Tracé_78" data-name="Tracé 78" d="M497.677-1559.157a11.216,11.216,0,0,0,.567,1.617.92.92,0,0,1,.056.365q.005,2.23,0,4.461c0,.037,0,.075,0,.112a.653.653,0,0,1-.65.68.637.637,0,0,1-.634-.692c-.009-1.112.061-2.229-.021-3.335A7.251,7.251,0,0,1,497.677-1559.157Z" transform="translate(-204.346 -317.23)" fill="#fff"/>
    <path id="Tracé_79" data-name="Tracé 79" d="M498.009-1703.905a10.172,10.172,0,0,0-.57-1.622.832.832,0,0,1-.067-.365c0-1.511,0-3.022,0-4.532,0-.564.4-.872.875-.694a.6.6,0,0,1,.409.611q.007,2.341,0,4.682a3.087,3.087,0,0,1-.306.876C498.256-1704.633,498.147-1704.322,498.009-1703.905Z" transform="translate(-204.706 -176.636)" fill="#fff"/>
    <path id="Tracé_80" data-name="Tracé 80" d="M553.166-1207.678a7.032,7.032,0,0,0-2.212.309,5.007,5.007,0,0,0-2.462,1.881.415.415,0,0,1-.519.211,3.746,3.746,0,0,0-.7-.131c-.321-.024-.261-.16-.145-.356a6.417,6.417,0,0,1,2.636-2.489,6.36,6.36,0,0,1,2.666-.684.332.332,0,0,1,.39.256C552.922-1208.36,553.039-1208.045,553.166-1207.678Z" transform="translate(-250.64 -641.146)" fill="#fff"/>
    <path id="Tracé_81" data-name="Tracé 81" d="M777.21-1461.8c-.066-.5-.127-.975-.2-1.453-.022-.153.082-.226.173-.308a8.258,8.258,0,0,1,5.116-2.148c.191-.012.261.031.27.234.014.333.208.765.064.97s-.629.094-.96.149a6.988,6.988,0,0,0-4.156,2.275c-.075.084-.148.169-.224.253C777.291-1461.823,777.275-1461.823,777.21-1461.8Z" transform="translate(-463.342 -403.655)" fill="#fff"/>
    <path id="Tracé_82" data-name="Tracé 82" d="M301.751-1594.94a12.14,12.14,0,0,0,1.7-.6.7.7,0,0,1,.293-.034q2.229,0,4.458,0a1.383,1.383,0,0,1,.333.036.612.612,0,0,1,.485.66.608.608,0,0,1-.591.573c-.374.02-.749.008-1.124.009-.812,0-1.629-.061-2.434.015A7.324,7.324,0,0,1,301.751-1594.94Z" transform="translate(-23.778 -283.549)" fill="#fff"/>
    <path id="Tracé_83" data-name="Tracé 83" d="M852.325-1363.456a10.332,10.332,0,0,1-2.8.635c-1.193-.086-2.4-.02-3.6-.021a1.874,1.874,0,0,1-.372-.024.638.638,0,0,1-.522-.638.625.625,0,0,1,.6-.607c.3-.02.6-.008.9-.008,1.149,0,2.3.007,3.448,0a2.35,2.35,0,0,1,1.012.193C851.388-1363.757,851.805-1363.639,852.325-1363.456Z" transform="translate(-526.259 -497.613)" fill="#fff"/>
    <path id="Tracé_84" data-name="Tracé 84" d="M388.718-1363.452a7.119,7.119,0,0,1-2.619.619c-1.185-.071-2.377-.016-3.566-.018a1.993,1.993,0,0,1-.374-.021.619.619,0,0,1-.527-.669.609.609,0,0,1,.581-.581c.211-.018.425-.008.638-.009,1.177,0,2.353.008,3.529,0a2.733,2.733,0,0,1,1.307.234,6.857,6.857,0,0,0,.883.308C388.6-1363.526,388.76-1363.594,388.718-1363.452Z" transform="translate(-97.658 -497.606)" fill="#fff"/>
    <path id="Tracé_85" data-name="Tracé 85" d="M779.839-1296.589a.441.441,0,0,1,.291.209,6.816,6.816,0,0,0,4.747,2.32c.307.018.516.063.373.438a.157.157,0,0,0,0,.037c-.1.863-.1.881-.96.771a8.2,8.2,0,0,1-4.282-1.9.4.4,0,0,1-.17-.347C779.846-1295.557,779.839-1296.055,779.839-1296.589Z" transform="translate(-465.954 -560.077)" fill="#fff"/>
    <path id="Tracé_86" data-name="Tracé 86" d="M277.138-1503.416l-.013-1.261a2.481,2.481,0,0,1,2.319,2.242c.035.773.008,1.549.012,2.323a.378.378,0,0,1-.119.3,9.474,9.474,0,0,0-1.093,1.286c-.125-.073-.068-.183-.068-.268,0-1.075,0-2.149,0-3.223A1.264,1.264,0,0,0,277.138-1503.416Z" transform="translate(-1.002 -367.618)" fill="#fff"/>
    <path id="Tracé_87" data-name="Tracé 87" d="M498.661-1245.291c0,.775.005,1.55,0,2.325,0,.413-.077.458-.464.327-.823-.277-.823-.277-.823-1.141,0-1.25,0-2.5,0-3.75,0-.476.253-.75.655-.742a.631.631,0,0,1,.63.693C498.668-1246.816,498.661-1246.054,498.661-1245.291Z" transform="translate(-204.705 -604.766)" fill="#fff"/>
    <path id="Tracé_88" data-name="Tracé 88" d="M289.388-1715.142c.176-.534.334-1,.485-1.477.043-.134.159-.187.257-.26a3.118,3.118,0,0,0,1.3-2.649,1.753,1.753,0,0,1,.249-1.105c.095-.131.155-.224.3-.083a.093.093,0,0,0,.031.021c.634.223.732.689.718,1.311A4.526,4.526,0,0,1,289.388-1715.142Z" transform="translate(-12.344 -167.739)" fill="#fff"/>
    <path id="Tracé_89" data-name="Tracé 89" d="M538.23-1635.879a6.225,6.225,0,0,1,.485-7.913c-.172,1.358-.318,2.646-.394,3.939S538.2-1637.265,538.23-1635.879Z" transform="translate(-241.39 -238.952)" fill="#fff"/>
    <path id="Tracé_90" data-name="Tracé 90" d="M533.145-1826.409a9.6,9.6,0,0,0,1.648-.563.871.871,0,0,1,.4-.071q2.193,0,4.386,0a.757.757,0,0,1,.447.085c-.259.365-.52.727-.775,1.094-.079.114-.189.1-.3.1q-1.93,0-3.861,0a.679.679,0,0,1-.288-.06A17.363,17.363,0,0,0,533.145-1826.409Z" transform="translate(-237.792 -69.464)" fill="#fff"/>
    <path id="Tracé_91" data-name="Tracé 91" d="M620.582-1898.71a3.915,3.915,0,0,1-1.152.375c-.4,0-.6-.472-.917-.7a5.217,5.217,0,0,0-2.865-.979c-.212-.007-.424,0-.672,0,.112-.33.216-.632.317-.935.033-.1.107-.115.2-.134A5.422,5.422,0,0,1,620.582-1898.71Z" transform="translate(-313.477 -0.935)" fill="#fff"/>
    <path id="Tracé_92" data-name="Tracé 92" d="M861.07-1508.811a8.258,8.258,0,0,1-3.012,1.912,8.671,8.671,0,0,1-2.306.479c-.219.017-.338-.019-.321-.266a1.955,1.955,0,0,0-.02-.336c-.072-.676-.073-.678.589-.725a6.608,6.608,0,0,0,2.759-.889,1.246,1.246,0,0,1,.668-.179C859.947-1508.8,860.467-1508.811,861.07-1508.811Z" transform="translate(-535.824 -363.79)" fill="#fff"/>
    <path id="Tracé_93" data-name="Tracé 93" d="M330.979-1739.446a8.467,8.467,0,0,1-4.073-1.34c-.2-.122-.256-.228-.1-.431.181-.237.282-.6.514-.717.26-.131.5.225.749.354a7.146,7.146,0,0,0,3.076.855c.225.007.277.08.236.29a4.369,4.369,0,0,0-.085.705C331.287-1739.484,331.191-1739.387,330.979-1739.446Z" transform="translate(-46.868 -148.155)" fill="#fff"/>
    <path id="Tracé_94" data-name="Tracé 94" d="M573.181-1181.637a4.446,4.446,0,0,1,1.974-1.59,5.562,5.562,0,0,1,2.357-.321.255.255,0,0,1,.248.124c.226.371.464.734.734,1.157-.518,0-1,.011-1.476,0a3.289,3.289,0,0,0-2.137.668.327.327,0,0,1-.231.1Z" transform="translate(-274.821 -664.623)" fill="#fff"/>
    <path id="Tracé_95" data-name="Tracé 95" d="M757.883-1508.781c.663,0,1.223,0,1.782,0a.315.315,0,0,1,.277.15,4.781,4.781,0,0,1,.89,3.39.215.215,0,0,1-.1.184l-1.178.736c0-.465-.018-.884,0-1.3A3.311,3.311,0,0,0,757.883-1508.781Z" transform="translate(-445.65 -363.821)" fill="#fff"/>
    <path id="Tracé_96" data-name="Tracé 96" d="M397.006-1826.2l1.463-1.139a.483.483,0,0,1,.325-.053,12.65,12.65,0,0,0,1.536-.012,6.7,6.7,0,0,1,2.689.662,9.364,9.364,0,0,1-2.333.645c-1.209-.052-2.422-.013-3.634-.013Z" transform="translate(-111.879 -69.11)" fill="#fff"/>
    <path id="Tracé_97" data-name="Tracé 97" d="M714.885-1501.953c-.308-.923-1.1-1.334-1.841-1.793a1.337,1.337,0,0,0-.791-.182c-.651.031-1.281-.15-1.941-.163a2.44,2.44,0,0,1,2.606-1.077C714.279-1504.86,714.975-1503.754,714.885-1501.953Z" transform="translate(-401.653 -367.114)" fill="#fff"/>
    <path id="Tracé_98" data-name="Tracé 98" d="M865.226-1826.378a4.8,4.8,0,0,1-2.674.533,6.494,6.494,0,0,1-1.6-.05,4.659,4.659,0,0,1-1.211-.971c-.075-.063-.148-.129-.223-.194.081-.126.191-.07.279-.07,1.051,0,2.1,0,3.153-.007a2.012,2.012,0,0,1,.936.2C864.322-1826.727,864.78-1826.562,865.226-1826.378Z" transform="translate(-539.651 -69.373)" fill="#fff"/>
    <path id="Tracé_99" data-name="Tracé 99" d="M573.564-1851.047c.44-.415.9-.775,1.305-1.2.092-.1.2-.079.314-.079q1.031,0,2.062,0a2.608,2.608,0,0,1,1.376.428c.155.1.2.181.024.294a.177.177,0,0,0-.028.024,1.5,1.5,0,0,1-1.468.574A26.812,26.812,0,0,0,573.564-1851.047Z" transform="translate(-275.175 -46.08)" fill="#fff"/>
    <path id="Tracé_100" data-name="Tracé 100" d="M599.846-1876.74c.268-.42.5-.775.72-1.134a.27.27,0,0,1,.235-.152,5,5,0,0,1,3.7,1.151c.233.2.18.258-.05.44a1.092,1.092,0,0,1-1.548.054,2.851,2.851,0,0,0-1.808-.36C600.693-1876.739,600.295-1876.74,599.846-1876.74Z" transform="translate(-299.483 -22.303)" fill="#fff"/>
    <path id="Tracé_101" data-name="Tracé 101" d="M984.1-1665.965q-.284-.923-.567-1.846a.521.521,0,0,1-.025-.4,8.265,8.265,0,0,1,2.294-3.057c0,.624.008,1.175-.008,1.727,0,.1-.1.194-.172.28a7.118,7.118,0,0,0-1.288,2.591A6.792,6.792,0,0,1,984.1-1665.965Z" transform="translate(-654.301 -213.544)" fill="#fff"/>
    <path id="Tracé_102" data-name="Tracé 102" d="M345.147-1761.641c-.134.395-.261.745-.368,1.1-.047.157-.138.175-.279.171a6.676,6.676,0,0,1-3.33-1.012c-.222-.135-.316-.246-.1-.475s.333-.572.574-.67.482.228.733.351A6.018,6.018,0,0,0,345.147-1761.641Z" transform="translate(-60.031 -129.122)" fill="#fff"/>
    <path id="Tracé_103" data-name="Tracé 103" d="M405.4-1232.8a7.971,7.971,0,0,1,5.743,3.623A21.23,21.23,0,0,1,405.4-1232.8Z" transform="translate(-119.643 -619.072)" fill="#fff"/>
    <path id="Tracé_104" data-name="Tracé 104" d="M1007.618-1508.762c.694,0,1.281,0,1.869,0a.513.513,0,0,1,.283.075,7.073,7.073,0,0,0,3.328,1.036c.093.005.28-.09.274.134,0,.183-.15.163-.273.172a7.786,7.786,0,0,0-2.232.457.376.376,0,0,1-.286.012A8.452,8.452,0,0,1,1007.618-1508.762Z" transform="translate(-676.628 -363.839)" fill="#fff"/>
    <path id="Tracé_105" data-name="Tracé 105" d="M378.746-1801.619c-.444.429-.909.783-1.31,1.209a.289.289,0,0,1-.238.083c-.824-.026-1.65.048-2.473-.049a2.587,2.587,0,0,1-.814-.263c.3-.312.589-.616.879-.919a.262.262,0,0,1,.208-.061Z" transform="translate(-90.517 -92.979)" fill="#fff"/>
    <path id="Tracé_106" data-name="Tracé 106" d="M333.781-1314.994a5.584,5.584,0,0,0,2.029,1.543,5.672,5.672,0,0,0,2.546.417c-.135.4-.262.763-.376,1.128-.045.143-.14.15-.26.149a6.3,6.3,0,0,1-1.842-.3.437.437,0,0,1-.222-.13,27.119,27.119,0,0,1-2.022-2.73c-.043-.053-.045-.115.012-.147S333.75-1315.047,333.781-1314.994Z" transform="translate(-53.236 -542.98)" fill="#fff"/>
    <path id="Tracé_107" data-name="Tracé 107" d="M360.1-1781.777c-.271.423-.5.778-.725,1.136-.048.077-.093.139-.2.144a4.937,4.937,0,0,1-3.305-.818l.749-.838c.063-.071.124-.112.224-.05a4.491,4.491,0,0,0,2.544.426C359.606-1781.778,359.826-1781.777,360.1-1781.777Z" transform="translate(-73.832 -110.91)" fill="#fff"/>
    <path id="Tracé_108" data-name="Tracé 108" d="M964.4-1850.255a2.759,2.759,0,0,0,.875-1.115.257.257,0,0,1,.249-.183,7.351,7.351,0,0,0,2.641-.813c0,.455,0,.86,0,1.265a.22.22,0,0,1-.159.224A8.159,8.159,0,0,1,964.4-1850.255Z" transform="translate(-636.652 -46.044)" fill="#fff"/>
    <path id="Tracé_109" data-name="Tracé 109" d="M962.159-1507.584c0,.423.006.846,0,1.27a.639.639,0,0,1-.643.676.642.642,0,0,1-.634-.687c-.007-.834.005-1.668-.007-2.5,0-.218.069-.278.275-.264.321.021.739-.1.94.061s.051.6.069.923C962.167-1507.933,962.159-1507.758,962.159-1507.584Z" transform="translate(-633.393 -363.514)" fill="#fff"/>
    <path id="Tracé_110" data-name="Tracé 110" d="M961.96-1706.34c-.263-.652-.483-1.326-.8-1.95a4.068,4.068,0,0,1-.426-2.2c.031-.437.267-.725.644-.725a.651.651,0,0,1,.64.724c0,1.38,0,2.759,0,4.139Z" transform="translate(-633.253 -176.594)" fill="#fff"/>
    <path id="Tracé_111" data-name="Tracé 111" d="M795.019-1505.454a5.3,5.3,0,0,0-.859-3.319c.5,0,.915,0,1.333,0,.142,0,.189.081.239.191a6.454,6.454,0,0,1,.573,2.46c0,.121.026.241-.15.292C795.788-1505.724,795.428-1505.591,795.019-1505.454Z" transform="translate(-479.202 -363.828)" fill="#fff"/>
    <path id="Tracé_112" data-name="Tracé 112" d="M667.727-1899.922c-.438.042-.846.074-1.251.123a.233.233,0,0,1-.243-.124,7.024,7.024,0,0,0-2.566-2.185,5.546,5.546,0,0,1,1.121-.02,1.379,1.379,0,0,0,.187.007,1.9,1.9,0,0,1,1.888.922A7.231,7.231,0,0,1,667.727-1899.922Z" transform="translate(-358.511 0)" fill="#fff"/>
    <path id="Tracé_113" data-name="Tracé 113" d="M791.391-1246.629c.4.133.75.257,1.106.367a.229.229,0,0,1,.178.276,7.089,7.089,0,0,1-.279,1.7.384.384,0,0,1-.163.239c-.657.4-1.312.81-2,1.2A5.484,5.484,0,0,0,791.391-1246.629Z" transform="translate(-475.57 -606.284)" fill="#fff"/>
    <path id="Tracé_114" data-name="Tracé 114" d="M641.3-1192.117c-.643.073-1.172.132-1.7.195a.344.344,0,0,1-.27-.1,8.006,8.006,0,0,1-1.951-2.727,4.458,4.458,0,0,0,.509.281,7.205,7.205,0,0,1,2.689,1.8A5.923,5.923,0,0,0,641.3-1192.117Z" transform="translate(-334.192 -654.271)" fill="#fff"/>
    <path id="Tracé_115" data-name="Tracé 115" d="M831.834-1851.916a2.448,2.448,0,0,1,2.576-.32c.651.339,1.317.65,1.983.976-.077.126-.187.064-.273.067-.984.035-1.971-.061-2.953.056a.3.3,0,0,1-.21-.053Z" transform="translate(-514.047 -45.938)" fill="#fff"/>
    <path id="Tracé_116" data-name="Tracé 116" d="M823.464-1508.755h.6c.8,0,.8,0,.994.763a8.769,8.769,0,0,1,.246,1.546c.014.208-.015.32-.267.324-.323.005-.747.2-.936.055s-.1-.6-.15-.916a8.591,8.591,0,0,0-.19-.874C823.684-1508.143,823.577-1508.421,823.464-1508.755Z" transform="translate(-506.306 -363.847)" fill="#fff"/>
    <path id="Tracé_117" data-name="Tracé 117" d="M1001.521-1631.584c0,1.254,0,2.508,0,3.761,0,.176-.061.246-.239.238-.934-.039-.808.21-.82-.788A5.315,5.315,0,0,1,1001.521-1631.584Z" transform="translate(-670.012 -250.243)" fill="#fff"/>
    <path id="Tracé_118" data-name="Tracé 118" d="M980.826-1880.68c.139-.432.264-.809.382-1.188.035-.114.076-.2.205-.238a5.492,5.492,0,0,0,1.938-1.047c0,.543,0,1.018,0,1.492,0,.1-.092.141-.168.184A6.2,6.2,0,0,1,980.826-1880.68Z" transform="translate(-651.848 -17.57)" fill="#fff"/>
    <path id="Tracé_119" data-name="Tracé 119" d="M996.331-1211.341c-.243-.348-.459-.667-.687-.978a.216.216,0,0,1,0-.3,8.6,8.6,0,0,1,1.94-1.878l.122.025c0,.464,0,.929,0,1.393,0,.117-.078.178-.149.245A7.26,7.26,0,0,0,996.331-1211.341Z" transform="translate(-665.497 -636.007)" fill="#fff"/>
    <path id="Tracé_120" data-name="Tracé 120" d="M962.185-1245.1c-.422-.327-.781-.615-1.151-.889a.308.308,0,0,1-.13-.286c0-.462-.009-.924,0-1.386a.618.618,0,0,1,.65-.627.612.612,0,0,1,.622.616C962.193-1246.834,962.185-1246,962.185-1245.1Z" transform="translate(-633.421 -604.754)" fill="#fff"/>
    <path id="Tracé_121" data-name="Tracé 121" d="M682.723-1178.585a22.393,22.393,0,0,1-2.206.568.4.4,0,0,1-.287-.022,6.457,6.457,0,0,1-1.75-1.2c.521,0,.984.014,1.446,0a2.566,2.566,0,0,1,1.2.189,4.369,4.369,0,0,0,1.675.343C682.842-1178.63,682.772-1178.614,682.723-1178.585Z" transform="translate(-372.212 -668.603)" fill="#fff"/>
    <path id="Tracé_122" data-name="Tracé 122" d="M728.7-1896.165c.05-.244-.152-.662.082-.819.182-.122.567.067.863.1.254.027.365.124.345.4-.028.385-.014.774,0,1.161,0,.177-.051.26-.235.226a.545.545,0,0,0-.075,0C728.7-1895.142,728.7-1895.142,728.7-1896.165Z" transform="translate(-418.632 -4.739)" fill="#fff"/>
    <path id="Tracé_124" data-name="Tracé 124" d="M810.881-1868.595a3.336,3.336,0,0,0-1.438.719.191.191,0,0,1-.233.052c-.356-.173-.714-.341-1.085-.518a3.914,3.914,0,0,1,1.022-.9.236.236,0,0,1,.244-.047C809.861-1869.071,810.33-1868.851,810.881-1868.595Z" transform="translate(-492.119 -30.377)" fill="#fff"/>
    <path id="Tracé_125" data-name="Tracé 125" d="M682.165-1507.509a3.873,3.873,0,0,1,.6-1.123.275.275,0,0,1,.24-.147c.57,0,1.14,0,1.823,0a3.526,3.526,0,0,0-1.249,1.231c-.062.108-.158.106-.259.1Z" transform="translate(-375.619 -363.824)" fill="#fff"/>
    <path id="Tracé_126" data-name="Tracé 126" d="M759.057-1888.091a10.915,10.915,0,0,0-.876,1.133.171.171,0,0,1-.183.1c-.356-.061-.712-.122-1.068-.187-.161-.03-.115-.124-.061-.218a9.525,9.525,0,0,1,.732-1.083.261.261,0,0,1,.33-.079Z" transform="translate(-444.666 -12.669)" fill="#fff"/>
    <path id="Tracé_127" data-name="Tracé 127" d="M532.9-1363.586c.614-.209,1.2-.361,1.758-.615a1.27,1.27,0,0,1,.591-.022,2.312,2.312,0,0,1,.256,1.234,1.454,1.454,0,0,1-.88-.017A12.641,12.641,0,0,0,532.9-1363.586Z" transform="translate(-237.561 -497.501)" fill="#fff"/>
    <path id="Tracé_128" data-name="Tracé 128" d="M575.208-1801.109l-.529,1.023a.485.485,0,0,1-.74.138,13.5,13.5,0,0,0-1.389-1.161Z" transform="translate(-274.238 -93.451)" fill="#fff"/>
    <path id="Tracé_129" data-name="Tracé 129" d="M785.551-1879.582a6.2,6.2,0,0,0-.993.953.2.2,0,0,1-.263.062c-.309-.1-.616-.207-.93-.288-.183-.047-.147-.122-.071-.231a7.417,7.417,0,0,1,.751-.885.267.267,0,0,1,.336-.05C784.753-1879.873,785.129-1879.739,785.551-1879.582Z" transform="translate(-469.095 -20.433)" fill="#fff"/>
    <path id="Tracé_130" data-name="Tracé 130" d="M1094.582-1508.926c-.118.38-.227.735-.339,1.09-.015.046-.04.124-.066.127q-.611.058-1.225.095c-.061,0-.051-.073-.047-.12a1.357,1.357,0,0,1,.024-.148C1093.153-1509,1093.185-1509.021,1094.582-1508.926Z" transform="translate(-755.506 -363.656)" fill="#fff"/>
    <path id="Tracé_131" data-name="Tracé 131" d="M989.685-1897.741c.119-.5.227-.96.332-1.417.037-.158.162-.127.269-.128.337,0,.673,0,1.01,0,.082,0,.195-.039.237.055a.28.28,0,0,1-.06.313A4.174,4.174,0,0,1,989.685-1897.741Z" transform="translate(-660.042 -2.642)" fill="#fff"/>
    <path id="Tracé_132" data-name="Tracé 132" d="M660.459-1508.765a6.119,6.119,0,0,0-.523,1.071.219.219,0,0,1-.279.176c-.074-.012-.151-.006-.224-.023-.2-.047-.525.087-.58-.108a1.3,1.3,0,0,1,.082-.984.23.23,0,0,1,.238-.132C659.583-1508.764,659.994-1508.765,660.459-1508.765Z" transform="translate(-354.004 -363.837)" fill="#fff"/>
    <path id="Tracé_135" data-name="Tracé 135" d="M829-1237.355a10.067,10.067,0,0,0,.149-1.325c0-.151.08-.143.2-.125.259.041.521.058.779.1.105.018.3-.065.292.128s.109.471-.156.606C829.858-1237.76,829.443-1237.568,829-1237.355Z" transform="translate(-511.429 -613.512)" fill="#fff"/>
    <path id="Tracé_137" data-name="Tracé 137" d="M996.564-1363.4a14.261,14.261,0,0,0,1.741-.618c.1-.052.2-.029.2.119,0,.325,0,.65,0,.974,0,.171-.1.18-.224.118A10.386,10.386,0,0,0,996.564-1363.4Z" transform="translate(-666.404 -497.688)" fill="#fff"/>
    <path id="Tracé_138" data-name="Tracé 138" d="M1054.991-1508.919c.746,0,1.491,0,2.237,0,.084,0,.271-.085.233.118-.027.148,0,.378-.267.37A5.134,5.134,0,0,1,1054.991-1508.919Z" transform="translate(-720.443 -363.683)" fill="#fff"/>
    <path id="Tracé_139" data-name="Tracé 139" d="M853.472-1508.95a5.251,5.251,0,0,1-2.179.495c-.275.013-.257-.208-.287-.354-.048-.233.159-.135.252-.136C852-1508.953,852.734-1508.95,853.472-1508.95Z" transform="translate(-531.772 -363.653)" fill="#fff"/>
    <path id="Tracé_140" data-name="Tracé 140" d="M1011.526-1181.69c0,.361-.006.721,0,1.082,0,.16-.049.226-.212.221-.257-.008-.515,0-.83,0a5.768,5.768,0,0,1,.944-1.332Z" transform="translate(-679.28 -666.317)" fill="#fff"/>
    <path id="Tracé_141" data-name="Tracé 141" d="M277.186-1477.608l-.081-1.119c.326.049.421.3.427.565.017.668.006,1.336-.021,2.008A9.269,9.269,0,0,1,277.186-1477.608Z" transform="translate(-0.983 -391.619)" fill="#fff"/>
    <path id="Tracé_142" data-name="Tracé 142" d="M374.2-1263.668c.238.022.536.068.834.071.27,0,.306.119.257.347-.045.206-.059.419-.074.538Z" transform="translate(-90.79 -590.525)" fill="#fff"/>
    <path id="Tracé_143" data-name="Tracé 143" d="M613.9-1158.132a15.044,15.044,0,0,1-3.148.1A9.139,9.139,0,0,1,613.9-1158.132Z" transform="translate(-309.571 -688.053)" fill="#fff"/>
    <path id="Tracé_144" data-name="Tracé 144" d="M996.626-1823.188c.424-.136.76-.23,1.085-.354.232-.089.266-.01.268.2,0,.574.014.572-.528.4C997.206-1823.018,996.958-1823.088,996.626-1823.188Z" transform="translate(-666.461 -72.67)" fill="#fff"/>
    <path id="Tracé_145" data-name="Tracé 145" d="M510.456-1885.234a4.473,4.473,0,0,1-2.025.683c-.08,0-.2.113-.216-.075.712-.256,1.428-.5,2.159-.694C510.452-1885.341,510.472-1885.305,510.456-1885.234Z" transform="translate(-214.735 -15.56)" fill="#fff"/>
    <path id="Tracé_146" data-name="Tracé 146" d="M710.233-1899.687c.6.07.508-.138.5,1.078l-.816-.986C709.97-1899.8,710.116-1899.7,710.233-1899.687Z" transform="translate(-401.286 -2.244)" fill="#fff"/>
    <path id="Tracé_147" data-name="Tracé 147" d="M887.021-1801.339h1.122C887.623-1800.688,887.341-1800.688,887.021-1801.339Z" transform="translate(-565.089 -93.239)" fill="#fff"/>
    <path id="Tracé_148" data-name="Tracé 148" d="M1119.707-1507.642c0,.351,0,.611,0,.871,0,.088.052.217-.1.24a.446.446,0,0,1-.287-.014c-.093-.065,0-.182.024-.265A3.131,3.131,0,0,1,1119.707-1507.642Z" transform="translate(-779.904 -364.876)" fill="#fff"/>
    <path id="Tracé_149" data-name="Tracé 149" d="M329.41-1322.238c-.089-.051-.145-.037-.148.077l-.387-.6a.159.159,0,0,0,.086-.15A2.35,2.35,0,0,1,329.41-1322.238Z" transform="translate(-48.865 -535.737)" fill="#fff"/>
    <path id="Tracé_150" data-name="Tracé 150" d="M431.291-1838.576h-.573C430.957-1838.9,431.028-1838.9,431.291-1838.576Z" transform="translate(-143.058 -58.574)" fill="#fff"/>
    <path id="Tracé_151" data-name="Tracé 151" d="M754.564-1891.7c-.006-.17-.148-.355.039-.472.063-.04.214.009.224.075C754.855-1891.915,754.658-1891.842,754.564-1891.7Z" transform="translate(-442.528 -9.211)" fill="#fff"/>
    <path id="Tracé_153" data-name="Tracé 153" d="M856.647-1234.355c-.142.1-.225.145-.325.126-.014,0-.034-.079-.022-.092C856.381-1234.406,856.479-1234.355,856.647-1234.355Z" transform="translate(-536.672 -617.623)" fill="#fff"/>
    <path id="Tracé_154" data-name="Tracé 154" d="M1036.976-1478.242c.07,0,.067.055.081.1.019.059-.016.091-.067.1-.077.02-.069-.047-.077-.088A.1.1,0,0,1,1036.976-1478.242Z" transform="translate(-703.721 -392.068)" fill="#fff"/>
    <path id="Tracé_155" data-name="Tracé 155" d="M708.973-1900.15c-.1.054-.244-.05-.317.093-.082-.06-.186-.131.01-.16A.421.421,0,0,1,708.973-1900.15Z" transform="translate(-400.026 -1.782)" fill="#fff"/>
    <path id="Tracé_157" data-name="Tracé 157" d="M474.172-1356.774l-.147-.14a1.746,1.746,0,0,1,.213.043.424.424,0,0,1,.105.074A.154.154,0,0,1,474.172-1356.774Z" transform="translate(-183.113 -504.283)" fill="#fff"/>
    <path id="Tracé_158" data-name="Tracé 158" d="M326.21-1331.79a.4.4,0,0,1-.144-.39A.608.608,0,0,1,326.21-1331.79Z" transform="translate(-46.262 -527.159)" fill="#fff"/>
    <path id="Tracé_159" data-name="Tracé 159" d="M506.732-1876c.053.079.148.037.216.074a.342.342,0,0,1-.244.06c-.046,0-.112,0-.087-.069C506.628-1875.968,506.692-1875.981,506.732-1876Z" transform="translate(-213.251 -24.183)" fill="#fff"/>
    <path id="Tracé_160" data-name="Tracé 160" d="M537.035-1886.158l-.082-.085c.076-.062.167-.132.239-.027C537.216-1886.237,537.112-1886.167,537.035-1886.158Z" transform="translate(-241.314 -14.637)" fill="#fff"/>
    <path id="Tracé_161" data-name="Tracé 161" d="M563.979-1681.236c-.035-.077.014-.186-.089-.238.032-.056.1-.1.135-.053A.246.246,0,0,1,563.979-1681.236Z" transform="translate(-266.228 -204.031)" fill="#fff"/>
    <path id="Tracé_162" data-name="Tracé 162" d="M734.957-1172.144l.074-.129.2-.013A.267.267,0,0,1,734.957-1172.144Z" transform="translate(-424.446 -675.044)" fill="#fff"/>
    <path id="Tracé_163" data-name="Tracé 163" d="M577.184-1301.967l.07-.146c.079.075.113.175.039.251C577.256-1301.824,577.2-1301.9,577.184-1301.967Z" transform="translate(-278.523 -554.968)" fill="#fff"/>
  </g>
</svg>
