<svg xmlns="http://www.w3.org/2000/svg" xmlns:xlink="http://www.w3.org/1999/xlink" width="1277" height="613" viewBox="0 0 1277 613">
  <defs>
    <clipPath id="clip-path">
      <rect id="Rectangle_58" data-name="Rectangle 58" width="1277" height="613" transform="translate(-2321.5 8116)" fill="#f8f8f8"/>
    </clipPath>
  </defs>
  <g id="background" transform="translate(2321.5 -8116)" clip-path="url(#clip-path)">
    <rect id="Rectangle_57" data-name="Rectangle 57" width="1278" height="739" transform="translate(-2322.5 8116)" fill="#efefef"/>
    <g id="pattern" transform="translate(-2410.5 4141)">
      <path id="Tracé_172" data-name="Tracé 172" d="M1834.93,153.03h0a74.843,74.843,0,0,1-74.876,74.876h0a70.346,70.346,0,0,0-1.97-15.2h1.97a59.676,59.676,0,1,0,0-119.352h-1.97a86.212,86.212,0,0,0,1.97-15.2h0a74.843,74.843,0,0,1,74.876,74.876m-72.906,93.454h-1.97a59.676,59.676,0,1,0,0,119.352h1.97a86.211,86.211,0,0,0-1.97,15.2h0a74.876,74.876,0,0,1,0-149.752h0a86.211,86.211,0,0,0,1.97,15.2m5.911,16.889h-7.882a42.786,42.786,0,1,0,0,85.573h7.882a88.852,88.852,0,0,0-5.63,15.2h-2.252a57.987,57.987,0,1,1,0-115.974h2.252a88.851,88.851,0,0,0,5.63,15.2m11.26,16.889h-19.141a26.179,26.179,0,0,0,0,52.357h19.141a72.585,72.585,0,0,0-10.415,15.2h-8.726a41.1,41.1,0,0,1,0-82.195h8.726a117.338,117.338,0,0,0,10.415,14.637m21.111,16.889h-39.971a9.289,9.289,0,0,0,0,18.578h39.971a72.574,72.574,0,0,0-19.423,15.2h-20.549a24.49,24.49,0,1,1,0-48.979h20.549a80.154,80.154,0,0,0,19.423,15.2m34.623,162.138h0a74.843,74.843,0,0,1-74.876,74.876h0a70.345,70.345,0,0,0-1.97-15.2h1.97a59.676,59.676,0,1,0,0-119.352h-1.97a86.211,86.211,0,0,0,1.97-15.2h0a75.023,75.023,0,0,1,74.876,74.876m-76.565,76.847a70.34,70.34,0,0,0-15.2,1.97v-1.97a59.676,59.676,0,0,0-119.352,0v1.97a86.2,86.2,0,0,0-15.2-1.97h0a74.876,74.876,0,0,1,149.753,0Zm-16.608,2.252a70.227,70.227,0,0,0-15.2,5.63v-7.882a42.786,42.786,0,1,0-85.573,0v7.882a88.872,88.872,0,0,0-15.2-5.63v-2.252a57.987,57.987,0,1,1,115.974,0v2.252Zm-16.889,6.193a90.993,90.993,0,0,0-15.2,10.415V535.856a26.178,26.178,0,1,0-52.357,0V555a72.584,72.584,0,0,0-15.2-10.415v-8.726a41.1,41.1,0,1,1,82.195,0v8.726ZM1707.978,556.4a78.7,78.7,0,0,0-15.2,19.423V535.856a9.289,9.289,0,1,0-18.578,0v39.971A72.581,72.581,0,0,0,1659,556.4V535.856a24.49,24.49,0,0,1,48.979,0Zm-101.055-21.956a74.876,74.876,0,0,1,0-149.752h0a70.337,70.337,0,0,0,1.97,15.2h-1.97a59.676,59.676,0,0,0,0,119.351h1.97a86.225,86.225,0,0,0-1.97,15.2Zm-1.689,1.689a74.876,74.876,0,1,1-149.752,0h0a70.344,70.344,0,0,0,15.2-1.97v1.97a59.676,59.676,0,0,0,119.352,0v-1.97a93.649,93.649,0,0,0,15.2,1.97Zm-151.441-1.689h0a70.338,70.338,0,0,0-1.971-15.2h1.971a59.676,59.676,0,0,0,0-119.352h-1.971a86.223,86.223,0,0,0,1.971-15.2h0a74.876,74.876,0,0,1,0,149.752m-1.689,1.689a70.338,70.338,0,0,0-15.2,1.97v-1.97a59.676,59.676,0,0,0-119.352,0v1.97a86.2,86.2,0,0,0-15.2-1.97h0a74.843,74.843,0,0,1,74.876-74.876c41.379-.281,74.876,33.5,74.876,74.876Zm-16.889,2.252a70.223,70.223,0,0,0-15.2,5.63v-7.882a42.786,42.786,0,1,0-85.573,0v7.882a88.881,88.881,0,0,0-15.2-5.63v-2.252a57.987,57.987,0,0,1,115.974,0Zm-16.608,6.193a90.983,90.983,0,0,0-15.2,10.415V535.856a26.178,26.178,0,1,0-52.357,0V555a72.59,72.59,0,0,0-15.2-10.415v-8.726a41.1,41.1,0,0,1,82.195,0v8.726ZM1401.717,556.4a78.692,78.692,0,0,0-15.2,19.423V535.856a9.289,9.289,0,1,0-18.578,0v39.971a72.583,72.583,0,0,0-15.2-19.423V535.856a24.49,24.49,0,1,1,48.979,0Zm-101.055-21.956a74.876,74.876,0,0,1,0-149.752h0a70.345,70.345,0,0,0,1.97,15.2h-1.97a59.676,59.676,0,0,0,0,119.351h1.97a86.214,86.214,0,0,0-1.97,15.2Zm-1.689,1.689a74.783,74.783,0,0,1-74.595,74.876h0a74.6,74.6,0,0,1-74.595-74.876h0a70.344,70.344,0,0,0,15.2-1.97v1.97a59.676,59.676,0,1,0,119.351,0v-1.97a79.849,79.849,0,0,0,14.637,1.97Zm-151.16-1.689h0a70.338,70.338,0,0,0-1.971-15.2h1.971a59.676,59.676,0,0,0,0-119.352h-1.971a86.212,86.212,0,0,0,1.971-15.2h0a74.876,74.876,0,1,1,0,149.752m-1.689,1.689a70.34,70.34,0,0,0-15.2,1.97v-1.97a59.676,59.676,0,1,0-119.351,0v1.97a86.2,86.2,0,0,0-15.2-1.97h0a74.843,74.843,0,0,1,74.876-74.876c41.379-.281,74.876,33.5,74.876,74.876Zm-16.889,2.252a70.225,70.225,0,0,0-15.2,5.63v-7.882a42.786,42.786,0,0,0-85.573,0v7.882a88.873,88.873,0,0,0-15.2-5.63v-2.252a57.987,57.987,0,1,1,115.974,0Zm-16.889,6.193a90.978,90.978,0,0,0-15.2,10.415V535.856a26.178,26.178,0,1,0-52.357,0V555a72.586,72.586,0,0,0-15.2-10.415v-8.726a41.1,41.1,0,1,1,82.195,0v8.726Zm-16.89,11.823a78.692,78.692,0,0,0-15.2,19.423V535.856a9.289,9.289,0,0,0-18.578,0v39.971a72.576,72.576,0,0,0-15.2-19.423V535.856a24.49,24.49,0,1,1,48.979,0V556.4ZM994.684,534.448a74.876,74.876,0,1,1,0-149.752h0a70.337,70.337,0,0,0,1.97,15.2h-1.97a59.676,59.676,0,1,0,0,119.351h1.97a53.6,53.6,0,0,0-1.97,15.2Zm-1.689,1.689a74.876,74.876,0,0,1-149.752,0h0a70.341,70.341,0,0,0,15.2-1.97v1.97a59.676,59.676,0,0,0,119.352,0v-1.97a86.194,86.194,0,0,0,15.2,1.97Zm-151.441-1.689h0a70.33,70.33,0,0,0-1.971-15.2h1.971a59.676,59.676,0,1,0,0-119.352h-1.971a86.218,86.218,0,0,0,1.971-15.2h0a74.876,74.876,0,0,1,0,149.752m-1.689,1.689a70.339,70.339,0,0,0-15.2,1.97v-1.97a59.676,59.676,0,1,0-119.352,0v1.97a86.2,86.2,0,0,0-15.2-1.97h0a74.843,74.843,0,0,1,74.876-74.876c41.1-.281,74.876,33.5,74.876,74.876Zm-16.889,2.252a70.221,70.221,0,0,0-15.2,5.63v-7.882a42.786,42.786,0,0,0-85.573,0v7.882a88.877,88.877,0,0,0-15.2-5.63v-2.252a57.987,57.987,0,1,1,115.974,0Zm-16.889,6.193A90.982,90.982,0,0,0,790.885,555V535.856a26.179,26.179,0,1,0-52.357,0V555a72.588,72.588,0,0,0-15.2-10.415v-8.726a41.1,41.1,0,0,1,82.2,0v8.726ZM789.2,556.4A78.7,78.7,0,0,0,774,575.827V535.856a9.289,9.289,0,0,0-18.578,0v39.971a72.573,72.573,0,0,0-15.2-19.423V535.856a24.49,24.49,0,0,1,48.979,0V556.4ZM688.142,534.448a74.876,74.876,0,1,1,0-149.752h0a70.341,70.341,0,0,0,1.97,15.2h-1.97a59.676,59.676,0,1,0,0,119.351h1.97a86.2,86.2,0,0,0-1.97,15.2Zm-1.689,1.689a74.792,74.792,0,0,1-73.75,74.876h-1.126a74.792,74.792,0,0,1-73.75-74.876h0a70.34,70.34,0,0,0,15.2-1.97v1.97a59.115,59.115,0,1,0,118.226,0v-1.97a93.657,93.657,0,0,0,15.2,1.97Zm-150.315-1.689h0a70.341,70.341,0,0,0-1.97-15.2h1.97a59.676,59.676,0,0,0,0-119.352h-1.97a86.206,86.206,0,0,0,1.97-15.2h0a74.876,74.876,0,1,1,0,149.752m-1.689,1.689a70.337,70.337,0,0,0-15.2,1.97v-1.97a59.676,59.676,0,1,0-119.352,0v1.97a86.2,86.2,0,0,0-15.2-1.97h0a74.843,74.843,0,0,1,74.876-74.876c41.379-.281,74.876,33.5,74.876,74.876Zm-16.608,2.252a70.222,70.222,0,0,0-15.2,5.63v-7.882a42.786,42.786,0,1,0-85.573,0v7.882a88.877,88.877,0,0,0-15.2-5.63v-2.252a57.987,57.987,0,1,1,115.974,0Zm-16.889,6.193A90.984,90.984,0,0,0,485.751,555V535.856a26.179,26.179,0,1,0-52.357,0V555a72.59,72.59,0,0,0-15.2-10.415v-8.726a41.1,41.1,0,1,1,82.195,0v8.726ZM484.062,556.4a78.7,78.7,0,0,0-15.2,19.423V535.856a9.289,9.289,0,0,0-18.578,0v39.971a72.575,72.575,0,0,0-15.2-19.423V535.856a24.49,24.49,0,1,1,48.979,0ZM383.007,534.448a74.876,74.876,0,1,1,0-149.752h0a70.339,70.339,0,0,0,1.97,15.2h-1.97a59.676,59.676,0,1,0,0,119.351h1.97a86.208,86.208,0,0,0-1.97,15.2Zm-1.689,1.689a74.876,74.876,0,0,1-149.752,0h0a70.342,70.342,0,0,0,15.2-1.97v1.97a59.676,59.676,0,0,0,119.352,0v-1.97a93.658,93.658,0,0,0,15.2,1.97Zm-151.441-1.689h0a70.339,70.339,0,0,0-1.97-15.2h1.97a59.676,59.676,0,1,0,0-119.352h-1.689a86.2,86.2,0,0,0,1.97-15.2h0a74.843,74.843,0,0,1,74.876,74.876c0,41.379-33.779,74.876-75.158,74.876m-1.689,1.689a70.338,70.338,0,0,0-15.2,1.97v-1.97a59.676,59.676,0,1,0-119.352,0v1.97a86.2,86.2,0,0,0-15.2-1.97h0a74.876,74.876,0,0,1,149.752,0ZM211.3,538.389a70.222,70.222,0,0,0-15.2,5.63v-7.882a42.786,42.786,0,0,0-85.573,0v7.882a88.876,88.876,0,0,0-15.2-5.63v-2.252a57.987,57.987,0,1,1,115.974,0v2.252Zm-16.608,6.193A90.988,90.988,0,0,0,179.49,555V535.856a26.179,26.179,0,1,0-52.357,0V555a72.59,72.59,0,0,0-15.2-10.415v-8.726a41.1,41.1,0,1,1,82.195,0v8.726ZM177.8,556.4a78.7,78.7,0,0,0-15.2,19.423V535.856a9.289,9.289,0,0,0-18.578,0v39.971a72.575,72.575,0,0,0-15.2-19.423V535.856a24.49,24.49,0,0,1,48.979,0ZM76.747,534.448a74.876,74.876,0,0,1,0-149.752h0a70.338,70.338,0,0,0,1.97,15.2h-1.97a59.676,59.676,0,1,0,0,119.351h1.97a86.2,86.2,0,0,0-1.97,15.2Zm-1.97-168.331h1.97a59.676,59.676,0,1,0,0-119.351h-1.97a86.2,86.2,0,0,0,1.97-15.2h0a74.876,74.876,0,1,1,0,149.752h0a66.061,66.061,0,0,0-1.97-15.2m-5.911-16.889h7.882a42.786,42.786,0,1,0,0-85.573H68.865a88.873,88.873,0,0,0,5.63-15.2h2.252a57.987,57.987,0,1,1,0,115.974H74.495a70.219,70.219,0,0,0-5.63-15.2M57.887,332.339H77.028a26.179,26.179,0,0,0,0-52.357H57.887a72.587,72.587,0,0,0,10.415-15.2h8.726a41.1,41.1,0,1,1,0,82.195H68.3a106.234,106.234,0,0,0-10.415-14.637M36.775,315.45H76.747a9.289,9.289,0,0,0,0-18.578H36.775a72.575,72.575,0,0,0,19.423-15.2H76.747a24.49,24.49,0,1,1,0,48.979H56.2a78.694,78.694,0,0,0-19.423-15.2M1.87,153.03h0A74.843,74.843,0,0,1,76.747,78.154h0a70.338,70.338,0,0,0,1.97,15.2h-1.97a59.676,59.676,0,0,0,0,119.352h1.97a86.2,86.2,0,0,0-1.97,15.2h0A74.843,74.843,0,0,1,1.87,153.03M78.436,76.465a70.339,70.339,0,0,0,15.2-1.97v1.97a59.676,59.676,0,1,0,119.352,0v-1.97a86.2,86.2,0,0,0,15.2,1.97h0a74.876,74.876,0,1,1-149.752,0Zm16.889-2.252a70.22,70.22,0,0,0,15.2-5.63v7.882a42.786,42.786,0,0,0,85.573,0V68.583a88.872,88.872,0,0,0,15.2,5.63v2.252a57.987,57.987,0,1,1-115.974,0V74.213Zm16.889-6.193a90.985,90.985,0,0,0,15.2-10.415V76.747a26.179,26.179,0,1,0,52.357,0V57.605a72.589,72.589,0,0,0,15.2,10.415v8.726a41.1,41.1,0,0,1-82.195,0V68.02Zm16.608-12.1a78.694,78.694,0,0,0,15.2-19.423V76.465a9.289,9.289,0,0,0,18.578,0V36.494a72.576,72.576,0,0,0,15.2,19.423V76.465a24.49,24.49,0,1,1-48.979,0ZM229.877,78.154a74.876,74.876,0,1,1,0,149.752h0a70.34,70.34,0,0,0-1.97-15.2h1.97a59.676,59.676,0,1,0,0-119.352h-1.689a86.617,86.617,0,0,0,1.689-15.2Zm1.689-1.689a74.876,74.876,0,1,1,149.752,0h0a70.338,70.338,0,0,0-15.2,1.97v-1.97a59.676,59.676,0,1,0-119.351,0v1.97a86.2,86.2,0,0,0-15.2-1.97Zm151.441,1.689h0a70.34,70.34,0,0,0,1.97,15.2h-1.97a59.676,59.676,0,1,0,0,119.352h1.97a86.2,86.2,0,0,0-1.97,15.2h0a74.876,74.876,0,0,1,0-149.752m1.689-1.689a70.338,70.338,0,0,0,15.2-1.97v1.97a59.676,59.676,0,1,0,119.352,0v-1.97a86.2,86.2,0,0,0,15.2,1.97h0a74.876,74.876,0,1,1-149.752,0Zm16.889-2.252a70.219,70.219,0,0,0,15.2-5.63v7.882a42.786,42.786,0,0,0,85.573,0V68.583a88.87,88.87,0,0,0,15.2,5.63v2.252a57.987,57.987,0,1,1-115.974,0V74.213Zm16.889-6.193a90.986,90.986,0,0,0,15.2-10.415V76.747a26.179,26.179,0,1,0,52.357,0V57.605a72.589,72.589,0,0,0,15.2,10.415v8.726a41.1,41.1,0,0,1-82.195,0V68.02Zm16.889-12.1a78.692,78.692,0,0,0,15.2-19.423V76.465a9.289,9.289,0,0,0,18.578,0V36.494a72.575,72.575,0,0,0,15.2,19.423V76.465a24.49,24.49,0,1,1-48.979,0ZM536.137,78.154a74.876,74.876,0,0,1,0,149.752h0a70.342,70.342,0,0,0-1.97-15.2h1.97a59.676,59.676,0,0,0,0-119.352h-1.97a53.6,53.6,0,0,0,1.97-15.2Zm1.689-1.689a74.792,74.792,0,0,1,73.75-74.876H612.7a74.792,74.792,0,0,1,73.75,74.876h0a70.338,70.338,0,0,0-15.2,1.97v-1.97a59.115,59.115,0,1,0-118.226,0v1.97a86.2,86.2,0,0,0-15.2-1.97Zm150.315,1.689h0a70.342,70.342,0,0,0,1.97,15.2h-1.97a59.676,59.676,0,1,0,0,119.352h1.97a86.2,86.2,0,0,0-1.97,15.2h0a74.876,74.876,0,1,1,0-149.752m1.689-1.689a70.338,70.338,0,0,0,15.2-1.97v1.97a59.676,59.676,0,1,0,119.352,0v-1.97a86.205,86.205,0,0,0,15.2,1.97h0a74.876,74.876,0,1,1-149.752,0Zm16.889-2.252a70.221,70.221,0,0,0,15.2-5.63v7.882a42.786,42.786,0,0,0,85.573,0V68.583a88.875,88.875,0,0,0,15.2,5.63v2.252a57.987,57.987,0,1,1-115.974,0Zm16.889-6.193a90.984,90.984,0,0,0,15.2-10.415V76.747a26.178,26.178,0,1,0,52.357,0V57.605a72.588,72.588,0,0,0,15.2,10.415v8.726a41.1,41.1,0,0,1-82.195,0V68.02Zm16.889-12.1a78.691,78.691,0,0,0,15.2-19.423V76.465a9.289,9.289,0,1,0,18.578,0V36.494a72.579,72.579,0,0,0,15.2,19.423V76.465a24.49,24.49,0,0,1-48.979,0V55.916ZM841.553,78.154a74.876,74.876,0,0,1,0,149.752h0a70.331,70.331,0,0,0-1.971-15.2h1.971a59.676,59.676,0,1,0,0-119.352h-1.971a86.194,86.194,0,0,0,1.971-15.2Zm1.689-1.689a74.876,74.876,0,0,1,149.752,0h0a70.341,70.341,0,0,0-15.2,1.97v-1.97a59.676,59.676,0,1,0-119.352,0v1.97a93.662,93.662,0,0,0-15.2-1.97Zm151.441,1.689h0a70.338,70.338,0,0,0,1.97,15.2h-1.97a59.676,59.676,0,1,0,0,119.352h1.97a86.224,86.224,0,0,0-1.97,15.2h0a74.876,74.876,0,1,1,0-149.752m1.689-1.689a70.341,70.341,0,0,0,15.2-1.97v1.97a59.676,59.676,0,1,0,119.351,0v-1.97a86.206,86.206,0,0,0,15.2,1.97h0a74.876,74.876,0,1,1-149.752,0Zm16.608-2.252a70.219,70.219,0,0,0,15.2-5.63v7.882a42.786,42.786,0,0,0,85.573,0V68.583a88.875,88.875,0,0,0,15.2,5.63v2.252a57.987,57.987,0,0,1-115.974,0Zm16.889-6.193a90.982,90.982,0,0,0,15.2-10.415V76.747a26.179,26.179,0,1,0,52.357,0V57.605a72.594,72.594,0,0,0,15.2,10.415v8.726a41.1,41.1,0,1,1-82.195,0V68.02Zm16.889-12.1a78.7,78.7,0,0,0,15.2-19.423V76.465a9.289,9.289,0,0,0,18.578,0V36.494a72.572,72.572,0,0,0,15.2,19.423V76.465a24.49,24.49,0,0,1-48.979,0V55.916Zm101.055,22.238a74.876,74.876,0,1,1,0,149.752h0a70.339,70.339,0,0,0-1.971-15.2h1.971a59.676,59.676,0,0,0,0-119.352h-1.971a86.211,86.211,0,0,0,1.971-15.2Zm1.689-1.689A74.783,74.783,0,0,1,1224.1,1.589h0a74.6,74.6,0,0,1,74.594,74.876h0a70.337,70.337,0,0,0-15.2,1.97v-1.97a59.676,59.676,0,0,0-119.352,0v1.97a79.853,79.853,0,0,0-14.637-1.97Zm151.16,1.689h0a70.346,70.346,0,0,0,1.97,15.2h-1.97a59.676,59.676,0,0,0,0,119.352h1.97a86.224,86.224,0,0,0-1.97,15.2h0a74.876,74.876,0,0,1,0-149.752m1.689-1.689a70.339,70.339,0,0,0,15.2-1.97v1.97a59.676,59.676,0,0,0,119.352,0v-1.97a86.2,86.2,0,0,0,15.2,1.97h0a74.876,74.876,0,0,1-149.753,0Zm16.889-2.252a70.217,70.217,0,0,0,15.2-5.63v7.882a42.786,42.786,0,1,0,85.573,0V68.583a88.873,88.873,0,0,0,15.2,5.63v2.252a57.987,57.987,0,0,1-115.974,0Zm16.889-6.193a90.978,90.978,0,0,0,15.2-10.415V76.747a26.178,26.178,0,1,0,52.357,0V57.605a72.592,72.592,0,0,0,15.2,10.415v8.726a41.1,41.1,0,0,1-82.2,0V68.02Zm16.608-12.1a78.7,78.7,0,0,0,15.2-19.423V76.465a9.289,9.289,0,1,0,18.578,0V36.494a72.583,72.583,0,0,0,15.2,19.423V76.465a24.49,24.49,0,0,1-48.979,0V55.916Zm101.055,22.238a74.876,74.876,0,0,1,0,149.752h0a70.339,70.339,0,0,0-1.971-15.2h1.971a59.676,59.676,0,0,0,0-119.352h-1.971a66.059,66.059,0,0,0,1.971-15.2Zm1.689-1.689a74.876,74.876,0,1,1,149.752,0h0a70.338,70.338,0,0,0-15.2,1.97v-1.97a59.676,59.676,0,0,0-119.352,0v1.97a86.192,86.192,0,0,0-15.2-1.97Zm151.441,1.689h0a70.338,70.338,0,0,0,1.97,15.2h-1.97a59.676,59.676,0,0,0,0,119.352h1.97a86.224,86.224,0,0,0-1.97,15.2h0a74.876,74.876,0,0,1,0-149.752M1752.453,196.1h7.882a42.786,42.786,0,0,0,0-85.573h-7.882a88.9,88.9,0,0,0,5.63-15.2h2.252a57.987,57.987,0,0,1,0,115.974h-2.252a88.9,88.9,0,0,0-5.63-15.2m7.6-50.668a7.6,7.6,0,0,1,0,15.2H1716.7a77.7,77.7,0,0,0-33.216-7.6,77.7,77.7,0,0,0,33.216-7.6Zm-18.86-18.3a72.588,72.588,0,0,0,10.415-15.2h8.726a41.1,41.1,0,0,1,0,82.195h-8.726a90.985,90.985,0,0,0-10.415-15.2h19.141a26.179,26.179,0,0,0,0-52.357h-19.141Zm18.86,1.689a24.349,24.349,0,1,1,0,48.7H1739.5a78.687,78.687,0,0,0-19.423-15.2h39.971a9.289,9.289,0,0,0,0-18.578h-39.971a72.577,72.577,0,0,0,19.423-15.2h20.549Zm-153.13-18.578a42.786,42.786,0,0,0,0,85.573h7.882a88.893,88.893,0,0,0-5.63,15.2h-2.252a57.987,57.987,0,0,1,0-115.974h2.252a70.226,70.226,0,0,0,5.63,15.2h-7.882Zm0,16.889a26.179,26.179,0,0,0,0,52.357h19.141a72.591,72.591,0,0,0-10.415,15.2h-8.726a41.1,41.1,0,0,1,0-82.195h8.726a90.99,90.99,0,0,0,10.415,15.2h-19.141Zm43.349,18.3a77.7,77.7,0,0,0,33.216,7.6,77.7,77.7,0,0,0-33.216,7.6h-43.349a7.6,7.6,0,0,1,0-15.2Zm-43.349-1.689a9.289,9.289,0,1,0,0,18.578h39.972a72.578,72.578,0,0,0-19.423,15.2h-20.549a24.49,24.49,0,1,1,0-48.979h20.549a78.692,78.692,0,0,0,19.423,15.2Zm84.166,238.985a7.6,7.6,0,1,1-15.2,0V339.376a76.382,76.382,0,0,0,0-66.432V229.6a7.6,7.6,0,1,1,15.2,0v43.349a76.384,76.384,0,0,0,0,66.432Zm16.889,0a24.49,24.49,0,0,1-48.979,0V362.177a78.7,78.7,0,0,0,15.2-19.423v39.971a9.289,9.289,0,1,0,18.578,0V342.754a72.576,72.576,0,0,0,15.2,19.423Zm16.889,0a41.1,41.1,0,1,1-82.195,0V374a90.993,90.993,0,0,0,15.2-10.415v19.141a26.178,26.178,0,1,0,52.357,0V363.584a72.594,72.594,0,0,0,15.2,10.415v8.726Zm16.889,0a57.987,57.987,0,1,1-115.974,0v-2.252a70.219,70.219,0,0,0,15.2-5.63v7.882a42.786,42.786,0,0,0,85.573,0v-7.882a88.861,88.861,0,0,0,15.2,5.63v2.252Zm-136.522-16.608h1.97a59.676,59.676,0,1,0,0-119.351h-1.97a86.235,86.235,0,0,0,1.97-15.2h0a74.876,74.876,0,0,1,0,149.752h0a86.246,86.246,0,0,0-1.97-15.2m-151.441-52.357a7.6,7.6,0,1,1,0-15.2h43.349a77.7,77.7,0,0,0,33.216,7.6,77.7,77.7,0,0,0-33.216,7.6Zm0,16.889a24.49,24.49,0,1,1,0-48.979h20.549a78.691,78.691,0,0,0,19.423,15.2h-39.972a9.289,9.289,0,1,0,0,18.578h39.972a72.576,72.576,0,0,0-19.423,15.2h-20.549Zm7.882,18.578a88.872,88.872,0,0,0-5.63,15.2h-2.252a57.987,57.987,0,1,1,0-115.974h2.252a70.206,70.206,0,0,0,5.63,15.2h-7.882a42.786,42.786,0,1,0,0,85.573Zm-7.882-1.689a41.1,41.1,0,1,1,0-82.195h8.726a90.976,90.976,0,0,0,10.415,15.2h-19.141a26.179,26.179,0,1,0,0,52.357h19.141a72.583,72.583,0,0,0-10.415,15.2h-8.726Zm153.13,1.689a42.786,42.786,0,1,0,0-85.573h-7.882a88.871,88.871,0,0,0,5.63-15.2h2.252a57.987,57.987,0,0,1,0,115.974h-2.252a70.213,70.213,0,0,0-5.63-15.2h7.882Zm0-16.889a26.179,26.179,0,1,0,0-52.357h-19.141a72.6,72.6,0,0,0,10.415-15.2h8.726a41.1,41.1,0,1,1,0,82.195H1598.2a91,91,0,0,0-10.415-15.2h19.141Zm-43.349-18.578a77.7,77.7,0,0,0-33.216-7.6,77.7,77.7,0,0,0,33.216-7.6h43.349a7.6,7.6,0,1,1,0,15.2Zm43.349,1.689a9.289,9.289,0,0,0,0-18.578h-39.971a72.581,72.581,0,0,0,19.423-15.2h20.548a24.49,24.49,0,1,1,0,48.979h-20.548a78.7,78.7,0,0,0-19.423-15.2h39.971ZM1522.758,76.465a7.6,7.6,0,1,1,15.2,0v43.349a76.384,76.384,0,0,0,0,66.432V229.6a7.6,7.6,0,1,1-15.2,0V186.246a76.383,76.383,0,0,0,0-66.432Zm-16.608,0a24.49,24.49,0,0,1,48.979,0V97.014a78.693,78.693,0,0,0-15.2,19.423V76.465a9.289,9.289,0,1,0-18.578,0v39.972a72.578,72.578,0,0,0-15.2-19.423Zm-16.889,0a41.1,41.1,0,1,1,82.195,0v8.726a90.984,90.984,0,0,0-15.2,10.415V76.465a26.179,26.179,0,0,0-52.357,0V95.606a72.587,72.587,0,0,0-15.2-10.415V76.465Zm41.1-42.786h0a42.767,42.767,0,0,0-42.786,42.786v7.882a88.87,88.87,0,0,0-15.2-5.63V76.465a57.987,57.987,0,1,1,115.974,0v2.252a70.215,70.215,0,0,0-15.2,5.63V76.465c.282-23.645-19.141-42.786-42.786-42.786m0,205.206a9.372,9.372,0,0,0,9.289-9.289V189.624a72.573,72.573,0,0,0,15.2,19.423V229.6a24.49,24.49,0,0,1-48.979,0V209.047a78.694,78.694,0,0,0,15.2-19.423V229.6a9.191,9.191,0,0,0,9.289,9.289m0,16.889a26.129,26.129,0,0,0,26.179-26.179V210.454a72.582,72.582,0,0,0,15.2,10.415V229.6a41.1,41.1,0,1,1-82.195,0v-8.726a90.988,90.988,0,0,0,15.2-10.415V229.6a25.483,25.483,0,0,0,25.615,26.179m0,16.889h0a42.767,42.767,0,0,0,42.786-42.786V222a88.875,88.875,0,0,0,15.2,5.63v2.252a57.987,57.987,0,0,1-115.974,0v-2.252a70.215,70.215,0,0,0,15.2-5.63v7.882a42.767,42.767,0,0,0,42.786,42.786m0,16.889h0a59.706,59.706,0,0,0,59.676-59.676v-1.97a86.2,86.2,0,0,0,15.2,1.97h0a74.876,74.876,0,1,1-149.752,0h0a70.343,70.343,0,0,0,15.2-1.97v1.97a59.706,59.706,0,0,0,59.675,59.676m-151.441,16.608h0a74.843,74.843,0,0,1,74.876-74.876h0a70.323,70.323,0,0,0,1.971,15.2h-1.971a59.676,59.676,0,1,0,0,119.352h1.971a86.187,86.187,0,0,0-1.971,15.2h0a74.843,74.843,0,0,1-74.876-74.876m5.911,76.565a7.6,7.6,0,1,1-15.2,0V339.376a76.382,76.382,0,0,0,0-66.432V229.6a7.6,7.6,0,1,1,15.2,0v43.349a76.384,76.384,0,0,0,0,66.432Zm16.89,0a24.49,24.49,0,0,1-48.979,0V362.177a78.7,78.7,0,0,0,15.2-19.423v39.971a9.289,9.289,0,1,0,18.578,0V342.754a72.578,72.578,0,0,0,15.2,19.423v20.549Zm16.889,0a41.1,41.1,0,0,1-82.2,0V374a90.986,90.986,0,0,0,15.2-10.415v19.141a26.178,26.178,0,1,0,52.357,0V363.584A72.592,72.592,0,0,0,1419.17,374v8.726Zm-41.379,43.068h0a42.767,42.767,0,0,0,42.786-42.786v-7.882a88.877,88.877,0,0,0,15.2,5.63v2.252a57.987,57.987,0,0,1-115.974,0v-2.252a70.223,70.223,0,0,0,15.2-5.63v7.882a42.767,42.767,0,0,0,42.786,42.786m0-205.487a9.372,9.372,0,0,0-9.289,9.289v39.971a72.583,72.583,0,0,0-15.2-19.423V229.6a24.49,24.49,0,1,1,48.979,0v20.549a78.692,78.692,0,0,0-15.2,19.423V229.6a9.372,9.372,0,0,0-9.289-9.289m0-16.608a26.129,26.129,0,0,0-26.178,26.178v19.141a72.587,72.587,0,0,0-15.2-10.415v-8.726a41.1,41.1,0,0,1,82.195,0V238.6a90.98,90.98,0,0,0-15.2,10.415V229.877a25.314,25.314,0,0,0-25.616-26.178m0-16.889h0a42.767,42.767,0,0,0-42.786,42.786v7.882a88.867,88.867,0,0,0-15.2-5.63V229.6a57.987,57.987,0,0,1,115.974,0v2.252a70.219,70.219,0,0,0-15.2,5.63V229.6c.281-23.645-19.141-42.786-42.786-42.786m76.565-41.379a7.6,7.6,0,0,1,0,15.2h-43.35a77.7,77.7,0,0,0-33.216-7.6,77.7,77.7,0,0,0,33.216-7.6Zm0-16.608a24.49,24.49,0,0,1,0,48.979h-20.549a78.695,78.695,0,0,0-19.423-15.2h39.971a9.289,9.289,0,0,0,0-18.578h-39.972a72.577,72.577,0,0,0,19.423-15.2Zm-7.6-18.578a88.881,88.881,0,0,0,5.63-15.2h2.252a57.987,57.987,0,0,1,0,115.974h-2.252a70.219,70.219,0,0,0-5.63-15.2h7.882a42.786,42.786,0,1,0,0-85.573h-7.882Zm7.6,1.689a41.1,41.1,0,0,1,0,82.195h-8.726a90.99,90.99,0,0,0-10.415-15.2h19.141a26.179,26.179,0,0,0,0-52.357h-19.141a72.592,72.592,0,0,0,10.415-15.2h8.726Zm-76.565,42.786h0A74.843,74.843,0,0,1,1452.1,229.6h0a70.339,70.339,0,0,0-15.2,1.97V229.6a59.676,59.676,0,0,0-119.352,0v1.97a86.2,86.2,0,0,0-15.2-1.97h0a74.843,74.843,0,0,1,74.876-74.876m-76.565-44.475a42.786,42.786,0,0,0,0,85.573h7.882a88.862,88.862,0,0,0-5.63,15.2h-2.252a57.987,57.987,0,0,1,0-115.974h2.252a70.219,70.219,0,0,0,5.63,15.2h-7.882Zm0,16.889a26.179,26.179,0,0,0,0,52.357H1319.8a72.592,72.592,0,0,0-10.415,15.2h-8.726a41.1,41.1,0,0,1,0-82.195h8.726a90.985,90.985,0,0,0,10.415,15.2h-19.141Zm43.349,18.3a77.7,77.7,0,0,0,33.216,7.6,77.7,77.7,0,0,0-33.216,7.6h-43.349a7.6,7.6,0,0,1,0-15.2Zm-43.349-1.689a9.289,9.289,0,0,0,0,18.578h39.972a72.575,72.575,0,0,0-19.423,15.2h-20.549a24.49,24.49,0,0,1,0-48.979h20.549a78.7,78.7,0,0,0,19.423,15.2Zm-1.97,222.377h1.97a59.676,59.676,0,1,0,0-119.351h-1.97a86.189,86.189,0,0,0,1.97-15.2h0a74.876,74.876,0,1,1,0,149.752h0a66.053,66.053,0,0,0-1.97-15.2m1.97-16.889a42.786,42.786,0,0,0,0-85.573h-7.881a88.892,88.892,0,0,0,5.63-15.2h2.252a57.987,57.987,0,0,1,0,115.974h-2.252a70.226,70.226,0,0,0-5.63-15.2h7.881Zm0-16.889a26.179,26.179,0,0,0,0-52.357h-19.141a72.586,72.586,0,0,0,10.415-15.2h8.726a41.1,41.1,0,1,1,0,82.195h-8.726a90.975,90.975,0,0,0-10.415-15.2h19.141Zm0-16.889a9.289,9.289,0,1,0,0-18.578h-39.971a72.578,72.578,0,0,0,19.423-15.2h20.549a24.49,24.49,0,0,1,0,48.979h-20.549a78.7,78.7,0,0,0-19.423-15.2h39.971Zm-152.849-1.689a7.6,7.6,0,1,1,0-15.2h43.349a76.382,76.382,0,0,0,66.431,0h43.068a7.6,7.6,0,1,1,0,15.2h-43.349a76.383,76.383,0,0,0-66.431,0Zm0,16.889a24.49,24.49,0,1,1,0-48.979h20.549a78.692,78.692,0,0,0,19.423,15.2h-39.972a9.289,9.289,0,1,0,0,18.578h39.972a72.572,72.572,0,0,0-19.423,15.2h-20.549Zm7.6,18.578a88.862,88.862,0,0,0-5.63,15.2h-2.252a57.987,57.987,0,1,1,0-115.974h2.252a70.212,70.212,0,0,0,5.63,15.2h-7.882a42.786,42.786,0,0,0,0,85.573Zm-7.6-1.689a41.1,41.1,0,1,1,0-82.195h8.726a90.975,90.975,0,0,0,10.415,15.2h-19.141a26.179,26.179,0,1,0,0,52.357h19.141a72.592,72.592,0,0,0-10.415,15.2h-8.726Zm52.075-271.074a24.448,24.448,0,0,1,24.208-24.49h0a24.268,24.268,0,0,1,24.208,24.49V97.014a78.693,78.693,0,0,0-15.2,19.423V76.465a9.319,9.319,0,0,0-9.008-9.289,9.133,9.133,0,0,0-9.008,9.289v39.972a72.578,72.578,0,0,0-15.2-19.423Zm-16.889,0a40.966,40.966,0,0,1,41.1-41.1h0a41.145,41.145,0,0,1,41.1,41.1v8.726a90.982,90.982,0,0,0-15.2,10.415V76.465a25.9,25.9,0,1,0-51.794,0V95.606A72.588,72.588,0,0,0,1183,85.191Zm99.084,0v2.252a70.219,70.219,0,0,0-15.2,5.63V76.465a42.786,42.786,0,0,0-85.573,0v7.882a88.877,88.877,0,0,0-15.2-5.63V76.465a57.845,57.845,0,0,1,57.705-57.987h0a58.145,58.145,0,0,1,58.268,57.987M1224.1,153.03V147.4a81.577,81.577,0,0,0-7.319-27.586V76.465a7.7,7.7,0,0,1,7.319-7.6h0a7.513,7.513,0,0,1,7.319,7.6v43.349A70.382,70.382,0,0,0,1224.1,147.4v5.63l.281,5.63a81.563,81.563,0,0,0,7.319,27.586V229.6a7.7,7.7,0,0,1-7.319,7.6h0a7.513,7.513,0,0,1-7.319-7.6V186.246a70.382,70.382,0,0,0,7.319-27.586v-5.63Zm0,85.854a9.133,9.133,0,0,0,9.008-9.289V189.624a72.575,72.575,0,0,0,15.2,19.423V229.6a24.448,24.448,0,0,1-24.208,24.49h0a24.268,24.268,0,0,1-24.208-24.49V209.047a78.691,78.691,0,0,0,15.2-19.423V229.6a9.133,9.133,0,0,0,9.008,9.289m0,16.889a26.07,26.07,0,0,0,25.9-26.179V210.454a72.59,72.59,0,0,0,15.2,10.415V229.6a40.966,40.966,0,0,1-41.1,41.1h0a41.146,41.146,0,0,1-41.1-41.1v-8.726a90.982,90.982,0,0,0,15.2-10.415V229.6a26.07,26.07,0,0,0,25.9,26.179m0,16.889a42.767,42.767,0,0,0,42.786-42.786V222a88.88,88.88,0,0,0,15.2,5.63v2.252a57.845,57.845,0,0,1-57.705,57.987h0a57.844,57.844,0,0,1-57.705-57.987v-2.252a70.214,70.214,0,0,0,15.2-5.63v7.882c-.563,23.364,18.578,42.786,42.224,42.786m0,16.889a59.706,59.706,0,0,0,59.676-59.676v-1.97a86.2,86.2,0,0,0,15.2,1.97h0a74.783,74.783,0,0,1-74.595,74.876h0a74.6,74.6,0,0,1-74.595-74.876h0a70.343,70.343,0,0,0,15.2-1.97v1.97c-.281,32.653,26.178,59.394,59.113,59.676m-151.16,16.608h0a74.843,74.843,0,0,1,74.876-74.876h0a70.33,70.33,0,0,0,1.97,15.2h-1.97a59.676,59.676,0,1,0,0,119.352h1.97a86.188,86.188,0,0,0-1.97,15.2h0a74.843,74.843,0,0,1-74.876-74.876m5.911,76.565a7.6,7.6,0,0,1-15.2,0V339.376a76.382,76.382,0,0,0,0-66.432V229.6a7.6,7.6,0,0,1,15.2,0v43.349a76.383,76.383,0,0,0,0,66.432Zm16.608,0a24.49,24.49,0,0,1-48.979,0V362.177a78.692,78.692,0,0,0,15.2-19.423v39.971a9.289,9.289,0,1,0,18.578,0V342.754a72.581,72.581,0,0,0,15.2,19.423v20.549Zm16.89,0a41.1,41.1,0,0,1-82.2,0V374a90.992,90.992,0,0,0,15.2-10.415v19.141a26.178,26.178,0,1,0,52.357,0V363.584a72.6,72.6,0,0,0,15.2,10.415v8.726Zm-41.1,43.068a42.767,42.767,0,0,0,42.786-42.786v-7.882a88.882,88.882,0,0,0,15.2,5.63v2.252a57.987,57.987,0,1,1-115.974,0v-2.252a70.222,70.222,0,0,0,15.2-5.63v7.882c-.281,23.645,19.141,42.786,42.786,42.786m0-205.487a9.372,9.372,0,0,0-9.289,9.289v39.971a72.578,72.578,0,0,0-15.2-19.423V229.6a24.49,24.49,0,0,1,48.979,0v20.549a78.7,78.7,0,0,0-15.2,19.423V229.6a9.372,9.372,0,0,0-9.289-9.289m0-16.608a26.129,26.129,0,0,0-26.179,26.178v19.141a72.587,72.587,0,0,0-15.2-10.415v-8.726a41.1,41.1,0,1,1,82.195,0V238.6a90.98,90.98,0,0,0-15.2,10.415V229.877a25.483,25.483,0,0,0-25.616-26.178m0-16.889a42.767,42.767,0,0,0-42.786,42.786v7.882a88.864,88.864,0,0,0-15.2-5.63V229.6a57.987,57.987,0,1,1,115.974,0v2.252a70.222,70.222,0,0,0-15.2,5.63V229.6a42.767,42.767,0,0,0-42.786-42.786m0-32.09h0a74.843,74.843,0,0,1,74.876,74.876h0a70.341,70.341,0,0,0-15.2,1.97V229.6a59.676,59.676,0,1,0-119.351,0v1.97a86.2,86.2,0,0,0-15.2-1.97h0a74.843,74.843,0,0,1,74.876-74.876m-76.565-44.475a42.786,42.786,0,1,0,0,85.573h7.882a88.862,88.862,0,0,0-5.63,15.2h-2.252a57.987,57.987,0,0,1,0-115.974h2.252a70.226,70.226,0,0,0,5.63,15.2h-7.882Zm0,16.889a26.179,26.179,0,0,0,0,52.357h19.141a72.587,72.587,0,0,0-10.415,15.2h-8.726a41.1,41.1,0,1,1,0-82.195h8.726a90.981,90.981,0,0,0,10.415,15.2H994.684Zm0,16.608a9.289,9.289,0,1,0,0,18.578h39.972a72.573,72.573,0,0,0-19.423,15.2H994.684a24.49,24.49,0,0,1,0-48.979h20.549a78.691,78.691,0,0,0,19.423,15.2Zm153.13,1.689a7.6,7.6,0,0,1,0,15.2h-43.349a76.383,76.383,0,0,0-66.432,0H994.684a7.6,7.6,0,1,1,0-15.2h43.349a76.383,76.383,0,0,0,66.432,0Zm0-16.608a24.49,24.49,0,0,1,0,48.979h-20.549a78.693,78.693,0,0,0-19.423-15.2h39.972a9.289,9.289,0,0,0,0-18.578h-39.972a72.575,72.575,0,0,0,19.423-15.2Zm-7.882-18.578a88.871,88.871,0,0,0,5.63-15.2h2.252a57.987,57.987,0,1,1,0,115.974h-2.252a70.212,70.212,0,0,0-5.63-15.2h7.882a42.786,42.786,0,1,0,0-85.573h-7.882Zm7.882,1.689a41.1,41.1,0,0,1,0,82.195h-8.726a90.976,90.976,0,0,0-10.415-15.2h19.141a26.179,26.179,0,0,0,0-52.357h-19.141a72.583,72.583,0,0,0,10.415-15.2h8.726Zm-155.1,254.185h1.97a59.676,59.676,0,0,0,0-119.351h-1.97a86.218,86.218,0,0,0,1.97-15.2h0a74.876,74.876,0,1,1,0,149.752h0a86.218,86.218,0,0,0-1.97-15.2m1.97-16.889a42.786,42.786,0,1,0,0-85.573H986.8a88.887,88.887,0,0,0,5.63-15.2h2.252a57.987,57.987,0,0,1,0,115.974h-2.252a70.22,70.22,0,0,0-5.63-15.2h7.882Zm0-16.889a26.179,26.179,0,0,0,0-52.357H975.542a72.591,72.591,0,0,0,10.415-15.2h8.726a41.1,41.1,0,0,1,0,82.195h-8.726a90.983,90.983,0,0,0-10.415-15.2h19.141Zm0-16.889a9.289,9.289,0,1,0,0-18.578H954.431a72.577,72.577,0,0,0,19.423-15.2H994.4a24.49,24.49,0,1,1,0,48.979H974.135a78.692,78.692,0,0,0-19.423-15.2h39.971Zm-153.13-1.689a7.6,7.6,0,1,1,0-15.2H884.9a76.382,76.382,0,0,0,66.431,0h43.349a7.6,7.6,0,1,1,0,15.2H951.334a76.383,76.383,0,0,0-66.431,0Zm0,16.889a24.49,24.49,0,1,1,0-48.979H862.1a78.7,78.7,0,0,0,19.423,15.2H841.553a9.289,9.289,0,1,0,0,18.578h39.972a72.576,72.576,0,0,0-19.423,15.2H841.553Zm7.6,18.578a88.883,88.883,0,0,0-5.63,15.2h-2.252a57.987,57.987,0,0,1,0-115.974h2.252a70.222,70.222,0,0,0,5.63,15.2h-7.882a42.786,42.786,0,0,0,0,85.573Zm-7.6-1.689a41.1,41.1,0,1,1,0-82.195h8.726a90.983,90.983,0,0,0,10.415,15.2H841.554a26.179,26.179,0,1,0,0,52.357h19.141a72.59,72.59,0,0,0-10.415,15.2h-8.726ZM910.518,76.465a7.6,7.6,0,0,1,15.2,0v43.349a76.382,76.382,0,0,0,0,66.432V229.6a7.6,7.6,0,0,1-15.2,0V186.246a76.383,76.383,0,0,0,0-66.432Zm-16.889,0a24.49,24.49,0,1,1,48.979,0V97.014a78.694,78.694,0,0,0-15.2,19.423V76.465a9.289,9.289,0,1,0-18.578,0v39.972a72.574,72.574,0,0,0-15.2-19.423V76.465Zm-16.889,0a41.1,41.1,0,1,1,82.195,0v8.726a90.981,90.981,0,0,0-15.2,10.415V76.465a26.178,26.178,0,1,0-52.357,0V95.606a72.589,72.589,0,0,0-15.2-10.415V76.465Zm41.379-42.786a42.768,42.768,0,0,0-42.786,42.786v7.882a88.875,88.875,0,0,0-15.2-5.63V76.465a57.987,57.987,0,1,1,115.974,0v2.252a70.219,70.219,0,0,0-15.2,5.63V76.465a42.767,42.767,0,0,0-42.786-42.786m0,205.206a9.372,9.372,0,0,0,9.289-9.289V189.624a72.574,72.574,0,0,0,15.2,19.423V229.6a24.49,24.49,0,1,1-48.979,0V209.047a78.695,78.695,0,0,0,15.2-19.423V229.6a9.024,9.024,0,0,0,9.289,9.289m0,16.889A26.129,26.129,0,0,0,944.3,229.6V210.454a72.589,72.589,0,0,0,15.2,10.415V229.6a41.1,41.1,0,0,1-82.195,0v-8.726a90.98,90.98,0,0,0,15.2-10.415V229.6c-.563,14.637,10.978,26.179,25.616,26.179m0,16.889a42.767,42.767,0,0,0,42.786-42.786V222a88.878,88.878,0,0,0,15.2,5.63v2.252a57.987,57.987,0,1,1-115.974,0v-2.252a70.22,70.22,0,0,0,15.2-5.63v7.882a42.412,42.412,0,0,0,42.786,42.786m0,16.889a59.706,59.706,0,0,0,59.676-59.676v-1.97a86.2,86.2,0,0,0,15.2,1.97h0a74.876,74.876,0,1,1-149.752,0h0a70.34,70.34,0,0,0,15.2-1.97v1.97c-.282,32.934,26.46,59.676,59.676,59.676M766.4,306.161h0a74.843,74.843,0,0,1,74.876-74.876h0a70.334,70.334,0,0,0,1.97,15.2h-1.97a59.676,59.676,0,0,0,0,119.352h1.97a86.216,86.216,0,0,0-1.97,15.2h0A75.023,75.023,0,0,1,766.4,306.161m5.911,76.565a7.6,7.6,0,1,1-15.2,0V339.376a76.382,76.382,0,0,0,0-66.432V229.6a7.6,7.6,0,1,1,15.2,0v43.349a76.383,76.383,0,0,0,0,66.432Zm16.889,0a24.49,24.49,0,0,1-48.979,0V362.177a78.695,78.695,0,0,0,15.2-19.423v39.971a9.289,9.289,0,1,0,18.578,0V342.754a72.578,72.578,0,0,0,15.2,19.423v20.549Zm16.889,0a41.1,41.1,0,1,1-82.195,0V374a90.986,90.986,0,0,0,15.2-10.415v19.141a26.178,26.178,0,1,0,52.357,0V363.584A72.591,72.591,0,0,0,806.648,374v8.726Zm-41.1,43.068h0a42.767,42.767,0,0,0,42.787-42.786v-7.882a88.871,88.871,0,0,0,15.2,5.63v2.252a57.987,57.987,0,0,1-115.974,0v-2.252a70.224,70.224,0,0,0,15.2-5.63v7.882a42.412,42.412,0,0,0,42.786,42.786m0-205.487A9.372,9.372,0,0,0,755.7,229.6v39.971a72.577,72.577,0,0,0-15.2-19.423V229.6a24.49,24.49,0,0,1,48.979,0v20.549a78.695,78.695,0,0,0-15.2,19.423V229.6a9.563,9.563,0,0,0-9.289-9.289m0-16.608a26.129,26.129,0,0,0-26.178,26.178v19.141a72.592,72.592,0,0,0-15.2-10.415v-8.726a41.1,41.1,0,1,1,82.195,0V238.6a90.979,90.979,0,0,0-15.2,10.415V229.877A25.484,25.484,0,0,0,764.988,203.7m0-16.889h0A42.767,42.767,0,0,0,722.2,229.6v7.882a88.865,88.865,0,0,0-15.2-5.63V229.6a57.987,57.987,0,0,1,115.974,0v2.252a70.214,70.214,0,0,0-15.2,5.63V229.6a42.768,42.768,0,0,0-42.787-42.786m76.565-41.379a7.6,7.6,0,0,1,0,15.2H798.2a77.7,77.7,0,0,0-33.216-7.6,77.7,77.7,0,0,0,33.216-7.6Zm0-16.608a24.49,24.49,0,0,1,0,48.979H821a78.694,78.694,0,0,0-19.423-15.2h39.972a9.289,9.289,0,0,0,0-18.578H801.582A72.576,72.576,0,0,0,821,128.822Zm-7.882-18.578a88.876,88.876,0,0,0,5.63-15.2h2.252a57.987,57.987,0,0,1,0,115.974H839.3a70.226,70.226,0,0,0-5.63-15.2h7.882a42.786,42.786,0,1,0,0-85.573h-7.882Zm7.882,1.689a41.1,41.1,0,0,1,0,82.195h-8.726a90.983,90.983,0,0,0-10.415-15.2h19.141a26.179,26.179,0,0,0,0-52.357H822.412a72.6,72.6,0,0,0,10.415-15.2h8.726Zm-76.565,42.786h0A74.843,74.843,0,0,1,839.865,229.6h0a70.339,70.339,0,0,0-15.2,1.97V229.6a59.676,59.676,0,1,0-119.352,0v1.97a86.2,86.2,0,0,0-15.2-1.97h0c-.282-41.379,33.5-74.876,74.876-74.876m-76.847-44.475a42.786,42.786,0,1,0,0,85.573h7.882a88.872,88.872,0,0,0-5.63,15.2h-2.252a57.987,57.987,0,1,1,0-115.974h2.252a70.222,70.222,0,0,0,5.63,15.2h-7.882Zm0,16.889a26.179,26.179,0,1,0,0,52.357h19.141a72.589,72.589,0,0,0-10.415,15.2h-8.726a41.1,41.1,0,1,1,0-82.195h8.726a90.987,90.987,0,0,0,10.415,15.2H688.142Zm43.349,18.3a77.7,77.7,0,0,0,33.216,7.6,77.7,77.7,0,0,0-33.216,7.6H688.142a7.6,7.6,0,1,1,0-15.2Zm-43.349-1.689a9.289,9.289,0,1,0,0,18.578h39.971a72.576,72.576,0,0,0-19.423,15.2H688.142a24.49,24.49,0,1,1,0-48.979H708.69a78.694,78.694,0,0,0,19.423,15.2Zm-1.689,222.377h1.97a59.676,59.676,0,1,0,0-119.351h-1.97a86.189,86.189,0,0,0,1.97-15.2h0a74.876,74.876,0,1,1,0,149.752h0a86.2,86.2,0,0,0-1.97-15.2m1.689-16.889a42.786,42.786,0,0,0,0-85.573H680.26a88.877,88.877,0,0,0,5.63-15.2h2.252a57.987,57.987,0,0,1,0,115.974H685.89a70.226,70.226,0,0,0-5.63-15.2h7.882Zm0-16.889a26.179,26.179,0,0,0,0-52.357H669a72.586,72.586,0,0,0,10.415-15.2h8.726a41.1,41.1,0,1,1,0,82.195h-8.726A90.982,90.982,0,0,0,669,331.776h19.141Zm0-16.889a9.289,9.289,0,0,0,0-18.578H648.17a72.574,72.574,0,0,0,19.423-15.2h20.549a24.49,24.49,0,0,1,0,48.979H667.593a78.7,78.7,0,0,0-19.423-15.2h39.971Zm-152-1.689a7.6,7.6,0,1,1,0-15.2h43.349a75.218,75.218,0,0,0,32.653,7.6,74.288,74.288,0,0,0,32.653-7.6h43.349a7.6,7.6,0,0,1,0,15.2H644.792a75.218,75.218,0,0,0-32.653-7.6,74.288,74.288,0,0,0-32.653,7.6Zm0,16.889a24.49,24.49,0,0,1,0-48.979h20.549a78.7,78.7,0,0,0,19.423,15.2H536.137a9.289,9.289,0,1,0,0,18.578h39.971a72.574,72.574,0,0,0-19.423,15.2H536.137Zm7.882,18.578a88.877,88.877,0,0,0-5.63,15.2h-2.252a57.987,57.987,0,1,1,0-115.974h2.252a70.222,70.222,0,0,0,5.63,15.2h-7.882a42.786,42.786,0,1,0,0,85.573Zm-7.882-1.689a41.1,41.1,0,1,1,0-82.195h8.726a90.987,90.987,0,0,0,10.415,15.2H536.137a26.179,26.179,0,1,0,0,52.357h19.141a72.59,72.59,0,0,0-10.415,15.2h-8.726ZM588.494,76.465a24.226,24.226,0,0,1,23.364-24.208h1.126a24.416,24.416,0,0,1,23.364,24.208V97.014a78.693,78.693,0,0,0-15.2,19.423V76.465a9.472,9.472,0,0,0-8.726-9.289,9.272,9.272,0,0,0-8.726,9.289v39.972a72.576,72.576,0,0,0-15.2-19.423Zm-16.889,0a40.97,40.97,0,0,1,40.253-41.1h1.126a41.345,41.345,0,0,1,40.253,41.1v8.726a90.984,90.984,0,0,0-15.2,10.415V76.465a25.622,25.622,0,1,0-51.231,0V95.606a72.588,72.588,0,0,0-15.2-10.415Zm98.24,0v2.252a70.22,70.22,0,0,0-15.2,5.63V76.465a42.227,42.227,0,1,0-84.447,0v7.882a88.873,88.873,0,0,0-15.2-5.63V76.465a57.854,57.854,0,0,1,56.861-57.987h1.126a58.228,58.228,0,0,1,56.861,57.987M611.577,153.03V139.8a74.05,74.05,0,0,0-6.474-20.267V76.465a7.83,7.83,0,0,1,6.474-7.6H612.7a7.609,7.609,0,0,1,6.474,7.6v43.349a68.38,68.38,0,0,0-6.474,20.267V166.26a74.048,74.048,0,0,0,6.474,20.267v43.349A7.325,7.325,0,0,1,612.7,237.2h-1.126a7.539,7.539,0,0,1-6.474-7.319V186.246a68.38,68.38,0,0,0,6.474-20.267Zm.563,85.854a9.272,9.272,0,0,0,8.726-9.289V189.624a72.577,72.577,0,0,0,15.2,19.423V229.6A24.226,24.226,0,0,1,612.7,253.8h-1.126A24.416,24.416,0,0,1,588.213,229.6V209.047a78.695,78.695,0,0,0,15.2-19.423V229.6a9.272,9.272,0,0,0,8.726,9.289m0,16.889A26.2,26.2,0,0,0,637.755,229.6V210.454a72.588,72.588,0,0,0,15.2,10.415V229.6a40.97,40.97,0,0,1-40.253,41.1h-1.126c-22.238-.281-39.971-18.578-39.971-41.1v-8.726a90.989,90.989,0,0,0,15.2-10.415V229.6a25.959,25.959,0,0,0,25.334,26.178m0,16.889a42.833,42.833,0,0,0,42.223-42.786V222a88.874,88.874,0,0,0,15.2,5.63v2.252A57.854,57.854,0,0,1,612.7,287.864h-1.126A58.285,58.285,0,0,1,554.716,229.6v-2.252a70.222,70.222,0,0,0,15.2-5.63V229.6a42.9,42.9,0,0,0,42.223,43.068m0,16.889a59.771,59.771,0,0,0,59.113-59.676v-1.97a86.2,86.2,0,0,0,15.2,1.97h0a74.792,74.792,0,0,1-73.75,74.876h-1.126a74.792,74.792,0,0,1-73.75-74.876h0a70.341,70.341,0,0,0,15.2-1.97v1.97c0,32.653,26.46,59.113,59.113,59.676M461.261,306.161h0a74.843,74.843,0,0,1,74.876-74.876h0a70.341,70.341,0,0,0,1.97,15.2h-1.97a59.676,59.676,0,0,0,0,119.352h1.97a86.2,86.2,0,0,0-1.97,15.2h0a74.843,74.843,0,0,1-74.876-74.876m5.911,76.565a7.6,7.6,0,1,1-15.2,0V339.376a76.383,76.383,0,0,0,0-66.432V229.6a7.6,7.6,0,1,1,15.2,0v43.349a76.383,76.383,0,0,0,0,66.432Zm16.889,0a24.49,24.49,0,1,1-48.979,0V362.177a78.695,78.695,0,0,0,15.2-19.423v39.971a9.289,9.289,0,1,0,18.578,0V342.754a72.577,72.577,0,0,0,15.2,19.423Zm16.889,0a41.1,41.1,0,1,1-82.195,0V374a90.984,90.984,0,0,0,15.2-10.415v19.141a26.179,26.179,0,0,0,52.357,0V363.584A72.588,72.588,0,0,0,501.514,374v8.726Zm-41.379,43.068h0a42.767,42.767,0,0,0,42.786-42.786v-7.882a88.874,88.874,0,0,0,15.2,5.63v2.252a57.987,57.987,0,0,1-115.974,0v-2.252a70.225,70.225,0,0,0,15.2-5.63v7.882a42.768,42.768,0,0,0,42.786,42.786m0-205.487a9.372,9.372,0,0,0-9.289,9.289v39.971a72.575,72.575,0,0,0-15.2-19.423V229.6a24.49,24.49,0,1,1,48.979,0v20.549a78.694,78.694,0,0,0-15.2,19.423V229.6a9.372,9.372,0,0,0-9.289-9.289m0-16.608a26.129,26.129,0,0,0-26.179,26.178v19.141a72.588,72.588,0,0,0-15.2-10.415v-8.726a41.1,41.1,0,1,1,82.195,0V238.6a90.988,90.988,0,0,0-15.2,10.415V229.877A25.313,25.313,0,0,0,459.572,203.7m0-16.889h0A42.767,42.767,0,0,0,416.786,229.6v7.882a88.866,88.866,0,0,0-15.2-5.63V229.6a57.987,57.987,0,1,1,115.974,0v2.252a70.218,70.218,0,0,0-15.2,5.63V229.6c.281-23.645-19.141-42.786-42.786-42.786m76.565-41.379a7.6,7.6,0,0,1,0,15.2H492.788a77.7,77.7,0,0,0-33.216-7.6,77.7,77.7,0,0,0,33.216-7.6Zm0-16.608a24.49,24.49,0,0,1,0,48.979H515.589a78.695,78.695,0,0,0-19.423-15.2h39.971a9.289,9.289,0,0,0,0-18.578H496.166a72.575,72.575,0,0,0,19.423-15.2Zm-7.6-18.578a88.876,88.876,0,0,0,5.63-15.2h2.252a57.987,57.987,0,1,1,0,115.974h-2.252a70.222,70.222,0,0,0-5.63-15.2h7.882a42.786,42.786,0,0,0,0-85.573h-7.882Zm7.6,1.689a41.1,41.1,0,1,1,0,82.195h-8.726A90.983,90.983,0,0,0,517,178.927h19.141a26.179,26.179,0,0,0,0-52.357H517a72.588,72.588,0,0,0,10.415-15.2h8.726Zm-76.565,42.786h0A74.843,74.843,0,0,1,534.448,229.6h0a70.338,70.338,0,0,0-15.2,1.97V229.6a59.676,59.676,0,1,0-119.352,0v1.97a86.2,86.2,0,0,0-15.2-1.97h0a74.843,74.843,0,0,1,74.876-74.876m-76.565-44.475a42.786,42.786,0,1,0,0,85.573h7.882a88.872,88.872,0,0,0-5.63,15.2h-2.252a57.987,57.987,0,1,1,0-115.974h2.252a70.221,70.221,0,0,0,5.63,15.2h-7.882Zm0,16.889a26.179,26.179,0,1,0,0,52.357h19.141a72.59,72.59,0,0,0-10.415,15.2h-8.726a41.1,41.1,0,1,1,0-82.195h8.726a90.989,90.989,0,0,0,10.415,15.2H383.007Zm43.349,18.3a77.7,77.7,0,0,0,33.216,7.6,77.7,77.7,0,0,0-33.216,7.6H383.007a7.6,7.6,0,0,1,0-15.2Zm-43.349-1.689a9.289,9.289,0,1,0,0,18.578h39.971a72.576,72.576,0,0,0-19.423,15.2H383.007a24.49,24.49,0,1,1,0-48.979h20.549a78.695,78.695,0,0,0,19.423,15.2Zm-1.689,222.377h1.97a59.676,59.676,0,1,0,0-119.351h-1.97a86.2,86.2,0,0,0,1.97-15.2h0a74.876,74.876,0,1,1,0,149.752h0a86.2,86.2,0,0,0-1.97-15.2M229.877,313.761a7.6,7.6,0,0,1,0-15.2h43.349a77.7,77.7,0,0,0,33.216,7.6,77.7,77.7,0,0,0-33.216,7.6Zm0,16.889a24.49,24.49,0,0,1,0-48.979h20.549a78.7,78.7,0,0,0,19.423,15.2H229.877a9.289,9.289,0,0,0,0,18.578h39.972a72.575,72.575,0,0,0-19.423,15.2H229.877Zm7.882,18.578a88.87,88.87,0,0,0-5.63,15.2h-2.252a57.987,57.987,0,0,1,0-115.974h2.252a70.217,70.217,0,0,0,5.63,15.2h-7.882a42.786,42.786,0,0,0,0,85.573Zm-7.882-1.689a41.1,41.1,0,0,1,0-82.195H238.6a90.985,90.985,0,0,0,10.415,15.2H229.877a26.179,26.179,0,1,0,0,52.357h19.141A72.589,72.589,0,0,0,238.6,348.1h-8.726Zm153.13,1.689a42.786,42.786,0,1,0,0-85.573h-7.882a88.877,88.877,0,0,0,5.63-15.2h2.252a57.987,57.987,0,0,1,0,115.974h-2.252a70.226,70.226,0,0,0-5.63-15.2h7.882Zm0-16.889a26.179,26.179,0,0,0,0-52.357H363.866a72.588,72.588,0,0,0,10.415-15.2h8.726a41.1,41.1,0,1,1,0,82.195h-8.445a90.982,90.982,0,0,0-10.415-15.2h18.86Zm-43.349-18.578a77.7,77.7,0,0,0-33.216-7.6,77.7,77.7,0,0,0,33.216-7.6h43.349a7.6,7.6,0,1,1,0,15.2Zm43.349,1.689a9.289,9.289,0,0,0,0-18.578H343.036a72.575,72.575,0,0,0,19.423-15.2h20.549a24.49,24.49,0,1,1,0,48.979H362.458a78.695,78.695,0,0,0-19.423-15.2h39.972ZM298.842,76.465a7.6,7.6,0,1,1,15.2,0v43.349a76.383,76.383,0,0,0,0,66.432V229.6a7.6,7.6,0,0,1-15.2,0V186.246a76.383,76.383,0,0,0,0-66.432Zm-16.889,0a24.49,24.49,0,0,1,48.979,0V97.014a78.694,78.694,0,0,0-15.2,19.423V76.465a9.289,9.289,0,1,0-18.578,0v39.972a72.576,72.576,0,0,0-15.2-19.423V76.465Zm-16.608,0a41.1,41.1,0,0,1,82.195,0v8.726a90.983,90.983,0,0,0-15.2,10.415V76.465a26.179,26.179,0,0,0-52.357,0V95.606a72.587,72.587,0,0,0-15.2-10.415V76.465Zm41.1-42.786h0a42.767,42.767,0,0,0-42.786,42.786v7.882a88.873,88.873,0,0,0-15.2-5.63V76.465a57.987,57.987,0,0,1,115.974,0v2.252a70.221,70.221,0,0,0-15.2,5.63V76.465c.281-23.645-19.141-42.786-42.786-42.786m0,205.206a9.372,9.372,0,0,0,9.289-9.289V189.624a72.575,72.575,0,0,0,15.2,19.423V229.6a24.49,24.49,0,1,1-48.979,0V209.047a78.694,78.694,0,0,0,15.2-19.423V229.6a9.191,9.191,0,0,0,9.289,9.289m0,16.889A26.129,26.129,0,0,0,332.621,229.6V210.454a72.587,72.587,0,0,0,15.2,10.415V229.6a41.1,41.1,0,0,1-82.195,0v-8.726a90.983,90.983,0,0,0,15.2-10.415V229.6a25.483,25.483,0,0,0,25.616,26.179m0,16.889h0a42.767,42.767,0,0,0,42.786-42.786V222a88.875,88.875,0,0,0,15.2,5.63v2.252a57.987,57.987,0,0,1-115.974,0v-2.252a70.219,70.219,0,0,0,15.2-5.63v7.882a42.767,42.767,0,0,0,42.786,42.786m0,16.889h0a59.706,59.706,0,0,0,59.676-59.676v-1.97a86.2,86.2,0,0,0,15.2,1.97h0a74.876,74.876,0,1,1-149.752,0h0a70.341,70.341,0,0,0,15.2-1.97v1.97a59.706,59.706,0,0,0,59.676,59.676M155,306.161h0a74.843,74.843,0,0,1,74.876-74.876h0a70.339,70.339,0,0,0,1.97,15.2h-1.97a59.676,59.676,0,0,0,0,119.352h1.97a86.2,86.2,0,0,0-1.97,15.2h0A74.843,74.843,0,0,1,155,306.161M145.712,229.6a7.6,7.6,0,0,1,15.2,0v43.349a76.383,76.383,0,0,0,0,66.432v43.349a7.6,7.6,0,0,1-15.2,0V339.376a76.383,76.383,0,0,0,0-66.432Zm-16.889,0a24.49,24.49,0,1,1,48.979,0v20.549a78.694,78.694,0,0,0-15.2,19.423V229.6a9.289,9.289,0,1,0-18.578,0v39.971a72.576,72.576,0,0,0-15.2-19.423Zm-16.608,0a41.1,41.1,0,1,1,82.195,0v8.726a90.985,90.985,0,0,0-15.2,10.415V229.6a26.179,26.179,0,0,0-52.357,0v19.141a72.588,72.588,0,0,0-15.2-10.415V229.6Zm-16.889,0a57.987,57.987,0,0,1,115.974,0v2.252a70.218,70.218,0,0,0-15.2,5.63V229.6a42.786,42.786,0,0,0-85.573,0v7.882a88.867,88.867,0,0,0-15.2-5.63V229.6ZM229.877,145.43a7.6,7.6,0,0,1,0,15.2H186.528a77.7,77.7,0,0,0-33.216-7.6,77.7,77.7,0,0,0,33.216-7.6Zm0-16.608a24.349,24.349,0,1,1,0,48.7H209.328a78.694,78.694,0,0,0-19.423-15.2h39.971a9.289,9.289,0,0,0,0-18.578H189.905a72.576,72.576,0,0,0,19.423-15.2h20.549Zm-7.6-18.578a88.87,88.87,0,0,0,5.63-15.2h2.252a57.9,57.9,0,0,1,57.987,57.987c-.281,32.09-26.179,58.268-58.268,58.268h-2.252A70.22,70.22,0,0,0,222,196.1h7.882a42.786,42.786,0,0,0,0-85.573h-7.6Zm7.6,1.689a41.1,41.1,0,0,1,0,82.195h-8.726a90.986,90.986,0,0,0-10.415-15.2h19.141a26.179,26.179,0,0,0,0-52.357H210.736a72.589,72.589,0,0,0,10.415-15.2h8.726Zm-76.565,42.786h0A74.843,74.843,0,0,1,228.188,229.6h0a70.339,70.339,0,0,0-15.2,1.97V229.6a59.676,59.676,0,1,0-119.352,0v1.97a86.2,86.2,0,0,0-15.2-1.97h0a74.843,74.843,0,0,1,74.876-74.876M76.747,110.244a42.786,42.786,0,0,0,0,85.573h7.882a88.872,88.872,0,0,0-5.63,15.2H76.747c-32.09.281-57.987-25.9-57.987-57.987A57.9,57.9,0,0,1,76.747,95.043H79a70.219,70.219,0,0,0,5.63,15.2Zm0,16.889a26.179,26.179,0,0,0,0,52.357H95.888a72.587,72.587,0,0,0-10.415,15.2H76.747a41.1,41.1,0,0,1,0-82.195h8.726a90.984,90.984,0,0,0,10.415,15.2H76.747Zm43.349,18.3a77.7,77.7,0,0,0,33.216,7.6,77.7,77.7,0,0,0-33.216,7.6H76.747a7.6,7.6,0,0,1,0-15.2Zm-43.349-1.689a9.289,9.289,0,1,0,0,18.578h39.972A72.576,72.576,0,0,0,97.3,177.52H76.747a24.49,24.49,0,0,1,0-48.979H97.3a78.694,78.694,0,0,0,19.423,15.2Zm76.565,248.274a9.372,9.372,0,0,0,9.289-9.289V342.754a72.577,72.577,0,0,0,15.2,19.423v20.549a24.49,24.49,0,0,1-48.979,0V362.177a78.7,78.7,0,0,0,15.2-19.423v39.971a9.191,9.191,0,0,0,9.289,9.289m0,16.889a26.129,26.129,0,0,0,26.179-26.178V363.584A72.589,72.589,0,0,0,194.691,374v8.726a41.1,41.1,0,1,1-82.195,0V374a90.987,90.987,0,0,0,15.2-10.415v19.141A25.313,25.313,0,0,0,153.312,408.9m0,16.889h0A42.767,42.767,0,0,0,196.1,383.007v-7.882a88.876,88.876,0,0,0,15.2,5.63v2.252a57.987,57.987,0,0,1-115.974,0v-2.252a70.225,70.225,0,0,0,15.2-5.63v7.882a42.767,42.767,0,0,0,42.786,42.786m-76.565,41.1a7.6,7.6,0,1,1,0-15.2H120.1a77.7,77.7,0,0,0,33.216,7.6,77.7,77.7,0,0,0-33.216,7.6Zm0,16.889a24.49,24.49,0,1,1,0-48.979H97.3A78.694,78.694,0,0,0,116.718,450H76.747a9.289,9.289,0,1,0,0,18.578h39.972A72.576,72.576,0,0,0,97.3,483.78Zm7.882,18.578a88.869,88.869,0,0,0-5.63,15.2H76.747a57.987,57.987,0,0,1,0-115.974H79a70.219,70.219,0,0,0,5.63,15.2H76.747a42.786,42.786,0,1,0,0,85.573h7.882Zm-7.882-1.689a41.1,41.1,0,0,1,0-82.195h8.726a90.984,90.984,0,0,0,10.415,15.2H76.747a26.179,26.179,0,0,0,0,52.357H95.888a72.586,72.586,0,0,0-10.415,15.2H76.747Zm76.565-42.786h0a74.843,74.843,0,0,1-74.876-74.876h0a70.34,70.34,0,0,0,15.2-1.97v1.97a59.676,59.676,0,1,0,119.352,0v-1.97a86.2,86.2,0,0,0,15.2,1.97h0a75.024,75.024,0,0,1-74.876,74.876m76.565,44.475a42.786,42.786,0,0,0,0-85.573H222a88.87,88.87,0,0,0,5.63-15.2h2.252a57.987,57.987,0,1,1,0,115.974h-2.252a70.221,70.221,0,0,0-5.63-15.2h7.882Zm0-16.889a26.179,26.179,0,1,0,0-52.357H210.736a72.588,72.588,0,0,0,10.415-15.2h8.726a41.1,41.1,0,1,1,0,82.195h-8.726a90.984,90.984,0,0,0-10.415-15.2h19.141Zm-43.349-18.578a77.7,77.7,0,0,0-33.216-7.6,77.7,77.7,0,0,0,33.216-7.6h43.349a7.6,7.6,0,1,1,0,15.2Zm43.349,1.689a9.289,9.289,0,1,0,0-18.578H189.905a72.576,72.576,0,0,0,19.423-15.2h20.549a24.49,24.49,0,0,1,0,48.979H209.328a78.691,78.691,0,0,0-19.423-15.2Zm84.165,67.557a7.6,7.6,0,0,1-15.2,0V492.788a76.383,76.383,0,0,0,0-66.431V383.007a7.6,7.6,0,1,1,15.2,0v43.349a76.383,76.383,0,0,0,0,66.431Zm16.889,0a24.49,24.49,0,0,1-48.979,0V515.589a78.695,78.695,0,0,0,15.2-19.423v39.971a9.289,9.289,0,0,0,18.578,0V496.166a72.576,72.576,0,0,0,15.2,19.423v20.549Zm16.889,0a41.1,41.1,0,1,1-82.195,0v-8.726A90.984,90.984,0,0,0,280.826,517v19.141a26.179,26.179,0,0,0,52.357,0V517a72.588,72.588,0,0,0,15.2,10.415v8.726Zm-41.379,42.786h0a42.767,42.767,0,0,0,42.786-42.786v-7.882a88.872,88.872,0,0,0,15.2,5.63v2.252a57.987,57.987,0,0,1-115.974,0v-2.252a70.222,70.222,0,0,0,15.2-5.63v7.882a42.767,42.767,0,0,0,42.786,42.786m0-205.206a9.372,9.372,0,0,0-9.289,9.289v39.971a72.575,72.575,0,0,0-15.2-19.423V383.007a24.49,24.49,0,1,1,48.979,0v20.549a78.7,78.7,0,0,0-15.2,19.423V383.007a9.191,9.191,0,0,0-9.289-9.289m0-16.889a26.129,26.129,0,0,0-26.179,26.179v19.141a72.59,72.59,0,0,0-15.2-10.415v-8.726a41.1,41.1,0,1,1,82.195,0v8.726a90.988,90.988,0,0,0-15.2,10.415V383.007a25.313,25.313,0,0,0-25.616-26.179m0-16.889h0a42.767,42.767,0,0,0-42.786,42.786v7.882a88.869,88.869,0,0,0-15.2-5.63v-2.252a57.987,57.987,0,0,1,115.974,0v2.252a70.221,70.221,0,0,0-15.2,5.63v-7.882c.281-23.645-19.141-42.786-42.786-42.786m0-16.889h0a59.706,59.706,0,0,0-59.676,59.676v1.97a86.2,86.2,0,0,0-15.2-1.97h0a74.876,74.876,0,1,1,149.752,0h0a70.34,70.34,0,0,0-15.2,1.97v-1.97a59.706,59.706,0,0,0-59.676-59.676m76.565,143.841a7.6,7.6,0,1,1,0-15.2h43.349a77.7,77.7,0,0,0,33.216,7.6,77.7,77.7,0,0,0-33.216,7.6Zm0,16.889a24.49,24.49,0,1,1,0-48.979h20.549A78.7,78.7,0,0,0,422.979,450H383.007a9.289,9.289,0,1,0,0,18.578h39.971a72.576,72.576,0,0,0-19.423,15.2Zm7.882,18.578a88.869,88.869,0,0,0-5.63,15.2h-2.252a57.987,57.987,0,0,1,0-115.974h2.252a70.22,70.22,0,0,0,5.63,15.2h-7.882a42.786,42.786,0,1,0,0,85.573h7.882Zm-7.882-1.689a41.1,41.1,0,1,1,0-82.195h8.726a90.987,90.987,0,0,0,10.415,15.2H383.007a26.179,26.179,0,1,0,0,52.357h19.141a72.589,72.589,0,0,0-10.415,15.2h-8.726Zm76.565-42.786h0A74.843,74.843,0,0,1,384.7,383.007h0a70.339,70.339,0,0,0,15.2-1.97v1.97a59.676,59.676,0,1,0,119.351,0v-1.97a86.2,86.2,0,0,0,15.2,1.97h0a75.023,75.023,0,0,1-74.876,74.876m76.565,44.475a42.786,42.786,0,0,0,0-85.573h-7.882a88.87,88.87,0,0,0,5.63-15.2h2.252a57.987,57.987,0,0,1,0,115.974h-2.252a70.223,70.223,0,0,0-5.63-15.2h7.882Zm0-16.889a26.179,26.179,0,0,0,0-52.357H517a72.588,72.588,0,0,0,10.415-15.2h8.726a41.1,41.1,0,1,1,0,82.195h-8.726A90.984,90.984,0,0,0,517,484.906h19.141Zm-43.349-18.578a77.7,77.7,0,0,0-33.216-7.6,77.7,77.7,0,0,0,33.216-7.6h43.349a7.6,7.6,0,0,1,0,15.2Zm43.349,1.689a9.289,9.289,0,0,0,0-18.578H496.166a72.576,72.576,0,0,0,19.423-15.2h20.549a24.49,24.49,0,0,1,0,48.979H515.589a78.692,78.692,0,0,0-19.423-15.2Zm99.929,67.557A24.226,24.226,0,0,1,612.7,560.345h-1.126a24.416,24.416,0,0,1-23.364-24.208V515.589a78.7,78.7,0,0,0,15.2-19.423v39.971a9.472,9.472,0,0,0,8.726,9.289,9.272,9.272,0,0,0,8.726-9.289V496.166a72.576,72.576,0,0,0,15.2,19.423Zm16.889,0a40.971,40.971,0,0,1-40.253,41.1h-1.126a41.345,41.345,0,0,1-40.253-41.1v-8.726A90.988,90.988,0,0,0,586.524,517v19.141a25.622,25.622,0,1,0,51.231,0V517a72.59,72.59,0,0,0,15.2,10.415Zm-98.24,0v-2.252a70.225,70.225,0,0,0,15.2-5.63v7.882a42.227,42.227,0,1,0,84.447,0v-7.882a88.872,88.872,0,0,0,15.2,5.63v2.252A57.854,57.854,0,0,1,612.7,594.124h-1.126a58.038,58.038,0,0,1-56.861-57.987M612.7,459.291v13.23a74.052,74.052,0,0,0,6.474,20.267v43.349a7.325,7.325,0,0,1-6.474,7.319h-1.126a7.539,7.539,0,0,1-6.474-7.319V492.788a68.375,68.375,0,0,0,6.474-20.267v-26.46a74.048,74.048,0,0,0-6.474-20.267V382.444a7.326,7.326,0,0,1,6.474-7.319H612.7a7.609,7.609,0,0,1,6.474,7.6v43.349a68.38,68.38,0,0,0-6.474,20.267Zm-.563-85.573a9.272,9.272,0,0,0-8.726,9.289v39.971a72.575,72.575,0,0,0-15.2-19.423V383.007A24.226,24.226,0,0,1,611.577,358.8H612.7a24.416,24.416,0,0,1,23.364,24.208v20.549a78.694,78.694,0,0,0-15.2,19.423V383.007a9.076,9.076,0,0,0-8.726-9.289m0-16.889a26.2,26.2,0,0,0-25.616,26.179v19.141a72.593,72.593,0,0,0-15.2-10.415v-8.726a40.97,40.97,0,0,1,40.253-41.1H612.7a41.345,41.345,0,0,1,40.253,41.1v8.726a90.99,90.99,0,0,0-15.2,10.415V383.007a26.011,26.011,0,0,0-25.616-26.179m0-16.889a42.833,42.833,0,0,0-42.223,42.786v7.882a88.874,88.874,0,0,0-15.2-5.63v-2.252a57.854,57.854,0,0,1,56.861-57.987H612.7a58.038,58.038,0,0,1,56.861,57.987v2.252a70.221,70.221,0,0,0-15.2,5.63v-7.882a42.465,42.465,0,0,0-42.223-42.786m0-16.889a59.771,59.771,0,0,0-59.113,59.676v1.97a86.2,86.2,0,0,0-15.2-1.97h0a74.792,74.792,0,0,1,73.75-74.876H612.7a74.792,74.792,0,0,1,73.75,74.876h0a70.339,70.339,0,0,0-15.2,1.97v-1.97c.281-32.653-26.179-59.394-59.113-59.676m76,143.841a7.6,7.6,0,1,1,0-15.2h43.349a77.7,77.7,0,0,0,33.216,7.6,77.7,77.7,0,0,0-33.216,7.6Zm0,16.889a24.49,24.49,0,1,1,0-48.979H708.69A78.694,78.694,0,0,0,728.113,450H688.142a9.289,9.289,0,1,0,0,18.578h39.971a72.576,72.576,0,0,0-19.423,15.2Zm7.882,18.578a88.869,88.869,0,0,0-5.63,15.2h-2.252a57.987,57.987,0,1,1,0-115.974h2.252a70.221,70.221,0,0,0,5.63,15.2h-7.882a42.786,42.786,0,1,0,0,85.573h7.882Zm-7.882-1.689a41.1,41.1,0,1,1,0-82.195h8.726a90.986,90.986,0,0,0,10.415,15.2H688.142a26.179,26.179,0,1,0,0,52.357h19.141a72.588,72.588,0,0,0-10.415,15.2h-8.726Zm76.847-42.786h0a74.843,74.843,0,0,1-74.876-74.876h0a70.338,70.338,0,0,0,15.2-1.97v1.97a59.676,59.676,0,0,0,119.352,0v-1.97a86.2,86.2,0,0,0,15.2,1.97h0c0,41.1-33.779,74.876-74.876,74.876m76.565,44.475a42.786,42.786,0,1,0,0-85.573h-7.882a88.876,88.876,0,0,0,5.63-15.2h2.252a57.987,57.987,0,1,1,0,115.974H839.3a70.226,70.226,0,0,0-5.63-15.2h7.882Zm0-16.889a26.179,26.179,0,0,0,0-52.357H822.412a72.586,72.586,0,0,0,10.415-15.2h8.726a41.1,41.1,0,1,1,0,82.195h-8.726a90.98,90.98,0,0,0-10.415-15.2h19.141ZM798.2,466.891a77.7,77.7,0,0,0-33.216-7.6,77.7,77.7,0,0,0,33.216-7.6h43.349a7.6,7.6,0,0,1,0,15.2Zm43.349,1.689a9.289,9.289,0,0,0,0-18.578H801.582A72.574,72.574,0,0,0,821,434.8h20.549a24.49,24.49,0,1,1,0,48.979H821a78.688,78.688,0,0,0-19.423-15.2Zm84.165,67.557a7.6,7.6,0,0,1-15.2,0V492.788a76.383,76.383,0,0,0,0-66.431V383.007a7.6,7.6,0,1,1,15.2,0v43.349a76.382,76.382,0,0,0,0,66.431Zm16.608,0a24.49,24.49,0,0,1-48.979,0V515.589a78.694,78.694,0,0,0,15.2-19.423v39.971a9.289,9.289,0,0,0,18.578,0V496.166a72.576,72.576,0,0,0,15.2,19.423v20.549Zm16.889,0a41.1,41.1,0,0,1-82.2,0v-8.726A90.977,90.977,0,0,0,892.221,517v19.141a26.178,26.178,0,1,0,52.357,0V517a72.594,72.594,0,0,0,15.2,10.415v8.726Zm-41.1,42.786a42.767,42.767,0,0,0,42.786-42.786v-7.882a88.875,88.875,0,0,0,15.2,5.63v2.252a57.987,57.987,0,1,1-115.974,0v-2.252a70.223,70.223,0,0,0,15.2-5.63v7.882a42.412,42.412,0,0,0,42.786,42.786m0-205.206a9.372,9.372,0,0,0-9.289,9.289v39.971a72.575,72.575,0,0,0-15.2-19.423V383.007a24.49,24.49,0,1,1,48.979,0v20.549a78.7,78.7,0,0,0-15.2,19.423V383.007c-.282-5.348-4.223-9.289-9.289-9.289m0-16.889a26.129,26.129,0,0,0-26.178,26.179v19.141a72.593,72.593,0,0,0-15.2-10.415v-8.726a41.1,41.1,0,1,1,82.195,0v8.726a90.988,90.988,0,0,0-15.2,10.415V383.007a25.483,25.483,0,0,0-25.616-26.179m0-16.889a42.768,42.768,0,0,0-42.786,42.786v7.882a88.871,88.871,0,0,0-15.2-5.63v-2.252a57.987,57.987,0,1,1,115.974,0v2.252a70.219,70.219,0,0,0-15.2,5.63v-7.882a42.767,42.767,0,0,0-42.786-42.786m0-16.889a59.706,59.706,0,0,0-59.676,59.676v1.97a86.2,86.2,0,0,0-15.2-1.97h0a74.876,74.876,0,1,1,149.752,0h0a70.342,70.342,0,0,0-15.2,1.97v-1.97a59.706,59.706,0,0,0-59.676-59.676m153.13,134.833h0a74.843,74.843,0,0,1-74.876-74.876h0a70.342,70.342,0,0,0,15.2-1.97v1.97a59.676,59.676,0,1,0,119.351,0v-1.97a86.2,86.2,0,0,0,15.2,1.97h0a75.023,75.023,0,0,1-74.876,74.876m76.565,44.475a42.786,42.786,0,0,0,0-85.573h-7.882a88.87,88.87,0,0,0,5.63-15.2h2.252a57.987,57.987,0,0,1,0,115.974h-2.252a70.213,70.213,0,0,0-5.63-15.2h7.882Zm0-16.889a26.179,26.179,0,0,0,0-52.357h-19.141a72.588,72.588,0,0,0,10.415-15.2h8.726a41.1,41.1,0,1,1,0,82.195h-8.726a90.984,90.984,0,0,0-10.415-15.2h19.141Zm0-16.889a9.289,9.289,0,0,0,0-18.578h-39.972a72.576,72.576,0,0,0,19.423-15.2h20.549a24.49,24.49,0,1,1,0,48.979h-20.549a78.691,78.691,0,0,0-19.423-15.2Zm-153.13-1.689a7.6,7.6,0,1,1,0-15.2h43.349a76.383,76.383,0,0,0,66.432,0h43.349a7.6,7.6,0,0,1,0,15.2h-43.349a76.382,76.382,0,0,0-66.432,0Zm0,16.889a24.49,24.49,0,0,1,0-48.979h20.549a78.7,78.7,0,0,0,19.423,15.2H994.684a9.289,9.289,0,1,0,0,18.578h39.971a72.577,72.577,0,0,0-19.423,15.2Zm7.6,18.578a88.874,88.874,0,0,0-5.63,15.2H994.4a57.987,57.987,0,1,1,0-115.974h2.252a70.222,70.222,0,0,0,5.63,15.2H994.4a42.786,42.786,0,0,0,0,85.573h7.882Zm-7.6-1.689a41.1,41.1,0,1,1,0-82.195h8.726a90.976,90.976,0,0,0,10.415,15.2H994.684a26.179,26.179,0,0,0,0,52.357h19.141a72.582,72.582,0,0,0-10.415,15.2h-8.726Zm253.9,35.468a24.448,24.448,0,0,1-24.208,24.49h0a24.268,24.268,0,0,1-24.208-24.49V515.589a78.694,78.694,0,0,0,15.2-19.423v39.971a9.319,9.319,0,0,0,9.008,9.289,9.133,9.133,0,0,0,9.008-9.289V496.166a72.574,72.574,0,0,0,15.2,19.423Zm16.608,0a40.966,40.966,0,0,1-41.1,41.1h0a41.146,41.146,0,0,1-41.1-41.1v-8.726A90.982,90.982,0,0,0,1198.2,517v19.141a25.9,25.9,0,1,0,51.794,0V517a72.592,72.592,0,0,0,15.2,10.415Zm-98.8,0v-2.252a70.221,70.221,0,0,0,15.2-5.63v7.882a42.786,42.786,0,0,0,85.573,0v-7.882a88.866,88.866,0,0,0,15.2,5.63v2.252a57.845,57.845,0,0,1-57.705,57.987h0c-32.653-.281-58.268-26.179-58.268-57.987m57.987-76.847v5.63a81.563,81.563,0,0,0,7.319,27.586v43.349a7.7,7.7,0,0,1-7.319,7.6h0a7.513,7.513,0,0,1-7.319-7.6V492.788a70.383,70.383,0,0,0,7.319-27.586v-5.911l-.281-5.63a81.577,81.577,0,0,0-7.319-27.586V382.726a7.7,7.7,0,0,1,7.319-7.6h0a7.513,7.513,0,0,1,7.319,7.6v43.349a70.382,70.382,0,0,0-7.319,27.586v5.63Zm-.281-85.573a9.133,9.133,0,0,0-9.008,9.289v39.971a72.575,72.575,0,0,0-15.2-19.423V383.007a24.448,24.448,0,0,1,24.208-24.49h0a24.268,24.268,0,0,1,24.208,24.49v20.549a78.694,78.694,0,0,0-15.2,19.423V383.007a8.8,8.8,0,0,0-9.008-9.289m0-16.889a26.07,26.07,0,0,0-25.9,26.179v19.141a72.586,72.586,0,0,0-15.2-10.415v-8.726a40.966,40.966,0,0,1,41.1-41.1h0a41.145,41.145,0,0,1,41.1,41.1v8.726a90.991,90.991,0,0,0-15.2,10.415V383.007a25.716,25.716,0,0,0-25.9-26.179m0-16.889a42.767,42.767,0,0,0-42.786,42.786v7.882a88.872,88.872,0,0,0-15.2-5.63v-2.252a57.845,57.845,0,0,1,57.705-57.987h0a57.844,57.844,0,0,1,57.705,57.987v2.252a70.223,70.223,0,0,0-15.2,5.63v-7.882a41.939,41.939,0,0,0-42.223-42.786m0-16.889a59.706,59.706,0,0,0-59.676,59.676v1.97a86.2,86.2,0,0,0-15.2-1.97h0a74.783,74.783,0,0,1,74.594-74.876h0a74.6,74.6,0,0,1,74.595,74.876h0a70.338,70.338,0,0,0-15.2,1.97v-1.97c.563-32.934-26.178-59.676-59.113-59.676m76.565,143.841a7.6,7.6,0,1,1,0-15.2h43.349a77.7,77.7,0,0,0,33.216,7.6,77.7,77.7,0,0,0-33.216,7.6Zm0,16.889a24.49,24.49,0,0,1,0-48.979h20.549a78.7,78.7,0,0,0,19.423,15.2h-39.971a9.289,9.289,0,0,0,0,18.578h39.972a72.575,72.575,0,0,0-19.423,15.2Zm7.882,18.578a88.859,88.859,0,0,0-5.63,15.2h-2.252a57.987,57.987,0,0,1,0-115.974h2.252a70.219,70.219,0,0,0,5.63,15.2h-7.882a42.786,42.786,0,0,0,0,85.573h7.882Zm-7.882-1.689a41.1,41.1,0,0,1,0-82.195h8.726a90.983,90.983,0,0,0,10.415,15.2h-19.141a26.179,26.179,0,0,0,0,52.357H1319.8a72.591,72.591,0,0,0-10.415,15.2h-8.726Zm76.565-42.786h0a74.843,74.843,0,0,1-74.876-74.876h0a70.34,70.34,0,0,0,15.2-1.97v1.97a59.676,59.676,0,0,0,119.352,0v-1.97a86.2,86.2,0,0,0,15.2,1.97h0a75.024,75.024,0,0,1-74.876,74.876m76.565,44.475a42.786,42.786,0,1,0,0-85.573h-7.882a88.881,88.881,0,0,0,5.63-15.2h2.252a57.987,57.987,0,0,1,0,115.974h-2.252a70.226,70.226,0,0,0-5.63-15.2h7.882Zm0-16.889a26.179,26.179,0,0,0,0-52.357h-19.141a72.592,72.592,0,0,0,10.415-15.2h8.726a41.1,41.1,0,0,1,0,82.195h-8.726a90.991,90.991,0,0,0-10.415-15.2h19.141Zm-43.35-18.578a77.7,77.7,0,0,0-33.216-7.6,77.7,77.7,0,0,0,33.216-7.6h43.35a7.6,7.6,0,0,1,0,15.2Zm43.35,1.689a9.289,9.289,0,0,0,0-18.578h-39.972a72.577,72.577,0,0,0,19.423-15.2h20.549a24.49,24.49,0,0,1,0,48.979h-20.549a78.692,78.692,0,0,0-19.423-15.2Zm84.165,67.557a7.6,7.6,0,1,1-15.2,0V492.788a76.384,76.384,0,0,0,0-66.431V383.007a7.6,7.6,0,1,1,15.2,0v43.349a76.383,76.383,0,0,0,0,66.431Zm16.89,0a24.49,24.49,0,0,1-48.979,0V515.589a78.695,78.695,0,0,0,15.2-19.423v39.971a9.289,9.289,0,1,0,18.578,0V496.166a72.572,72.572,0,0,0,15.2,19.423Zm16.889,0a41.1,41.1,0,1,1-82.195,0v-8.726a90.988,90.988,0,0,0,15.2-10.415v19.141a26.178,26.178,0,1,0,52.357,0V517a72.588,72.588,0,0,0,15.2,10.415v8.726Zm-41.379,42.786h0a42.767,42.767,0,0,0,42.786-42.786v-7.882a88.872,88.872,0,0,0,15.2,5.63v2.252a57.987,57.987,0,0,1-115.974,0v-2.252a70.217,70.217,0,0,0,15.2-5.63v7.882a42.767,42.767,0,0,0,42.786,42.786m0-205.206a9.371,9.371,0,0,0-9.289,9.289v39.971a72.576,72.576,0,0,0-15.2-19.423V383.007a24.49,24.49,0,0,1,48.979,0v20.549a78.694,78.694,0,0,0-15.2,19.423V383.007a9.191,9.191,0,0,0-9.289-9.289m0-16.889a26.129,26.129,0,0,0-26.178,26.179v19.141a72.587,72.587,0,0,0-15.2-10.415v-8.726a41.1,41.1,0,1,1,82.195,0v8.726a90.994,90.994,0,0,0-15.2,10.415V383.007a25.313,25.313,0,0,0-25.615-26.179m0-16.889h0a42.767,42.767,0,0,0-42.786,42.786v7.882a88.866,88.866,0,0,0-15.2-5.63v-2.252a57.987,57.987,0,0,1,115.974,0v2.252a70.215,70.215,0,0,0-15.2,5.63v-7.882c.282-23.645-19.141-42.786-42.786-42.786m0-16.889h0a59.706,59.706,0,0,0-59.676,59.676v1.97a86.2,86.2,0,0,0-15.2-1.97h0a74.876,74.876,0,1,1,149.752,0h0a70.342,70.342,0,0,0-15.2,1.97v-1.97a59.706,59.706,0,0,0-59.676-59.676m76.565,143.841a7.6,7.6,0,0,1,0-15.2h43.349a77.7,77.7,0,0,0,33.216,7.6,77.7,77.7,0,0,0-33.216,7.6Zm0,16.889a24.49,24.49,0,1,1,0-48.979h20.549a78.693,78.693,0,0,0,19.423,15.2h-39.972a9.289,9.289,0,1,0,0,18.578h39.972a72.579,72.579,0,0,0-19.423,15.2Zm7.882,18.578a88.89,88.89,0,0,0-5.63,15.2h-2.252a57.987,57.987,0,0,1,0-115.974h2.252a70.225,70.225,0,0,0,5.63,15.2h-7.882a42.786,42.786,0,0,0,0,85.573h7.882Zm-7.882-1.689a41.1,41.1,0,0,1,0-82.195h8.726a90.989,90.989,0,0,0,10.415,15.2h-19.141a26.179,26.179,0,0,0,0,52.357h19.141a72.59,72.59,0,0,0-10.415,15.2h-8.726Zm76.565-42.786h0a74.843,74.843,0,0,1-74.876-74.876h0a70.344,70.344,0,0,0,15.2-1.97v1.97a59.676,59.676,0,0,0,119.352,0v-1.97a86.2,86.2,0,0,0,15.2,1.97h0a75.024,75.024,0,0,1-74.876,74.876m76.565,44.475a42.786,42.786,0,1,0,0-85.573h-7.882a88.891,88.891,0,0,0,5.63-15.2h2.252a57.987,57.987,0,0,1,0,115.974H1757.8a70.226,70.226,0,0,0-5.63-15.2h7.882Zm0-16.889a26.179,26.179,0,1,0,0-52.357h-19.141a72.588,72.588,0,0,0,10.415-15.2h8.726a41.1,41.1,0,1,1,0,82.195h-8.726a90.984,90.984,0,0,0-10.415-15.2h19.141ZM1716.7,466.891a77.7,77.7,0,0,0-33.216-7.6,77.7,77.7,0,0,0,33.216-7.6h43.349a7.6,7.6,0,1,1,0,15.2Zm43.349,1.689a9.289,9.289,0,0,0,0-18.578h-39.971a72.577,72.577,0,0,0,19.423-15.2h20.549a24.49,24.49,0,1,1,0,48.979H1739.5a78.684,78.684,0,0,0-19.423-15.2Zm-76.565-248.274a9.372,9.372,0,0,0-9.289,9.289v39.971a72.581,72.581,0,0,0-15.2-19.423V229.6a24.49,24.49,0,0,1,48.979,0v20.549a78.7,78.7,0,0,0-15.2,19.423V229.6a9.372,9.372,0,0,0-9.289-9.289m0-16.608a26.129,26.129,0,0,0-26.179,26.178v19.141a72.582,72.582,0,0,0-15.2-10.415v-8.726a41.1,41.1,0,1,1,82.195,0V238.6a90.975,90.975,0,0,0-15.2,10.415V229.877a25.313,25.313,0,0,0-25.615-26.178m0-16.889h0A42.767,42.767,0,0,0,1640.7,229.6v7.882a88.871,88.871,0,0,0-15.2-5.63V229.6a57.987,57.987,0,1,1,115.974,0v2.252a70.214,70.214,0,0,0-15.2,5.63V229.6a42.412,42.412,0,0,0-42.786-42.786m0-16.889h0a59.706,59.706,0,0,0-59.676,59.676v1.97a86.193,86.193,0,0,0-15.2-1.97h0a74.876,74.876,0,1,1,149.752,0h0a70.34,70.34,0,0,0-15.2,1.97V229.6c.282-32.934-26.46-59.676-59.675-59.676m-74.876-93.455a70.343,70.343,0,0,0,15.2-1.97v1.97a59.676,59.676,0,0,0,119.352,0v-1.97a86.2,86.2,0,0,0,15.2,1.97h0a74.876,74.876,0,1,1-149.752,0Zm16.889-2.252a70.221,70.221,0,0,0,15.2-5.63v7.882a42.786,42.786,0,0,0,85.573,0V68.583a88.858,88.858,0,0,0,15.2,5.63v2.252a57.987,57.987,0,1,1-115.974,0V74.213Zm16.89-6.193a90.972,90.972,0,0,0,15.2-10.415V76.747a26.179,26.179,0,1,0,52.357,0V57.605a72.587,72.587,0,0,0,15.2,10.415v8.726a41.1,41.1,0,0,1-82.195,0V68.02Zm16.889-12.1a78.7,78.7,0,0,0,15.2-19.423V76.465a9.289,9.289,0,1,0,18.578,0V36.494a72.575,72.575,0,0,0,15.2,19.423V76.465a24.49,24.49,0,0,1-48.979,0Zm117.663,20.549v1.97a86.2,86.2,0,0,0-15.2-1.97h0a74.843,74.843,0,0,1,74.876-74.876V.181h-5.63A81.572,81.572,0,0,0,1803.4,7.5h-43.349a7.7,7.7,0,0,1-7.6-7.319h-1.407a9.133,9.133,0,0,0,9.289,9.008h39.971a72.575,72.575,0,0,0-19.423,15.2h-20.549A24.448,24.448,0,0,1,1735.845.181h-1.689a26.07,26.07,0,0,0,26.179,25.9h19.141a72.587,72.587,0,0,0-10.415,15.2h-8.726a40.966,40.966,0,0,1-41.1-41.1h-1.97a42.767,42.767,0,0,0,42.786,42.786h7.882a88.851,88.851,0,0,0-5.63,15.2h-2.252A57.845,57.845,0,0,1,1702.067.463h-1.689a59.466,59.466,0,0,0,59.676,59.394h1.97a86.212,86.212,0,0,0-1.97,15.2h0A74.783,74.783,0,0,1,1685.177.463h-1.689a75.514,75.514,0,0,0,7.6,32.934V76.747a7.6,7.6,0,1,1-15.2,0V33.116a71.773,71.773,0,0,0,7.6-32.934H1681.8a74.6,74.6,0,0,1-74.876,74.595h0a70.33,70.33,0,0,0-1.971-15.2h1.971A59.647,59.647,0,0,0,1666.6.181h-1.689a57.844,57.844,0,0,1-57.987,57.705h-2.252a70.212,70.212,0,0,0-5.63-15.2h7.882A42.767,42.767,0,0,0,1649.71-.1h-1.689a41.145,41.145,0,0,1-41.1,41.1H1598.2a91,91,0,0,0-10.415-15.2h19.141A26.252,26.252,0,0,0,1633.1-.1h-1.689a24.268,24.268,0,0,1-24.49,24.208h-20.549a78.692,78.692,0,0,0-19.423-15.2h39.972A9.315,9.315,0,0,0,1616.212-.1h-1.689a7.513,7.513,0,0,1-7.6,7.319h-43.349A70.38,70.38,0,0,0,1535.988-.1h-11.26a81.57,81.57,0,0,0-27.586,7.319h-43.349a7.7,7.7,0,0,1-7.6-7.319H1444.5a9.133,9.133,0,0,0,9.289,9.008h39.972a72.576,72.576,0,0,0-19.423,15.2h-20.549A24.448,24.448,0,0,1,1429.3-.1h-1.689a26.07,26.07,0,0,0,26.179,25.9h19.141A72.583,72.583,0,0,0,1462.519,41h-8.726A40.966,40.966,0,0,1,1412.7-.1h-1.689a42.767,42.767,0,0,0,42.786,42.786h7.882a88.871,88.871,0,0,0-5.63,15.2h-2.252A57.845,57.845,0,0,1,1395.806.181h-1.689a59.466,59.466,0,0,0,59.676,59.394h1.97a86.189,86.189,0,0,0-1.97,15.2h0A74.783,74.783,0,0,1,1378.917.181h-1.689a75.516,75.516,0,0,0,7.6,32.934V76.465a7.6,7.6,0,1,1-15.2,0V33.116a75.516,75.516,0,0,0,7.6-32.934h-1.689a74.6,74.6,0,0,1-74.876,74.595h0a70.33,70.33,0,0,0-1.97-15.2h1.97A59.647,59.647,0,0,0,1360.339.181h-1.689a57.844,57.844,0,0,1-57.987,57.705h-2.252a70.225,70.225,0,0,0-5.63-15.2h7.881A42.767,42.767,0,0,0,1343.449-.1h-1.689a41.146,41.146,0,0,1-41.1,41.1h-8.726a90.975,90.975,0,0,0-10.415-15.2h19.141A26.252,26.252,0,0,0,1326.841-.1h-1.689a24.268,24.268,0,0,1-24.49,24.208h-20.549a78.7,78.7,0,0,0-19.423-15.2h39.972A9.315,9.315,0,0,0,1309.952-.1h-1.689a7.514,7.514,0,0,1-7.6,7.319h-43.349A70.38,70.38,0,0,0,1229.727-.1h-10.978a81.57,81.57,0,0,0-27.586,7.319h-43.349a7.7,7.7,0,0,1-7.6-7.319h-1.689a9.133,9.133,0,0,0,9.289,9.008h39.972a72.573,72.573,0,0,0-19.423,15.2h-20.549A24.448,24.448,0,0,1,1123.324-.1h-1.689a26.07,26.07,0,0,0,26.178,25.9h19.141A72.587,72.587,0,0,0,1156.54,41h-8.726a40.966,40.966,0,0,1-41.1-41.1h-1.689a42.767,42.767,0,0,0,42.786,42.786h7.882a88.872,88.872,0,0,0-5.63,15.2h-2.252A57.845,57.845,0,0,1,1089.827.181h-1.689a59.466,59.466,0,0,0,59.676,59.394h1.971a86.189,86.189,0,0,0-1.971,15.2h0A74.783,74.783,0,0,1,1072.938.181h-1.689a75.516,75.516,0,0,0,7.6,32.934V76.465a7.6,7.6,0,0,1-15.2,0V33.116a75.514,75.514,0,0,0,7.6-32.934h-1.689a74.6,74.6,0,0,1-74.876,74.595h0a70.345,70.345,0,0,0-1.97-15.2h1.97A59.647,59.647,0,0,0,1054.359.181h-1.689a57.844,57.844,0,0,1-57.987,57.705h-2.252a70.225,70.225,0,0,0-5.63-15.2h7.882A42.767,42.767,0,0,0,1037.47-.1h-1.689a41.146,41.146,0,0,1-41.1,41.1h-8.726a90.98,90.98,0,0,0-10.415-15.2h19.141A26.252,26.252,0,0,0,1020.862-.1h-1.689a24.268,24.268,0,0,1-24.49,24.208H974.135a78.69,78.69,0,0,0-19.423-15.2h39.971A9.315,9.315,0,0,0,1003.973-.1h-1.689a7.513,7.513,0,0,1-7.6,7.319H951.334A70.377,70.377,0,0,0,923.748-.1h-11.26A81.57,81.57,0,0,0,884.9,7.219H841.554a7.7,7.7,0,0,1-7.6-7.319h-1.689a9.133,9.133,0,0,0,9.289,9.008h39.972a72.575,72.575,0,0,0-19.423,15.2H841.554A24.448,24.448,0,0,1,817.064-.1h-1.689a26.07,26.07,0,0,0,26.179,25.9h19.141A72.594,72.594,0,0,0,850.279,41h-8.726a40.966,40.966,0,0,1-41.1-41.1h-1.689a42.767,42.767,0,0,0,42.786,42.786h7.882a88.871,88.871,0,0,0-5.63,15.2h-2.252A57.845,57.845,0,0,1,783.566.181h-1.689a59.466,59.466,0,0,0,59.676,59.394h1.97a86.212,86.212,0,0,0-1.97,15.2h0A74.783,74.783,0,0,1,766.677.181h-1.689a75.514,75.514,0,0,0,7.6,32.934V76.465a7.6,7.6,0,0,1-15.2,0V33.116a75.515,75.515,0,0,0,7.6-32.934H763.3a74.6,74.6,0,0,1-74.876,74.595h0a70.342,70.342,0,0,0-1.97-15.2h1.97A59.647,59.647,0,0,0,748.1.181H746.41a57.844,57.844,0,0,1-57.987,57.705h-2.252a70.222,70.222,0,0,0-5.63-15.2h7.882A42.767,42.767,0,0,0,731.209-.1H729.52a41.146,41.146,0,0,1-41.1,41.1H679.7a90.986,90.986,0,0,0-10.415-15.2h19.141A26.252,26.252,0,0,0,714.6-.1h-1.689a24.268,24.268,0,0,1-24.49,24.208H667.874a78.694,78.694,0,0,0-19.423-15.2h39.971A9.315,9.315,0,0,0,697.712-.1h-1.689a7.513,7.513,0,0,1-7.6,7.319H645.074A70.38,70.38,0,0,0,617.488-.1H607.354a81.57,81.57,0,0,0-27.586,7.319H536.419a7.7,7.7,0,0,1-7.6-7.319H527.13a9.133,9.133,0,0,0,9.289,9.008H576.39a72.575,72.575,0,0,0-19.423,15.2H536.419A24.448,24.448,0,0,1,511.929-.1H510.24a26.07,26.07,0,0,0,26.178,25.9H555.56A72.583,72.583,0,0,0,545.145,41h-8.726a40.966,40.966,0,0,1-41.1-41.1h-1.689a42.767,42.767,0,0,0,42.786,42.786H544.3a88.876,88.876,0,0,0-5.63,15.2h-2.252A57.845,57.845,0,0,1,478.432.181h-1.689a59.466,59.466,0,0,0,59.676,59.394h1.971a86.2,86.2,0,0,0-1.971,15.2h0A74.783,74.783,0,0,1,461.542.181h-1.689a75.514,75.514,0,0,0,7.6,32.934V76.465a7.6,7.6,0,0,1-15.2,0V33.116a75.515,75.515,0,0,0,7.6-32.934h-1.689a74.6,74.6,0,0,1-74.876,74.595h0a70.34,70.34,0,0,0-1.97-15.2h1.97A59.647,59.647,0,0,0,442.964.181h-1.689a57.844,57.844,0,0,1-57.987,57.705h-2.252a70.219,70.219,0,0,0-5.63-15.2h7.882A42.767,42.767,0,0,0,426.075-.1h-1.689a41.146,41.146,0,0,1-41.1,41.1h-8.726a90.983,90.983,0,0,0-10.415-15.2h19.141A26.252,26.252,0,0,0,409.467-.1h-1.689a24.268,24.268,0,0,1-24.49,24.208H362.74a78.695,78.695,0,0,0-19.423-15.2h39.69A9.315,9.315,0,0,0,392.3-.1h-1.689a7.513,7.513,0,0,1-7.6,7.319H339.658A70.379,70.379,0,0,0,312.072-.1h-11.26a81.57,81.57,0,0,0-27.586,7.319H229.877a7.7,7.7,0,0,1-7.6-7.319h-1.689a9.133,9.133,0,0,0,9.289,9.008h39.972a72.576,72.576,0,0,0-19.423,15.2H229.877A24.448,24.448,0,0,1,205.387-.1H203.7a26.07,26.07,0,0,0,26.178,25.9h19.141A72.588,72.588,0,0,0,238.6,41h-8.726A40.552,40.552,0,0,1,188.779.181h-1.689a42.767,42.767,0,0,0,42.786,42.786h7.882a88.868,88.868,0,0,0-5.63,15.2h-2.252A58.085,58.085,0,0,1,171.89.181H170.2a59.466,59.466,0,0,0,59.676,59.394h1.97a86.2,86.2,0,0,0-1.97,15.2h0A74.783,74.783,0,0,1,155,.181h-1.689a75.515,75.515,0,0,0,7.6,32.934V76.465a7.6,7.6,0,0,1-15.2,0V33.116a75.515,75.515,0,0,0,7.6-32.934h-1.689A74.6,74.6,0,0,1,76.747,74.776h0a70.339,70.339,0,0,0-1.97-15.2h1.97A59.647,59.647,0,0,0,136.422.181h-1.689A57.844,57.844,0,0,1,76.747,57.887H74.495a70.219,70.219,0,0,0-5.63-15.2h7.882A42.767,42.767,0,0,0,119.533-.1h-1.689A41.146,41.146,0,0,1,76.747,41H68.02A90.985,90.985,0,0,0,57.605,25.8H76.747A26.252,26.252,0,0,0,102.925-.1h-1.689a24.268,24.268,0,0,1-24.49,24.208H56.2a78.694,78.694,0,0,0-19.423-15.2H76.747A9.315,9.315,0,0,0,86.036-.1H84.347a7.513,7.513,0,0,1-7.6,7.319H33.4A88.4,88.4,0,0,0,5.811.181H.181V1.589A74.843,74.843,0,0,1,75.058,76.465h0a70.338,70.338,0,0,0-15.2,1.97v-1.97A59.706,59.706,0,0,0,.181,16.789v1.689A57.9,57.9,0,0,1,58.168,76.465v2.252a70.22,70.22,0,0,0-15.2,5.63V76.465A42.767,42.767,0,0,0,.181,33.679v1.689a41.146,41.146,0,0,1,41.1,41.1v8.726a90.985,90.985,0,0,0-15.2,10.415V76.465A26.129,26.129,0,0,0-.1,50.287v1.689a24.507,24.507,0,0,1,24.49,24.49V97.014a78.694,78.694,0,0,0-15.2,19.423V76.465A9.372,9.372,0,0,0-.1,67.176v1.689a7.569,7.569,0,0,1,7.6,7.6v43.349A81.857,81.857,0,0,0,.181,153.03h0a77.7,77.7,0,0,0,7.6,33.216V229.6a7.569,7.569,0,0,1-7.6,7.6v1.689A9.372,9.372,0,0,0,9.471,229.6V189.624a72.576,72.576,0,0,0,15.2,19.423V229.6a24.507,24.507,0,0,1-24.49,24.49v1.689A26.129,26.129,0,0,0,26.36,229.6V210.454a72.585,72.585,0,0,0,15.2,10.415V229.6a41.146,41.146,0,0,1-41.1,41.1v1.689A42.767,42.767,0,0,0,43.249,229.6v-7.882a88.87,88.87,0,0,0,15.2,5.63V229.6A57.9,57.9,0,0,1,.463,287.582v1.689A59.706,59.706,0,0,0,60.139,229.6v-1.97a86.2,86.2,0,0,0,15.2,1.97h0A74.843,74.843,0,0,1,.463,304.472v1.689a77.7,77.7,0,0,0,33.216-7.6H77.028a7.6,7.6,0,1,1,0,15.2H33.4a77.7,77.7,0,0,0-33.216-7.6v1.689a74.843,74.843,0,0,1,74.876,74.876h0a70.342,70.342,0,0,0-15.2,1.97v-1.97A59.706,59.706,0,0,0,.181,323.05v1.689a57.9,57.9,0,0,1,57.987,57.987v2.252a70.22,70.22,0,0,0-15.2,5.63v-7.882A42.767,42.767,0,0,0,.181,339.939v1.689a41.146,41.146,0,0,1,41.1,41.1v8.726a90.987,90.987,0,0,0-15.2,10.415V382.726A26.129,26.129,0,0,0-.1,356.547v1.689a24.507,24.507,0,0,1,24.49,24.49v20.549A78.695,78.695,0,0,0,9.189,422.7V382.726A9.372,9.372,0,0,0-.1,373.436v1.689a7.569,7.569,0,0,1,7.6,7.6v43.349A81.857,81.857,0,0,0,.181,459.291h0a77.7,77.7,0,0,0,7.6,33.216v43.349a7.569,7.569,0,0,1-7.6,7.6v1.689a9.372,9.372,0,0,0,9.289-9.289V495.884a72.577,72.577,0,0,0,15.2,19.423v20.549a24.507,24.507,0,0,1-24.49,24.49v1.689A26.129,26.129,0,0,0,26.36,535.856V516.715a72.583,72.583,0,0,0,15.2,10.415v8.726a41.145,41.145,0,0,1-41.1,41.1v1.689a42.767,42.767,0,0,0,42.786-42.786v-7.882a88.871,88.871,0,0,0,15.2,5.63v2.252A57.9,57.9,0,0,1,.463,593.843v1.689a59.706,59.706,0,0,0,59.676-59.676v-1.97a86.206,86.206,0,0,0,15.2,1.97h0C75.058,577.235,41.56,611.014.181,611.014v1.407h5.63A81.57,81.57,0,0,0,33.4,605.1H76.747a7.7,7.7,0,0,1,7.6,7.319h1.689a9.133,9.133,0,0,0-9.289-9.008H36.775a72.574,72.574,0,0,0,19.423-15.2H76.747a24.448,24.448,0,0,1,24.49,24.208h1.689a26.07,26.07,0,0,0-26.179-25.9H57.605a72.59,72.59,0,0,0,10.415-15.2h8.726a40.966,40.966,0,0,1,41.1,41.1h1.689a42.767,42.767,0,0,0-42.786-42.786H68.865a88.872,88.872,0,0,0,5.63-15.2h2.252a57.845,57.845,0,0,1,57.987,57.705h1.689a59.466,59.466,0,0,0-59.676-59.394h-1.97a86.2,86.2,0,0,0,1.97-15.2h0a74.783,74.783,0,0,1,74.876,74.595h1.689a75.515,75.515,0,0,0-7.6-32.934V535.856a7.6,7.6,0,0,1,15.2,0v43.349a76.453,76.453,0,0,0-7.6,32.934H155a74.6,74.6,0,0,1,74.876-74.595h0a70.339,70.339,0,0,0,1.97,15.2h-1.97A59.647,59.647,0,0,0,170.2,612.14h1.689a57.844,57.844,0,0,1,57.987-57.705h2.252a70.216,70.216,0,0,0,5.63,15.2h-7.882a42.767,42.767,0,0,0-42.786,42.786h1.689a41.146,41.146,0,0,1,41.1-41.1H238.6a90.988,90.988,0,0,0,10.415,15.2H229.877a26.252,26.252,0,0,0-26.179,25.9h1.689a24.268,24.268,0,0,1,24.49-24.208h20.549a78.693,78.693,0,0,0,19.423,15.2H229.877a9.315,9.315,0,0,0-9.289,9.008h1.689a7.513,7.513,0,0,1,7.6-7.319h43.349a70.381,70.381,0,0,0,27.586,7.319h11.26a81.57,81.57,0,0,0,27.586-7.319h43.349a7.7,7.7,0,0,1,7.6,7.319H392.3a9.133,9.133,0,0,0-9.289-9.008H343.036a72.574,72.574,0,0,0,19.423-15.2h20.549a24.448,24.448,0,0,1,24.49,24.208h1.689a26.07,26.07,0,0,0-26.178-25.9H363.866a72.591,72.591,0,0,0,10.415-15.2h8.726a40.966,40.966,0,0,1,41.1,41.1h1.689a42.767,42.767,0,0,0-42.786-42.786h-7.882a88.869,88.869,0,0,0,5.63-15.2h2.252a57.845,57.845,0,0,1,57.987,57.705h1.689a59.466,59.466,0,0,0-59.676-59.394h-1.97a86.2,86.2,0,0,0,1.97-15.2h0a74.783,74.783,0,0,1,74.876,74.595h1.689a75.516,75.516,0,0,0-7.6-32.934V535.856a7.6,7.6,0,0,1,15.2,0v43.349a76.453,76.453,0,0,0-7.6,32.934h1.689a74.6,74.6,0,0,1,74.876-74.595h0a70.341,70.341,0,0,0,1.97,15.2h-1.97a59.647,59.647,0,0,0-59.676,59.394h1.689a57.844,57.844,0,0,1,57.987-57.705h2.252a70.221,70.221,0,0,0,5.63,15.2h-7.882a42.767,42.767,0,0,0-42.786,42.786h1.689a41.145,41.145,0,0,1,41.1-41.1h8.726a90.986,90.986,0,0,0,10.415,15.2H536.138a26.252,26.252,0,0,0-26.179,25.9h1.689a24.268,24.268,0,0,1,24.49-24.208h20.549a78.694,78.694,0,0,0,19.423,15.2H536.138a9.315,9.315,0,0,0-9.289,9.008h1.689a7.513,7.513,0,0,1,7.6-7.319h43.349a70.381,70.381,0,0,0,27.586,7.319h10.134a81.57,81.57,0,0,0,27.586-7.319h43.349a7.7,7.7,0,0,1,7.6,7.319h1.689a9.133,9.133,0,0,0-9.289-9.008H648.17a72.573,72.573,0,0,0,19.423-15.2h20.549a24.448,24.448,0,0,1,24.49,24.208h1.689a26.07,26.07,0,0,0-26.179-25.9H669a72.589,72.589,0,0,0,10.415-15.2h8.726a40.966,40.966,0,0,1,41.1,41.1h1.689a42.767,42.767,0,0,0-42.786-42.786H680.26a88.874,88.874,0,0,0,5.63-15.2h2.252a57.845,57.845,0,0,1,57.987,57.705h1.689a59.466,59.466,0,0,0-59.676-59.394h-1.97a86.212,86.212,0,0,0,1.97-15.2h0a74.783,74.783,0,0,1,74.876,74.595h1.689a75.515,75.515,0,0,0-7.6-32.934V535.856a7.6,7.6,0,0,1,15.2,0v43.349a76.453,76.453,0,0,0-7.6,32.934H766.4a74.6,74.6,0,0,1,74.876-74.595h0a70.33,70.33,0,0,0,1.971,15.2h-1.971A59.647,59.647,0,0,0,781.6,612.14h1.689a57.844,57.844,0,0,1,57.987-57.705h2.252a70.218,70.218,0,0,0,5.63,15.2h-7.882a42.767,42.767,0,0,0-42.786,42.786h1.689a41.146,41.146,0,0,1,41.1-41.1H850a90.982,90.982,0,0,0,10.415,15.2H841.272a26.252,26.252,0,0,0-26.178,25.9h1.689a24.268,24.268,0,0,1,24.49-24.208h20.549a78.692,78.692,0,0,0,19.423,15.2H841.272a9.315,9.315,0,0,0-9.289,9.008h1.689a7.513,7.513,0,0,1,7.6-7.319h43.349a70.381,70.381,0,0,0,27.586,7.319h11.26a81.57,81.57,0,0,0,27.586-7.319H994.4a7.7,7.7,0,0,1,7.6,7.319h1.689a9.133,9.133,0,0,0-9.289-9.008H954.431a72.576,72.576,0,0,0,19.423-15.2H994.4a24.448,24.448,0,0,1,24.49,24.208h1.689a26.07,26.07,0,0,0-26.178-25.9H975.261a72.594,72.594,0,0,0,10.415-15.2H994.4a40.966,40.966,0,0,1,41.1,41.1h1.689A42.768,42.768,0,0,0,994.4,569.635h-7.882a88.864,88.864,0,0,0,5.63-15.2H994.4a57.845,57.845,0,0,1,57.987,57.705h1.689A59.466,59.466,0,0,0,994.4,552.745h-1.97a86.2,86.2,0,0,0,1.97-15.2h0a74.783,74.783,0,0,1,74.876,74.595h1.689a75.514,75.514,0,0,0-7.6-32.934V535.856a7.6,7.6,0,0,1,15.2,0v43.349a76.452,76.452,0,0,0-7.6,32.934h1.689a74.6,74.6,0,0,1,74.876-74.595h0a70.337,70.337,0,0,0,1.97,15.2h-1.97a59.647,59.647,0,0,0-59.676,59.394h1.689a57.844,57.844,0,0,1,57.987-57.705h2.252a70.217,70.217,0,0,0,5.63,15.2h-7.882a42.767,42.767,0,0,0-42.786,42.786h1.689a41.146,41.146,0,0,1,41.1-41.1h8.726a90.986,90.986,0,0,0,10.415,15.2h-19.141a26.252,26.252,0,0,0-26.179,25.9h1.689a24.268,24.268,0,0,1,24.49-24.208h20.549a78.694,78.694,0,0,0,19.423,15.2h-39.971a9.315,9.315,0,0,0-9.289,9.008h1.689a7.513,7.513,0,0,1,7.6-7.319h43.349a70.382,70.382,0,0,0,27.586,7.319h10.978a81.57,81.57,0,0,0,27.586-7.319h43.63a7.7,7.7,0,0,1,7.6,7.319h1.689a9.133,9.133,0,0,0-9.289-9.008h-39.972a72.575,72.575,0,0,0,19.423-15.2h20.549a24.448,24.448,0,0,1,24.49,24.208h1.689a26.07,26.07,0,0,0-26.179-25.9h-19.141a72.584,72.584,0,0,0,10.415-15.2h8.726a40.966,40.966,0,0,1,41.1,41.1h1.689a42.768,42.768,0,0,0-42.787-42.786h-7.881a88.869,88.869,0,0,0,5.63-15.2h2.252a57.845,57.845,0,0,1,57.987,57.705h1.689a59.466,59.466,0,0,0-59.676-59.394h-1.97a86.2,86.2,0,0,0,1.97-15.2h0a74.783,74.783,0,0,1,74.876,74.595h1.689a75.515,75.515,0,0,0-7.6-32.934V535.856a7.6,7.6,0,0,1,15.2,0v43.349a76.453,76.453,0,0,0-7.6,32.934h1.689a74.6,74.6,0,0,1,74.876-74.595h0a70.337,70.337,0,0,0,1.97,15.2h-1.97a59.647,59.647,0,0,0-59.676,59.394h1.689a57.844,57.844,0,0,1,57.987-57.705h2.252a70.224,70.224,0,0,0,5.63,15.2h-7.882a42.767,42.767,0,0,0-42.786,42.786h1.689a41.146,41.146,0,0,1,41.1-41.1h8.726a90.979,90.979,0,0,0,10.415,15.2h-19.141a26.252,26.252,0,0,0-26.178,25.9h1.689a24.268,24.268,0,0,1,24.49-24.208h20.549a78.693,78.693,0,0,0,19.423,15.2h-39.972a9.315,9.315,0,0,0-9.289,9.008h1.689a7.514,7.514,0,0,1,7.6-7.319h43.349a70.383,70.383,0,0,0,27.586,7.319h11.259a81.569,81.569,0,0,0,27.586-7.319h43.349a7.7,7.7,0,0,1,7.6,7.319h1.689a9.133,9.133,0,0,0-9.289-9.008h-39.971a72.577,72.577,0,0,0,19.423-15.2h20.549a24.448,24.448,0,0,1,24.49,24.208h1.689a26.07,26.07,0,0,0-26.178-25.9h-19.141a72.588,72.588,0,0,0,10.415-15.2h8.726a40.966,40.966,0,0,1,41.1,41.1h1.689a42.767,42.767,0,0,0-42.786-42.786h-7.882a88.879,88.879,0,0,0,5.63-15.2h2.252a57.844,57.844,0,0,1,57.987,57.705h1.689a59.466,59.466,0,0,0-59.676-59.394h-1.97a86.2,86.2,0,0,0,1.97-15.2h0A74.783,74.783,0,0,1,1681.8,612.14h1.689a75.515,75.515,0,0,0-7.6-32.934V535.856a7.6,7.6,0,0,1,15.2,0v43.349a76.451,76.451,0,0,0-7.6,32.934h1.689a74.6,74.6,0,0,1,74.876-74.595h0a70.322,70.322,0,0,0,1.97,15.2h-1.97a59.647,59.647,0,0,0-59.676,59.394h1.689a57.844,57.844,0,0,1,57.987-57.705h2.252a70.23,70.23,0,0,0,5.63,15.2h-7.882a42.768,42.768,0,0,0-42.786,42.786h1.689a41.146,41.146,0,0,1,41.1-41.1h8.726a90.993,90.993,0,0,0,10.415,15.2h-19.141a26.252,26.252,0,0,0-26.179,25.9h1.689a24.268,24.268,0,0,1,24.49-24.208H1780.6a78.687,78.687,0,0,0,19.423,15.2h-39.971a9.315,9.315,0,0,0-9.289,9.008h1.689a7.513,7.513,0,0,1,7.6-7.319H1803.4a70.381,70.381,0,0,0,27.586,7.319h5.63v-1.407a74.843,74.843,0,0,1-74.876-74.876h0a70.34,70.34,0,0,0,15.2-1.97v1.97a59.706,59.706,0,0,0,59.676,59.676v-1.689a57.9,57.9,0,0,1-57.987-57.987v-2.252a70.218,70.218,0,0,0,15.2-5.63v7.882a42.767,42.767,0,0,0,42.786,42.786v-1.689a41.146,41.146,0,0,1-41.1-41.1v-8.726a90.987,90.987,0,0,0,15.2-10.415v19.141a26.129,26.129,0,0,0,26.179,26.178v-1.97a24.507,24.507,0,0,1-24.49-24.49V515.307a78.7,78.7,0,0,0,15.2-19.423v39.972a9.372,9.372,0,0,0,9.289,9.289v-1.689a7.569,7.569,0,0,1-7.6-7.6V492.788a77.7,77.7,0,0,0,7.6-33.216h0a77.7,77.7,0,0,0-7.6-33.216V383.007a7.569,7.569,0,0,1,7.6-7.6v-1.689a9.372,9.372,0,0,0-9.289,9.289v39.971a72.578,72.578,0,0,0-15.2-19.423V383.007a24.507,24.507,0,0,1,24.49-24.49v-1.689a26.129,26.129,0,0,0-26.179,26.179v19.141a72.589,72.589,0,0,0-15.2-10.415v-8.726a41.146,41.146,0,0,1,41.1-41.1v-1.689a42.767,42.767,0,0,0-42.786,42.786v7.882a88.865,88.865,0,0,0-15.2-5.63v-2.252a57.9,57.9,0,0,1,57.987-57.987v-1.689a59.706,59.706,0,0,0-59.676,59.676v1.97a86.2,86.2,0,0,0-15.2-1.97h0a74.843,74.843,0,0,1,74.876-74.876v-1.689a77.7,77.7,0,0,0-33.216,7.6h-43.349a7.6,7.6,0,1,1,0-15.2H1803.4a77.7,77.7,0,0,0,33.216,7.6v-1.689a74.843,74.843,0,0,1-74.876-74.876h0a70.339,70.339,0,0,0,15.2-1.97v1.97a59.706,59.706,0,0,0,59.676,59.676v-1.689a57.9,57.9,0,0,1-57.987-57.987v-2.252a70.216,70.216,0,0,0,15.2-5.63v7.882a42.767,42.767,0,0,0,42.786,42.786v-1.689a41.145,41.145,0,0,1-41.1-41.1v-8.726a90.988,90.988,0,0,0,15.2-10.415v19.141a26.129,26.129,0,0,0,26.179,26.179v-1.689a24.507,24.507,0,0,1-24.49-24.49V209.328a78.7,78.7,0,0,0,15.2-19.423v39.971a9.372,9.372,0,0,0,9.289,9.289v-1.689a7.569,7.569,0,0,1-7.6-7.6V186.246a77.7,77.7,0,0,0,7.6-33.216h0a77.7,77.7,0,0,0-7.6-33.216V76.465a7.569,7.569,0,0,1,7.6-7.6V67.176a9.372,9.372,0,0,0-9.289,9.289v39.972a72.578,72.578,0,0,0-15.2-19.423V76.465a24.507,24.507,0,0,1,24.49-24.49V50.287a26.129,26.129,0,0,0-26.179,26.179V95.606a72.586,72.586,0,0,0-15.2-10.415V76.465a41.146,41.146,0,0,1,41.1-41.1V33.679a42.767,42.767,0,0,0-42.786,42.786v7.882a88.866,88.866,0,0,0-15.2-5.63V76.465a57.9,57.9,0,0,1,57.987-57.987V16.789a59.706,59.706,0,0,0-59.675,59.676" transform="translate(88.1 3975.1)" fill="#fff"/>
    </g>
  </g>
</svg>
